<svg width="400" height="700" viewBox="0 0 400 700" fill="none" xmlns="http://www.w3.org/2000/svg">
<path d="M400 0H0V700H400V0Z" fill="#1B0B26"/>
<path d="M400 650H0V700H400V650Z" fill="#1E1A21"/>
<path d="M50 658C50 653.582 53.5817 650 58 650H159C163.418 650 167 653.582 167 658V692C167 696.418 163.418 700 159 700H58C53.5817 700 50 696.418 50 692V658Z" fill="#2D2828"/>
<path d="M241.5 658C241.5 653.582 245.082 650 249.5 650H350.5C354.918 650 358.5 653.582 358.5 658V692C358.5 696.418 354.918 700 350.5 700H249.5C245.082 700 241.5 696.418 241.5 692V658Z" fill="#2D2828"/>
<path d="M254.409 681V669.364H261.432V670.614H255.818V674.545H261.068V675.795H255.818V679.75H261.523V681H254.409ZM265.131 675.75V681H263.79V672.273H265.085V673.636H265.199C265.403 673.193 265.714 672.837 266.131 672.568C266.547 672.295 267.085 672.159 267.744 672.159C268.335 672.159 268.852 672.28 269.295 672.523C269.739 672.761 270.083 673.125 270.33 673.614C270.576 674.098 270.699 674.712 270.699 675.455V681H269.358V675.545C269.358 674.86 269.18 674.326 268.824 673.943C268.468 673.557 267.979 673.364 267.358 673.364C266.93 673.364 266.547 673.456 266.21 673.642C265.877 673.828 265.614 674.098 265.42 674.455C265.227 674.811 265.131 675.242 265.131 675.75ZM279.973 672.273L276.746 681H275.382L272.155 672.273H273.609L276.018 679.227H276.109L278.518 672.273H279.973ZM281.743 681V672.273H283.084V681H281.743ZM282.425 670.818C282.163 670.818 281.938 670.729 281.749 670.551C281.563 670.373 281.47 670.159 281.47 669.909C281.47 669.659 281.563 669.445 281.749 669.267C281.938 669.089 282.163 669 282.425 669C282.686 669 282.91 669.089 283.095 669.267C283.285 669.445 283.379 669.659 283.379 669.909C283.379 670.159 283.285 670.373 283.095 670.551C282.91 670.729 282.686 670.818 282.425 670.818ZM288.108 681.205C287.555 681.205 287.053 681.1 286.602 680.892C286.152 680.68 285.794 680.375 285.528 679.977C285.263 679.576 285.131 679.091 285.131 678.523C285.131 678.023 285.229 677.617 285.426 677.307C285.623 676.992 285.886 676.746 286.216 676.568C286.545 676.39 286.909 676.258 287.307 676.17C287.708 676.08 288.112 676.008 288.517 675.955C289.047 675.886 289.477 675.835 289.807 675.801C290.14 675.763 290.383 675.701 290.534 675.614C290.689 675.527 290.767 675.375 290.767 675.159V675.114C290.767 674.553 290.614 674.117 290.307 673.807C290.004 673.496 289.544 673.341 288.926 673.341C288.286 673.341 287.784 673.481 287.42 673.761C287.057 674.042 286.801 674.341 286.653 674.659L285.381 674.205C285.608 673.674 285.911 673.261 286.29 672.966C286.672 672.667 287.089 672.458 287.54 672.341C287.994 672.22 288.441 672.159 288.881 672.159C289.161 672.159 289.483 672.193 289.847 672.261C290.214 672.326 290.568 672.46 290.909 672.665C291.254 672.869 291.54 673.178 291.767 673.591C291.994 674.004 292.108 674.557 292.108 675.25V681H290.767V679.818H290.699C290.608 680.008 290.456 680.21 290.244 680.426C290.032 680.642 289.75 680.826 289.398 680.977C289.045 681.129 288.616 681.205 288.108 681.205ZM288.312 680C288.843 680 289.29 679.896 289.653 679.688C290.021 679.479 290.297 679.21 290.483 678.881C290.672 678.551 290.767 678.205 290.767 677.841V676.614C290.71 676.682 290.585 676.744 290.392 676.801C290.203 676.854 289.983 676.902 289.733 676.943C289.487 676.981 289.246 677.015 289.011 677.045C288.78 677.072 288.593 677.095 288.449 677.114C288.1 677.159 287.775 677.233 287.472 677.335C287.172 677.434 286.93 677.583 286.744 677.784C286.563 677.981 286.472 678.25 286.472 678.591C286.472 679.057 286.644 679.409 286.989 679.648C287.337 679.883 287.778 680 288.312 680ZM294.555 681V672.273H295.851V673.591H295.942C296.101 673.159 296.389 672.809 296.805 672.54C297.222 672.271 297.692 672.136 298.214 672.136C298.313 672.136 298.436 672.138 298.584 672.142C298.732 672.146 298.843 672.152 298.919 672.159V673.523C298.874 673.511 298.769 673.494 298.607 673.472C298.447 673.445 298.279 673.432 298.101 673.432C297.677 673.432 297.298 673.521 296.964 673.699C296.635 673.873 296.374 674.116 296.18 674.426C295.991 674.733 295.896 675.083 295.896 675.477V681H294.555ZM305.668 669.364L309.122 679.159H309.259L312.713 669.364H314.19L309.918 681H308.463L304.19 669.364H305.668ZM315.821 681V672.273H317.162V681H315.821ZM315.889 671.091L317.276 668.455H318.844L317.071 671.091H315.889ZM322.913 681.182C322.186 681.182 321.544 680.998 320.987 680.631C320.43 680.259 319.995 679.737 319.68 679.062C319.366 678.384 319.209 677.583 319.209 676.659C319.209 675.742 319.366 674.947 319.68 674.273C319.995 673.598 320.432 673.078 320.993 672.71C321.554 672.343 322.201 672.159 322.936 672.159C323.504 672.159 323.953 672.254 324.283 672.443C324.616 672.629 324.87 672.841 325.044 673.08C325.222 673.314 325.36 673.508 325.459 673.659H325.572V669.364H326.913V681H325.618V679.659H325.459C325.36 679.818 325.22 680.019 325.038 680.261C324.857 680.5 324.597 680.714 324.26 680.903C323.923 681.089 323.474 681.182 322.913 681.182ZM323.095 679.977C323.633 679.977 324.088 679.837 324.459 679.557C324.83 679.273 325.112 678.881 325.305 678.381C325.499 677.877 325.595 677.295 325.595 676.636C325.595 675.985 325.5 675.415 325.311 674.926C325.122 674.434 324.841 674.051 324.47 673.778C324.099 673.502 323.641 673.364 323.095 673.364C322.527 673.364 322.054 673.509 321.675 673.801C321.3 674.089 321.018 674.481 320.828 674.977C320.643 675.47 320.55 676.023 320.55 676.636C320.55 677.258 320.644 677.822 320.834 678.33C321.027 678.833 321.311 679.235 321.686 679.534C322.065 679.83 322.535 679.977 323.095 679.977ZM333.214 681.182C332.374 681.182 331.648 680.996 331.038 680.625C330.432 680.25 329.964 679.727 329.635 679.057C329.309 678.383 329.146 677.598 329.146 676.705C329.146 675.811 329.309 675.023 329.635 674.341C329.964 673.655 330.423 673.121 331.01 672.739C331.601 672.352 332.29 672.159 333.078 672.159C333.533 672.159 333.982 672.235 334.425 672.386C334.868 672.538 335.271 672.784 335.635 673.125C335.999 673.462 336.288 673.909 336.504 674.466C336.72 675.023 336.828 675.708 336.828 676.523V677.091H330.101V675.932H335.464C335.464 675.439 335.366 675 335.169 674.614C334.976 674.227 334.699 673.922 334.339 673.699C333.983 673.475 333.563 673.364 333.078 673.364C332.544 673.364 332.082 673.496 331.692 673.761C331.305 674.023 331.008 674.364 330.8 674.784C330.591 675.205 330.487 675.655 330.487 676.136V676.909C330.487 677.568 330.601 678.127 330.828 678.585C331.059 679.04 331.379 679.386 331.788 679.625C332.197 679.86 332.673 679.977 333.214 679.977C333.567 679.977 333.885 679.928 334.169 679.83C334.457 679.727 334.705 679.576 334.913 679.375C335.122 679.17 335.283 678.917 335.396 678.614L336.692 678.977C336.555 679.417 336.326 679.803 336.004 680.136C335.682 680.466 335.285 680.723 334.811 680.909C334.338 681.091 333.805 681.182 333.214 681.182ZM342.413 681.182C341.625 681.182 340.934 680.994 340.339 680.619C339.749 680.244 339.286 679.72 338.953 679.045C338.624 678.371 338.459 677.583 338.459 676.682C338.459 675.773 338.624 674.979 338.953 674.301C339.286 673.623 339.749 673.097 340.339 672.722C340.934 672.347 341.625 672.159 342.413 672.159C343.201 672.159 343.891 672.347 344.482 672.722C345.076 673.097 345.538 673.623 345.868 674.301C346.201 674.979 346.368 675.773 346.368 676.682C346.368 677.583 346.201 678.371 345.868 679.045C345.538 679.72 345.076 680.244 344.482 680.619C343.891 680.994 343.201 681.182 342.413 681.182ZM342.413 679.977C343.012 679.977 343.504 679.824 343.891 679.517C344.277 679.21 344.563 678.807 344.749 678.307C344.934 677.807 345.027 677.265 345.027 676.682C345.027 676.098 344.934 675.555 344.749 675.051C344.563 674.547 344.277 674.14 343.891 673.83C343.504 673.519 343.012 673.364 342.413 673.364C341.815 673.364 341.322 673.519 340.936 673.83C340.55 674.14 340.264 674.547 340.078 675.051C339.893 675.555 339.8 676.098 339.8 676.682C339.8 677.265 339.893 677.807 340.078 678.307C340.264 678.807 340.55 679.21 340.936 679.517C341.322 679.824 341.815 679.977 342.413 679.977Z" fill="white"/>
<path d="M60.4091 669.364H62.0909L66.0455 679.023H66.1818L70.1364 669.364H71.8182V681H70.5V672.159H70.3864L66.75 681H65.4773L61.8409 672.159H61.7273V681H60.4091V669.364ZM78.1207 681.182C77.2798 681.182 76.5545 680.996 75.9446 680.625C75.3385 680.25 74.8707 679.727 74.5412 679.057C74.2154 678.383 74.0526 677.598 74.0526 676.705C74.0526 675.811 74.2154 675.023 74.5412 674.341C74.8707 673.655 75.3291 673.121 75.9162 672.739C76.5071 672.352 77.1965 672.159 77.9844 672.159C78.4389 672.159 78.8878 672.235 79.331 672.386C79.7741 672.538 80.1776 672.784 80.5412 673.125C80.9048 673.462 81.1946 673.909 81.4105 674.466C81.6264 675.023 81.7344 675.708 81.7344 676.523V677.091H75.0071V675.932H80.3707C80.3707 675.439 80.2723 675 80.0753 674.614C79.8821 674.227 79.6056 673.922 79.2457 673.699C78.8897 673.475 78.4692 673.364 77.9844 673.364C77.4503 673.364 76.9882 673.496 76.598 673.761C76.2116 674.023 75.9143 674.364 75.706 674.784C75.4976 675.205 75.3935 675.655 75.3935 676.136V676.909C75.3935 677.568 75.5071 678.127 75.7344 678.585C75.9654 679.04 76.2855 679.386 76.6946 679.625C77.1037 679.86 77.5791 679.977 78.1207 679.977C78.473 679.977 78.7912 679.928 79.0753 679.83C79.3632 679.727 79.6113 679.576 79.8196 679.375C80.0279 679.17 80.1889 678.917 80.3026 678.614L81.598 678.977C81.4616 679.417 81.2325 679.803 80.9105 680.136C80.5885 680.466 80.1908 680.723 79.7173 680.909C79.2438 681.091 78.7116 681.182 78.1207 681.182ZM89.2741 677.432V672.273H90.6151V681H89.2741V679.523H89.1832C88.9787 679.966 88.6605 680.343 88.2287 680.653C87.7969 680.96 87.2514 681.114 86.5923 681.114C86.0469 681.114 85.562 680.994 85.1378 680.756C84.7135 680.513 84.3802 680.15 84.1378 679.665C83.8954 679.176 83.7741 678.561 83.7741 677.818V672.273H85.1151V677.727C85.1151 678.364 85.2931 678.871 85.6491 679.25C86.009 679.629 86.4673 679.818 87.0241 679.818C87.3575 679.818 87.6965 679.733 88.0412 679.562C88.3897 679.392 88.6813 679.131 88.9162 678.778C89.1548 678.426 89.2741 677.977 89.2741 677.432ZM99.2528 674.227L98.0483 674.568C97.9725 674.367 97.8608 674.172 97.7131 673.983C97.5691 673.79 97.3722 673.631 97.1222 673.506C96.8722 673.381 96.5521 673.318 96.1619 673.318C95.6278 673.318 95.1828 673.441 94.8267 673.688C94.4744 673.93 94.2983 674.239 94.2983 674.614C94.2983 674.947 94.4195 675.21 94.6619 675.403C94.9044 675.597 95.2831 675.758 95.7983 675.886L97.0938 676.205C97.8741 676.394 98.4555 676.684 98.8381 677.074C99.2206 677.46 99.4119 677.958 99.4119 678.568C99.4119 679.068 99.268 679.515 98.9801 679.909C98.696 680.303 98.2983 680.614 97.7869 680.841C97.2756 681.068 96.6809 681.182 96.0028 681.182C95.1127 681.182 94.3759 680.989 93.7926 680.602C93.2093 680.216 92.84 679.652 92.6847 678.909L93.9574 678.591C94.0786 679.061 94.3078 679.413 94.6449 679.648C94.9858 679.883 95.4309 680 95.9801 680C96.6051 680 97.1013 679.867 97.4688 679.602C97.84 679.333 98.0256 679.011 98.0256 678.636C98.0256 678.333 97.9195 678.08 97.7074 677.875C97.4953 677.667 97.1695 677.511 96.7301 677.409L95.2756 677.068C94.4763 676.879 93.8892 676.585 93.5142 676.188C93.143 675.786 92.9574 675.284 92.9574 674.682C92.9574 674.189 93.0956 673.754 93.3722 673.375C93.6525 672.996 94.0331 672.699 94.5142 672.483C94.9991 672.267 95.5483 672.159 96.1619 672.159C97.0256 672.159 97.7036 672.348 98.196 672.727C98.6922 673.106 99.0445 673.606 99.2528 674.227ZM106.589 669.364L110.044 679.159H110.18L113.635 669.364H115.112L110.839 681H109.385L105.112 669.364H106.589ZM116.743 681V672.273H118.084V681H116.743ZM116.811 671.091L118.197 668.455H119.766L117.993 671.091H116.811ZM123.835 681.182C123.108 681.182 122.466 680.998 121.909 680.631C121.352 680.259 120.917 679.737 120.602 679.062C120.288 678.384 120.131 677.583 120.131 676.659C120.131 675.742 120.288 674.947 120.602 674.273C120.917 673.598 121.354 673.078 121.915 672.71C122.475 672.343 123.123 672.159 123.858 672.159C124.426 672.159 124.875 672.254 125.205 672.443C125.538 672.629 125.792 672.841 125.966 673.08C126.144 673.314 126.282 673.508 126.381 673.659H126.494V669.364H127.835V681H126.54V679.659H126.381C126.282 679.818 126.142 680.019 125.96 680.261C125.778 680.5 125.519 680.714 125.182 680.903C124.845 681.089 124.396 681.182 123.835 681.182ZM124.017 679.977C124.555 679.977 125.009 679.837 125.381 679.557C125.752 679.273 126.034 678.881 126.227 678.381C126.42 677.877 126.517 677.295 126.517 676.636C126.517 675.985 126.422 675.415 126.233 674.926C126.044 674.434 125.763 674.051 125.392 673.778C125.021 673.502 124.563 673.364 124.017 673.364C123.449 673.364 122.975 673.509 122.597 673.801C122.222 674.089 121.939 674.481 121.75 674.977C121.564 675.47 121.472 676.023 121.472 676.636C121.472 677.258 121.566 677.822 121.756 678.33C121.949 678.833 122.233 679.235 122.608 679.534C122.987 679.83 123.456 679.977 124.017 679.977ZM134.136 681.182C133.295 681.182 132.57 680.996 131.96 680.625C131.354 680.25 130.886 679.727 130.557 679.057C130.231 678.383 130.068 677.598 130.068 676.705C130.068 675.811 130.231 675.023 130.557 674.341C130.886 673.655 131.345 673.121 131.932 672.739C132.523 672.352 133.212 672.159 134 672.159C134.455 672.159 134.903 672.235 135.347 672.386C135.79 672.538 136.193 672.784 136.557 673.125C136.92 673.462 137.21 673.909 137.426 674.466C137.642 675.023 137.75 675.708 137.75 676.523V677.091H131.023V675.932H136.386C136.386 675.439 136.288 675 136.091 674.614C135.898 674.227 135.621 673.922 135.261 673.699C134.905 673.475 134.485 673.364 134 673.364C133.466 673.364 133.004 673.496 132.614 673.761C132.227 674.023 131.93 674.364 131.722 674.784C131.513 675.205 131.409 675.655 131.409 676.136V676.909C131.409 677.568 131.523 678.127 131.75 678.585C131.981 679.04 132.301 679.386 132.71 679.625C133.119 679.86 133.595 679.977 134.136 679.977C134.489 679.977 134.807 679.928 135.091 679.83C135.379 679.727 135.627 679.576 135.835 679.375C136.044 679.17 136.205 678.917 136.318 678.614L137.614 678.977C137.477 679.417 137.248 679.803 136.926 680.136C136.604 680.466 136.206 680.723 135.733 680.909C135.259 681.091 134.727 681.182 134.136 681.182ZM143.335 681.182C142.547 681.182 141.856 680.994 141.261 680.619C140.67 680.244 140.208 679.72 139.875 679.045C139.545 678.371 139.381 677.583 139.381 676.682C139.381 675.773 139.545 674.979 139.875 674.301C140.208 673.623 140.67 673.097 141.261 672.722C141.856 672.347 142.547 672.159 143.335 672.159C144.123 672.159 144.813 672.347 145.403 672.722C145.998 673.097 146.46 673.623 146.79 674.301C147.123 674.979 147.29 675.773 147.29 676.682C147.29 677.583 147.123 678.371 146.79 679.045C146.46 679.72 145.998 680.244 145.403 680.619C144.813 680.994 144.123 681.182 143.335 681.182ZM143.335 679.977C143.934 679.977 144.426 679.824 144.812 679.517C145.199 679.21 145.485 678.807 145.67 678.307C145.856 677.807 145.949 677.265 145.949 676.682C145.949 676.098 145.856 675.555 145.67 675.051C145.485 674.547 145.199 674.14 144.812 673.83C144.426 673.519 143.934 673.364 143.335 673.364C142.737 673.364 142.244 673.519 141.858 673.83C141.472 674.14 141.186 674.547 141 675.051C140.814 675.555 140.722 676.098 140.722 676.682C140.722 677.265 140.814 677.807 141 678.307C141.186 678.807 141.472 679.21 141.858 679.517C142.244 679.824 142.737 679.977 143.335 679.977ZM155.518 674.227L154.314 674.568C154.238 674.367 154.126 674.172 153.979 673.983C153.835 673.79 153.638 673.631 153.388 673.506C153.138 673.381 152.818 673.318 152.428 673.318C151.893 673.318 151.448 673.441 151.092 673.688C150.74 673.93 150.564 674.239 150.564 674.614C150.564 674.947 150.685 675.21 150.928 675.403C151.17 675.597 151.549 675.758 152.064 675.886L153.359 676.205C154.14 676.394 154.721 676.684 155.104 677.074C155.486 677.46 155.678 677.958 155.678 678.568C155.678 679.068 155.534 679.515 155.246 679.909C154.962 680.303 154.564 680.614 154.053 680.841C153.541 681.068 152.946 681.182 152.268 681.182C151.378 681.182 150.642 680.989 150.058 680.602C149.475 680.216 149.106 679.652 148.95 678.909L150.223 678.591C150.344 679.061 150.573 679.413 150.911 679.648C151.251 679.883 151.696 680 152.246 680C152.871 680 153.367 679.867 153.734 679.602C154.106 679.333 154.291 679.011 154.291 678.636C154.291 678.333 154.185 678.08 153.973 677.875C153.761 677.667 153.435 677.511 152.996 677.409L151.541 677.068C150.742 676.879 150.155 676.585 149.78 676.188C149.409 675.786 149.223 675.284 149.223 674.682C149.223 674.189 149.361 673.754 149.638 673.375C149.918 672.996 150.299 672.699 150.78 672.483C151.265 672.267 151.814 672.159 152.428 672.159C153.291 672.159 153.969 672.348 154.462 672.727C154.958 673.106 155.31 673.606 155.518 674.227Z" fill="white"/>
<path d="M50 658C50 653.582 53.5817 650 58 650H159C163.418 650 167 653.582 167 658V692C167 696.418 163.418 700 159 700H58C53.5817 700 50 696.418 50 692V658Z" fill="#2D2828"/>
<path d="M241.5 658C241.5 653.582 245.082 650 249.5 650H350.5C354.918 650 358.5 653.582 358.5 658V692C358.5 696.418 354.918 700 350.5 700H249.5C245.082 700 241.5 696.418 241.5 692V658Z" fill="#2D2828"/>
<path d="M254.409 681V669.364H261.432V670.614H255.818V674.545H261.068V675.795H255.818V679.75H261.523V681H254.409ZM265.131 675.75V681H263.79V672.273H265.085V673.636H265.199C265.403 673.193 265.714 672.837 266.131 672.568C266.547 672.295 267.085 672.159 267.744 672.159C268.335 672.159 268.852 672.28 269.295 672.523C269.739 672.761 270.083 673.125 270.33 673.614C270.576 674.098 270.699 674.712 270.699 675.455V681H269.358V675.545C269.358 674.86 269.18 674.326 268.824 673.943C268.468 673.557 267.979 673.364 267.358 673.364C266.93 673.364 266.547 673.456 266.21 673.642C265.877 673.828 265.614 674.098 265.42 674.455C265.227 674.811 265.131 675.242 265.131 675.75ZM279.973 672.273L276.746 681H275.382L272.155 672.273H273.609L276.018 679.227H276.109L278.518 672.273H279.973ZM281.743 681V672.273H283.084V681H281.743ZM282.425 670.818C282.163 670.818 281.938 670.729 281.749 670.551C281.563 670.373 281.47 670.159 281.47 669.909C281.47 669.659 281.563 669.445 281.749 669.267C281.938 669.089 282.163 669 282.425 669C282.686 669 282.91 669.089 283.095 669.267C283.285 669.445 283.379 669.659 283.379 669.909C283.379 670.159 283.285 670.373 283.095 670.551C282.91 670.729 282.686 670.818 282.425 670.818ZM288.108 681.205C287.555 681.205 287.053 681.1 286.602 680.892C286.152 680.68 285.794 680.375 285.528 679.977C285.263 679.576 285.131 679.091 285.131 678.523C285.131 678.023 285.229 677.617 285.426 677.307C285.623 676.992 285.886 676.746 286.216 676.568C286.545 676.39 286.909 676.258 287.307 676.17C287.708 676.08 288.112 676.008 288.517 675.955C289.047 675.886 289.477 675.835 289.807 675.801C290.14 675.763 290.383 675.701 290.534 675.614C290.689 675.527 290.767 675.375 290.767 675.159V675.114C290.767 674.553 290.614 674.117 290.307 673.807C290.004 673.496 289.544 673.341 288.926 673.341C288.286 673.341 287.784 673.481 287.42 673.761C287.057 674.042 286.801 674.341 286.653 674.659L285.381 674.205C285.608 673.674 285.911 673.261 286.29 672.966C286.672 672.667 287.089 672.458 287.54 672.341C287.994 672.22 288.441 672.159 288.881 672.159C289.161 672.159 289.483 672.193 289.847 672.261C290.214 672.326 290.568 672.46 290.909 672.665C291.254 672.869 291.54 673.178 291.767 673.591C291.994 674.004 292.108 674.557 292.108 675.25V681H290.767V679.818H290.699C290.608 680.008 290.456 680.21 290.244 680.426C290.032 680.642 289.75 680.826 289.398 680.977C289.045 681.129 288.616 681.205 288.108 681.205ZM288.312 680C288.843 680 289.29 679.896 289.653 679.688C290.021 679.479 290.297 679.21 290.483 678.881C290.672 678.551 290.767 678.205 290.767 677.841V676.614C290.71 676.682 290.585 676.744 290.392 676.801C290.203 676.854 289.983 676.902 289.733 676.943C289.487 676.981 289.246 677.015 289.011 677.045C288.78 677.072 288.593 677.095 288.449 677.114C288.1 677.159 287.775 677.233 287.472 677.335C287.172 677.434 286.93 677.583 286.744 677.784C286.563 677.981 286.472 678.25 286.472 678.591C286.472 679.057 286.644 679.409 286.989 679.648C287.337 679.883 287.778 680 288.312 680ZM294.555 681V672.273H295.851V673.591H295.942C296.101 673.159 296.389 672.809 296.805 672.54C297.222 672.271 297.692 672.136 298.214 672.136C298.313 672.136 298.436 672.138 298.584 672.142C298.732 672.146 298.843 672.152 298.919 672.159V673.523C298.874 673.511 298.769 673.494 298.607 673.472C298.447 673.445 298.279 673.432 298.101 673.432C297.677 673.432 297.298 673.521 296.964 673.699C296.635 673.873 296.374 674.116 296.18 674.426C295.991 674.733 295.896 675.083 295.896 675.477V681H294.555ZM305.668 669.364L309.122 679.159H309.259L312.713 669.364H314.19L309.918 681H308.463L304.19 669.364H305.668ZM315.821 681V672.273H317.162V681H315.821ZM315.889 671.091L317.276 668.455H318.844L317.071 671.091H315.889ZM322.913 681.182C322.186 681.182 321.544 680.998 320.987 680.631C320.43 680.259 319.995 679.737 319.68 679.062C319.366 678.384 319.209 677.583 319.209 676.659C319.209 675.742 319.366 674.947 319.68 674.273C319.995 673.598 320.432 673.078 320.993 672.71C321.554 672.343 322.201 672.159 322.936 672.159C323.504 672.159 323.953 672.254 324.283 672.443C324.616 672.629 324.87 672.841 325.044 673.08C325.222 673.314 325.36 673.508 325.459 673.659H325.572V669.364H326.913V681H325.618V679.659H325.459C325.36 679.818 325.22 680.019 325.038 680.261C324.857 680.5 324.597 680.714 324.26 680.903C323.923 681.089 323.474 681.182 322.913 681.182ZM323.095 679.977C323.633 679.977 324.088 679.837 324.459 679.557C324.83 679.273 325.112 678.881 325.305 678.381C325.499 677.877 325.595 677.295 325.595 676.636C325.595 675.985 325.5 675.415 325.311 674.926C325.122 674.434 324.841 674.051 324.47 673.778C324.099 673.502 323.641 673.364 323.095 673.364C322.527 673.364 322.054 673.509 321.675 673.801C321.3 674.089 321.018 674.481 320.828 674.977C320.643 675.47 320.55 676.023 320.55 676.636C320.55 677.258 320.644 677.822 320.834 678.33C321.027 678.833 321.311 679.235 321.686 679.534C322.065 679.83 322.535 679.977 323.095 679.977ZM333.214 681.182C332.374 681.182 331.648 680.996 331.038 680.625C330.432 680.25 329.964 679.727 329.635 679.057C329.309 678.383 329.146 677.598 329.146 676.705C329.146 675.811 329.309 675.023 329.635 674.341C329.964 673.655 330.423 673.121 331.01 672.739C331.601 672.352 332.29 672.159 333.078 672.159C333.533 672.159 333.982 672.235 334.425 672.386C334.868 672.538 335.271 672.784 335.635 673.125C335.999 673.462 336.288 673.909 336.504 674.466C336.72 675.023 336.828 675.708 336.828 676.523V677.091H330.101V675.932H335.464C335.464 675.439 335.366 675 335.169 674.614C334.976 674.227 334.699 673.922 334.339 673.699C333.983 673.475 333.563 673.364 333.078 673.364C332.544 673.364 332.082 673.496 331.692 673.761C331.305 674.023 331.008 674.364 330.8 674.784C330.591 675.205 330.487 675.655 330.487 676.136V676.909C330.487 677.568 330.601 678.127 330.828 678.585C331.059 679.04 331.379 679.386 331.788 679.625C332.197 679.86 332.673 679.977 333.214 679.977C333.567 679.977 333.885 679.928 334.169 679.83C334.457 679.727 334.705 679.576 334.913 679.375C335.122 679.17 335.283 678.917 335.396 678.614L336.692 678.977C336.555 679.417 336.326 679.803 336.004 680.136C335.682 680.466 335.285 680.723 334.811 680.909C334.338 681.091 333.805 681.182 333.214 681.182ZM342.413 681.182C341.625 681.182 340.934 680.994 340.339 680.619C339.749 680.244 339.286 679.72 338.953 679.045C338.624 678.371 338.459 677.583 338.459 676.682C338.459 675.773 338.624 674.979 338.953 674.301C339.286 673.623 339.749 673.097 340.339 672.722C340.934 672.347 341.625 672.159 342.413 672.159C343.201 672.159 343.891 672.347 344.482 672.722C345.076 673.097 345.538 673.623 345.868 674.301C346.201 674.979 346.368 675.773 346.368 676.682C346.368 677.583 346.201 678.371 345.868 679.045C345.538 679.72 345.076 680.244 344.482 680.619C343.891 680.994 343.201 681.182 342.413 681.182ZM342.413 679.977C343.012 679.977 343.504 679.824 343.891 679.517C344.277 679.21 344.563 678.807 344.749 678.307C344.934 677.807 345.027 677.265 345.027 676.682C345.027 676.098 344.934 675.555 344.749 675.051C344.563 674.547 344.277 674.14 343.891 673.83C343.504 673.519 343.012 673.364 342.413 673.364C341.815 673.364 341.322 673.519 340.936 673.83C340.55 674.14 340.264 674.547 340.078 675.051C339.893 675.555 339.8 676.098 339.8 676.682C339.8 677.265 339.893 677.807 340.078 678.307C340.264 678.807 340.55 679.21 340.936 679.517C341.322 679.824 341.815 679.977 342.413 679.977Z" fill="white"/>
<path d="M60.4091 669.364H62.0909L66.0455 679.023H66.1818L70.1364 669.364H71.8182V681H70.5V672.159H70.3864L66.75 681H65.4773L61.8409 672.159H61.7273V681H60.4091V669.364ZM78.1207 681.182C77.2798 681.182 76.5545 680.996 75.9446 680.625C75.3385 680.25 74.8707 679.727 74.5412 679.057C74.2154 678.383 74.0526 677.598 74.0526 676.705C74.0526 675.811 74.2154 675.023 74.5412 674.341C74.8707 673.655 75.3291 673.121 75.9162 672.739C76.5071 672.352 77.1965 672.159 77.9844 672.159C78.4389 672.159 78.8878 672.235 79.331 672.386C79.7741 672.538 80.1776 672.784 80.5412 673.125C80.9048 673.462 81.1946 673.909 81.4105 674.466C81.6264 675.023 81.7344 675.708 81.7344 676.523V677.091H75.0071V675.932H80.3707C80.3707 675.439 80.2723 675 80.0753 674.614C79.8821 674.227 79.6056 673.922 79.2457 673.699C78.8897 673.475 78.4692 673.364 77.9844 673.364C77.4503 673.364 76.9882 673.496 76.598 673.761C76.2116 674.023 75.9143 674.364 75.706 674.784C75.4976 675.205 75.3935 675.655 75.3935 676.136V676.909C75.3935 677.568 75.5071 678.127 75.7344 678.585C75.9654 679.04 76.2855 679.386 76.6946 679.625C77.1037 679.86 77.5791 679.977 78.1207 679.977C78.473 679.977 78.7912 679.928 79.0753 679.83C79.3632 679.727 79.6113 679.576 79.8196 679.375C80.0279 679.17 80.1889 678.917 80.3026 678.614L81.598 678.977C81.4616 679.417 81.2325 679.803 80.9105 680.136C80.5885 680.466 80.1908 680.723 79.7173 680.909C79.2438 681.091 78.7116 681.182 78.1207 681.182ZM89.2741 677.432V672.273H90.6151V681H89.2741V679.523H89.1832C88.9787 679.966 88.6605 680.343 88.2287 680.653C87.7969 680.96 87.2514 681.114 86.5923 681.114C86.0469 681.114 85.562 680.994 85.1378 680.756C84.7135 680.513 84.3802 680.15 84.1378 679.665C83.8954 679.176 83.7741 678.561 83.7741 677.818V672.273H85.1151V677.727C85.1151 678.364 85.2931 678.871 85.6491 679.25C86.009 679.629 86.4673 679.818 87.0241 679.818C87.3575 679.818 87.6965 679.733 88.0412 679.562C88.3897 679.392 88.6813 679.131 88.9162 678.778C89.1548 678.426 89.2741 677.977 89.2741 677.432ZM99.2528 674.227L98.0483 674.568C97.9725 674.367 97.8608 674.172 97.7131 673.983C97.5691 673.79 97.3722 673.631 97.1222 673.506C96.8722 673.381 96.5521 673.318 96.1619 673.318C95.6278 673.318 95.1828 673.441 94.8267 673.688C94.4744 673.93 94.2983 674.239 94.2983 674.614C94.2983 674.947 94.4195 675.21 94.6619 675.403C94.9044 675.597 95.2831 675.758 95.7983 675.886L97.0938 676.205C97.8741 676.394 98.4555 676.684 98.8381 677.074C99.2206 677.46 99.4119 677.958 99.4119 678.568C99.4119 679.068 99.268 679.515 98.9801 679.909C98.696 680.303 98.2983 680.614 97.7869 680.841C97.2756 681.068 96.6809 681.182 96.0028 681.182C95.1127 681.182 94.3759 680.989 93.7926 680.602C93.2093 680.216 92.84 679.652 92.6847 678.909L93.9574 678.591C94.0786 679.061 94.3078 679.413 94.6449 679.648C94.9858 679.883 95.4309 680 95.9801 680C96.6051 680 97.1013 679.867 97.4688 679.602C97.84 679.333 98.0256 679.011 98.0256 678.636C98.0256 678.333 97.9195 678.08 97.7074 677.875C97.4953 677.667 97.1695 677.511 96.7301 677.409L95.2756 677.068C94.4763 676.879 93.8892 676.585 93.5142 676.188C93.143 675.786 92.9574 675.284 92.9574 674.682C92.9574 674.189 93.0956 673.754 93.3722 673.375C93.6525 672.996 94.0331 672.699 94.5142 672.483C94.9991 672.267 95.5483 672.159 96.1619 672.159C97.0256 672.159 97.7036 672.348 98.196 672.727C98.6922 673.106 99.0445 673.606 99.2528 674.227ZM106.589 669.364L110.044 679.159H110.18L113.635 669.364H115.112L110.839 681H109.385L105.112 669.364H106.589ZM116.743 681V672.273H118.084V681H116.743ZM116.811 671.091L118.197 668.455H119.766L117.993 671.091H116.811ZM123.835 681.182C123.108 681.182 122.466 680.998 121.909 680.631C121.352 680.259 120.917 679.737 120.602 679.062C120.288 678.384 120.131 677.583 120.131 676.659C120.131 675.742 120.288 674.947 120.602 674.273C120.917 673.598 121.354 673.078 121.915 672.71C122.475 672.343 123.123 672.159 123.858 672.159C124.426 672.159 124.875 672.254 125.205 672.443C125.538 672.629 125.792 672.841 125.966 673.08C126.144 673.314 126.282 673.508 126.381 673.659H126.494V669.364H127.835V681H126.54V679.659H126.381C126.282 679.818 126.142 680.019 125.96 680.261C125.778 680.5 125.519 680.714 125.182 680.903C124.845 681.089 124.396 681.182 123.835 681.182ZM124.017 679.977C124.555 679.977 125.009 679.837 125.381 679.557C125.752 679.273 126.034 678.881 126.227 678.381C126.42 677.877 126.517 677.295 126.517 676.636C126.517 675.985 126.422 675.415 126.233 674.926C126.044 674.434 125.763 674.051 125.392 673.778C125.021 673.502 124.563 673.364 124.017 673.364C123.449 673.364 122.975 673.509 122.597 673.801C122.222 674.089 121.939 674.481 121.75 674.977C121.564 675.47 121.472 676.023 121.472 676.636C121.472 677.258 121.566 677.822 121.756 678.33C121.949 678.833 122.233 679.235 122.608 679.534C122.987 679.83 123.456 679.977 124.017 679.977ZM134.136 681.182C133.295 681.182 132.57 680.996 131.96 680.625C131.354 680.25 130.886 679.727 130.557 679.057C130.231 678.383 130.068 677.598 130.068 676.705C130.068 675.811 130.231 675.023 130.557 674.341C130.886 673.655 131.345 673.121 131.932 672.739C132.523 672.352 133.212 672.159 134 672.159C134.455 672.159 134.903 672.235 135.347 672.386C135.79 672.538 136.193 672.784 136.557 673.125C136.92 673.462 137.21 673.909 137.426 674.466C137.642 675.023 137.75 675.708 137.75 676.523V677.091H131.023V675.932H136.386C136.386 675.439 136.288 675 136.091 674.614C135.898 674.227 135.621 673.922 135.261 673.699C134.905 673.475 134.485 673.364 134 673.364C133.466 673.364 133.004 673.496 132.614 673.761C132.227 674.023 131.93 674.364 131.722 674.784C131.513 675.205 131.409 675.655 131.409 676.136V676.909C131.409 677.568 131.523 678.127 131.75 678.585C131.981 679.04 132.301 679.386 132.71 679.625C133.119 679.86 133.595 679.977 134.136 679.977C134.489 679.977 134.807 679.928 135.091 679.83C135.379 679.727 135.627 679.576 135.835 679.375C136.044 679.17 136.205 678.917 136.318 678.614L137.614 678.977C137.477 679.417 137.248 679.803 136.926 680.136C136.604 680.466 136.206 680.723 135.733 680.909C135.259 681.091 134.727 681.182 134.136 681.182ZM143.335 681.182C142.547 681.182 141.856 680.994 141.261 680.619C140.67 680.244 140.208 679.72 139.875 679.045C139.545 678.371 139.381 677.583 139.381 676.682C139.381 675.773 139.545 674.979 139.875 674.301C140.208 673.623 140.67 673.097 141.261 672.722C141.856 672.347 142.547 672.159 143.335 672.159C144.123 672.159 144.813 672.347 145.403 672.722C145.998 673.097 146.46 673.623 146.79 674.301C147.123 674.979 147.29 675.773 147.29 676.682C147.29 677.583 147.123 678.371 146.79 679.045C146.46 679.72 145.998 680.244 145.403 680.619C144.813 680.994 144.123 681.182 143.335 681.182ZM143.335 679.977C143.934 679.977 144.426 679.824 144.812 679.517C145.199 679.21 145.485 678.807 145.67 678.307C145.856 677.807 145.949 677.265 145.949 676.682C145.949 676.098 145.856 675.555 145.67 675.051C145.485 674.547 145.199 674.14 144.812 673.83C144.426 673.519 143.934 673.364 143.335 673.364C142.737 673.364 142.244 673.519 141.858 673.83C141.472 674.14 141.186 674.547 141 675.051C140.814 675.555 140.722 676.098 140.722 676.682C140.722 677.265 140.814 677.807 141 678.307C141.186 678.807 141.472 679.21 141.858 679.517C142.244 679.824 142.737 679.977 143.335 679.977ZM155.518 674.227L154.314 674.568C154.238 674.367 154.126 674.172 153.979 673.983C153.835 673.79 153.638 673.631 153.388 673.506C153.138 673.381 152.818 673.318 152.428 673.318C151.893 673.318 151.448 673.441 151.092 673.688C150.74 673.93 150.564 674.239 150.564 674.614C150.564 674.947 150.685 675.21 150.928 675.403C151.17 675.597 151.549 675.758 152.064 675.886L153.359 676.205C154.14 676.394 154.721 676.684 155.104 677.074C155.486 677.46 155.678 677.958 155.678 678.568C155.678 679.068 155.534 679.515 155.246 679.909C154.962 680.303 154.564 680.614 154.053 680.841C153.541 681.068 152.946 681.182 152.268 681.182C151.378 681.182 150.642 680.989 150.058 680.602C149.475 680.216 149.106 679.652 148.95 678.909L150.223 678.591C150.344 679.061 150.573 679.413 150.911 679.648C151.251 679.883 151.696 680 152.246 680C152.871 680 153.367 679.867 153.734 679.602C154.106 679.333 154.291 679.011 154.291 678.636C154.291 678.333 154.185 678.08 153.973 677.875C153.761 677.667 153.435 677.511 152.996 677.409L151.541 677.068C150.742 676.879 150.155 676.585 149.78 676.188C149.409 675.786 149.223 675.284 149.223 674.682C149.223 674.189 149.361 673.754 149.638 673.375C149.918 672.996 150.299 672.699 150.78 672.483C151.265 672.267 151.814 672.159 152.428 672.159C153.291 672.159 153.969 672.348 154.462 672.727C154.958 673.106 155.31 673.606 155.518 674.227Z" fill="white"/>
<path d="M400 0H0V50H400V0Z" fill="#1E1A21"/>
<rect x="314" width="86" height="50" rx="8" fill="#2D2828"/>
<path d="M337.409 31V19.3636H338.818V29.75H344.227V31H337.409ZM349.773 31.1818C348.985 31.1818 348.294 30.9943 347.699 30.6193C347.108 30.2443 346.646 29.7197 346.312 29.0455C345.983 28.3712 345.818 27.5833 345.818 26.6818C345.818 25.7727 345.983 24.9792 346.312 24.3011C346.646 23.6231 347.108 23.0966 347.699 22.7216C348.294 22.3466 348.985 22.1591 349.773 22.1591C350.561 22.1591 351.25 22.3466 351.841 22.7216C352.436 23.0966 352.898 23.6231 353.227 24.3011C353.561 24.9792 353.727 25.7727 353.727 26.6818C353.727 27.5833 353.561 28.3712 353.227 29.0455C352.898 29.7197 352.436 30.2443 351.841 30.6193C351.25 30.9943 350.561 31.1818 349.773 31.1818ZM349.773 29.9773C350.371 29.9773 350.864 29.8239 351.25 29.517C351.636 29.2102 351.922 28.8068 352.108 28.3068C352.294 27.8068 352.386 27.2652 352.386 26.6818C352.386 26.0985 352.294 25.5549 352.108 25.0511C351.922 24.5473 351.636 24.1402 351.25 23.8295C350.864 23.5189 350.371 23.3636 349.773 23.3636C349.174 23.3636 348.682 23.5189 348.295 23.8295C347.909 24.1402 347.623 24.5473 347.438 25.0511C347.252 25.5549 347.159 26.0985 347.159 26.6818C347.159 27.2652 347.252 27.8068 347.438 28.3068C347.623 28.8068 347.909 29.2102 348.295 29.517C348.682 29.8239 349.174 29.9773 349.773 29.9773ZM359.297 34.4545C358.649 34.4545 358.092 34.3712 357.626 34.2045C357.161 34.0417 356.772 33.8258 356.462 33.5568C356.155 33.2917 355.911 33.0076 355.729 32.7045L356.797 31.9545C356.918 32.1136 357.071 32.2955 357.257 32.5C357.443 32.7083 357.696 32.8883 358.018 33.0398C358.344 33.1951 358.77 33.2727 359.297 33.2727C360.001 33.2727 360.583 33.1023 361.041 32.7614C361.5 32.4205 361.729 31.8864 361.729 31.1591V29.3864H361.615C361.517 29.5455 361.376 29.7424 361.195 29.9773C361.017 30.2083 360.759 30.4148 360.422 30.5966C360.089 30.7746 359.638 30.8636 359.07 30.8636C358.365 30.8636 357.732 30.697 357.172 30.3636C356.615 30.0303 356.174 29.5455 355.848 28.9091C355.526 28.2727 355.365 27.5 355.365 26.5909C355.365 25.697 355.522 24.9186 355.837 24.2557C356.151 23.589 356.589 23.0739 357.149 22.7102C357.71 22.3428 358.357 22.1591 359.092 22.1591C359.661 22.1591 360.111 22.2538 360.445 22.4432C360.782 22.6288 361.039 22.8409 361.217 23.0795C361.399 23.3144 361.539 23.5076 361.638 23.6591H361.774V22.2727H363.07V31.25C363.07 32 362.899 32.6098 362.558 33.0795C362.221 33.553 361.767 33.8996 361.195 34.1193C360.626 34.3428 359.994 34.4545 359.297 34.4545ZM359.251 29.6591C359.789 29.6591 360.244 29.536 360.615 29.2898C360.986 29.0436 361.268 28.6894 361.462 28.2273C361.655 27.7652 361.751 27.2121 361.751 26.5682C361.751 25.9394 361.657 25.3845 361.467 24.9034C361.278 24.4223 360.998 24.0455 360.626 23.7727C360.255 23.5 359.797 23.3636 359.251 23.3636C358.683 23.3636 358.21 23.5076 357.831 23.7955C357.456 24.0833 357.174 24.4697 356.984 24.9545C356.799 25.4394 356.706 25.9773 356.706 26.5682C356.706 27.1742 356.801 27.7102 356.99 28.1761C357.183 28.6383 357.467 29.0019 357.842 29.267C358.221 29.5284 358.691 29.6591 359.251 29.6591ZM365.524 31V22.2727H366.865V31H365.524ZM366.206 20.8182C365.945 20.8182 365.719 20.7292 365.53 20.5511C365.344 20.3731 365.251 20.1591 365.251 19.9091C365.251 19.6591 365.344 19.4451 365.53 19.267C365.719 19.089 365.945 19 366.206 19C366.467 19 366.691 19.089 366.876 19.267C367.066 19.4451 367.161 19.6591 367.161 19.9091C367.161 20.1591 367.066 20.3731 366.876 20.5511C366.691 20.7292 366.467 20.8182 366.206 20.8182ZM370.662 25.75V31H369.321V22.2727H370.616V23.6364H370.73C370.935 23.1932 371.245 22.8371 371.662 22.5682C372.079 22.2955 372.616 22.1591 373.276 22.1591C373.866 22.1591 374.384 22.2803 374.827 22.5227C375.27 22.7614 375.615 23.125 375.861 23.6136C376.107 24.0985 376.23 24.7121 376.23 25.4545V31H374.889V25.5455C374.889 24.8598 374.711 24.3258 374.355 23.9432C373.999 23.5568 373.51 23.3636 372.889 23.3636C372.461 23.3636 372.079 23.4564 371.741 23.642C371.408 23.8277 371.145 24.0985 370.952 24.4545C370.759 24.8106 370.662 25.2424 370.662 25.75Z" fill="white"/>
<path d="M16.8864 17.3636L20.3409 27.1591H20.4773L23.9318 17.3636H25.4091L21.1364 29H19.6818L15.4091 17.3636H16.8864ZM27.0398 29V20.2727H28.3807V29H27.0398ZM27.7216 18.8182C27.4602 18.8182 27.2348 18.7292 27.0455 18.5511C26.8598 18.3731 26.767 18.1591 26.767 17.9091C26.767 17.6591 26.8598 17.4451 27.0455 17.267C27.2348 17.089 27.4602 17 27.7216 17C27.983 17 28.2064 17.089 28.392 17.267C28.5814 17.4451 28.6761 17.6591 28.6761 17.9091C28.6761 18.1591 28.5814 18.3731 28.392 18.5511C28.2064 18.7292 27.983 18.8182 27.7216 18.8182ZM34.1321 29.1818C33.4048 29.1818 32.7628 28.9981 32.206 28.6307C31.6491 28.2595 31.2135 27.7367 30.8991 27.0625C30.5848 26.3845 30.4276 25.5833 30.4276 24.6591C30.4276 23.7424 30.5848 22.947 30.8991 22.2727C31.2135 21.5985 31.651 21.0777 32.2116 20.7102C32.7723 20.3428 33.42 20.1591 34.1548 20.1591C34.723 20.1591 35.1719 20.2538 35.5014 20.4432C35.8348 20.6288 36.0885 20.8409 36.2628 21.0795C36.4408 21.3144 36.5791 21.5076 36.6776 21.6591H36.7912V17.3636H38.1321V29H36.8366V27.6591H36.6776C36.5791 27.8182 36.4389 28.0189 36.2571 28.2614C36.0753 28.5 35.8158 28.714 35.4787 28.9034C35.1416 29.089 34.6927 29.1818 34.1321 29.1818ZM34.3139 27.9773C34.8518 27.9773 35.3063 27.8371 35.6776 27.5568C36.0488 27.2727 36.331 26.8807 36.5241 26.3807C36.7173 25.8769 36.8139 25.2955 36.8139 24.6364C36.8139 23.9848 36.7192 23.4148 36.5298 22.9261C36.3404 22.4337 36.0601 22.0511 35.6889 21.7784C35.3177 21.5019 34.8594 21.3636 34.3139 21.3636C33.7457 21.3636 33.2723 21.5095 32.8935 21.8011C32.5185 22.089 32.2363 22.4811 32.0469 22.9773C31.8613 23.4697 31.7685 24.0227 31.7685 24.6364C31.7685 25.2576 31.8632 25.822 32.0526 26.3295C32.2457 26.8333 32.5298 27.2348 32.9048 27.5341C33.2836 27.8295 33.7533 27.9773 34.3139 27.9773ZM44.4332 29.1818C43.5923 29.1818 42.867 28.9962 42.2571 28.625C41.651 28.25 41.1832 27.7273 40.8537 27.0568C40.5279 26.3826 40.3651 25.5985 40.3651 24.7045C40.3651 23.8106 40.5279 23.0227 40.8537 22.3409C41.1832 21.6553 41.6416 21.1212 42.2287 20.7386C42.8196 20.3523 43.509 20.1591 44.2969 20.1591C44.7514 20.1591 45.2003 20.2348 45.6435 20.3864C46.0866 20.5379 46.4901 20.7841 46.8537 21.125C47.2173 21.4621 47.5071 21.9091 47.723 22.4659C47.9389 23.0227 48.0469 23.7083 48.0469 24.5227V25.0909H41.3196V23.9318H46.6832C46.6832 23.4394 46.5848 23 46.3878 22.6136C46.1946 22.2273 45.9181 21.9223 45.5582 21.6989C45.2022 21.4754 44.7817 21.3636 44.2969 21.3636C43.7628 21.3636 43.3007 21.4962 42.9105 21.7614C42.5241 22.0227 42.2268 22.3636 42.0185 22.7841C41.8101 23.2045 41.706 23.6553 41.706 24.1364V24.9091C41.706 25.5682 41.8196 26.1269 42.0469 26.5852C42.2779 27.0398 42.598 27.3864 43.0071 27.625C43.4162 27.8598 43.8916 27.9773 44.4332 27.9773C44.7855 27.9773 45.1037 27.928 45.3878 27.8295C45.6757 27.7273 45.9238 27.5758 46.1321 27.375C46.3404 27.1705 46.5014 26.9167 46.6151 26.6136L47.9105 26.9773C47.7741 27.4167 47.545 27.803 47.223 28.1364C46.901 28.4659 46.5033 28.7235 46.0298 28.9091C45.5563 29.0909 45.0241 29.1818 44.4332 29.1818ZM53.6321 29.1818C52.8442 29.1818 52.1529 28.9943 51.5582 28.6193C50.9673 28.2443 50.5052 27.7197 50.1719 27.0455C49.8423 26.3712 49.6776 25.5833 49.6776 24.6818C49.6776 23.7727 49.8423 22.9792 50.1719 22.3011C50.5052 21.6231 50.9673 21.0966 51.5582 20.7216C52.1529 20.3466 52.8442 20.1591 53.6321 20.1591C54.42 20.1591 55.1094 20.3466 55.7003 20.7216C56.295 21.0966 56.7571 21.6231 57.0866 22.3011C57.42 22.9792 57.5866 23.7727 57.5866 24.6818C57.5866 25.5833 57.42 26.3712 57.0866 27.0455C56.7571 27.7197 56.295 28.2443 55.7003 28.6193C55.1094 28.9943 54.42 29.1818 53.6321 29.1818ZM53.6321 27.9773C54.2306 27.9773 54.723 27.8239 55.1094 27.517C55.4957 27.2102 55.7817 26.8068 55.9673 26.3068C56.1529 25.8068 56.2457 25.2652 56.2457 24.6818C56.2457 24.0985 56.1529 23.5549 55.9673 23.0511C55.7817 22.5473 55.4957 22.1402 55.1094 21.8295C54.723 21.5189 54.2306 21.3636 53.6321 21.3636C53.0336 21.3636 52.5412 21.5189 52.1548 21.8295C51.7685 22.1402 51.4825 22.5473 51.2969 23.0511C51.1113 23.5549 51.0185 24.0985 51.0185 24.6818C51.0185 25.2652 51.1113 25.8068 51.2969 26.3068C51.4825 26.8068 51.7685 27.2102 52.1548 27.517C52.5412 27.8239 53.0336 27.9773 53.6321 27.9773ZM70.679 20.2727C70.6108 19.697 70.3343 19.25 69.8494 18.9318C69.3646 18.6136 68.7699 18.4545 68.0653 18.4545C67.5502 18.4545 67.0994 18.5379 66.7131 18.7045C66.3305 18.8712 66.0313 19.1004 65.8153 19.392C65.6032 19.6837 65.4972 20.0152 65.4972 20.3864C65.4972 20.697 65.571 20.964 65.7188 21.1875C65.8703 21.4072 66.0634 21.5909 66.2983 21.7386C66.5331 21.8826 66.7794 22.0019 67.0369 22.0966C67.2945 22.1875 67.5312 22.2614 67.7472 22.3182L68.929 22.6364C69.232 22.7159 69.5691 22.8258 69.9403 22.9659C70.3153 23.1061 70.6733 23.2973 71.0142 23.5398C71.3589 23.7784 71.643 24.0852 71.8665 24.4602C72.09 24.8352 72.2017 25.2955 72.2017 25.8409C72.2017 26.4697 72.0369 27.0379 71.7074 27.5455C71.3816 28.053 70.9044 28.4564 70.2756 28.7557C69.6506 29.0549 68.8911 29.2045 67.9972 29.2045C67.1638 29.2045 66.4422 29.0701 65.8324 28.8011C65.2263 28.5322 64.7491 28.1572 64.4006 27.6761C64.0559 27.1951 63.8608 26.6364 63.8153 26H65.2699C65.3078 26.4394 65.4555 26.803 65.7131 27.0909C65.9744 27.375 66.304 27.5871 66.7017 27.7273C67.1032 27.8636 67.535 27.9318 67.9972 27.9318C68.535 27.9318 69.018 27.8447 69.446 27.6705C69.8741 27.4924 70.2131 27.2462 70.4631 26.9318C70.7131 26.6136 70.8381 26.2424 70.8381 25.8182C70.8381 25.4318 70.7301 25.1174 70.5142 24.875C70.2983 24.6326 70.0142 24.4356 69.6619 24.2841C69.3097 24.1326 68.929 24 68.5199 23.8864L67.0881 23.4773C66.179 23.2159 65.4593 22.8428 64.929 22.358C64.3987 21.8731 64.1335 21.2386 64.1335 20.4545C64.1335 19.803 64.3097 19.2348 64.6619 18.75C65.018 18.2614 65.4953 17.8826 66.0938 17.6136C66.696 17.3409 67.3684 17.2045 68.1108 17.2045C68.8608 17.2045 69.5275 17.339 70.1108 17.608C70.6941 17.8731 71.1563 18.2367 71.4972 18.6989C71.8419 19.161 72.0237 19.6856 72.0426 20.2727H70.679ZM75.6776 23.75V29H74.3366V17.3636H75.6776V21.6364H75.7912C75.9957 21.1856 76.3026 20.8277 76.7116 20.5625C77.1245 20.2936 77.6738 20.1591 78.3594 20.1591C78.9541 20.1591 79.4749 20.2784 79.9219 20.517C80.3688 20.7519 80.7154 21.1136 80.9616 21.6023C81.2116 22.0871 81.3366 22.7045 81.3366 23.4545V29H79.9957V23.5455C79.9957 22.8523 79.8158 22.3163 79.456 21.9375C79.0999 21.5549 78.6056 21.3636 77.973 21.3636C77.5336 21.3636 77.1397 21.4564 76.7912 21.642C76.4465 21.8277 76.1738 22.0985 75.973 22.4545C75.776 22.8106 75.6776 23.2424 75.6776 23.75ZM86.358 29.2045C85.8049 29.2045 85.303 29.1004 84.8523 28.892C84.4015 28.6799 84.0436 28.375 83.7784 27.9773C83.5133 27.5758 83.3807 27.0909 83.3807 26.5227C83.3807 26.0227 83.4792 25.6174 83.6761 25.3068C83.8731 24.9924 84.1364 24.7462 84.4659 24.5682C84.7955 24.3902 85.1591 24.2576 85.5568 24.1705C85.9583 24.0795 86.3617 24.0076 86.767 23.9545C87.2973 23.8864 87.7273 23.8352 88.0568 23.8011C88.3902 23.7633 88.6326 23.7008 88.7841 23.6136C88.9394 23.5265 89.017 23.375 89.017 23.1591V23.1136C89.017 22.553 88.8636 22.1174 88.5568 21.8068C88.2538 21.4962 87.7936 21.3409 87.1761 21.3409C86.536 21.3409 86.0341 21.4811 85.6705 21.7614C85.3068 22.0417 85.0511 22.3409 84.9034 22.6591L83.6307 22.2045C83.858 21.6742 84.161 21.2614 84.5398 20.9659C84.9223 20.6667 85.339 20.4583 85.7898 20.3409C86.2443 20.2197 86.6913 20.1591 87.1307 20.1591C87.411 20.1591 87.733 20.1932 88.0966 20.2614C88.464 20.3258 88.8182 20.4602 89.1591 20.6648C89.5038 20.8693 89.7898 21.178 90.017 21.5909C90.2443 22.0038 90.358 22.5568 90.358 23.25V29H89.017V27.8182H88.9489C88.858 28.0076 88.7064 28.2102 88.4943 28.4261C88.2822 28.642 88 28.8258 87.6477 28.9773C87.2955 29.1288 86.8655 29.2045 86.358 29.2045ZM86.5625 28C87.0928 28 87.5398 27.8958 87.9034 27.6875C88.2708 27.4792 88.5473 27.2102 88.733 26.8807C88.9223 26.5511 89.017 26.2045 89.017 25.8409V24.6136C88.9602 24.6818 88.8352 24.7443 88.642 24.8011C88.4527 24.8542 88.233 24.9015 87.983 24.9432C87.7367 24.9811 87.4962 25.0152 87.2614 25.0455C87.0303 25.072 86.8428 25.0947 86.6989 25.1136C86.3504 25.1591 86.0246 25.233 85.7216 25.3352C85.4223 25.4337 85.1799 25.5833 84.9943 25.7841C84.8125 25.9811 84.7216 26.25 84.7216 26.5909C84.7216 27.0568 84.8939 27.4091 85.2386 27.6477C85.5871 27.8826 86.0284 28 86.5625 28ZM92.8054 29V20.2727H94.1009V21.5909H94.1918C94.3509 21.1591 94.6387 20.8087 95.0554 20.5398C95.4721 20.2708 95.9418 20.1364 96.4645 20.1364C96.563 20.1364 96.6861 20.1383 96.8338 20.142C96.9815 20.1458 97.0933 20.1515 97.169 20.1591V21.5227C97.1236 21.5114 97.0194 21.4943 96.8565 21.4716C96.6974 21.4451 96.5289 21.4318 96.3509 21.4318C95.9266 21.4318 95.5478 21.5208 95.2145 21.6989C94.8849 21.8731 94.6236 22.1155 94.4304 22.4261C94.241 22.733 94.1463 23.0833 94.1463 23.4773V29H92.8054ZM102.152 29.1818C101.311 29.1818 100.586 28.9962 99.9759 28.625C99.3698 28.25 98.902 27.7273 98.5724 27.0568C98.2467 26.3826 98.0838 25.5985 98.0838 24.7045C98.0838 23.8106 98.2467 23.0227 98.5724 22.3409C98.902 21.6553 99.3603 21.1212 99.9474 20.7386C100.538 20.3523 101.228 20.1591 102.016 20.1591C102.47 20.1591 102.919 20.2348 103.362 20.3864C103.805 20.5379 104.209 20.7841 104.572 21.125C104.936 21.4621 105.226 21.9091 105.442 22.4659C105.658 23.0227 105.766 23.7083 105.766 24.5227V25.0909H99.0384V23.9318H104.402C104.402 23.4394 104.304 23 104.107 22.6136C103.913 22.2273 103.637 21.9223 103.277 21.6989C102.921 21.4754 102.5 21.3636 102.016 21.3636C101.482 21.3636 101.019 21.4962 100.629 21.7614C100.243 22.0227 99.9455 22.3636 99.7372 22.7841C99.5289 23.2045 99.4247 23.6553 99.4247 24.1364V24.9091C99.4247 25.5682 99.5384 26.1269 99.7656 26.5852C99.9967 27.0398 100.317 27.3864 100.726 27.625C101.135 27.8598 101.61 27.9773 102.152 27.9773C102.504 27.9773 102.822 27.928 103.107 27.8295C103.394 27.7273 103.643 27.5758 103.851 27.375C104.059 27.1705 104.22 26.9167 104.334 26.6136L105.629 26.9773C105.493 27.4167 105.264 27.803 104.942 28.1364C104.62 28.4659 104.222 28.7235 103.749 28.9091C103.275 29.0909 102.743 29.1818 102.152 29.1818Z" fill="#2ECC71"/>
<path d="M173.119 91H171.534C171.44 90.544 171.276 90.1435 171.042 89.7983C170.812 89.4531 170.531 89.1634 170.198 88.929C169.87 88.6903 169.506 88.5114 169.105 88.392C168.705 88.2727 168.287 88.2131 167.852 88.2131C167.06 88.2131 166.342 88.4134 165.698 88.8139C165.059 89.2145 164.55 89.8047 164.17 90.5845C163.795 91.3643 163.608 92.321 163.608 93.4545C163.608 94.5881 163.795 95.5447 164.17 96.3246C164.55 97.1044 165.059 97.6946 165.698 98.0952C166.342 98.4957 167.06 98.696 167.852 98.696C168.287 98.696 168.705 98.6364 169.105 98.517C169.506 98.3977 169.87 98.2209 170.198 97.9865C170.531 97.7479 170.812 97.456 171.042 97.1108C171.276 96.7614 171.44 96.3608 171.534 95.9091H173.119C173 96.5781 172.783 97.1768 172.467 97.7053C172.152 98.2337 171.76 98.6832 171.291 99.054C170.822 99.4205 170.296 99.6996 169.712 99.8913C169.133 100.083 168.513 100.179 167.852 100.179C166.736 100.179 165.743 99.9062 164.874 99.3608C164.004 98.8153 163.32 98.0398 162.822 97.0341C162.323 96.0284 162.074 94.8352 162.074 93.4545C162.074 92.0739 162.323 90.8807 162.822 89.875C163.32 88.8693 164.004 88.0938 164.874 87.5483C165.743 87.0028 166.736 86.7301 167.852 86.7301C168.513 86.7301 169.133 86.826 169.712 87.0178C170.296 87.2095 170.822 87.4908 171.291 87.8615C171.76 88.228 172.152 88.6754 172.467 89.2038C172.783 89.728 173 90.3267 173.119 91ZM178.366 100.23C177.743 100.23 177.179 100.113 176.672 99.8786C176.165 99.6399 175.762 99.2969 175.464 98.8494C175.165 98.3977 175.016 97.8523 175.016 97.2131C175.016 96.6506 175.127 96.1946 175.349 95.8452C175.57 95.4915 175.866 95.2145 176.237 95.0142C176.608 94.8139 177.017 94.6648 177.464 94.5668C177.916 94.4645 178.37 94.3835 178.826 94.3239C179.422 94.2472 179.906 94.1896 180.277 94.1513C180.652 94.1087 180.925 94.0384 181.095 93.9403C181.27 93.8423 181.357 93.6719 181.357 93.429V93.3778C181.357 92.7472 181.184 92.2571 180.839 91.9077C180.498 91.5582 179.981 91.3835 179.286 91.3835C178.566 91.3835 178.001 91.5412 177.592 91.8565C177.183 92.1719 176.895 92.5085 176.729 92.8665L175.297 92.3551C175.553 91.7585 175.894 91.294 176.32 90.9616C176.751 90.625 177.219 90.3906 177.726 90.2585C178.238 90.1222 178.741 90.054 179.235 90.054C179.55 90.054 179.912 90.0923 180.322 90.169C180.735 90.2415 181.133 90.3928 181.517 90.6229C181.905 90.853 182.226 91.2003 182.482 91.6648C182.738 92.1293 182.866 92.7514 182.866 93.5312V100H181.357V98.6705H181.28C181.178 98.8835 181.008 99.1115 180.769 99.3544C180.53 99.5973 180.213 99.804 179.817 99.9744C179.42 100.145 178.937 100.23 178.366 100.23ZM178.596 98.875C179.192 98.875 179.695 98.7578 180.104 98.5234C180.518 98.2891 180.829 97.9865 181.037 97.6158C181.251 97.245 181.357 96.8551 181.357 96.446V95.0653C181.293 95.142 181.153 95.2124 180.935 95.2763C180.722 95.3359 180.475 95.3892 180.194 95.4361C179.917 95.4787 179.646 95.517 179.382 95.5511C179.122 95.581 178.911 95.6065 178.749 95.6278C178.357 95.679 177.991 95.7621 177.65 95.8771C177.313 95.9879 177.04 96.1562 176.831 96.3821C176.627 96.6037 176.525 96.9062 176.525 97.2898C176.525 97.8139 176.719 98.2102 177.106 98.4787C177.498 98.7429 177.995 98.875 178.596 98.875ZM189.326 100.205C188.508 100.205 187.786 99.9979 187.159 99.5845C186.533 99.1669 186.043 98.5788 185.689 97.8203C185.336 97.0575 185.159 96.1562 185.159 95.1165C185.159 94.0852 185.336 93.1903 185.689 92.4318C186.043 91.6733 186.535 91.0874 187.166 90.674C187.797 90.2607 188.525 90.054 189.352 90.054C189.991 90.054 190.496 90.1605 190.867 90.3736C191.242 90.5824 191.527 90.821 191.723 91.0895C191.924 91.3537 192.079 91.571 192.19 91.7415H192.318V86.9091H193.826V100H192.369V98.4915H192.19C192.079 98.6705 191.922 98.8963 191.717 99.169C191.512 99.4375 191.221 99.6783 190.841 99.8913C190.462 100.1 189.957 100.205 189.326 100.205ZM189.531 98.8494C190.136 98.8494 190.647 98.6918 191.065 98.3764C191.483 98.0568 191.8 97.6158 192.017 97.0533C192.235 96.4865 192.343 95.8324 192.343 95.0909C192.343 94.358 192.237 93.7166 192.024 93.1669C191.811 92.6129 191.495 92.1825 191.078 91.8757C190.66 91.5646 190.145 91.4091 189.531 91.4091C188.892 91.4091 188.359 91.5732 187.933 91.9013C187.511 92.2251 187.194 92.6662 186.98 93.2244C186.772 93.7784 186.667 94.4006 186.667 95.0909C186.667 95.7898 186.774 96.4247 186.987 96.9957C187.204 97.5625 187.524 98.0142 187.946 98.3509C188.372 98.6832 188.9 98.8494 189.531 98.8494ZM199.688 100.23C199.066 100.23 198.501 100.113 197.994 99.8786C197.487 99.6399 197.084 99.2969 196.786 98.8494C196.488 98.3977 196.338 97.8523 196.338 97.2131C196.338 96.6506 196.449 96.1946 196.671 95.8452C196.892 95.4915 197.189 95.2145 197.559 95.0142C197.93 94.8139 198.339 94.6648 198.787 94.5668C199.238 94.4645 199.692 94.3835 200.148 94.3239C200.745 94.2472 201.228 94.1896 201.599 94.1513C201.974 94.1087 202.247 94.0384 202.417 93.9403C202.592 93.8423 202.679 93.6719 202.679 93.429V93.3778C202.679 92.7472 202.507 92.2571 202.162 91.9077C201.821 91.5582 201.303 91.3835 200.608 91.3835C199.888 91.3835 199.324 91.5412 198.914 91.8565C198.505 92.1719 198.218 92.5085 198.051 92.8665L196.62 92.3551C196.875 91.7585 197.216 91.294 197.642 90.9616C198.073 90.625 198.542 90.3906 199.049 90.2585C199.56 90.1222 200.063 90.054 200.557 90.054C200.873 90.054 201.235 90.0923 201.644 90.169C202.057 90.2415 202.456 90.3928 202.839 90.6229C203.227 90.853 203.549 91.2003 203.804 91.6648C204.06 92.1293 204.188 92.7514 204.188 93.5312V100H202.679V98.6705H202.603C202.5 98.8835 202.33 99.1115 202.091 99.3544C201.853 99.5973 201.535 99.804 201.139 99.9744C200.743 100.145 200.259 100.23 199.688 100.23ZM199.918 98.875C200.515 98.875 201.017 98.7578 201.426 98.5234C201.84 98.2891 202.151 97.9865 202.36 97.6158C202.573 97.245 202.679 96.8551 202.679 96.446V95.0653C202.615 95.142 202.475 95.2124 202.257 95.2763C202.044 95.3359 201.797 95.3892 201.516 95.4361C201.239 95.4787 200.968 95.517 200.704 95.5511C200.444 95.581 200.233 95.6065 200.071 95.6278C199.679 95.679 199.313 95.7621 198.972 95.8771C198.635 95.9879 198.363 96.1562 198.154 96.3821C197.949 96.6037 197.847 96.9062 197.847 97.2898C197.847 97.8139 198.041 98.2102 198.429 98.4787C198.821 98.7429 199.317 98.875 199.918 98.875ZM213.896 92.3807L212.541 92.7642C212.455 92.5384 212.33 92.3189 212.164 92.1058C212.002 91.8885 211.78 91.7095 211.499 91.5689C211.218 91.4283 210.857 91.358 210.419 91.358C209.818 91.358 209.317 91.4964 208.916 91.7734C208.52 92.0462 208.322 92.3935 208.322 92.8153C208.322 93.1903 208.458 93.4865 208.731 93.7038C209.004 93.9212 209.43 94.1023 210.009 94.2472L211.467 94.6051C212.345 94.8182 212.999 95.1442 213.429 95.5831C213.86 96.0178 214.075 96.5781 214.075 97.2642C214.075 97.8267 213.913 98.3295 213.589 98.7727C213.269 99.2159 212.822 99.5653 212.247 99.821C211.671 100.077 211.002 100.205 210.24 100.205C209.238 100.205 208.409 99.9872 207.753 99.5526C207.097 99.1179 206.681 98.483 206.507 97.6477L207.938 97.2898C208.075 97.8182 208.333 98.2145 208.712 98.4787C209.095 98.7429 209.596 98.875 210.214 98.875C210.917 98.875 211.475 98.7259 211.889 98.4276C212.306 98.125 212.515 97.7628 212.515 97.3409C212.515 97 212.396 96.7145 212.157 96.4844C211.919 96.25 211.552 96.0753 211.058 95.9602L209.421 95.5767C208.522 95.3636 207.862 95.0334 207.44 94.5859C207.022 94.1342 206.813 93.5696 206.813 92.892C206.813 92.3381 206.969 91.848 207.28 91.4219C207.595 90.9957 208.024 90.6612 208.565 90.4183C209.11 90.1754 209.728 90.054 210.419 90.054C211.39 90.054 212.153 90.267 212.707 90.6932C213.265 91.1193 213.661 91.6818 213.896 92.3807ZM220.615 90.1818V91.4602H215.527V90.1818H220.615ZM217.01 87.8295H218.519V97.1875C218.519 97.6136 218.581 97.9332 218.704 98.1463C218.832 98.3551 218.994 98.4957 219.19 98.5682C219.39 98.6364 219.601 98.6705 219.823 98.6705C219.989 98.6705 220.125 98.6619 220.232 98.6449C220.338 98.6236 220.424 98.6065 220.488 98.5938L220.794 99.9489C220.692 99.9872 220.549 100.026 220.366 100.064C220.183 100.107 219.951 100.128 219.669 100.128C219.243 100.128 218.826 100.036 218.417 99.853C218.012 99.6697 217.675 99.3906 217.407 99.0156C217.142 98.6406 217.01 98.1676 217.01 97.5966V87.8295ZM222.885 100V90.1818H224.342V91.6648H224.444C224.623 91.179 224.947 90.7848 225.416 90.4822C225.885 90.1797 226.413 90.0284 227.001 90.0284C227.112 90.0284 227.25 90.0305 227.417 90.0348C227.583 90.0391 227.708 90.0455 227.794 90.054V91.5881C227.743 91.5753 227.625 91.5561 227.442 91.5305C227.263 91.5007 227.074 91.4858 226.873 91.4858C226.396 91.4858 225.97 91.5859 225.595 91.7862C225.224 91.9822 224.93 92.255 224.713 92.6044C224.5 92.9496 224.393 93.3437 224.393 93.7869V100H222.885ZM233.272 100.205C232.385 100.205 231.608 99.9936 230.939 99.5717C230.274 99.1499 229.754 98.5597 229.379 97.8011C229.008 97.0426 228.823 96.1562 228.823 95.142C228.823 94.1193 229.008 93.2266 229.379 92.4638C229.754 91.701 230.274 91.1087 230.939 90.6868C231.608 90.2649 232.385 90.054 233.272 90.054C234.158 90.054 234.934 90.2649 235.598 90.6868C236.267 91.1087 236.787 91.701 237.158 92.4638C237.533 93.2266 237.721 94.1193 237.721 95.142C237.721 96.1562 237.533 97.0426 237.158 97.8011C236.787 98.5597 236.267 99.1499 235.598 99.5717C234.934 99.9936 234.158 100.205 233.272 100.205ZM233.272 98.8494C233.945 98.8494 234.499 98.6768 234.934 98.3317C235.368 97.9865 235.69 97.5327 235.899 96.9702C236.108 96.4077 236.212 95.7983 236.212 95.142C236.212 94.4858 236.108 93.8743 235.899 93.3075C235.69 92.7408 235.368 92.2827 234.934 91.9332C234.499 91.5838 233.945 91.4091 233.272 91.4091C232.598 91.4091 232.044 91.5838 231.61 91.9332C231.175 92.2827 230.853 92.7408 230.645 93.3075C230.436 93.8743 230.331 94.4858 230.331 95.142C230.331 95.7983 230.436 96.4077 230.645 96.9702C230.853 97.5327 231.175 97.9865 231.61 98.3317C232.044 98.6768 232.598 98.8494 233.272 98.8494Z" fill="white"/>
<path d="M51.0568 160V151.273H56.3239V152.21H52.1136V155.159H56.0511V156.097H52.1136V159.062H56.392V160H51.0568ZM58.0923 160V153.455H59.0639V154.477H59.1491C59.2855 154.128 59.5057 153.857 59.8097 153.663C60.1136 153.467 60.4787 153.369 60.9048 153.369C61.3366 153.369 61.696 153.467 61.983 153.663C62.2727 153.857 62.4986 154.128 62.6605 154.477H62.7287C62.8963 154.139 63.1477 153.871 63.483 153.672C63.8182 153.47 64.2202 153.369 64.6889 153.369C65.2741 153.369 65.7528 153.553 66.125 153.919C66.4972 154.283 66.6832 154.849 66.6832 155.619V160H65.6776V155.619C65.6776 155.136 65.5455 154.791 65.2812 154.584C65.017 154.376 64.706 154.273 64.348 154.273C63.8878 154.273 63.5313 154.412 63.2784 154.69C63.0256 154.966 62.8991 155.315 62.8991 155.739V160H61.8764V155.517C61.8764 155.145 61.7557 154.845 61.5142 154.618C61.2727 154.388 60.9616 154.273 60.581 154.273C60.3196 154.273 60.0753 154.342 59.848 154.482C59.6236 154.621 59.4418 154.814 59.3026 155.061C59.1662 155.305 59.098 155.588 59.098 155.909V160H58.0923ZM70.4482 160.153C70.0334 160.153 69.657 160.075 69.3189 159.919C68.9808 159.76 68.7124 159.531 68.5135 159.233C68.3146 158.932 68.2152 158.568 68.2152 158.142C68.2152 157.767 68.2891 157.463 68.4368 157.23C68.5845 156.994 68.782 156.81 69.0291 156.676C69.2763 156.543 69.549 156.443 69.8473 156.378C70.1484 156.31 70.451 156.256 70.755 156.216C71.1527 156.165 71.4751 156.126 71.7223 156.101C71.9723 156.072 72.1541 156.026 72.2678 155.96C72.3842 155.895 72.4425 155.781 72.4425 155.619V155.585C72.4425 155.165 72.3274 154.838 72.0973 154.605C71.87 154.372 71.5249 154.256 71.0618 154.256C70.5817 154.256 70.2053 154.361 69.9325 154.571C69.6598 154.781 69.468 155.006 69.3572 155.244L68.4027 154.903C68.5732 154.506 68.8004 154.196 69.0845 153.974C69.3714 153.75 69.6839 153.594 70.022 153.506C70.3629 153.415 70.6982 153.369 71.0277 153.369C71.2379 153.369 71.4794 153.395 71.7521 153.446C72.0277 153.494 72.2933 153.595 72.549 153.749C72.8075 153.902 73.022 154.134 73.1925 154.443C73.3629 154.753 73.4482 155.168 73.4482 155.688V160H72.4425V159.114H72.3913C72.3232 159.256 72.2095 159.408 72.0504 159.57C71.8913 159.732 71.6797 159.869 71.4155 159.983C71.1513 160.097 70.8288 160.153 70.4482 160.153ZM70.6016 159.25C70.9993 159.25 71.3345 159.172 71.6072 159.016C71.8828 158.859 72.0902 158.658 72.2294 158.411C72.3714 158.163 72.4425 157.903 72.4425 157.631V156.71C72.3999 156.761 72.3061 156.808 72.1612 156.851C72.0192 156.891 71.8544 156.926 71.6669 156.957C71.4822 156.986 71.3018 157.011 71.1257 157.034C70.9524 157.054 70.8118 157.071 70.7038 157.085C70.4425 157.119 70.1982 157.175 69.9709 157.251C69.7464 157.325 69.5646 157.437 69.4254 157.588C69.2891 157.736 69.2209 157.937 69.2209 158.193C69.2209 158.543 69.3501 158.807 69.6087 158.986C69.87 159.162 70.201 159.25 70.6016 159.25ZM75.2837 160V153.455H76.2894V160H75.2837ZM75.7951 152.364C75.5991 152.364 75.43 152.297 75.288 152.163C75.1488 152.03 75.0792 151.869 75.0792 151.682C75.0792 151.494 75.1488 151.334 75.288 151.2C75.43 151.067 75.5991 151 75.7951 151C75.9911 151 76.1587 151.067 76.2979 151.2C76.44 151.334 76.511 151.494 76.511 151.682C76.511 151.869 76.44 152.03 76.2979 152.163C76.1587 152.297 75.9911 152.364 75.7951 152.364ZM79.1371 151.273V160H78.1314V151.273H79.1371Z" fill="white"/>
<path d="M346 170H54C51.7909 170 50 171.791 50 174V196C50 198.209 51.7909 200 54 200H346C348.209 200 350 198.209 350 196V174C350 171.791 348.209 170 346 170Z" fill="#2A1F3D" stroke="#555555"/>
<path d="M55.8295 213.455C55.7784 213.023 55.571 212.688 55.2074 212.449C54.8438 212.21 54.3977 212.091 53.8693 212.091C53.483 212.091 53.1449 212.153 52.8551 212.278C52.5682 212.403 52.3438 212.575 52.1818 212.794C52.0227 213.013 51.9432 213.261 51.9432 213.54C51.9432 213.773 51.9986 213.973 52.1094 214.141C52.223 214.305 52.3679 214.443 52.544 214.554C52.7202 214.662 52.9048 214.751 53.098 214.822C53.2912 214.891 53.4688 214.946 53.6307 214.989L54.517 215.227C54.7443 215.287 54.9972 215.369 55.2756 215.474C55.5568 215.58 55.8253 215.723 56.081 215.905C56.3395 216.084 56.5526 216.314 56.7202 216.595C56.8878 216.876 56.9716 217.222 56.9716 217.631C56.9716 218.102 56.848 218.528 56.6009 218.909C56.3565 219.29 55.9986 219.592 55.527 219.817C55.0582 220.041 54.4886 220.153 53.8182 220.153C53.1932 220.153 52.652 220.053 52.1946 219.851C51.7401 219.649 51.3821 219.368 51.1207 219.007C50.8622 218.646 50.7159 218.227 50.6818 217.75H51.7727C51.8011 218.08 51.9119 218.352 52.1051 218.568C52.3011 218.781 52.5483 218.94 52.8466 219.045C53.1477 219.148 53.4716 219.199 53.8182 219.199C54.2216 219.199 54.5838 219.134 54.9048 219.003C55.2259 218.869 55.4801 218.685 55.6676 218.449C55.8551 218.21 55.9489 217.932 55.9489 217.614C55.9489 217.324 55.8679 217.088 55.706 216.906C55.544 216.724 55.331 216.577 55.0668 216.463C54.8026 216.349 54.517 216.25 54.2102 216.165L53.1364 215.858C52.4545 215.662 51.9148 215.382 51.517 215.018C51.1193 214.655 50.9205 214.179 50.9205 213.591C50.9205 213.102 51.0526 212.676 51.3168 212.312C51.5838 211.946 51.9418 211.662 52.3906 211.46C52.8423 211.256 53.3466 211.153 53.9034 211.153C54.4659 211.153 54.9659 211.254 55.4034 211.456C55.8409 211.655 56.1875 211.928 56.4432 212.274C56.7017 212.621 56.8381 213.014 56.8523 213.455H55.8295ZM61.3171 220.136C60.6864 220.136 60.1424 219.997 59.685 219.719C59.2305 219.438 58.8796 219.045 58.6325 218.543C58.3881 218.037 58.266 217.449 58.266 216.778C58.266 216.108 58.3881 215.517 58.6325 215.006C58.8796 214.491 59.2234 214.091 59.6637 213.804C60.1069 213.514 60.6239 213.369 61.2148 213.369C61.5558 213.369 61.8924 213.426 62.2248 213.54C62.5572 213.653 62.8597 213.838 63.1325 214.094C63.4052 214.347 63.6225 214.682 63.7844 215.099C63.9464 215.517 64.0273 216.031 64.0273 216.642V217.068H58.9819V216.199H63.0046C63.0046 215.83 62.9308 215.5 62.783 215.21C62.6381 214.92 62.4308 214.692 62.1609 214.524C61.8938 214.357 61.5785 214.273 61.2148 214.273C60.8143 214.273 60.4677 214.372 60.1751 214.571C59.8853 214.767 59.6623 215.023 59.506 215.338C59.3498 215.653 59.2717 215.991 59.2717 216.352V216.932C59.2717 217.426 59.3569 217.845 59.5273 218.189C59.7006 218.53 59.9407 218.79 60.2475 218.969C60.5543 219.145 60.9109 219.233 61.3171 219.233C61.5813 219.233 61.82 219.196 62.033 219.122C62.2489 219.045 62.435 218.932 62.5913 218.781C62.7475 218.628 62.8683 218.437 62.9535 218.21L63.9251 218.483C63.8228 218.812 63.6509 219.102 63.4094 219.352C63.168 219.599 62.8697 219.793 62.5146 219.932C62.1594 220.068 61.7603 220.136 61.3171 220.136ZM66.5629 216.062V220H65.5572V213.455H66.5288V214.477H66.614C66.7674 214.145 67.0004 213.878 67.3129 213.676C67.6254 213.472 68.0288 213.369 68.5231 213.369C68.9663 213.369 69.354 213.46 69.6864 213.642C70.0188 213.821 70.2773 214.094 70.462 214.46C70.6467 214.824 70.739 215.284 70.739 215.841V220H69.7333V215.909C69.7333 215.395 69.5998 214.994 69.3327 214.707C69.0657 214.418 68.6992 214.273 68.2333 214.273C67.9123 214.273 67.6254 214.342 67.3725 214.482C67.1225 214.621 66.9251 214.824 66.7802 215.091C66.6353 215.358 66.5629 215.682 66.5629 216.062ZM73.5824 216.062V220H72.5767V211.273H73.5824V214.477H73.6676C73.821 214.139 74.0511 213.871 74.358 213.672C74.6676 213.47 75.0795 213.369 75.5938 213.369C76.0398 213.369 76.4304 213.459 76.7656 213.638C77.1009 213.814 77.3608 214.085 77.5455 214.452C77.733 214.815 77.8267 215.278 77.8267 215.841V220H76.821V215.909C76.821 215.389 76.6861 214.987 76.4162 214.703C76.1491 214.416 75.7784 214.273 75.304 214.273C74.9744 214.273 74.679 214.342 74.4176 214.482C74.1591 214.621 73.9545 214.824 73.804 215.091C73.6563 215.358 73.5824 215.682 73.5824 216.062ZM81.5927 220.153C81.1779 220.153 80.8015 220.075 80.4634 219.919C80.1254 219.76 79.8569 219.531 79.658 219.233C79.4592 218.932 79.3597 218.568 79.3597 218.142C79.3597 217.767 79.4336 217.463 79.5813 217.23C79.729 216.994 79.9265 216.81 80.1737 216.676C80.4208 216.543 80.6935 216.443 80.9918 216.378C81.293 216.31 81.5955 216.256 81.8995 216.216C82.2972 216.165 82.6197 216.126 82.8668 216.101C83.1168 216.072 83.2987 216.026 83.4123 215.96C83.5288 215.895 83.587 215.781 83.587 215.619V215.585C83.587 215.165 83.4719 214.838 83.2418 214.605C83.0146 214.372 82.6694 214.256 82.2063 214.256C81.7262 214.256 81.3498 214.361 81.0771 214.571C80.8043 214.781 80.6126 215.006 80.5018 215.244L79.5472 214.903C79.7177 214.506 79.945 214.196 80.229 213.974C80.516 213.75 80.8285 213.594 81.1665 213.506C81.5075 213.415 81.8427 213.369 82.1722 213.369C82.3825 213.369 82.6239 213.395 82.8967 213.446C83.1722 213.494 83.4379 213.595 83.6935 213.749C83.9521 213.902 84.1665 214.134 84.337 214.443C84.5075 214.753 84.5927 215.168 84.5927 215.688V220H83.587V219.114H83.5359C83.4677 219.256 83.354 219.408 83.195 219.57C83.0359 219.732 82.8242 219.869 82.56 219.983C82.2958 220.097 81.9734 220.153 81.5927 220.153ZM81.7461 219.25C82.1438 219.25 82.479 219.172 82.7518 219.016C83.0273 218.859 83.2347 218.658 83.3739 218.411C83.516 218.163 83.587 217.903 83.587 217.631V216.71C83.5444 216.761 83.4506 216.808 83.3058 216.851C83.1637 216.891 82.9989 216.926 82.8114 216.957C82.6268 216.986 82.4464 217.011 82.2702 217.034C82.0969 217.054 81.9563 217.071 81.8484 217.085C81.587 217.119 81.3427 217.175 81.1154 217.251C80.891 217.325 80.7092 217.437 80.57 217.588C80.4336 217.736 80.3654 217.937 80.3654 218.193C80.3654 218.543 80.4947 218.807 80.7532 218.986C81.0146 219.162 81.3455 219.25 81.7461 219.25Z" fill="white"/>
<path d="M346 230H54C51.7909 230 50 231.791 50 234V256C50 258.209 51.7909 260 54 260H346C348.209 260 350 258.209 350 256V234C350 231.791 348.209 230 346 230Z" fill="#2A1F3D" stroke="#555555"/>
<path d="M51.0568 280V271.273H54.0057C54.6875 271.273 55.2472 271.389 55.6847 271.622C56.1222 271.852 56.446 272.169 56.6562 272.572C56.8665 272.976 56.9716 273.435 56.9716 273.949C56.9716 274.463 56.8665 274.919 56.6562 275.317C56.446 275.714 56.1236 276.027 55.6889 276.254C55.2543 276.479 54.6989 276.591 54.0227 276.591H51.6364V275.636H53.9886C54.4545 275.636 54.8295 275.568 55.1136 275.432C55.4006 275.295 55.608 275.102 55.7358 274.852C55.8665 274.599 55.9318 274.298 55.9318 273.949C55.9318 273.599 55.8665 273.294 55.7358 273.033C55.6051 272.771 55.3963 272.57 55.1094 272.428C54.8224 272.283 54.4432 272.21 53.9716 272.21H52.1136V280H51.0568ZM55.1648 276.08L57.3125 280H56.0852L53.9716 276.08H55.1648ZM61.2702 280.136C60.6396 280.136 60.0955 279.997 59.6381 279.719C59.1836 279.438 58.8327 279.045 58.5856 278.543C58.3413 278.037 58.2191 277.449 58.2191 276.778C58.2191 276.108 58.3413 275.517 58.5856 275.006C58.8327 274.491 59.1765 274.091 59.6168 273.804C60.06 273.514 60.5771 273.369 61.168 273.369C61.5089 273.369 61.8455 273.426 62.1779 273.54C62.5103 273.653 62.8129 273.838 63.0856 274.094C63.3583 274.347 63.5756 274.682 63.7376 275.099C63.8995 275.517 63.9805 276.031 63.9805 276.642V277.068H58.935V276.199H62.9577C62.9577 275.83 62.8839 275.5 62.7362 275.21C62.5913 274.92 62.3839 274.692 62.114 274.524C61.8469 274.357 61.5316 274.273 61.168 274.273C60.7674 274.273 60.4208 274.372 60.1282 274.571C59.8384 274.767 59.6154 275.023 59.4592 275.338C59.3029 275.653 59.2248 275.991 59.2248 276.352V276.932C59.2248 277.426 59.31 277.845 59.4805 278.189C59.6538 278.53 59.8938 278.79 60.2006 278.969C60.5075 279.145 60.864 279.233 61.2702 279.233C61.5344 279.233 61.7731 279.196 61.9862 279.122C62.2021 279.045 62.3881 278.932 62.5444 278.781C62.7006 278.628 62.8214 278.437 62.9066 278.21L63.8782 278.483C63.7759 278.812 63.604 279.102 63.3626 279.352C63.1211 279.599 62.8228 279.793 62.4677 279.932C62.1126 280.068 61.7134 280.136 61.2702 280.136ZM65.5103 282.455V273.455H66.4819V274.494H66.6012C66.6751 274.381 66.7773 274.236 66.908 274.06C67.0415 273.881 67.2319 273.722 67.479 273.582C67.729 273.44 68.0671 273.369 68.4933 273.369C69.0444 273.369 69.5302 273.507 69.9506 273.783C70.3711 274.058 70.6992 274.449 70.935 274.955C71.1708 275.46 71.2887 276.057 71.2887 276.744C71.2887 277.438 71.1708 278.038 70.935 278.547C70.6992 279.053 70.3725 279.445 69.9549 279.723C69.5373 279.999 69.0558 280.136 68.5103 280.136C68.0898 280.136 67.7532 280.067 67.5004 279.928C67.2475 279.786 67.0529 279.625 66.9165 279.446C66.7802 279.264 66.6751 279.114 66.6012 278.994H66.516V282.455H65.5103ZM66.4989 276.727C66.4989 277.222 66.5714 277.658 66.7163 278.036C66.8612 278.411 67.0728 278.705 67.3512 278.918C67.6296 279.128 67.9705 279.233 68.3739 279.233C68.7944 279.233 69.1452 279.122 69.4265 278.901C69.7106 278.676 69.9237 278.375 70.0657 277.997C70.2106 277.616 70.283 277.193 70.283 276.727C70.283 276.267 70.212 275.852 70.07 275.483C69.9308 275.111 69.7191 274.817 69.435 274.601C69.1538 274.382 68.8001 274.273 68.3739 274.273C67.9648 274.273 67.6211 274.376 67.3427 274.584C67.0643 274.788 66.854 275.075 66.712 275.445C66.57 275.811 66.4989 276.239 66.4989 276.727ZM72.8228 280V273.455H73.8285V280H72.8228ZM73.3342 272.364C73.1381 272.364 72.9691 272.297 72.8271 272.163C72.6879 272.03 72.6183 271.869 72.6183 271.682C72.6183 271.494 72.6879 271.334 72.8271 271.2C72.9691 271.067 73.1381 271 73.3342 271C73.5302 271 73.6978 271.067 73.837 271.2C73.979 271.334 74.0501 271.494 74.0501 271.682C74.0501 271.869 73.979 272.03 73.837 272.163C73.6978 272.297 73.5302 272.364 73.3342 272.364ZM78.517 273.455V274.307H75.125V273.455H78.517ZM76.1136 271.886H77.1193V278.125C77.1193 278.409 77.1605 278.622 77.2429 278.764C77.3281 278.903 77.4361 278.997 77.5668 279.045C77.7003 279.091 77.8409 279.114 77.9886 279.114C78.0994 279.114 78.1903 279.108 78.2614 279.097C78.3324 279.082 78.3892 279.071 78.4318 279.062L78.6364 279.966C78.5682 279.991 78.473 280.017 78.3509 280.043C78.2287 280.071 78.0739 280.085 77.8864 280.085C77.6023 280.085 77.3239 280.024 77.0511 279.902C76.7813 279.78 76.5568 279.594 76.3778 279.344C76.2017 279.094 76.1136 278.778 76.1136 278.398V271.886ZM81.956 280.153C81.5412 280.153 81.1648 280.075 80.8267 279.919C80.4886 279.76 80.2202 279.531 80.0213 279.233C79.8224 278.932 79.723 278.568 79.723 278.142C79.723 277.767 79.7969 277.463 79.9446 277.23C80.0923 276.994 80.2898 276.81 80.5369 276.676C80.7841 276.543 81.0568 276.443 81.3551 276.378C81.6563 276.31 81.9588 276.256 82.2628 276.216C82.6605 276.165 82.983 276.126 83.2301 276.101C83.4801 276.072 83.6619 276.026 83.7756 275.96C83.892 275.895 83.9503 275.781 83.9503 275.619V275.585C83.9503 275.165 83.8352 274.838 83.6051 274.605C83.3778 274.372 83.0327 274.256 82.5696 274.256C82.0895 274.256 81.7131 274.361 81.4403 274.571C81.1676 274.781 80.9759 275.006 80.8651 275.244L79.9105 274.903C80.081 274.506 80.3082 274.196 80.5923 273.974C80.8793 273.75 81.1918 273.594 81.5298 273.506C81.8707 273.415 82.206 273.369 82.5355 273.369C82.7457 273.369 82.9872 273.395 83.2599 273.446C83.5355 273.494 83.8011 273.595 84.0568 273.749C84.3153 273.902 84.5298 274.134 84.7003 274.443C84.8707 274.753 84.956 275.168 84.956 275.688V280H83.9503V279.114H83.8991C83.831 279.256 83.7173 279.408 83.5582 279.57C83.3991 279.732 83.1875 279.869 82.9233 279.983C82.6591 280.097 82.3366 280.153 81.956 280.153ZM82.1094 279.25C82.5071 279.25 82.8423 279.172 83.1151 279.016C83.3906 278.859 83.598 278.658 83.7372 278.411C83.8793 278.163 83.9503 277.903 83.9503 277.631V276.71C83.9077 276.761 83.8139 276.808 83.669 276.851C83.527 276.891 83.3622 276.926 83.1747 276.957C82.9901 276.986 82.8097 277.011 82.6335 277.034C82.4602 277.054 82.3196 277.071 82.2116 277.085C81.9503 277.119 81.706 277.175 81.4787 277.251C81.2543 277.325 81.0724 277.437 80.9332 277.588C80.7969 277.736 80.7287 277.937 80.7287 278.193C80.7287 278.543 80.858 278.807 81.1165 278.986C81.3778 279.162 81.7088 279.25 82.1094 279.25ZM92.0927 280.153C91.6779 280.153 91.3015 280.075 90.9634 279.919C90.6254 279.76 90.3569 279.531 90.158 279.233C89.9592 278.932 89.8597 278.568 89.8597 278.142C89.8597 277.767 89.9336 277.463 90.0813 277.23C90.229 276.994 90.4265 276.81 90.6737 276.676C90.9208 276.543 91.1935 276.443 91.4918 276.378C91.793 276.31 92.0955 276.256 92.3995 276.216C92.7972 276.165 93.1197 276.126 93.3668 276.101C93.6168 276.072 93.7987 276.026 93.9123 275.96C94.0288 275.895 94.087 275.781 94.087 275.619V275.585C94.087 275.165 93.9719 274.838 93.7418 274.605C93.5146 274.372 93.1694 274.256 92.7063 274.256C92.2262 274.256 91.8498 274.361 91.5771 274.571C91.3043 274.781 91.1126 275.006 91.0018 275.244L90.0472 274.903C90.2177 274.506 90.445 274.196 90.729 273.974C91.016 273.75 91.3285 273.594 91.6665 273.506C92.0075 273.415 92.3427 273.369 92.6722 273.369C92.8825 273.369 93.1239 273.395 93.3967 273.446C93.6722 273.494 93.9379 273.595 94.1935 273.749C94.4521 273.902 94.6665 274.134 94.837 274.443C95.0075 274.753 95.0927 275.168 95.0927 275.688V280H94.087V279.114H94.0359C93.9677 279.256 93.854 279.408 93.695 279.57C93.5359 279.732 93.3242 279.869 93.06 279.983C92.7958 280.097 92.4734 280.153 92.0927 280.153ZM92.2461 279.25C92.6438 279.25 92.979 279.172 93.2518 279.016C93.5273 278.859 93.7347 278.658 93.8739 278.411C94.016 278.163 94.087 277.903 94.087 277.631V276.71C94.0444 276.761 93.9506 276.808 93.8058 276.851C93.6637 276.891 93.4989 276.926 93.3114 276.957C93.1268 276.986 92.9464 277.011 92.7702 277.034C92.5969 277.054 92.4563 277.071 92.3484 277.085C92.087 277.119 91.8427 277.175 91.6154 277.251C91.391 277.325 91.2092 277.437 91.07 277.588C90.9336 277.736 90.8654 277.937 90.8654 278.193C90.8654 278.543 90.9947 278.807 91.2532 278.986C91.5146 279.162 91.8455 279.25 92.2461 279.25ZM105.212 273.455C105.161 273.023 104.954 272.688 104.59 272.449C104.227 272.21 103.781 272.091 103.252 272.091C102.866 272.091 102.528 272.153 102.238 272.278C101.951 272.403 101.727 272.575 101.565 272.794C101.406 273.013 101.326 273.261 101.326 273.54C101.326 273.773 101.381 273.973 101.492 274.141C101.606 274.305 101.751 274.443 101.927 274.554C102.103 274.662 102.288 274.751 102.481 274.822C102.674 274.891 102.852 274.946 103.013 274.989L103.9 275.227C104.127 275.287 104.38 275.369 104.658 275.474C104.94 275.58 105.208 275.723 105.464 275.905C105.722 276.084 105.935 276.314 106.103 276.595C106.271 276.876 106.354 277.222 106.354 277.631C106.354 278.102 106.231 278.528 105.984 278.909C105.739 279.29 105.381 279.592 104.91 279.817C104.441 280.041 103.871 280.153 103.201 280.153C102.576 280.153 102.035 280.053 101.577 279.851C101.123 279.649 100.765 279.368 100.504 279.007C100.245 278.646 100.099 278.227 100.065 277.75H101.156C101.184 278.08 101.295 278.352 101.488 278.568C101.684 278.781 101.931 278.94 102.229 279.045C102.531 279.148 102.854 279.199 103.201 279.199C103.604 279.199 103.967 279.134 104.288 279.003C104.609 278.869 104.863 278.685 105.05 278.449C105.238 278.21 105.332 277.932 105.332 277.614C105.332 277.324 105.251 277.088 105.089 276.906C104.927 276.724 104.714 276.577 104.45 276.463C104.185 276.349 103.9 276.25 103.593 276.165L102.519 275.858C101.837 275.662 101.298 275.382 100.9 275.018C100.502 274.655 100.303 274.179 100.303 273.591C100.303 273.102 100.435 272.676 100.7 272.312C100.967 271.946 101.325 271.662 101.773 271.46C102.225 271.256 102.729 271.153 103.286 271.153C103.849 271.153 104.349 271.254 104.786 271.456C105.224 271.655 105.57 271.928 105.826 272.274C106.085 272.621 106.221 273.014 106.235 273.455H105.212ZM110.7 280.136C110.069 280.136 109.525 279.997 109.068 279.719C108.613 279.438 108.262 279.045 108.015 278.543C107.771 278.037 107.649 277.449 107.649 276.778C107.649 276.108 107.771 275.517 108.015 275.006C108.262 274.491 108.606 274.091 109.047 273.804C109.49 273.514 110.007 273.369 110.598 273.369C110.939 273.369 111.275 273.426 111.608 273.54C111.94 273.653 112.243 273.838 112.515 274.094C112.788 274.347 113.005 274.682 113.167 275.099C113.329 275.517 113.41 276.031 113.41 276.642V277.068H108.365V276.199H112.387C112.387 275.83 112.314 275.5 112.166 275.21C112.021 274.92 111.814 274.692 111.544 274.524C111.277 274.357 110.961 274.273 110.598 274.273C110.197 274.273 109.85 274.372 109.558 274.571C109.268 274.767 109.045 275.023 108.889 275.338C108.733 275.653 108.654 275.991 108.654 276.352V276.932C108.654 277.426 108.74 277.845 108.91 278.189C109.083 278.53 109.324 278.79 109.63 278.969C109.937 279.145 110.294 279.233 110.7 279.233C110.964 279.233 111.203 279.196 111.416 279.122C111.632 279.045 111.818 278.932 111.974 278.781C112.13 278.628 112.251 278.437 112.336 278.21L113.308 278.483C113.206 278.812 113.034 279.102 112.792 279.352C112.551 279.599 112.252 279.793 111.897 279.932C111.542 280.068 111.143 280.136 110.7 280.136ZM115.946 276.062V280H114.94V273.455H115.912V274.477H115.997C116.15 274.145 116.383 273.878 116.696 273.676C117.008 273.472 117.412 273.369 117.906 273.369C118.349 273.369 118.737 273.46 119.069 273.642C119.402 273.821 119.66 274.094 119.845 274.46C120.029 274.824 120.122 275.284 120.122 275.841V280H119.116V275.909C119.116 275.395 118.983 274.994 118.716 274.707C118.449 274.418 118.082 274.273 117.616 274.273C117.295 274.273 117.008 274.342 116.755 274.482C116.505 274.621 116.308 274.824 116.163 275.091C116.018 275.358 115.946 275.682 115.946 276.062ZM122.965 276.062V280H121.96V271.273H122.965V274.477H123.05C123.204 274.139 123.434 273.871 123.741 273.672C124.05 273.47 124.462 273.369 124.977 273.369C125.423 273.369 125.813 273.459 126.148 273.638C126.484 273.814 126.744 274.085 126.928 274.452C127.116 274.815 127.21 275.278 127.21 275.841V280H126.204V275.909C126.204 275.389 126.069 274.987 125.799 274.703C125.532 274.416 125.161 274.273 124.687 274.273C124.357 274.273 124.062 274.342 123.8 274.482C123.542 274.621 123.337 274.824 123.187 275.091C123.039 275.358 122.965 275.682 122.965 276.062ZM130.975 280.153C130.561 280.153 130.184 280.075 129.846 279.919C129.508 279.76 129.24 279.531 129.041 279.233C128.842 278.932 128.743 278.568 128.743 278.142C128.743 277.767 128.816 277.463 128.964 277.23C129.112 276.994 129.309 276.81 129.556 276.676C129.804 276.543 130.076 276.443 130.375 276.378C130.676 276.31 130.978 276.256 131.282 276.216C131.68 276.165 132.002 276.126 132.25 276.101C132.5 276.072 132.681 276.026 132.795 275.96C132.912 275.895 132.97 275.781 132.97 275.619V275.585C132.97 275.165 132.855 274.838 132.625 274.605C132.397 274.372 132.052 274.256 131.589 274.256C131.109 274.256 130.733 274.361 130.46 274.571C130.187 274.781 129.995 275.006 129.885 275.244L128.93 274.903C129.1 274.506 129.328 274.196 129.612 273.974C129.899 273.75 130.211 273.594 130.549 273.506C130.89 273.415 131.225 273.369 131.555 273.369C131.765 273.369 132.007 273.395 132.279 273.446C132.555 273.494 132.821 273.595 133.076 273.749C133.335 273.902 133.549 274.134 133.72 274.443C133.89 274.753 133.975 275.168 133.975 275.688V280H132.97V279.114H132.919C132.85 279.256 132.737 279.408 132.578 279.57C132.419 279.732 132.207 279.869 131.943 279.983C131.679 280.097 131.356 280.153 130.975 280.153ZM131.129 279.25C131.527 279.25 131.862 279.172 132.135 279.016C132.41 278.859 132.618 278.658 132.757 278.411C132.899 278.163 132.97 277.903 132.97 277.631V276.71C132.927 276.761 132.833 276.808 132.689 276.851C132.547 276.891 132.382 276.926 132.194 276.957C132.01 276.986 131.829 277.011 131.653 277.034C131.48 277.054 131.339 277.071 131.231 277.085C130.97 277.119 130.725 277.175 130.498 277.251C130.274 277.325 130.092 277.437 129.953 277.588C129.816 277.736 129.748 277.937 129.748 278.193C129.748 278.543 129.877 278.807 130.136 278.986C130.397 279.162 130.728 279.25 131.129 279.25Z" fill="white"/>
<path d="M346 290H54C51.7909 290 50 291.791 50 294V316C50 318.209 51.7909 320 54 320H346C348.209 320 350 318.209 350 316V294C350 291.791 348.209 290 346 290Z" fill="#2A1F3D" stroke="#555555"/>
<path d="M294 356H106C102.686 356 100 358.686 100 362V390C100 393.314 102.686 396 106 396H294C297.314 396 300 393.314 300 390V362C300 358.686 297.314 356 294 356Z" fill="#2ECC71"/>
<path d="M176.744 375H175.511C175.438 374.645 175.31 374.334 175.128 374.065C174.949 373.797 174.73 373.571 174.472 373.389C174.216 373.204 173.933 373.064 173.621 372.972C173.31 372.879 172.985 372.832 172.647 372.832C172.03 372.832 171.472 372.988 170.972 373.3C170.474 373.611 170.078 374.07 169.783 374.677C169.492 375.283 169.346 376.027 169.346 376.909C169.346 377.791 169.492 378.535 169.783 379.141C170.078 379.748 170.474 380.207 170.972 380.518C171.472 380.83 172.03 380.986 172.647 380.986C172.985 380.986 173.31 380.939 173.621 380.847C173.933 380.754 174.216 380.616 174.472 380.434C174.73 380.248 174.949 380.021 175.128 379.753C175.31 379.481 175.438 379.17 175.511 378.818H176.744C176.651 379.339 176.482 379.804 176.236 380.215C175.991 380.626 175.686 380.976 175.322 381.264C174.957 381.549 174.548 381.766 174.094 381.915C173.643 382.065 173.161 382.139 172.647 382.139C171.779 382.139 171.006 381.927 170.33 381.503C169.654 381.079 169.122 380.475 168.734 379.693C168.347 378.911 168.153 377.983 168.153 376.909C168.153 375.835 168.347 374.907 168.734 374.125C169.122 373.343 169.654 372.74 170.33 372.315C171.006 371.891 171.779 371.679 172.647 371.679C173.161 371.679 173.643 371.754 174.094 371.903C174.548 372.052 174.957 372.271 175.322 372.559C175.686 372.844 175.991 373.192 176.236 373.603C176.482 374.011 176.651 374.476 176.744 375ZM180.824 382.179C180.34 382.179 179.901 382.088 179.506 381.906C179.112 381.72 178.799 381.453 178.567 381.105C178.335 380.754 178.219 380.33 178.219 379.832C178.219 379.395 178.305 379.04 178.477 378.768C178.65 378.493 178.88 378.278 179.168 378.122C179.457 377.966 179.775 377.85 180.123 377.774C180.474 377.695 180.827 377.632 181.182 377.585C181.646 377.526 182.022 377.481 182.31 377.451C182.602 377.418 182.814 377.363 182.947 377.287C183.083 377.211 183.151 377.078 183.151 376.889V376.849C183.151 376.359 183.016 375.978 182.748 375.706C182.483 375.434 182.08 375.298 181.54 375.298C180.98 375.298 180.541 375.421 180.222 375.666C179.904 375.911 179.68 376.173 179.551 376.452L178.438 376.054C178.636 375.59 178.902 375.229 179.233 374.97C179.568 374.708 179.932 374.526 180.327 374.423C180.725 374.317 181.116 374.264 181.5 374.264C181.745 374.264 182.027 374.294 182.345 374.354C182.667 374.41 182.977 374.528 183.275 374.707C183.577 374.886 183.827 375.156 184.026 375.517C184.225 375.878 184.324 376.362 184.324 376.969V382H183.151V380.966H183.091C183.011 381.132 182.879 381.309 182.693 381.498C182.508 381.687 182.261 381.848 181.953 381.98C181.644 382.113 181.268 382.179 180.824 382.179ZM181.003 381.125C181.467 381.125 181.858 381.034 182.176 380.852C182.498 380.669 182.74 380.434 182.902 380.146C183.068 379.857 183.151 379.554 183.151 379.236V378.162C183.101 378.222 182.992 378.276 182.823 378.326C182.657 378.372 182.465 378.414 182.246 378.45C182.03 378.483 181.82 378.513 181.614 378.54C181.412 378.563 181.248 378.583 181.122 378.599C180.817 378.639 180.532 378.704 180.267 378.793C180.005 378.879 179.793 379.01 179.631 379.186C179.472 379.358 179.392 379.594 179.392 379.892C179.392 380.3 179.543 380.608 179.845 380.817C180.149 381.022 180.536 381.125 181.003 381.125ZM189.349 382.159C188.713 382.159 188.151 381.998 187.664 381.677C187.176 381.352 186.795 380.895 186.52 380.305C186.245 379.711 186.108 379.01 186.108 378.202C186.108 377.4 186.245 376.704 186.52 376.114C186.795 375.524 187.178 375.068 187.669 374.746C188.159 374.425 188.726 374.264 189.369 374.264C189.866 374.264 190.259 374.347 190.547 374.513C190.839 374.675 191.061 374.861 191.213 375.07C191.369 375.275 191.49 375.444 191.576 375.577H191.676V371.818H192.849V382H191.715V380.827H191.576C191.49 380.966 191.367 381.142 191.208 381.354C191.049 381.562 190.822 381.75 190.527 381.915C190.232 382.078 189.84 382.159 189.349 382.159ZM189.508 381.105C189.979 381.105 190.376 380.982 190.701 380.737C191.026 380.489 191.273 380.146 191.442 379.708C191.611 379.267 191.696 378.759 191.696 378.182C191.696 377.612 191.613 377.113 191.447 376.685C191.281 376.254 191.036 375.92 190.711 375.681C190.386 375.439 189.985 375.318 189.508 375.318C189.011 375.318 188.597 375.446 188.265 375.701C187.937 375.953 187.69 376.296 187.524 376.73C187.362 377.161 187.281 377.645 187.281 378.182C187.281 378.725 187.364 379.219 187.529 379.663C187.698 380.104 187.947 380.455 188.275 380.717C188.607 380.976 189.018 381.105 189.508 381.105ZM197.408 382.179C196.924 382.179 196.485 382.088 196.09 381.906C195.696 381.72 195.383 381.453 195.151 381.105C194.919 380.754 194.803 380.33 194.803 379.832C194.803 379.395 194.889 379.04 195.061 378.768C195.234 378.493 195.464 378.278 195.752 378.122C196.041 377.966 196.359 377.85 196.707 377.774C197.058 377.695 197.411 377.632 197.766 377.585C198.23 377.526 198.606 377.481 198.894 377.451C199.186 377.418 199.398 377.363 199.531 377.287C199.667 377.211 199.735 377.078 199.735 376.889V376.849C199.735 376.359 199.6 375.978 199.332 375.706C199.067 375.434 198.664 375.298 198.124 375.298C197.564 375.298 197.125 375.421 196.806 375.666C196.488 375.911 196.264 376.173 196.135 376.452L195.022 376.054C195.22 375.59 195.486 375.229 195.817 374.97C196.152 374.708 196.516 374.526 196.911 374.423C197.309 374.317 197.7 374.264 198.084 374.264C198.329 374.264 198.611 374.294 198.929 374.354C199.251 374.41 199.561 374.528 199.859 374.707C200.161 374.886 200.411 375.156 200.61 375.517C200.809 375.878 200.908 376.362 200.908 376.969V382H199.735V380.966H199.675C199.595 381.132 199.463 381.309 199.277 381.498C199.092 381.687 198.845 381.848 198.536 381.98C198.228 382.113 197.852 382.179 197.408 382.179ZM197.587 381.125C198.051 381.125 198.442 381.034 198.76 380.852C199.082 380.669 199.324 380.434 199.486 380.146C199.652 379.857 199.735 379.554 199.735 379.236V378.162C199.685 378.222 199.576 378.276 199.407 378.326C199.241 378.372 199.049 378.414 198.83 378.45C198.614 378.483 198.404 378.513 198.198 378.54C197.996 378.563 197.832 378.583 197.706 378.599C197.401 378.639 197.116 378.704 196.851 378.793C196.589 378.879 196.377 379.01 196.215 379.186C196.056 379.358 195.976 379.594 195.976 379.892C195.976 380.3 196.127 380.608 196.429 380.817C196.733 381.022 197.12 381.125 197.587 381.125ZM208.459 376.074L207.405 376.372C207.338 376.196 207.241 376.026 207.111 375.86C206.985 375.691 206.813 375.552 206.594 375.442C206.375 375.333 206.095 375.278 205.754 375.278C205.287 375.278 204.897 375.386 204.586 375.602C204.277 375.814 204.123 376.084 204.123 376.412C204.123 376.704 204.229 376.934 204.441 377.103C204.654 377.272 204.985 377.413 205.436 377.526L206.569 377.804C207.252 377.97 207.761 378.223 208.096 378.565C208.43 378.903 208.598 379.339 208.598 379.872C208.598 380.31 208.472 380.701 208.22 381.045C207.971 381.39 207.623 381.662 207.176 381.861C206.728 382.06 206.208 382.159 205.615 382.159C204.836 382.159 204.191 381.99 203.681 381.652C203.17 381.314 202.847 380.82 202.711 380.17L203.825 379.892C203.931 380.303 204.132 380.611 204.427 380.817C204.725 381.022 205.114 381.125 205.595 381.125C206.142 381.125 206.576 381.009 206.897 380.777C207.222 380.542 207.385 380.26 207.385 379.932C207.385 379.667 207.292 379.445 207.106 379.266C206.921 379.083 206.636 378.947 206.251 378.858L204.978 378.56C204.279 378.394 203.765 378.137 203.437 377.789C203.112 377.438 202.95 376.999 202.95 376.472C202.95 376.041 203.071 375.66 203.313 375.328C203.558 374.997 203.891 374.737 204.312 374.548C204.736 374.359 205.217 374.264 205.754 374.264C206.51 374.264 207.103 374.43 207.534 374.761C207.968 375.093 208.276 375.53 208.459 376.074ZM213.685 374.364V375.358H209.728V374.364H213.685ZM210.881 372.534H212.054V379.812C212.054 380.144 212.102 380.393 212.198 380.558C212.298 380.721 212.424 380.83 212.576 380.886C212.732 380.939 212.896 380.966 213.068 380.966C213.198 380.966 213.304 380.959 213.387 380.946C213.469 380.929 213.536 380.916 213.585 380.906L213.824 381.96C213.745 381.99 213.634 382.02 213.491 382.05C213.349 382.083 213.168 382.099 212.949 382.099C212.618 382.099 212.293 382.028 211.975 381.886C211.66 381.743 211.398 381.526 211.189 381.234C210.984 380.943 210.881 380.575 210.881 380.131V372.534ZM215.45 382V374.364H216.583V375.517H216.663C216.802 375.139 217.054 374.833 217.419 374.597C217.783 374.362 218.194 374.244 218.652 374.244C218.738 374.244 218.845 374.246 218.975 374.249C219.104 374.253 219.202 374.258 219.268 374.264V375.457C219.228 375.447 219.137 375.433 218.995 375.413C218.855 375.389 218.708 375.378 218.552 375.378C218.181 375.378 217.849 375.456 217.558 375.612C217.269 375.764 217.041 375.976 216.872 376.248C216.706 376.516 216.623 376.823 216.623 377.168V382H215.45ZM222.906 382.179C222.422 382.179 221.983 382.088 221.589 381.906C221.194 381.72 220.881 381.453 220.649 381.105C220.417 380.754 220.301 380.33 220.301 379.832C220.301 379.395 220.387 379.04 220.559 378.768C220.732 378.493 220.962 378.278 221.25 378.122C221.539 377.966 221.857 377.85 222.205 377.774C222.556 377.695 222.909 377.632 223.264 377.585C223.728 377.526 224.104 377.481 224.392 377.451C224.684 377.418 224.896 377.363 225.029 377.287C225.165 377.211 225.233 377.078 225.233 376.889V376.849C225.233 376.359 225.098 375.978 224.83 375.706C224.565 375.434 224.162 375.298 223.622 375.298C223.062 375.298 222.623 375.421 222.304 375.666C221.986 375.911 221.763 376.173 221.633 376.452L220.52 376.054C220.718 375.59 220.984 375.229 221.315 374.97C221.65 374.708 222.014 374.526 222.409 374.423C222.807 374.317 223.198 374.264 223.582 374.264C223.827 374.264 224.109 374.294 224.427 374.354C224.749 374.41 225.059 374.528 225.357 374.707C225.659 374.886 225.909 375.156 226.108 375.517C226.307 375.878 226.406 376.362 226.406 376.969V382H225.233V380.966H225.173C225.093 381.132 224.961 381.309 224.775 381.498C224.59 381.687 224.343 381.848 224.035 381.98C223.726 382.113 223.35 382.179 222.906 382.179ZM223.085 381.125C223.549 381.125 223.94 381.034 224.258 380.852C224.58 380.669 224.822 380.434 224.984 380.146C225.15 379.857 225.233 379.554 225.233 379.236V378.162C225.183 378.222 225.074 378.276 224.905 378.326C224.739 378.372 224.547 378.414 224.328 378.45C224.112 378.483 223.902 378.513 223.696 378.54C223.494 378.563 223.33 378.583 223.204 378.599C222.899 378.639 222.614 378.704 222.349 378.793C222.087 378.879 221.875 379.01 221.713 379.186C221.554 379.358 221.474 379.594 221.474 379.892C221.474 380.3 221.625 380.608 221.927 380.817C222.232 381.022 222.618 381.125 223.085 381.125ZM228.547 382V374.364H229.681V375.517H229.761C229.9 375.139 230.152 374.833 230.516 374.597C230.881 374.362 231.292 374.244 231.749 374.244C231.835 374.244 231.943 374.246 232.072 374.249C232.202 374.253 232.299 374.258 232.366 374.264V375.457C232.326 375.447 232.235 375.433 232.092 375.413C231.953 375.389 231.806 375.378 231.65 375.378C231.279 375.378 230.947 375.456 230.655 375.612C230.367 375.764 230.138 375.976 229.969 376.248C229.804 376.516 229.721 376.823 229.721 377.168V382H228.547Z" fill="white"/>
</svg>
