<svg width="400" height="700" viewBox="0 0 400 700" fill="none" xmlns="http://www.w3.org/2000/svg">
<path d="M400 0H0V700H400V0Z" fill="#1B0B26"/>
<path d="M51.0568 316V307.273H54.0057C54.6903 307.273 55.25 307.396 55.6847 307.643C56.1222 307.888 56.446 308.219 56.6562 308.636C56.8665 309.054 56.9716 309.52 56.9716 310.034C56.9716 310.548 56.8665 311.016 56.6562 311.436C56.4489 311.857 56.1278 312.192 55.6932 312.442C55.2585 312.689 54.7017 312.812 54.0227 312.812H51.9091V311.875H53.9886C54.4574 311.875 54.8338 311.794 55.1179 311.632C55.402 311.47 55.608 311.251 55.7358 310.976C55.8665 310.697 55.9318 310.384 55.9318 310.034C55.9318 309.685 55.8665 309.372 55.7358 309.097C55.608 308.821 55.4006 308.605 55.1136 308.449C54.8267 308.29 54.446 308.21 53.9716 308.21H52.1136V316H51.0568ZM58.5376 316V309.455H59.5092V310.443H59.5774C59.6967 310.119 59.9126 309.857 60.2251 309.655C60.5376 309.453 60.8899 309.352 61.282 309.352C61.3558 309.352 61.4482 309.354 61.5589 309.357C61.6697 309.359 61.7536 309.364 61.8104 309.369V310.392C61.7763 310.384 61.6982 310.371 61.576 310.354C61.4567 310.334 61.3303 310.324 61.1967 310.324C60.8786 310.324 60.5945 310.391 60.3445 310.524C60.0973 310.655 59.9013 310.837 59.7564 311.07C59.6143 311.3 59.5433 311.562 59.5433 311.858V316H58.5376ZM65.5476 316.136C64.9169 316.136 64.3729 315.997 63.9155 315.719C63.4609 315.438 63.1101 315.045 62.8629 314.543C62.6186 314.037 62.4964 313.449 62.4964 312.778C62.4964 312.108 62.6186 311.517 62.8629 311.006C63.1101 310.491 63.4538 310.091 63.8942 309.804C64.3374 309.514 64.8544 309.369 65.4453 309.369C65.7862 309.369 66.1229 309.426 66.4553 309.54C66.7876 309.653 67.0902 309.838 67.3629 310.094C67.6357 310.347 67.853 310.682 68.0149 311.099C68.1768 311.517 68.2578 312.031 68.2578 312.642V313.068H63.2124V312.199H67.2351C67.2351 311.83 67.1612 311.5 67.0135 311.21C66.8686 310.92 66.6612 310.692 66.3913 310.524C66.1243 310.357 65.8089 310.273 65.4453 310.273C65.0447 310.273 64.6982 310.372 64.4055 310.571C64.1158 310.767 63.8928 311.023 63.7365 311.338C63.5803 311.653 63.5021 311.991 63.5021 312.352V312.932C63.5021 313.426 63.5874 313.845 63.7578 314.189C63.9311 314.53 64.1712 314.79 64.478 314.969C64.7848 315.145 65.1413 315.233 65.5476 315.233C65.8118 315.233 66.0504 315.196 66.2635 315.122C66.4794 315.045 66.6655 314.932 66.8217 314.781C66.978 314.628 67.0987 314.437 67.1839 314.21L68.1555 314.483C68.0533 314.812 67.8814 315.102 67.6399 315.352C67.3984 315.599 67.1001 315.793 66.745 315.932C66.3899 316.068 65.9908 316.136 65.5476 316.136ZM64.9339 308.568L65.9737 306.591H67.1499L65.8203 308.568H64.9339ZM73.657 307.273L76.2479 314.619H76.3501L78.9411 307.273H80.049L76.8445 316H75.7536L72.549 307.273H73.657ZM81.272 316V309.455H82.2777V316H81.272ZM81.7834 308.364C81.5874 308.364 81.4183 308.297 81.2763 308.163C81.1371 308.03 81.0675 307.869 81.0675 307.682C81.0675 307.494 81.1371 307.334 81.2763 307.2C81.4183 307.067 81.5874 307 81.7834 307C81.9794 307 82.147 307.067 82.2862 307.2C82.4283 307.334 82.4993 307.494 82.4993 307.682C82.4993 307.869 82.4283 308.03 82.2862 308.163C82.147 308.297 81.9794 308.364 81.7834 308.364ZM88.756 310.92L87.8526 311.176C87.7958 311.026 87.712 310.879 87.6012 310.737C87.4933 310.592 87.3455 310.473 87.158 310.379C86.9705 310.286 86.7305 310.239 86.4379 310.239C86.0373 310.239 85.7035 310.331 85.4364 310.516C85.1722 310.697 85.0401 310.929 85.0401 311.21C85.0401 311.46 85.131 311.658 85.3129 311.803C85.4947 311.947 85.7788 312.068 86.1651 312.165L87.1367 312.403C87.7219 312.545 88.158 312.763 88.445 313.055C88.7319 313.345 88.8754 313.719 88.8754 314.176C88.8754 314.551 88.7674 314.886 88.5515 315.182C88.3384 315.477 88.0401 315.71 87.6566 315.881C87.2731 316.051 86.8271 316.136 86.3185 316.136C85.6509 316.136 85.0984 315.991 84.6609 315.702C84.2234 315.412 83.9464 314.989 83.8299 314.432L84.7844 314.193C84.8754 314.545 85.0472 314.81 85.3001 314.986C85.5558 315.162 85.8896 315.25 86.3015 315.25C86.7702 315.25 87.1424 315.151 87.418 314.952C87.6964 314.75 87.8356 314.509 87.8356 314.227C87.8356 314 87.756 313.81 87.5969 313.656C87.4379 313.5 87.1935 313.384 86.864 313.307L85.7731 313.051C85.1737 312.909 84.7333 312.689 84.4521 312.391C84.1737 312.089 84.0344 311.713 84.0344 311.261C84.0344 310.892 84.1381 310.565 84.3455 310.281C84.5558 309.997 84.8413 309.774 85.2021 309.612C85.5657 309.45 85.9776 309.369 86.4379 309.369C87.0856 309.369 87.5941 309.511 87.9634 309.795C88.3356 310.08 88.5998 310.455 88.756 310.92ZM94.5142 313.324V309.455H95.5199V316H94.5142V314.892H94.446C94.2926 315.224 94.054 315.507 93.7301 315.74C93.4063 315.97 92.9972 316.085 92.5028 316.085C92.0938 316.085 91.7301 315.996 91.4119 315.817C91.0938 315.635 90.8438 315.362 90.6619 314.999C90.4801 314.632 90.3892 314.17 90.3892 313.614V309.455H91.3949V313.545C91.3949 314.023 91.5284 314.403 91.7955 314.688C92.0653 314.972 92.4091 315.114 92.8267 315.114C93.0767 315.114 93.331 315.05 93.5895 314.922C93.8509 314.794 94.0696 314.598 94.2457 314.334C94.4247 314.07 94.5142 313.733 94.5142 313.324ZM99.288 316.153C98.8732 316.153 98.4968 316.075 98.1587 315.919C97.8207 315.76 97.5522 315.531 97.3533 315.233C97.1545 314.932 97.055 314.568 97.055 314.142C97.055 313.767 97.1289 313.463 97.2766 313.23C97.4244 312.994 97.6218 312.81 97.869 312.676C98.1161 312.543 98.3888 312.443 98.6871 312.378C98.9883 312.31 99.2908 312.256 99.5948 312.216C99.9925 312.165 100.315 312.126 100.562 312.101C100.812 312.072 100.994 312.026 101.108 311.96C101.224 311.895 101.282 311.781 101.282 311.619V311.585C101.282 311.165 101.167 310.838 100.937 310.605C100.71 310.372 100.365 310.256 99.9016 310.256C99.4215 310.256 99.0451 310.361 98.7724 310.571C98.4996 310.781 98.3079 311.006 98.1971 311.244L97.2425 310.903C97.413 310.506 97.6403 310.196 97.9244 309.974C98.2113 309.75 98.5238 309.594 98.8619 309.506C99.2028 309.415 99.538 309.369 99.8675 309.369C100.078 309.369 100.319 309.395 100.592 309.446C100.868 309.494 101.133 309.595 101.389 309.749C101.647 309.902 101.862 310.134 102.032 310.443C102.203 310.753 102.288 311.168 102.288 311.688V316H101.282V315.114H101.231C101.163 315.256 101.049 315.408 100.89 315.57C100.731 315.732 100.52 315.869 100.255 315.983C99.9911 316.097 99.6687 316.153 99.288 316.153ZM99.4414 315.25C99.8391 315.25 100.174 315.172 100.447 315.016C100.723 314.859 100.93 314.658 101.069 314.411C101.211 314.163 101.282 313.903 101.282 313.631V312.71C101.24 312.761 101.146 312.808 101.001 312.851C100.859 312.891 100.694 312.926 100.507 312.957C100.322 312.986 100.142 313.011 99.9656 313.034C99.7923 313.054 99.6516 313.071 99.5437 313.085C99.2823 313.119 99.038 313.175 98.8107 313.251C98.5863 313.325 98.4045 313.437 98.2653 313.588C98.1289 313.736 98.0607 313.937 98.0607 314.193C98.0607 314.543 98.19 314.807 98.4485 314.986C98.7099 315.162 99.0408 315.25 99.4414 315.25ZM105.129 307.273V316H104.124V307.273H105.129ZM106.971 316V309.455H107.977V316H106.971ZM107.483 308.364C107.287 308.364 107.118 308.297 106.975 308.163C106.836 308.03 106.767 307.869 106.767 307.682C106.767 307.494 106.836 307.334 106.975 307.2C107.118 307.067 107.287 307 107.483 307C107.679 307 107.846 307.067 107.985 307.2C108.127 307.334 108.199 307.494 108.199 307.682C108.199 307.869 108.127 308.03 107.985 308.163C107.846 308.297 107.679 308.364 107.483 308.364ZM109.631 316V315.233L113.347 310.46V310.392H109.751V309.455H114.643V310.256L111.029 314.994V315.062H114.762V316H109.631ZM118.237 316.153C117.822 316.153 117.446 316.075 117.108 315.919C116.77 315.76 116.501 315.531 116.303 315.233C116.104 314.932 116.004 314.568 116.004 314.142C116.004 313.767 116.078 313.463 116.226 313.23C116.374 312.994 116.571 312.81 116.818 312.676C117.065 312.543 117.338 312.443 117.636 312.378C117.938 312.31 118.24 312.256 118.544 312.216C118.942 312.165 119.264 312.126 119.511 312.101C119.761 312.072 119.943 312.026 120.057 311.96C120.173 311.895 120.232 311.781 120.232 311.619V311.585C120.232 311.165 120.116 310.838 119.886 310.605C119.659 310.372 119.314 310.256 118.851 310.256C118.371 310.256 117.994 310.361 117.722 310.571C117.449 310.781 117.257 311.006 117.146 311.244L116.192 310.903C116.362 310.506 116.589 310.196 116.874 309.974C117.161 309.75 117.473 309.594 117.811 309.506C118.152 309.415 118.487 309.369 118.817 309.369C119.027 309.369 119.268 309.395 119.541 309.446C119.817 309.494 120.082 309.595 120.338 309.749C120.597 309.902 120.811 310.134 120.982 310.443C121.152 310.753 121.237 311.168 121.237 311.688V316H120.232V315.114H120.18C120.112 315.256 119.999 315.408 119.839 315.57C119.68 315.732 119.469 315.869 119.205 315.983C118.94 316.097 118.618 316.153 118.237 316.153ZM118.391 315.25C118.788 315.25 119.124 315.172 119.396 315.016C119.672 314.859 119.879 314.658 120.018 314.411C120.161 314.163 120.232 313.903 120.232 313.631V312.71C120.189 312.761 120.095 312.808 119.95 312.851C119.808 312.891 119.643 312.926 119.456 312.957C119.271 312.986 119.091 313.011 118.915 313.034C118.741 313.054 118.601 313.071 118.493 313.085C118.232 313.119 117.987 313.175 117.76 313.251C117.536 313.325 117.354 313.437 117.214 313.588C117.078 313.736 117.01 313.937 117.01 314.193C117.01 314.543 117.139 314.807 117.398 314.986C117.659 315.162 117.99 315.25 118.391 315.25ZM123.073 316V309.455H124.044V310.443H124.113C124.232 310.119 124.448 309.857 124.76 309.655C125.073 309.453 125.425 309.352 125.817 309.352C125.891 309.352 125.983 309.354 126.094 309.357C126.205 309.359 126.289 309.364 126.346 309.369V310.392C126.311 310.384 126.233 310.371 126.111 310.354C125.992 310.334 125.865 310.324 125.732 310.324C125.414 310.324 125.13 310.391 124.88 310.524C124.632 310.655 124.436 310.837 124.292 311.07C124.15 311.3 124.078 311.562 124.078 311.858V316H123.073ZM131.407 307.273L133.998 314.619H134.1L136.691 307.273H137.799L134.594 316H133.504L130.299 307.273H131.407ZM139.022 316V309.455H140.028V316H139.022ZM139.073 308.568L140.113 306.591H141.289L139.96 308.568H139.073ZM144.341 316.136C143.796 316.136 143.314 315.999 142.897 315.723C142.479 315.445 142.152 315.053 141.917 314.547C141.681 314.038 141.563 313.438 141.563 312.744C141.563 312.057 141.681 311.46 141.917 310.955C142.152 310.449 142.48 310.058 142.901 309.783C143.321 309.507 143.807 309.369 144.358 309.369C144.784 309.369 145.121 309.44 145.368 309.582C145.618 309.722 145.809 309.881 145.939 310.06C146.073 310.236 146.176 310.381 146.25 310.494H146.336V307.273H147.341V316H146.37V314.994H146.25C146.176 315.114 146.071 315.264 145.935 315.446C145.799 315.625 145.604 315.786 145.351 315.928C145.098 316.067 144.762 316.136 144.341 316.136ZM144.478 315.233C144.881 315.233 145.222 315.128 145.5 314.918C145.779 314.705 145.99 314.411 146.135 314.036C146.28 313.658 146.353 313.222 146.353 312.727C146.353 312.239 146.282 311.811 146.14 311.445C145.998 311.075 145.787 310.788 145.509 310.584C145.23 310.376 144.887 310.273 144.478 310.273C144.051 310.273 143.696 310.382 143.412 310.601C143.131 310.817 142.919 311.111 142.777 311.483C142.638 311.852 142.569 312.267 142.569 312.727C142.569 313.193 142.64 313.616 142.782 313.997C142.926 314.375 143.14 314.676 143.421 314.901C143.705 315.122 144.057 315.233 144.478 315.233ZM152.067 316.136C151.436 316.136 150.892 315.997 150.435 315.719C149.98 315.438 149.63 315.045 149.382 314.543C149.138 314.037 149.016 313.449 149.016 312.778C149.016 312.108 149.138 311.517 149.382 311.006C149.63 310.491 149.973 310.091 150.414 309.804C150.857 309.514 151.374 309.369 151.965 309.369C152.306 309.369 152.642 309.426 152.975 309.54C153.307 309.653 153.61 309.838 153.882 310.094C154.155 310.347 154.373 310.682 154.534 311.099C154.696 311.517 154.777 312.031 154.777 312.642V313.068H149.732V312.199H153.755C153.755 311.83 153.681 311.5 153.533 311.21C153.388 310.92 153.181 310.692 152.911 310.524C152.644 310.357 152.328 310.273 151.965 310.273C151.564 310.273 151.218 310.372 150.925 310.571C150.635 310.767 150.412 311.023 150.256 311.338C150.1 311.653 150.022 311.991 150.022 312.352V312.932C150.022 313.426 150.107 313.845 150.277 314.189C150.451 314.53 150.691 314.79 150.998 314.969C151.304 315.145 151.661 315.233 152.067 315.233C152.331 315.233 152.57 315.196 152.783 315.122C152.999 315.045 153.185 314.932 153.341 314.781C153.498 314.628 153.618 314.437 153.703 314.21L154.675 314.483C154.573 314.812 154.401 315.102 154.159 315.352C153.918 315.599 153.62 315.793 153.265 315.932C152.909 316.068 152.51 316.136 152.067 316.136ZM158.966 316.136C158.375 316.136 157.857 315.996 157.411 315.714C156.968 315.433 156.621 315.04 156.371 314.534C156.124 314.028 156 313.437 156 312.761C156 312.08 156.124 311.484 156.371 310.976C156.621 310.467 156.968 310.072 157.411 309.791C157.857 309.51 158.375 309.369 158.966 309.369C159.557 309.369 160.074 309.51 160.517 309.791C160.963 310.072 161.31 310.467 161.557 310.976C161.807 311.484 161.932 312.08 161.932 312.761C161.932 313.437 161.807 314.028 161.557 314.534C161.31 315.04 160.963 315.433 160.517 315.714C160.074 315.996 159.557 316.136 158.966 316.136ZM158.966 315.233C159.415 315.233 159.784 315.118 160.074 314.888C160.364 314.658 160.578 314.355 160.718 313.98C160.857 313.605 160.926 313.199 160.926 312.761C160.926 312.324 160.857 311.916 160.718 311.538C160.578 311.161 160.364 310.855 160.074 310.622C159.784 310.389 159.415 310.273 158.966 310.273C158.517 310.273 158.148 310.389 157.858 310.622C157.569 310.855 157.354 311.161 157.215 311.538C157.076 311.916 157.006 312.324 157.006 312.761C157.006 313.199 157.076 313.605 157.215 313.98C157.354 314.355 157.569 314.658 157.858 314.888C158.148 315.118 158.517 315.233 158.966 315.233Z" fill="white"/>
<path d="M400 0H0V50H400V0Z" fill="#222222"/>
<path d="M400 0H0V50H400V0Z" fill="#1E1A21"/>
<path d="M280 8C280 3.58172 283.582 0 288 0H392C396.418 0 400 3.58172 400 8V42C400 46.4183 396.418 50 392 50H288C283.582 50 280 46.4183 280 42V8Z" fill="#2D2828"/>
<path d="M280 8C280 3.58172 283.582 0 288 0H392C396.418 0 400 3.58172 400 8V42C400 46.4183 396.418 50 392 50H288C283.582 50 280 46.4183 280 42V8Z" fill="#2D2828"/>
<path d="M316.227 25.1818C316.227 26.4091 316.006 27.4697 315.562 28.3636C315.119 29.2576 314.511 29.947 313.739 30.4318C312.966 30.9167 312.083 31.1591 311.091 31.1591C310.098 31.1591 309.216 30.9167 308.443 30.4318C307.67 29.947 307.063 29.2576 306.619 28.3636C306.176 27.4697 305.955 26.4091 305.955 25.1818C305.955 23.9545 306.176 22.8939 306.619 22C307.063 21.1061 307.67 20.4167 308.443 19.9318C309.216 19.447 310.098 19.2045 311.091 19.2045C312.083 19.2045 312.966 19.447 313.739 19.9318C314.511 20.4167 315.119 21.1061 315.562 22C316.006 22.8939 316.227 23.9545 316.227 25.1818ZM314.864 25.1818C314.864 24.1742 314.695 23.3239 314.358 22.6307C314.025 21.9375 313.572 21.4129 313 21.0568C312.432 20.7008 311.795 20.5227 311.091 20.5227C310.386 20.5227 309.748 20.7008 309.176 21.0568C308.608 21.4129 308.155 21.9375 307.818 22.6307C307.485 23.3239 307.318 24.1742 307.318 25.1818C307.318 26.1894 307.485 27.0398 307.818 27.733C308.155 28.4261 308.608 28.9508 309.176 29.3068C309.748 29.6629 310.386 29.8409 311.091 29.8409C311.795 29.8409 312.432 29.6629 313 29.3068C313.572 28.9508 314.025 28.4261 314.358 27.733C314.695 27.0398 314.864 26.1894 314.864 25.1818ZM319.756 19.3636V31H318.415V19.3636H319.756ZM324.78 31.2045C324.227 31.2045 323.725 31.1004 323.274 30.892C322.823 30.6799 322.465 30.375 322.2 29.9773C321.935 29.5758 321.803 29.0909 321.803 28.5227C321.803 28.0227 321.901 27.6174 322.098 27.3068C322.295 26.9924 322.558 26.7462 322.888 26.5682C323.217 26.3902 323.581 26.2576 323.979 26.1705C324.38 26.0795 324.784 26.0076 325.189 25.9545C325.719 25.8864 326.149 25.8352 326.479 25.8011C326.812 25.7633 327.054 25.7008 327.206 25.6136C327.361 25.5265 327.439 25.375 327.439 25.1591V25.1136C327.439 24.553 327.286 24.1174 326.979 23.8068C326.676 23.4962 326.215 23.3409 325.598 23.3409C324.958 23.3409 324.456 23.4811 324.092 23.7614C323.729 24.0417 323.473 24.3409 323.325 24.6591L322.053 24.2045C322.28 23.6742 322.583 23.2614 322.962 22.9659C323.344 22.6667 323.761 22.4583 324.212 22.3409C324.666 22.2197 325.113 22.1591 325.553 22.1591C325.833 22.1591 326.155 22.1932 326.518 22.2614C326.886 22.3258 327.24 22.4602 327.581 22.6648C327.926 22.8693 328.212 23.178 328.439 23.5909C328.666 24.0038 328.78 24.5568 328.78 25.25V31H327.439V29.8182H327.371C327.28 30.0076 327.128 30.2102 326.916 30.4261C326.704 30.642 326.422 30.8258 326.07 30.9773C325.717 31.1288 325.287 31.2045 324.78 31.2045ZM324.984 30C325.515 30 325.962 29.8958 326.325 29.6875C326.693 29.4792 326.969 29.2102 327.155 28.8807C327.344 28.5511 327.439 28.2045 327.439 27.8409V26.6136C327.382 26.6818 327.257 26.7443 327.064 26.8011C326.875 26.8542 326.655 26.9015 326.405 26.9432C326.159 26.9811 325.918 27.0152 325.683 27.0455C325.452 27.072 325.265 27.0947 325.121 27.1136C324.772 27.1591 324.446 27.233 324.143 27.3352C323.844 27.4337 323.602 27.5833 323.416 27.7841C323.234 27.9811 323.143 28.25 323.143 28.5909C323.143 29.0568 323.316 29.4091 323.661 29.6477C324.009 29.8826 324.45 30 324.984 30ZM325.03 21.0909L326.416 18.4545H327.984L326.212 21.0909H325.03ZM333.227 29.4091L333.136 30.0227C333.072 30.4545 332.973 30.9167 332.841 31.4091C332.712 31.9015 332.578 32.3655 332.438 32.8011C332.297 33.2367 332.182 33.5833 332.091 33.8409H331.068C331.117 33.5985 331.182 33.2784 331.261 32.8807C331.341 32.483 331.42 32.0379 331.5 31.5455C331.583 31.0568 331.652 30.5568 331.705 30.0455L331.773 29.4091H333.227ZM340.871 19.3636L344.325 29.1591H344.462L347.916 19.3636H349.393L345.121 31H343.666L339.393 19.3636H340.871ZM351.024 31V22.2727H352.365V31H351.024ZM351.706 20.8182C351.445 20.8182 351.219 20.7292 351.03 20.5511C350.844 20.3731 350.751 20.1591 350.751 19.9091C350.751 19.6591 350.844 19.4451 351.03 19.267C351.219 19.089 351.445 19 351.706 19C351.967 19 352.191 19.089 352.376 19.267C352.566 19.4451 352.661 19.6591 352.661 19.9091C352.661 20.1591 352.566 20.3731 352.376 20.5511C352.191 20.7292 351.967 20.8182 351.706 20.8182ZM358.616 22.2727V23.4091H354.094V22.2727H358.616ZM355.412 20.1818H356.753V28.5C356.753 28.8788 356.808 29.1629 356.918 29.3523C357.031 29.5379 357.175 29.6629 357.349 29.7273C357.527 29.7879 357.715 29.8182 357.912 29.8182C358.06 29.8182 358.181 29.8106 358.276 29.7955C358.37 29.7765 358.446 29.7614 358.503 29.75L358.776 30.9545C358.685 30.9886 358.558 31.0227 358.395 31.0568C358.232 31.0947 358.026 31.1136 357.776 31.1136C357.397 31.1136 357.026 31.0322 356.662 30.8693C356.302 30.7064 356.003 30.4583 355.764 30.125C355.529 29.7917 355.412 29.3712 355.412 28.8636V20.1818ZM364.085 31.1818C363.297 31.1818 362.606 30.9943 362.011 30.6193C361.42 30.2443 360.958 29.7197 360.625 29.0455C360.295 28.3712 360.131 27.5833 360.131 26.6818C360.131 25.7727 360.295 24.9792 360.625 24.3011C360.958 23.6231 361.42 23.0966 362.011 22.7216C362.606 22.3466 363.297 22.1591 364.085 22.1591C364.873 22.1591 365.563 22.3466 366.153 22.7216C366.748 23.0966 367.21 23.6231 367.54 24.3011C367.873 24.9792 368.04 25.7727 368.04 26.6818C368.04 27.5833 367.873 28.3712 367.54 29.0455C367.21 29.7197 366.748 30.2443 366.153 30.6193C365.563 30.9943 364.873 31.1818 364.085 31.1818ZM364.085 29.9773C364.684 29.9773 365.176 29.8239 365.562 29.517C365.949 29.2102 366.235 28.8068 366.42 28.3068C366.606 27.8068 366.699 27.2652 366.699 26.6818C366.699 26.0985 366.606 25.5549 366.42 25.0511C366.235 24.5473 365.949 24.1402 365.562 23.8295C365.176 23.5189 364.684 23.3636 364.085 23.3636C363.487 23.3636 362.994 23.5189 362.608 23.8295C362.222 24.1402 361.936 24.5473 361.75 25.0511C361.564 25.5549 361.472 26.0985 361.472 26.6818C361.472 27.2652 361.564 27.8068 361.75 28.3068C361.936 28.8068 362.222 29.2102 362.608 29.517C362.994 29.8239 363.487 29.9773 364.085 29.9773ZM370.087 31V22.2727H371.382V23.5909H371.473C371.632 23.1591 371.92 22.8087 372.337 22.5398C372.753 22.2708 373.223 22.1364 373.746 22.1364C373.844 22.1364 373.967 22.1383 374.115 22.142C374.263 22.1458 374.375 22.1515 374.45 22.1591V23.5227C374.405 23.5114 374.301 23.4943 374.138 23.4716C373.979 23.4451 373.81 23.4318 373.632 23.4318C373.208 23.4318 372.829 23.5208 372.496 23.6989C372.166 23.8731 371.905 24.1155 371.712 24.4261C371.522 24.733 371.428 25.0833 371.428 25.4773V31H370.087Z" fill="white"/>
<path d="M16.8864 17.3636L20.3409 27.1591H20.4773L23.9318 17.3636H25.4091L21.1364 29H19.6818L15.4091 17.3636H16.8864ZM27.0398 29V20.2727H28.3807V29H27.0398ZM27.7216 18.8182C27.4602 18.8182 27.2348 18.7292 27.0455 18.5511C26.8598 18.3731 26.767 18.1591 26.767 17.9091C26.767 17.6591 26.8598 17.4451 27.0455 17.267C27.2348 17.089 27.4602 17 27.7216 17C27.983 17 28.2064 17.089 28.392 17.267C28.5814 17.4451 28.6761 17.6591 28.6761 17.9091C28.6761 18.1591 28.5814 18.3731 28.392 18.5511C28.2064 18.7292 27.983 18.8182 27.7216 18.8182ZM34.1321 29.1818C33.4048 29.1818 32.7628 28.9981 32.206 28.6307C31.6491 28.2595 31.2135 27.7367 30.8991 27.0625C30.5848 26.3845 30.4276 25.5833 30.4276 24.6591C30.4276 23.7424 30.5848 22.947 30.8991 22.2727C31.2135 21.5985 31.651 21.0777 32.2116 20.7102C32.7723 20.3428 33.42 20.1591 34.1548 20.1591C34.723 20.1591 35.1719 20.2538 35.5014 20.4432C35.8348 20.6288 36.0885 20.8409 36.2628 21.0795C36.4408 21.3144 36.5791 21.5076 36.6776 21.6591H36.7912V17.3636H38.1321V29H36.8366V27.6591H36.6776C36.5791 27.8182 36.4389 28.0189 36.2571 28.2614C36.0753 28.5 35.8158 28.714 35.4787 28.9034C35.1416 29.089 34.6927 29.1818 34.1321 29.1818ZM34.3139 27.9773C34.8518 27.9773 35.3063 27.8371 35.6776 27.5568C36.0488 27.2727 36.331 26.8807 36.5241 26.3807C36.7173 25.8769 36.8139 25.2955 36.8139 24.6364C36.8139 23.9848 36.7192 23.4148 36.5298 22.9261C36.3404 22.4337 36.0601 22.0511 35.6889 21.7784C35.3177 21.5019 34.8594 21.3636 34.3139 21.3636C33.7457 21.3636 33.2723 21.5095 32.8935 21.8011C32.5185 22.089 32.2363 22.4811 32.0469 22.9773C31.8613 23.4697 31.7685 24.0227 31.7685 24.6364C31.7685 25.2576 31.8632 25.822 32.0526 26.3295C32.2457 26.8333 32.5298 27.2348 32.9048 27.5341C33.2836 27.8295 33.7533 27.9773 34.3139 27.9773ZM44.4332 29.1818C43.5923 29.1818 42.867 28.9962 42.2571 28.625C41.651 28.25 41.1832 27.7273 40.8537 27.0568C40.5279 26.3826 40.3651 25.5985 40.3651 24.7045C40.3651 23.8106 40.5279 23.0227 40.8537 22.3409C41.1832 21.6553 41.6416 21.1212 42.2287 20.7386C42.8196 20.3523 43.509 20.1591 44.2969 20.1591C44.7514 20.1591 45.2003 20.2348 45.6435 20.3864C46.0866 20.5379 46.4901 20.7841 46.8537 21.125C47.2173 21.4621 47.5071 21.9091 47.723 22.4659C47.9389 23.0227 48.0469 23.7083 48.0469 24.5227V25.0909H41.3196V23.9318H46.6832C46.6832 23.4394 46.5848 23 46.3878 22.6136C46.1946 22.2273 45.9181 21.9223 45.5582 21.6989C45.2022 21.4754 44.7817 21.3636 44.2969 21.3636C43.7628 21.3636 43.3007 21.4962 42.9105 21.7614C42.5241 22.0227 42.2268 22.3636 42.0185 22.7841C41.8101 23.2045 41.706 23.6553 41.706 24.1364V24.9091C41.706 25.5682 41.8196 26.1269 42.0469 26.5852C42.2779 27.0398 42.598 27.3864 43.0071 27.625C43.4162 27.8598 43.8916 27.9773 44.4332 27.9773C44.7855 27.9773 45.1037 27.928 45.3878 27.8295C45.6757 27.7273 45.9238 27.5758 46.1321 27.375C46.3404 27.1705 46.5014 26.9167 46.6151 26.6136L47.9105 26.9773C47.7741 27.4167 47.545 27.803 47.223 28.1364C46.901 28.4659 46.5033 28.7235 46.0298 28.9091C45.5563 29.0909 45.0241 29.1818 44.4332 29.1818ZM53.6321 29.1818C52.8442 29.1818 52.1529 28.9943 51.5582 28.6193C50.9673 28.2443 50.5052 27.7197 50.1719 27.0455C49.8423 26.3712 49.6776 25.5833 49.6776 24.6818C49.6776 23.7727 49.8423 22.9792 50.1719 22.3011C50.5052 21.6231 50.9673 21.0966 51.5582 20.7216C52.1529 20.3466 52.8442 20.1591 53.6321 20.1591C54.42 20.1591 55.1094 20.3466 55.7003 20.7216C56.295 21.0966 56.7571 21.6231 57.0866 22.3011C57.42 22.9792 57.5866 23.7727 57.5866 24.6818C57.5866 25.5833 57.42 26.3712 57.0866 27.0455C56.7571 27.7197 56.295 28.2443 55.7003 28.6193C55.1094 28.9943 54.42 29.1818 53.6321 29.1818ZM53.6321 27.9773C54.2306 27.9773 54.723 27.8239 55.1094 27.517C55.4957 27.2102 55.7817 26.8068 55.9673 26.3068C56.1529 25.8068 56.2457 25.2652 56.2457 24.6818C56.2457 24.0985 56.1529 23.5549 55.9673 23.0511C55.7817 22.5473 55.4957 22.1402 55.1094 21.8295C54.723 21.5189 54.2306 21.3636 53.6321 21.3636C53.0336 21.3636 52.5412 21.5189 52.1548 21.8295C51.7685 22.1402 51.4825 22.5473 51.2969 23.0511C51.1113 23.5549 51.0185 24.0985 51.0185 24.6818C51.0185 25.2652 51.1113 25.8068 51.2969 26.3068C51.4825 26.8068 51.7685 27.2102 52.1548 27.517C52.5412 27.8239 53.0336 27.9773 53.6321 27.9773ZM70.679 20.2727C70.6108 19.697 70.3343 19.25 69.8494 18.9318C69.3646 18.6136 68.7699 18.4545 68.0653 18.4545C67.5502 18.4545 67.0994 18.5379 66.7131 18.7045C66.3305 18.8712 66.0313 19.1004 65.8153 19.392C65.6032 19.6837 65.4972 20.0152 65.4972 20.3864C65.4972 20.697 65.571 20.964 65.7188 21.1875C65.8703 21.4072 66.0634 21.5909 66.2983 21.7386C66.5331 21.8826 66.7794 22.0019 67.0369 22.0966C67.2945 22.1875 67.5312 22.2614 67.7472 22.3182L68.929 22.6364C69.232 22.7159 69.5691 22.8258 69.9403 22.9659C70.3153 23.1061 70.6733 23.2973 71.0142 23.5398C71.3589 23.7784 71.643 24.0852 71.8665 24.4602C72.09 24.8352 72.2017 25.2955 72.2017 25.8409C72.2017 26.4697 72.0369 27.0379 71.7074 27.5455C71.3816 28.053 70.9044 28.4564 70.2756 28.7557C69.6506 29.0549 68.8911 29.2045 67.9972 29.2045C67.1638 29.2045 66.4422 29.0701 65.8324 28.8011C65.2263 28.5322 64.7491 28.1572 64.4006 27.6761C64.0559 27.1951 63.8608 26.6364 63.8153 26H65.2699C65.3078 26.4394 65.4555 26.803 65.7131 27.0909C65.9744 27.375 66.304 27.5871 66.7017 27.7273C67.1032 27.8636 67.535 27.9318 67.9972 27.9318C68.535 27.9318 69.018 27.8447 69.446 27.6705C69.8741 27.4924 70.2131 27.2462 70.4631 26.9318C70.7131 26.6136 70.8381 26.2424 70.8381 25.8182C70.8381 25.4318 70.7301 25.1174 70.5142 24.875C70.2983 24.6326 70.0142 24.4356 69.6619 24.2841C69.3097 24.1326 68.929 24 68.5199 23.8864L67.0881 23.4773C66.179 23.2159 65.4593 22.8428 64.929 22.358C64.3987 21.8731 64.1335 21.2386 64.1335 20.4545C64.1335 19.803 64.3097 19.2348 64.6619 18.75C65.018 18.2614 65.4953 17.8826 66.0938 17.6136C66.696 17.3409 67.3684 17.2045 68.1108 17.2045C68.8608 17.2045 69.5275 17.339 70.1108 17.608C70.6941 17.8731 71.1563 18.2367 71.4972 18.6989C71.8419 19.161 72.0237 19.6856 72.0426 20.2727H70.679ZM75.6776 23.75V29H74.3366V17.3636H75.6776V21.6364H75.7912C75.9957 21.1856 76.3026 20.8277 76.7116 20.5625C77.1245 20.2936 77.6738 20.1591 78.3594 20.1591C78.9541 20.1591 79.4749 20.2784 79.9219 20.517C80.3688 20.7519 80.7154 21.1136 80.9616 21.6023C81.2116 22.0871 81.3366 22.7045 81.3366 23.4545V29H79.9957V23.5455C79.9957 22.8523 79.8158 22.3163 79.456 21.9375C79.0999 21.5549 78.6056 21.3636 77.973 21.3636C77.5336 21.3636 77.1397 21.4564 76.7912 21.642C76.4465 21.8277 76.1738 22.0985 75.973 22.4545C75.776 22.8106 75.6776 23.2424 75.6776 23.75ZM86.358 29.2045C85.8049 29.2045 85.303 29.1004 84.8523 28.892C84.4015 28.6799 84.0436 28.375 83.7784 27.9773C83.5133 27.5758 83.3807 27.0909 83.3807 26.5227C83.3807 26.0227 83.4792 25.6174 83.6761 25.3068C83.8731 24.9924 84.1364 24.7462 84.4659 24.5682C84.7955 24.3902 85.1591 24.2576 85.5568 24.1705C85.9583 24.0795 86.3617 24.0076 86.767 23.9545C87.2973 23.8864 87.7273 23.8352 88.0568 23.8011C88.3902 23.7633 88.6326 23.7008 88.7841 23.6136C88.9394 23.5265 89.017 23.375 89.017 23.1591V23.1136C89.017 22.553 88.8636 22.1174 88.5568 21.8068C88.2538 21.4962 87.7936 21.3409 87.1761 21.3409C86.536 21.3409 86.0341 21.4811 85.6705 21.7614C85.3068 22.0417 85.0511 22.3409 84.9034 22.6591L83.6307 22.2045C83.858 21.6742 84.161 21.2614 84.5398 20.9659C84.9223 20.6667 85.339 20.4583 85.7898 20.3409C86.2443 20.2197 86.6913 20.1591 87.1307 20.1591C87.411 20.1591 87.733 20.1932 88.0966 20.2614C88.464 20.3258 88.8182 20.4602 89.1591 20.6648C89.5038 20.8693 89.7898 21.178 90.017 21.5909C90.2443 22.0038 90.358 22.5568 90.358 23.25V29H89.017V27.8182H88.9489C88.858 28.0076 88.7064 28.2102 88.4943 28.4261C88.2822 28.642 88 28.8258 87.6477 28.9773C87.2955 29.1288 86.8655 29.2045 86.358 29.2045ZM86.5625 28C87.0928 28 87.5398 27.8958 87.9034 27.6875C88.2708 27.4792 88.5473 27.2102 88.733 26.8807C88.9223 26.5511 89.017 26.2045 89.017 25.8409V24.6136C88.9602 24.6818 88.8352 24.7443 88.642 24.8011C88.4527 24.8542 88.233 24.9015 87.983 24.9432C87.7367 24.9811 87.4962 25.0152 87.2614 25.0455C87.0303 25.072 86.8428 25.0947 86.6989 25.1136C86.3504 25.1591 86.0246 25.233 85.7216 25.3352C85.4223 25.4337 85.1799 25.5833 84.9943 25.7841C84.8125 25.9811 84.7216 26.25 84.7216 26.5909C84.7216 27.0568 84.8939 27.4091 85.2386 27.6477C85.5871 27.8826 86.0284 28 86.5625 28ZM92.8054 29V20.2727H94.1009V21.5909H94.1918C94.3509 21.1591 94.6387 20.8087 95.0554 20.5398C95.4721 20.2708 95.9418 20.1364 96.4645 20.1364C96.563 20.1364 96.6861 20.1383 96.8338 20.142C96.9815 20.1458 97.0933 20.1515 97.169 20.1591V21.5227C97.1236 21.5114 97.0194 21.4943 96.8565 21.4716C96.6974 21.4451 96.5289 21.4318 96.3509 21.4318C95.9266 21.4318 95.5478 21.5208 95.2145 21.6989C94.8849 21.8731 94.6236 22.1155 94.4304 22.4261C94.241 22.733 94.1463 23.0833 94.1463 23.4773V29H92.8054ZM102.152 29.1818C101.311 29.1818 100.586 28.9962 99.9759 28.625C99.3698 28.25 98.902 27.7273 98.5724 27.0568C98.2467 26.3826 98.0838 25.5985 98.0838 24.7045C98.0838 23.8106 98.2467 23.0227 98.5724 22.3409C98.902 21.6553 99.3603 21.1212 99.9474 20.7386C100.538 20.3523 101.228 20.1591 102.016 20.1591C102.47 20.1591 102.919 20.2348 103.362 20.3864C103.805 20.5379 104.209 20.7841 104.572 21.125C104.936 21.4621 105.226 21.9091 105.442 22.4659C105.658 23.0227 105.766 23.7083 105.766 24.5227V25.0909H99.0384V23.9318H104.402C104.402 23.4394 104.304 23 104.107 22.6136C103.913 22.2273 103.637 21.9223 103.277 21.6989C102.921 21.4754 102.5 21.3636 102.016 21.3636C101.482 21.3636 101.019 21.4962 100.629 21.7614C100.243 22.0227 99.9455 22.3636 99.7372 22.7841C99.5289 23.2045 99.4247 23.6553 99.4247 24.1364V24.9091C99.4247 25.5682 99.5384 26.1269 99.7656 26.5852C99.9967 27.0398 100.317 27.3864 100.726 27.625C101.135 27.8598 101.61 27.9773 102.152 27.9773C102.504 27.9773 102.822 27.928 103.107 27.8295C103.394 27.7273 103.643 27.5758 103.851 27.375C104.059 27.1705 104.22 26.9167 104.334 26.6136L105.629 26.9773C105.493 27.4167 105.264 27.803 104.942 28.1364C104.62 28.4659 104.222 28.7235 103.749 28.9091C103.275 29.0909 102.743 29.1818 102.152 29.1818Z" fill="#2ECC71"/>
<path d="M148.605 100V86.9091H156.505V88.3153H150.19V92.7386H156.096V94.1449H150.19V98.5938H156.608V100H148.605ZM160.667 94.0938V100H159.158V90.1818H160.615V91.7159H160.743C160.973 91.2173 161.323 90.8168 161.792 90.5142C162.26 90.2074 162.865 90.054 163.607 90.054C164.272 90.054 164.853 90.1903 165.352 90.4631C165.85 90.7315 166.238 91.1406 166.515 91.6903C166.792 92.2358 166.931 92.9261 166.931 93.7614V100H165.422V93.8636C165.422 93.0923 165.222 92.4915 164.821 92.0611C164.421 91.6264 163.871 91.4091 163.172 91.4091C162.691 91.4091 162.26 91.5135 161.881 91.7223C161.506 91.9311 161.21 92.2358 160.993 92.6364C160.775 93.0369 160.667 93.5227 160.667 94.0938ZM177.364 90.1818L173.733 100H172.199L168.569 90.1818H170.205L172.915 98.0057H173.018L175.728 90.1818H177.364ZM179.355 100V90.1818H180.864V100H179.355ZM180.122 88.5455C179.828 88.5455 179.575 88.4453 179.362 88.245C179.153 88.0447 179.048 87.804 179.048 87.5227C179.048 87.2415 179.153 87.0007 179.362 86.8004C179.575 86.6001 179.828 86.5 180.122 86.5C180.416 86.5 180.668 86.6001 180.877 86.8004C181.09 87.0007 181.196 87.2415 181.196 87.5227C181.196 87.804 181.09 88.0447 180.877 88.245C180.668 88.4453 180.416 88.5455 180.122 88.5455ZM186.516 100.23C185.894 100.23 185.329 100.113 184.822 99.8786C184.315 99.6399 183.912 99.2969 183.614 98.8494C183.316 98.3977 183.167 97.8523 183.167 97.2131C183.167 96.6506 183.277 96.1946 183.499 95.8452C183.721 95.4915 184.017 95.2145 184.387 95.0142C184.758 94.8139 185.167 94.6648 185.615 94.5668C186.066 94.4645 186.52 94.3835 186.976 94.3239C187.573 94.2472 188.056 94.1896 188.427 94.1513C188.802 94.1087 189.075 94.0384 189.245 93.9403C189.42 93.8423 189.507 93.6719 189.507 93.429V93.3778C189.507 92.7472 189.335 92.2571 188.99 91.9077C188.649 91.5582 188.131 91.3835 187.436 91.3835C186.716 91.3835 186.152 91.5412 185.743 91.8565C185.333 92.1719 185.046 92.5085 184.88 92.8665L183.448 92.3551C183.703 91.7585 184.044 91.294 184.471 90.9616C184.901 90.625 185.37 90.3906 185.877 90.2585C186.388 90.1222 186.891 90.054 187.385 90.054C187.701 90.054 188.063 90.0923 188.472 90.169C188.885 90.2415 189.284 90.3928 189.667 90.6229C190.055 90.853 190.377 91.2003 190.632 91.6648C190.888 92.1293 191.016 92.7514 191.016 93.5312V100H189.507V98.6705H189.431C189.328 98.8835 189.158 99.1115 188.919 99.3544C188.681 99.5973 188.363 99.804 187.967 99.9744C187.571 100.145 187.087 100.23 186.516 100.23ZM186.746 98.875C187.343 98.875 187.846 98.7578 188.255 98.5234C188.668 98.2891 188.979 97.9865 189.188 97.6158C189.401 97.245 189.507 96.8551 189.507 96.446V95.0653C189.444 95.142 189.303 95.2124 189.086 95.2763C188.873 95.3359 188.625 95.3892 188.344 95.4361C188.067 95.4787 187.797 95.517 187.532 95.5511C187.272 95.581 187.061 95.6065 186.9 95.6278C186.507 95.679 186.141 95.7621 185.8 95.8771C185.463 95.9879 185.191 96.1562 184.982 96.3821C184.777 96.6037 184.675 96.9062 184.675 97.2898C184.675 97.8139 184.869 98.2102 185.257 98.4787C185.649 98.7429 186.145 98.875 186.746 98.875ZM193.769 100V90.1818H195.227V91.6648H195.329C195.508 91.179 195.832 90.7848 196.301 90.4822C196.769 90.1797 197.298 90.0284 197.886 90.0284C197.997 90.0284 198.135 90.0305 198.301 90.0348C198.468 90.0391 198.593 90.0455 198.678 90.054V91.5881C198.627 91.5753 198.51 91.5561 198.327 91.5305C198.148 91.5007 197.958 91.4858 197.758 91.4858C197.281 91.4858 196.855 91.5859 196.48 91.7862C196.109 91.9822 195.815 92.255 195.597 92.6044C195.384 92.9496 195.278 93.3437 195.278 93.7869V100H193.769ZM206.271 86.9091L210.157 97.929H210.31L214.197 86.9091H215.859L211.052 100H209.415L204.609 86.9091H206.271ZM217.693 100V90.1818H219.202V100H217.693ZM217.77 88.8523L219.33 85.8864H221.094L219.099 88.8523H217.77ZM225.672 100.205C224.854 100.205 224.132 99.9979 223.505 99.5845C222.879 99.1669 222.389 98.5788 222.035 97.8203C221.681 97.0575 221.504 96.1562 221.504 95.1165C221.504 94.0852 221.681 93.1903 222.035 92.4318C222.389 91.6733 222.881 91.0874 223.512 90.674C224.142 90.2607 224.871 90.054 225.698 90.054C226.337 90.054 226.842 90.1605 227.213 90.3736C227.588 90.5824 227.873 90.821 228.069 91.0895C228.269 91.3537 228.425 91.571 228.536 91.7415H228.664V86.9091H230.172V100H228.715V98.4915H228.536C228.425 98.6705 228.267 98.8963 228.063 99.169C227.858 99.4375 227.566 99.6783 227.187 99.8913C226.808 100.1 226.303 100.205 225.672 100.205ZM225.877 98.8494C226.482 98.8494 226.993 98.6918 227.411 98.3764C227.828 98.0568 228.146 97.6158 228.363 97.0533C228.58 96.4865 228.689 95.8324 228.689 95.0909C228.689 94.358 228.583 93.7166 228.369 93.1669C228.156 92.6129 227.841 92.1825 227.423 91.8757C227.006 91.5646 226.49 91.4091 225.877 91.4091C225.237 91.4091 224.705 91.5732 224.279 91.9013C223.857 92.2251 223.539 92.6662 223.326 93.2244C223.117 93.7784 223.013 94.4006 223.013 95.0909C223.013 95.7898 223.119 96.4247 223.333 96.9957C223.55 97.5625 223.869 98.0142 224.291 98.3509C224.718 98.6832 225.246 98.8494 225.877 98.8494ZM237.261 100.205C236.315 100.205 235.499 99.9957 234.813 99.5781C234.131 99.1562 233.605 98.5682 233.234 97.8139C232.867 97.0554 232.684 96.1733 232.684 95.1676C232.684 94.1619 232.867 93.2756 233.234 92.5085C233.605 91.7372 234.12 91.1364 234.781 90.706C235.445 90.2713 236.221 90.054 237.107 90.054C237.619 90.054 238.124 90.1392 238.622 90.3097C239.121 90.4801 239.575 90.7571 239.984 91.1406C240.393 91.5199 240.719 92.0227 240.962 92.6491C241.205 93.2756 241.326 94.0469 241.326 94.9631V95.6023H233.758V94.2983H239.792C239.792 93.7443 239.681 93.25 239.46 92.8153C239.242 92.3807 238.931 92.0376 238.526 91.7862C238.126 91.5348 237.653 91.4091 237.107 91.4091C236.507 91.4091 235.987 91.5582 235.548 91.8565C235.113 92.1506 234.779 92.5341 234.544 93.0071C234.31 93.4801 234.193 93.9872 234.193 94.5284V95.3977C234.193 96.1392 234.32 96.7678 234.576 97.2834C234.836 97.7947 235.196 98.1847 235.656 98.4531C236.117 98.7173 236.651 98.8494 237.261 98.8494C237.657 98.8494 238.015 98.794 238.335 98.6832C238.659 98.5682 238.938 98.3977 239.172 98.1719C239.406 97.9418 239.588 97.6562 239.715 97.3153L241.173 97.7244C241.019 98.2188 240.762 98.6534 240.399 99.0284C240.037 99.3991 239.59 99.6889 239.057 99.8977C238.524 100.102 237.926 100.205 237.261 100.205ZM247.61 100.205C246.723 100.205 245.945 99.9936 245.276 99.5717C244.612 99.1499 244.092 98.5597 243.717 97.8011C243.346 97.0426 243.161 96.1562 243.161 95.142C243.161 94.1193 243.346 93.2266 243.717 92.4638C244.092 91.701 244.612 91.1087 245.276 90.6868C245.945 90.2649 246.723 90.054 247.61 90.054C248.496 90.054 249.271 90.2649 249.936 90.6868C250.605 91.1087 251.125 91.701 251.496 92.4638C251.871 93.2266 252.058 94.1193 252.058 95.142C252.058 96.1562 251.871 97.0426 251.496 97.8011C251.125 98.5597 250.605 99.1499 249.936 99.5717C249.271 99.9936 248.496 100.205 247.61 100.205ZM247.61 98.8494C248.283 98.8494 248.837 98.6768 249.271 98.3317C249.706 97.9865 250.028 97.5327 250.237 96.9702C250.445 96.4077 250.55 95.7983 250.55 95.142C250.55 94.4858 250.445 93.8743 250.237 93.3075C250.028 92.7408 249.706 92.2827 249.271 91.9332C248.837 91.5838 248.283 91.4091 247.61 91.4091C246.936 91.4091 246.382 91.5838 245.948 91.9332C245.513 92.2827 245.191 92.7408 244.982 93.3075C244.774 93.8743 244.669 94.4858 244.669 95.142C244.669 95.7983 244.774 96.4077 244.982 96.9702C245.191 97.5327 245.513 97.9865 245.948 98.3317C246.382 98.6768 246.936 98.8494 247.61 98.8494Z" fill="white"/>
<path d="M400 650H0V700H400V650Z" fill="#1E1A21"/>
<path d="M50 658C50 653.582 53.5817 650 58 650H159C163.418 650 167 653.582 167 658V692C167 696.418 163.418 700 159 700H58C53.5817 700 50 696.418 50 692V658Z" fill="#2D2828"/>
<path d="M241.5 658C241.5 653.582 245.082 650 249.5 650H350.5C354.918 650 358.5 653.582 358.5 658V692C358.5 696.418 354.918 700 350.5 700H249.5C245.082 700 241.5 696.418 241.5 692V658Z" fill="#2D2828"/>
<path d="M254.409 681V669.364H261.432V670.614H255.818V674.545H261.068V675.795H255.818V679.75H261.523V681H254.409ZM265.131 675.75V681H263.79V672.273H265.085V673.636H265.199C265.403 673.193 265.714 672.837 266.131 672.568C266.547 672.295 267.085 672.159 267.744 672.159C268.335 672.159 268.852 672.28 269.295 672.523C269.739 672.761 270.083 673.125 270.33 673.614C270.576 674.098 270.699 674.712 270.699 675.455V681H269.358V675.545C269.358 674.86 269.18 674.326 268.824 673.943C268.468 673.557 267.979 673.364 267.358 673.364C266.93 673.364 266.547 673.456 266.21 673.642C265.877 673.828 265.614 674.098 265.42 674.455C265.227 674.811 265.131 675.242 265.131 675.75ZM279.973 672.273L276.746 681H275.382L272.155 672.273H273.609L276.018 679.227H276.109L278.518 672.273H279.973ZM281.743 681V672.273H283.084V681H281.743ZM282.425 670.818C282.163 670.818 281.938 670.729 281.749 670.551C281.563 670.373 281.47 670.159 281.47 669.909C281.47 669.659 281.563 669.445 281.749 669.267C281.938 669.089 282.163 669 282.425 669C282.686 669 282.91 669.089 283.095 669.267C283.285 669.445 283.379 669.659 283.379 669.909C283.379 670.159 283.285 670.373 283.095 670.551C282.91 670.729 282.686 670.818 282.425 670.818ZM288.108 681.205C287.555 681.205 287.053 681.1 286.602 680.892C286.152 680.68 285.794 680.375 285.528 679.977C285.263 679.576 285.131 679.091 285.131 678.523C285.131 678.023 285.229 677.617 285.426 677.307C285.623 676.992 285.886 676.746 286.216 676.568C286.545 676.39 286.909 676.258 287.307 676.17C287.708 676.08 288.112 676.008 288.517 675.955C289.047 675.886 289.477 675.835 289.807 675.801C290.14 675.763 290.383 675.701 290.534 675.614C290.689 675.527 290.767 675.375 290.767 675.159V675.114C290.767 674.553 290.614 674.117 290.307 673.807C290.004 673.496 289.544 673.341 288.926 673.341C288.286 673.341 287.784 673.481 287.42 673.761C287.057 674.042 286.801 674.341 286.653 674.659L285.381 674.205C285.608 673.674 285.911 673.261 286.29 672.966C286.672 672.667 287.089 672.458 287.54 672.341C287.994 672.22 288.441 672.159 288.881 672.159C289.161 672.159 289.483 672.193 289.847 672.261C290.214 672.326 290.568 672.46 290.909 672.665C291.254 672.869 291.54 673.178 291.767 673.591C291.994 674.004 292.108 674.557 292.108 675.25V681H290.767V679.818H290.699C290.608 680.008 290.456 680.21 290.244 680.426C290.032 680.642 289.75 680.826 289.398 680.977C289.045 681.129 288.616 681.205 288.108 681.205ZM288.312 680C288.843 680 289.29 679.896 289.653 679.688C290.021 679.479 290.297 679.21 290.483 678.881C290.672 678.551 290.767 678.205 290.767 677.841V676.614C290.71 676.682 290.585 676.744 290.392 676.801C290.203 676.854 289.983 676.902 289.733 676.943C289.487 676.981 289.246 677.015 289.011 677.045C288.78 677.072 288.593 677.095 288.449 677.114C288.1 677.159 287.775 677.233 287.472 677.335C287.172 677.434 286.93 677.583 286.744 677.784C286.563 677.981 286.472 678.25 286.472 678.591C286.472 679.057 286.644 679.409 286.989 679.648C287.337 679.883 287.778 680 288.312 680ZM294.555 681V672.273H295.851V673.591H295.942C296.101 673.159 296.389 672.809 296.805 672.54C297.222 672.271 297.692 672.136 298.214 672.136C298.313 672.136 298.436 672.138 298.584 672.142C298.732 672.146 298.843 672.152 298.919 672.159V673.523C298.874 673.511 298.769 673.494 298.607 673.472C298.447 673.445 298.279 673.432 298.101 673.432C297.677 673.432 297.298 673.521 296.964 673.699C296.635 673.873 296.374 674.116 296.18 674.426C295.991 674.733 295.896 675.083 295.896 675.477V681H294.555ZM305.668 669.364L309.122 679.159H309.259L312.713 669.364H314.19L309.918 681H308.463L304.19 669.364H305.668ZM315.821 681V672.273H317.162V681H315.821ZM315.889 671.091L317.276 668.455H318.844L317.071 671.091H315.889ZM322.913 681.182C322.186 681.182 321.544 680.998 320.987 680.631C320.43 680.259 319.995 679.737 319.68 679.062C319.366 678.384 319.209 677.583 319.209 676.659C319.209 675.742 319.366 674.947 319.68 674.273C319.995 673.598 320.432 673.078 320.993 672.71C321.554 672.343 322.201 672.159 322.936 672.159C323.504 672.159 323.953 672.254 324.283 672.443C324.616 672.629 324.87 672.841 325.044 673.08C325.222 673.314 325.36 673.508 325.459 673.659H325.572V669.364H326.913V681H325.618V679.659H325.459C325.36 679.818 325.22 680.019 325.038 680.261C324.857 680.5 324.597 680.714 324.26 680.903C323.923 681.089 323.474 681.182 322.913 681.182ZM323.095 679.977C323.633 679.977 324.088 679.837 324.459 679.557C324.83 679.273 325.112 678.881 325.305 678.381C325.499 677.877 325.595 677.295 325.595 676.636C325.595 675.985 325.5 675.415 325.311 674.926C325.122 674.434 324.841 674.051 324.47 673.778C324.099 673.502 323.641 673.364 323.095 673.364C322.527 673.364 322.054 673.509 321.675 673.801C321.3 674.089 321.018 674.481 320.828 674.977C320.643 675.47 320.55 676.023 320.55 676.636C320.55 677.258 320.644 677.822 320.834 678.33C321.027 678.833 321.311 679.235 321.686 679.534C322.065 679.83 322.535 679.977 323.095 679.977ZM333.214 681.182C332.374 681.182 331.648 680.996 331.038 680.625C330.432 680.25 329.964 679.727 329.635 679.057C329.309 678.383 329.146 677.598 329.146 676.705C329.146 675.811 329.309 675.023 329.635 674.341C329.964 673.655 330.423 673.121 331.01 672.739C331.601 672.352 332.29 672.159 333.078 672.159C333.533 672.159 333.982 672.235 334.425 672.386C334.868 672.538 335.271 672.784 335.635 673.125C335.999 673.462 336.288 673.909 336.504 674.466C336.72 675.023 336.828 675.708 336.828 676.523V677.091H330.101V675.932H335.464C335.464 675.439 335.366 675 335.169 674.614C334.976 674.227 334.699 673.922 334.339 673.699C333.983 673.475 333.563 673.364 333.078 673.364C332.544 673.364 332.082 673.496 331.692 673.761C331.305 674.023 331.008 674.364 330.8 674.784C330.591 675.205 330.487 675.655 330.487 676.136V676.909C330.487 677.568 330.601 678.127 330.828 678.585C331.059 679.04 331.379 679.386 331.788 679.625C332.197 679.86 332.673 679.977 333.214 679.977C333.567 679.977 333.885 679.928 334.169 679.83C334.457 679.727 334.705 679.576 334.913 679.375C335.122 679.17 335.283 678.917 335.396 678.614L336.692 678.977C336.555 679.417 336.326 679.803 336.004 680.136C335.682 680.466 335.285 680.723 334.811 680.909C334.338 681.091 333.805 681.182 333.214 681.182ZM342.413 681.182C341.625 681.182 340.934 680.994 340.339 680.619C339.749 680.244 339.286 679.72 338.953 679.045C338.624 678.371 338.459 677.583 338.459 676.682C338.459 675.773 338.624 674.979 338.953 674.301C339.286 673.623 339.749 673.097 340.339 672.722C340.934 672.347 341.625 672.159 342.413 672.159C343.201 672.159 343.891 672.347 344.482 672.722C345.076 673.097 345.538 673.623 345.868 674.301C346.201 674.979 346.368 675.773 346.368 676.682C346.368 677.583 346.201 678.371 345.868 679.045C345.538 679.72 345.076 680.244 344.482 680.619C343.891 680.994 343.201 681.182 342.413 681.182ZM342.413 679.977C343.012 679.977 343.504 679.824 343.891 679.517C344.277 679.21 344.563 678.807 344.749 678.307C344.934 677.807 345.027 677.265 345.027 676.682C345.027 676.098 344.934 675.555 344.749 675.051C344.563 674.547 344.277 674.14 343.891 673.83C343.504 673.519 343.012 673.364 342.413 673.364C341.815 673.364 341.322 673.519 340.936 673.83C340.55 674.14 340.264 674.547 340.078 675.051C339.893 675.555 339.8 676.098 339.8 676.682C339.8 677.265 339.893 677.807 340.078 678.307C340.264 678.807 340.55 679.21 340.936 679.517C341.322 679.824 341.815 679.977 342.413 679.977Z" fill="white"/>
<path d="M60.4091 669.364H62.0909L66.0455 679.023H66.1818L70.1364 669.364H71.8182V681H70.5V672.159H70.3864L66.75 681H65.4773L61.8409 672.159H61.7273V681H60.4091V669.364ZM78.1207 681.182C77.2798 681.182 76.5545 680.996 75.9446 680.625C75.3385 680.25 74.8707 679.727 74.5412 679.057C74.2154 678.383 74.0526 677.598 74.0526 676.705C74.0526 675.811 74.2154 675.023 74.5412 674.341C74.8707 673.655 75.3291 673.121 75.9162 672.739C76.5071 672.352 77.1965 672.159 77.9844 672.159C78.4389 672.159 78.8878 672.235 79.331 672.386C79.7741 672.538 80.1776 672.784 80.5412 673.125C80.9048 673.462 81.1946 673.909 81.4105 674.466C81.6264 675.023 81.7344 675.708 81.7344 676.523V677.091H75.0071V675.932H80.3707C80.3707 675.439 80.2723 675 80.0753 674.614C79.8821 674.227 79.6056 673.922 79.2457 673.699C78.8897 673.475 78.4692 673.364 77.9844 673.364C77.4503 673.364 76.9882 673.496 76.598 673.761C76.2116 674.023 75.9143 674.364 75.706 674.784C75.4976 675.205 75.3935 675.655 75.3935 676.136V676.909C75.3935 677.568 75.5071 678.127 75.7344 678.585C75.9654 679.04 76.2855 679.386 76.6946 679.625C77.1037 679.86 77.5791 679.977 78.1207 679.977C78.473 679.977 78.7912 679.928 79.0753 679.83C79.3632 679.727 79.6113 679.576 79.8196 679.375C80.0279 679.17 80.1889 678.917 80.3026 678.614L81.598 678.977C81.4616 679.417 81.2325 679.803 80.9105 680.136C80.5885 680.466 80.1908 680.723 79.7173 680.909C79.2438 681.091 78.7116 681.182 78.1207 681.182ZM89.2741 677.432V672.273H90.6151V681H89.2741V679.523H89.1832C88.9787 679.966 88.6605 680.343 88.2287 680.653C87.7969 680.96 87.2514 681.114 86.5923 681.114C86.0469 681.114 85.562 680.994 85.1378 680.756C84.7135 680.513 84.3802 680.15 84.1378 679.665C83.8954 679.176 83.7741 678.561 83.7741 677.818V672.273H85.1151V677.727C85.1151 678.364 85.2931 678.871 85.6491 679.25C86.009 679.629 86.4673 679.818 87.0241 679.818C87.3575 679.818 87.6965 679.733 88.0412 679.562C88.3897 679.392 88.6813 679.131 88.9162 678.778C89.1548 678.426 89.2741 677.977 89.2741 677.432ZM99.2528 674.227L98.0483 674.568C97.9725 674.367 97.8608 674.172 97.7131 673.983C97.5691 673.79 97.3722 673.631 97.1222 673.506C96.8722 673.381 96.5521 673.318 96.1619 673.318C95.6278 673.318 95.1828 673.441 94.8267 673.688C94.4744 673.93 94.2983 674.239 94.2983 674.614C94.2983 674.947 94.4195 675.21 94.6619 675.403C94.9044 675.597 95.2831 675.758 95.7983 675.886L97.0938 676.205C97.8741 676.394 98.4555 676.684 98.8381 677.074C99.2206 677.46 99.4119 677.958 99.4119 678.568C99.4119 679.068 99.268 679.515 98.9801 679.909C98.696 680.303 98.2983 680.614 97.7869 680.841C97.2756 681.068 96.6809 681.182 96.0028 681.182C95.1127 681.182 94.3759 680.989 93.7926 680.602C93.2093 680.216 92.84 679.652 92.6847 678.909L93.9574 678.591C94.0786 679.061 94.3078 679.413 94.6449 679.648C94.9858 679.883 95.4309 680 95.9801 680C96.6051 680 97.1013 679.867 97.4688 679.602C97.84 679.333 98.0256 679.011 98.0256 678.636C98.0256 678.333 97.9195 678.08 97.7074 677.875C97.4953 677.667 97.1695 677.511 96.7301 677.409L95.2756 677.068C94.4763 676.879 93.8892 676.585 93.5142 676.188C93.143 675.786 92.9574 675.284 92.9574 674.682C92.9574 674.189 93.0956 673.754 93.3722 673.375C93.6525 672.996 94.0331 672.699 94.5142 672.483C94.9991 672.267 95.5483 672.159 96.1619 672.159C97.0256 672.159 97.7036 672.348 98.196 672.727C98.6922 673.106 99.0445 673.606 99.2528 674.227ZM106.589 669.364L110.044 679.159H110.18L113.635 669.364H115.112L110.839 681H109.385L105.112 669.364H106.589ZM116.743 681V672.273H118.084V681H116.743ZM116.811 671.091L118.197 668.455H119.766L117.993 671.091H116.811ZM123.835 681.182C123.108 681.182 122.466 680.998 121.909 680.631C121.352 680.259 120.917 679.737 120.602 679.062C120.288 678.384 120.131 677.583 120.131 676.659C120.131 675.742 120.288 674.947 120.602 674.273C120.917 673.598 121.354 673.078 121.915 672.71C122.475 672.343 123.123 672.159 123.858 672.159C124.426 672.159 124.875 672.254 125.205 672.443C125.538 672.629 125.792 672.841 125.966 673.08C126.144 673.314 126.282 673.508 126.381 673.659H126.494V669.364H127.835V681H126.54V679.659H126.381C126.282 679.818 126.142 680.019 125.96 680.261C125.778 680.5 125.519 680.714 125.182 680.903C124.845 681.089 124.396 681.182 123.835 681.182ZM124.017 679.977C124.555 679.977 125.009 679.837 125.381 679.557C125.752 679.273 126.034 678.881 126.227 678.381C126.42 677.877 126.517 677.295 126.517 676.636C126.517 675.985 126.422 675.415 126.233 674.926C126.044 674.434 125.763 674.051 125.392 673.778C125.021 673.502 124.563 673.364 124.017 673.364C123.449 673.364 122.975 673.509 122.597 673.801C122.222 674.089 121.939 674.481 121.75 674.977C121.564 675.47 121.472 676.023 121.472 676.636C121.472 677.258 121.566 677.822 121.756 678.33C121.949 678.833 122.233 679.235 122.608 679.534C122.987 679.83 123.456 679.977 124.017 679.977ZM134.136 681.182C133.295 681.182 132.57 680.996 131.96 680.625C131.354 680.25 130.886 679.727 130.557 679.057C130.231 678.383 130.068 677.598 130.068 676.705C130.068 675.811 130.231 675.023 130.557 674.341C130.886 673.655 131.345 673.121 131.932 672.739C132.523 672.352 133.212 672.159 134 672.159C134.455 672.159 134.903 672.235 135.347 672.386C135.79 672.538 136.193 672.784 136.557 673.125C136.92 673.462 137.21 673.909 137.426 674.466C137.642 675.023 137.75 675.708 137.75 676.523V677.091H131.023V675.932H136.386C136.386 675.439 136.288 675 136.091 674.614C135.898 674.227 135.621 673.922 135.261 673.699C134.905 673.475 134.485 673.364 134 673.364C133.466 673.364 133.004 673.496 132.614 673.761C132.227 674.023 131.93 674.364 131.722 674.784C131.513 675.205 131.409 675.655 131.409 676.136V676.909C131.409 677.568 131.523 678.127 131.75 678.585C131.981 679.04 132.301 679.386 132.71 679.625C133.119 679.86 133.595 679.977 134.136 679.977C134.489 679.977 134.807 679.928 135.091 679.83C135.379 679.727 135.627 679.576 135.835 679.375C136.044 679.17 136.205 678.917 136.318 678.614L137.614 678.977C137.477 679.417 137.248 679.803 136.926 680.136C136.604 680.466 136.206 680.723 135.733 680.909C135.259 681.091 134.727 681.182 134.136 681.182ZM143.335 681.182C142.547 681.182 141.856 680.994 141.261 680.619C140.67 680.244 140.208 679.72 139.875 679.045C139.545 678.371 139.381 677.583 139.381 676.682C139.381 675.773 139.545 674.979 139.875 674.301C140.208 673.623 140.67 673.097 141.261 672.722C141.856 672.347 142.547 672.159 143.335 672.159C144.123 672.159 144.813 672.347 145.403 672.722C145.998 673.097 146.46 673.623 146.79 674.301C147.123 674.979 147.29 675.773 147.29 676.682C147.29 677.583 147.123 678.371 146.79 679.045C146.46 679.72 145.998 680.244 145.403 680.619C144.813 680.994 144.123 681.182 143.335 681.182ZM143.335 679.977C143.934 679.977 144.426 679.824 144.812 679.517C145.199 679.21 145.485 678.807 145.67 678.307C145.856 677.807 145.949 677.265 145.949 676.682C145.949 676.098 145.856 675.555 145.67 675.051C145.485 674.547 145.199 674.14 144.812 673.83C144.426 673.519 143.934 673.364 143.335 673.364C142.737 673.364 142.244 673.519 141.858 673.83C141.472 674.14 141.186 674.547 141 675.051C140.814 675.555 140.722 676.098 140.722 676.682C140.722 677.265 140.814 677.807 141 678.307C141.186 678.807 141.472 679.21 141.858 679.517C142.244 679.824 142.737 679.977 143.335 679.977ZM155.518 674.227L154.314 674.568C154.238 674.367 154.126 674.172 153.979 673.983C153.835 673.79 153.638 673.631 153.388 673.506C153.138 673.381 152.818 673.318 152.428 673.318C151.893 673.318 151.448 673.441 151.092 673.688C150.74 673.93 150.564 674.239 150.564 674.614C150.564 674.947 150.685 675.21 150.928 675.403C151.17 675.597 151.549 675.758 152.064 675.886L153.359 676.205C154.14 676.394 154.721 676.684 155.104 677.074C155.486 677.46 155.678 677.958 155.678 678.568C155.678 679.068 155.534 679.515 155.246 679.909C154.962 680.303 154.564 680.614 154.053 680.841C153.541 681.068 152.946 681.182 152.268 681.182C151.378 681.182 150.642 680.989 150.058 680.602C149.475 680.216 149.106 679.652 148.95 678.909L150.223 678.591C150.344 679.061 150.573 679.413 150.911 679.648C151.251 679.883 151.696 680 152.246 680C152.871 680 153.367 679.867 153.734 679.602C154.106 679.333 154.291 679.011 154.291 678.636C154.291 678.333 154.185 678.08 153.973 677.875C153.761 677.667 153.435 677.511 152.996 677.409L151.541 677.068C150.742 676.879 150.155 676.585 149.78 676.188C149.409 675.786 149.223 675.284 149.223 674.682C149.223 674.189 149.361 673.754 149.638 673.375C149.918 672.996 150.299 672.699 150.78 672.483C151.265 672.267 151.814 672.159 152.428 672.159C153.291 672.159 153.969 672.348 154.462 672.727C154.958 673.106 155.31 673.606 155.518 674.227Z" fill="white"/>
<path d="M50 658C50 653.582 53.5817 650 58 650H159C163.418 650 167 653.582 167 658V692C167 696.418 163.418 700 159 700H58C53.5817 700 50 696.418 50 692V658Z" fill="#2D2828"/>
<path d="M241.5 658C241.5 653.582 245.082 650 249.5 650H350.5C354.918 650 358.5 653.582 358.5 658V692C358.5 696.418 354.918 700 350.5 700H249.5C245.082 700 241.5 696.418 241.5 692V658Z" fill="#2D2828"/>
<path d="M254.409 681V669.364H261.432V670.614H255.818V674.545H261.068V675.795H255.818V679.75H261.523V681H254.409ZM265.131 675.75V681H263.79V672.273H265.085V673.636H265.199C265.403 673.193 265.714 672.837 266.131 672.568C266.547 672.295 267.085 672.159 267.744 672.159C268.335 672.159 268.852 672.28 269.295 672.523C269.739 672.761 270.083 673.125 270.33 673.614C270.576 674.098 270.699 674.712 270.699 675.455V681H269.358V675.545C269.358 674.86 269.18 674.326 268.824 673.943C268.468 673.557 267.979 673.364 267.358 673.364C266.93 673.364 266.547 673.456 266.21 673.642C265.877 673.828 265.614 674.098 265.42 674.455C265.227 674.811 265.131 675.242 265.131 675.75ZM279.973 672.273L276.746 681H275.382L272.155 672.273H273.609L276.018 679.227H276.109L278.518 672.273H279.973ZM281.743 681V672.273H283.084V681H281.743ZM282.425 670.818C282.163 670.818 281.938 670.729 281.749 670.551C281.563 670.373 281.47 670.159 281.47 669.909C281.47 669.659 281.563 669.445 281.749 669.267C281.938 669.089 282.163 669 282.425 669C282.686 669 282.91 669.089 283.095 669.267C283.285 669.445 283.379 669.659 283.379 669.909C283.379 670.159 283.285 670.373 283.095 670.551C282.91 670.729 282.686 670.818 282.425 670.818ZM288.108 681.205C287.555 681.205 287.053 681.1 286.602 680.892C286.152 680.68 285.794 680.375 285.528 679.977C285.263 679.576 285.131 679.091 285.131 678.523C285.131 678.023 285.229 677.617 285.426 677.307C285.623 676.992 285.886 676.746 286.216 676.568C286.545 676.39 286.909 676.258 287.307 676.17C287.708 676.08 288.112 676.008 288.517 675.955C289.047 675.886 289.477 675.835 289.807 675.801C290.14 675.763 290.383 675.701 290.534 675.614C290.689 675.527 290.767 675.375 290.767 675.159V675.114C290.767 674.553 290.614 674.117 290.307 673.807C290.004 673.496 289.544 673.341 288.926 673.341C288.286 673.341 287.784 673.481 287.42 673.761C287.057 674.042 286.801 674.341 286.653 674.659L285.381 674.205C285.608 673.674 285.911 673.261 286.29 672.966C286.672 672.667 287.089 672.458 287.54 672.341C287.994 672.22 288.441 672.159 288.881 672.159C289.161 672.159 289.483 672.193 289.847 672.261C290.214 672.326 290.568 672.46 290.909 672.665C291.254 672.869 291.54 673.178 291.767 673.591C291.994 674.004 292.108 674.557 292.108 675.25V681H290.767V679.818H290.699C290.608 680.008 290.456 680.21 290.244 680.426C290.032 680.642 289.75 680.826 289.398 680.977C289.045 681.129 288.616 681.205 288.108 681.205ZM288.312 680C288.843 680 289.29 679.896 289.653 679.688C290.021 679.479 290.297 679.21 290.483 678.881C290.672 678.551 290.767 678.205 290.767 677.841V676.614C290.71 676.682 290.585 676.744 290.392 676.801C290.203 676.854 289.983 676.902 289.733 676.943C289.487 676.981 289.246 677.015 289.011 677.045C288.78 677.072 288.593 677.095 288.449 677.114C288.1 677.159 287.775 677.233 287.472 677.335C287.172 677.434 286.93 677.583 286.744 677.784C286.563 677.981 286.472 678.25 286.472 678.591C286.472 679.057 286.644 679.409 286.989 679.648C287.337 679.883 287.778 680 288.312 680ZM294.555 681V672.273H295.851V673.591H295.942C296.101 673.159 296.389 672.809 296.805 672.54C297.222 672.271 297.692 672.136 298.214 672.136C298.313 672.136 298.436 672.138 298.584 672.142C298.732 672.146 298.843 672.152 298.919 672.159V673.523C298.874 673.511 298.769 673.494 298.607 673.472C298.447 673.445 298.279 673.432 298.101 673.432C297.677 673.432 297.298 673.521 296.964 673.699C296.635 673.873 296.374 674.116 296.18 674.426C295.991 674.733 295.896 675.083 295.896 675.477V681H294.555ZM305.668 669.364L309.122 679.159H309.259L312.713 669.364H314.19L309.918 681H308.463L304.19 669.364H305.668ZM315.821 681V672.273H317.162V681H315.821ZM315.889 671.091L317.276 668.455H318.844L317.071 671.091H315.889ZM322.913 681.182C322.186 681.182 321.544 680.998 320.987 680.631C320.43 680.259 319.995 679.737 319.68 679.062C319.366 678.384 319.209 677.583 319.209 676.659C319.209 675.742 319.366 674.947 319.68 674.273C319.995 673.598 320.432 673.078 320.993 672.71C321.554 672.343 322.201 672.159 322.936 672.159C323.504 672.159 323.953 672.254 324.283 672.443C324.616 672.629 324.87 672.841 325.044 673.08C325.222 673.314 325.36 673.508 325.459 673.659H325.572V669.364H326.913V681H325.618V679.659H325.459C325.36 679.818 325.22 680.019 325.038 680.261C324.857 680.5 324.597 680.714 324.26 680.903C323.923 681.089 323.474 681.182 322.913 681.182ZM323.095 679.977C323.633 679.977 324.088 679.837 324.459 679.557C324.83 679.273 325.112 678.881 325.305 678.381C325.499 677.877 325.595 677.295 325.595 676.636C325.595 675.985 325.5 675.415 325.311 674.926C325.122 674.434 324.841 674.051 324.47 673.778C324.099 673.502 323.641 673.364 323.095 673.364C322.527 673.364 322.054 673.509 321.675 673.801C321.3 674.089 321.018 674.481 320.828 674.977C320.643 675.47 320.55 676.023 320.55 676.636C320.55 677.258 320.644 677.822 320.834 678.33C321.027 678.833 321.311 679.235 321.686 679.534C322.065 679.83 322.535 679.977 323.095 679.977ZM333.214 681.182C332.374 681.182 331.648 680.996 331.038 680.625C330.432 680.25 329.964 679.727 329.635 679.057C329.309 678.383 329.146 677.598 329.146 676.705C329.146 675.811 329.309 675.023 329.635 674.341C329.964 673.655 330.423 673.121 331.01 672.739C331.601 672.352 332.29 672.159 333.078 672.159C333.533 672.159 333.982 672.235 334.425 672.386C334.868 672.538 335.271 672.784 335.635 673.125C335.999 673.462 336.288 673.909 336.504 674.466C336.72 675.023 336.828 675.708 336.828 676.523V677.091H330.101V675.932H335.464C335.464 675.439 335.366 675 335.169 674.614C334.976 674.227 334.699 673.922 334.339 673.699C333.983 673.475 333.563 673.364 333.078 673.364C332.544 673.364 332.082 673.496 331.692 673.761C331.305 674.023 331.008 674.364 330.8 674.784C330.591 675.205 330.487 675.655 330.487 676.136V676.909C330.487 677.568 330.601 678.127 330.828 678.585C331.059 679.04 331.379 679.386 331.788 679.625C332.197 679.86 332.673 679.977 333.214 679.977C333.567 679.977 333.885 679.928 334.169 679.83C334.457 679.727 334.705 679.576 334.913 679.375C335.122 679.17 335.283 678.917 335.396 678.614L336.692 678.977C336.555 679.417 336.326 679.803 336.004 680.136C335.682 680.466 335.285 680.723 334.811 680.909C334.338 681.091 333.805 681.182 333.214 681.182ZM342.413 681.182C341.625 681.182 340.934 680.994 340.339 680.619C339.749 680.244 339.286 679.72 338.953 679.045C338.624 678.371 338.459 677.583 338.459 676.682C338.459 675.773 338.624 674.979 338.953 674.301C339.286 673.623 339.749 673.097 340.339 672.722C340.934 672.347 341.625 672.159 342.413 672.159C343.201 672.159 343.891 672.347 344.482 672.722C345.076 673.097 345.538 673.623 345.868 674.301C346.201 674.979 346.368 675.773 346.368 676.682C346.368 677.583 346.201 678.371 345.868 679.045C345.538 679.72 345.076 680.244 344.482 680.619C343.891 680.994 343.201 681.182 342.413 681.182ZM342.413 679.977C343.012 679.977 343.504 679.824 343.891 679.517C344.277 679.21 344.563 678.807 344.749 678.307C344.934 677.807 345.027 677.265 345.027 676.682C345.027 676.098 344.934 675.555 344.749 675.051C344.563 674.547 344.277 674.14 343.891 673.83C343.504 673.519 343.012 673.364 342.413 673.364C341.815 673.364 341.322 673.519 340.936 673.83C340.55 674.14 340.264 674.547 340.078 675.051C339.893 675.555 339.8 676.098 339.8 676.682C339.8 677.265 339.893 677.807 340.078 678.307C340.264 678.807 340.55 679.21 340.936 679.517C341.322 679.824 341.815 679.977 342.413 679.977Z" fill="white"/>
<path d="M60.4091 669.364H62.0909L66.0455 679.023H66.1818L70.1364 669.364H71.8182V681H70.5V672.159H70.3864L66.75 681H65.4773L61.8409 672.159H61.7273V681H60.4091V669.364ZM78.1207 681.182C77.2798 681.182 76.5545 680.996 75.9446 680.625C75.3385 680.25 74.8707 679.727 74.5412 679.057C74.2154 678.383 74.0526 677.598 74.0526 676.705C74.0526 675.811 74.2154 675.023 74.5412 674.341C74.8707 673.655 75.3291 673.121 75.9162 672.739C76.5071 672.352 77.1965 672.159 77.9844 672.159C78.4389 672.159 78.8878 672.235 79.331 672.386C79.7741 672.538 80.1776 672.784 80.5412 673.125C80.9048 673.462 81.1946 673.909 81.4105 674.466C81.6264 675.023 81.7344 675.708 81.7344 676.523V677.091H75.0071V675.932H80.3707C80.3707 675.439 80.2723 675 80.0753 674.614C79.8821 674.227 79.6056 673.922 79.2457 673.699C78.8897 673.475 78.4692 673.364 77.9844 673.364C77.4503 673.364 76.9882 673.496 76.598 673.761C76.2116 674.023 75.9143 674.364 75.706 674.784C75.4976 675.205 75.3935 675.655 75.3935 676.136V676.909C75.3935 677.568 75.5071 678.127 75.7344 678.585C75.9654 679.04 76.2855 679.386 76.6946 679.625C77.1037 679.86 77.5791 679.977 78.1207 679.977C78.473 679.977 78.7912 679.928 79.0753 679.83C79.3632 679.727 79.6113 679.576 79.8196 679.375C80.0279 679.17 80.1889 678.917 80.3026 678.614L81.598 678.977C81.4616 679.417 81.2325 679.803 80.9105 680.136C80.5885 680.466 80.1908 680.723 79.7173 680.909C79.2438 681.091 78.7116 681.182 78.1207 681.182ZM89.2741 677.432V672.273H90.6151V681H89.2741V679.523H89.1832C88.9787 679.966 88.6605 680.343 88.2287 680.653C87.7969 680.96 87.2514 681.114 86.5923 681.114C86.0469 681.114 85.562 680.994 85.1378 680.756C84.7135 680.513 84.3802 680.15 84.1378 679.665C83.8954 679.176 83.7741 678.561 83.7741 677.818V672.273H85.1151V677.727C85.1151 678.364 85.2931 678.871 85.6491 679.25C86.009 679.629 86.4673 679.818 87.0241 679.818C87.3575 679.818 87.6965 679.733 88.0412 679.562C88.3897 679.392 88.6813 679.131 88.9162 678.778C89.1548 678.426 89.2741 677.977 89.2741 677.432ZM99.2528 674.227L98.0483 674.568C97.9725 674.367 97.8608 674.172 97.7131 673.983C97.5691 673.79 97.3722 673.631 97.1222 673.506C96.8722 673.381 96.5521 673.318 96.1619 673.318C95.6278 673.318 95.1828 673.441 94.8267 673.688C94.4744 673.93 94.2983 674.239 94.2983 674.614C94.2983 674.947 94.4195 675.21 94.6619 675.403C94.9044 675.597 95.2831 675.758 95.7983 675.886L97.0938 676.205C97.8741 676.394 98.4555 676.684 98.8381 677.074C99.2206 677.46 99.4119 677.958 99.4119 678.568C99.4119 679.068 99.268 679.515 98.9801 679.909C98.696 680.303 98.2983 680.614 97.7869 680.841C97.2756 681.068 96.6809 681.182 96.0028 681.182C95.1127 681.182 94.3759 680.989 93.7926 680.602C93.2093 680.216 92.84 679.652 92.6847 678.909L93.9574 678.591C94.0786 679.061 94.3078 679.413 94.6449 679.648C94.9858 679.883 95.4309 680 95.9801 680C96.6051 680 97.1013 679.867 97.4688 679.602C97.84 679.333 98.0256 679.011 98.0256 678.636C98.0256 678.333 97.9195 678.08 97.7074 677.875C97.4953 677.667 97.1695 677.511 96.7301 677.409L95.2756 677.068C94.4763 676.879 93.8892 676.585 93.5142 676.188C93.143 675.786 92.9574 675.284 92.9574 674.682C92.9574 674.189 93.0956 673.754 93.3722 673.375C93.6525 672.996 94.0331 672.699 94.5142 672.483C94.9991 672.267 95.5483 672.159 96.1619 672.159C97.0256 672.159 97.7036 672.348 98.196 672.727C98.6922 673.106 99.0445 673.606 99.2528 674.227ZM106.589 669.364L110.044 679.159H110.18L113.635 669.364H115.112L110.839 681H109.385L105.112 669.364H106.589ZM116.743 681V672.273H118.084V681H116.743ZM116.811 671.091L118.197 668.455H119.766L117.993 671.091H116.811ZM123.835 681.182C123.108 681.182 122.466 680.998 121.909 680.631C121.352 680.259 120.917 679.737 120.602 679.062C120.288 678.384 120.131 677.583 120.131 676.659C120.131 675.742 120.288 674.947 120.602 674.273C120.917 673.598 121.354 673.078 121.915 672.71C122.475 672.343 123.123 672.159 123.858 672.159C124.426 672.159 124.875 672.254 125.205 672.443C125.538 672.629 125.792 672.841 125.966 673.08C126.144 673.314 126.282 673.508 126.381 673.659H126.494V669.364H127.835V681H126.54V679.659H126.381C126.282 679.818 126.142 680.019 125.96 680.261C125.778 680.5 125.519 680.714 125.182 680.903C124.845 681.089 124.396 681.182 123.835 681.182ZM124.017 679.977C124.555 679.977 125.009 679.837 125.381 679.557C125.752 679.273 126.034 678.881 126.227 678.381C126.42 677.877 126.517 677.295 126.517 676.636C126.517 675.985 126.422 675.415 126.233 674.926C126.044 674.434 125.763 674.051 125.392 673.778C125.021 673.502 124.563 673.364 124.017 673.364C123.449 673.364 122.975 673.509 122.597 673.801C122.222 674.089 121.939 674.481 121.75 674.977C121.564 675.47 121.472 676.023 121.472 676.636C121.472 677.258 121.566 677.822 121.756 678.33C121.949 678.833 122.233 679.235 122.608 679.534C122.987 679.83 123.456 679.977 124.017 679.977ZM134.136 681.182C133.295 681.182 132.57 680.996 131.96 680.625C131.354 680.25 130.886 679.727 130.557 679.057C130.231 678.383 130.068 677.598 130.068 676.705C130.068 675.811 130.231 675.023 130.557 674.341C130.886 673.655 131.345 673.121 131.932 672.739C132.523 672.352 133.212 672.159 134 672.159C134.455 672.159 134.903 672.235 135.347 672.386C135.79 672.538 136.193 672.784 136.557 673.125C136.92 673.462 137.21 673.909 137.426 674.466C137.642 675.023 137.75 675.708 137.75 676.523V677.091H131.023V675.932H136.386C136.386 675.439 136.288 675 136.091 674.614C135.898 674.227 135.621 673.922 135.261 673.699C134.905 673.475 134.485 673.364 134 673.364C133.466 673.364 133.004 673.496 132.614 673.761C132.227 674.023 131.93 674.364 131.722 674.784C131.513 675.205 131.409 675.655 131.409 676.136V676.909C131.409 677.568 131.523 678.127 131.75 678.585C131.981 679.04 132.301 679.386 132.71 679.625C133.119 679.86 133.595 679.977 134.136 679.977C134.489 679.977 134.807 679.928 135.091 679.83C135.379 679.727 135.627 679.576 135.835 679.375C136.044 679.17 136.205 678.917 136.318 678.614L137.614 678.977C137.477 679.417 137.248 679.803 136.926 680.136C136.604 680.466 136.206 680.723 135.733 680.909C135.259 681.091 134.727 681.182 134.136 681.182ZM143.335 681.182C142.547 681.182 141.856 680.994 141.261 680.619C140.67 680.244 140.208 679.72 139.875 679.045C139.545 678.371 139.381 677.583 139.381 676.682C139.381 675.773 139.545 674.979 139.875 674.301C140.208 673.623 140.67 673.097 141.261 672.722C141.856 672.347 142.547 672.159 143.335 672.159C144.123 672.159 144.813 672.347 145.403 672.722C145.998 673.097 146.46 673.623 146.79 674.301C147.123 674.979 147.29 675.773 147.29 676.682C147.29 677.583 147.123 678.371 146.79 679.045C146.46 679.72 145.998 680.244 145.403 680.619C144.813 680.994 144.123 681.182 143.335 681.182ZM143.335 679.977C143.934 679.977 144.426 679.824 144.812 679.517C145.199 679.21 145.485 678.807 145.67 678.307C145.856 677.807 145.949 677.265 145.949 676.682C145.949 676.098 145.856 675.555 145.67 675.051C145.485 674.547 145.199 674.14 144.812 673.83C144.426 673.519 143.934 673.364 143.335 673.364C142.737 673.364 142.244 673.519 141.858 673.83C141.472 674.14 141.186 674.547 141 675.051C140.814 675.555 140.722 676.098 140.722 676.682C140.722 677.265 140.814 677.807 141 678.307C141.186 678.807 141.472 679.21 141.858 679.517C142.244 679.824 142.737 679.977 143.335 679.977ZM155.518 674.227L154.314 674.568C154.238 674.367 154.126 674.172 153.979 673.983C153.835 673.79 153.638 673.631 153.388 673.506C153.138 673.381 152.818 673.318 152.428 673.318C151.893 673.318 151.448 673.441 151.092 673.688C150.74 673.93 150.564 674.239 150.564 674.614C150.564 674.947 150.685 675.21 150.928 675.403C151.17 675.597 151.549 675.758 152.064 675.886L153.359 676.205C154.14 676.394 154.721 676.684 155.104 677.074C155.486 677.46 155.678 677.958 155.678 678.568C155.678 679.068 155.534 679.515 155.246 679.909C154.962 680.303 154.564 680.614 154.053 680.841C153.541 681.068 152.946 681.182 152.268 681.182C151.378 681.182 150.642 680.989 150.058 680.602C149.475 680.216 149.106 679.652 148.95 678.909L150.223 678.591C150.344 679.061 150.573 679.413 150.911 679.648C151.251 679.883 151.696 680 152.246 680C152.871 680 153.367 679.867 153.734 679.602C154.106 679.333 154.291 679.011 154.291 678.636C154.291 678.333 154.185 678.08 153.973 677.875C153.761 677.667 153.435 677.511 152.996 677.409L151.541 677.068C150.742 676.879 150.155 676.585 149.78 676.188C149.409 675.786 149.223 675.284 149.223 674.682C149.223 674.189 149.361 673.754 149.638 673.375C149.918 672.996 150.299 672.699 150.78 672.483C151.265 672.267 151.814 672.159 152.428 672.159C153.291 672.159 153.969 672.348 154.462 672.727C154.958 673.106 155.31 673.606 155.518 674.227Z" fill="white"/>
<path d="M294 168H106C102.686 168 100 170.686 100 174V202C100 205.314 102.686 208 106 208H294C297.314 208 300 205.314 300 202V174C300 170.686 297.314 168 294 168Z" fill="#2ECC71"/>
<path d="M151.177 186.364C151.117 185.86 150.876 185.469 150.451 185.19C150.027 184.912 149.507 184.773 148.89 184.773C148.439 184.773 148.045 184.846 147.707 184.991C147.372 185.137 147.11 185.338 146.921 185.593C146.736 185.848 146.643 186.138 146.643 186.463C146.643 186.735 146.708 186.969 146.837 187.164C146.969 187.356 147.139 187.517 147.344 187.646C147.55 187.772 147.765 187.877 147.99 187.96C148.216 188.039 148.423 188.104 148.612 188.153L149.646 188.432C149.911 188.501 150.206 188.598 150.531 188.72C150.859 188.843 151.172 189.01 151.47 189.222C151.772 189.431 152.021 189.7 152.216 190.028C152.412 190.356 152.509 190.759 152.509 191.236C152.509 191.786 152.365 192.283 152.077 192.727C151.792 193.171 151.374 193.524 150.824 193.786C150.277 194.048 149.613 194.179 148.831 194.179C148.101 194.179 147.47 194.061 146.936 193.826C146.406 193.591 145.988 193.263 145.684 192.842C145.382 192.421 145.211 191.932 145.171 191.375H146.444C146.477 191.759 146.607 192.078 146.832 192.33C147.061 192.578 147.349 192.764 147.697 192.886C148.048 193.006 148.426 193.065 148.831 193.065C149.301 193.065 149.724 192.989 150.098 192.837C150.473 192.681 150.769 192.465 150.988 192.19C151.207 191.912 151.316 191.587 151.316 191.216C151.316 190.878 151.222 190.603 151.033 190.391C150.844 190.179 150.595 190.006 150.287 189.874C149.979 189.741 149.646 189.625 149.288 189.526L148.035 189.168C147.24 188.939 146.61 188.612 146.146 188.188C145.682 187.764 145.45 187.209 145.45 186.523C145.45 185.953 145.604 185.455 145.912 185.031C146.224 184.604 146.641 184.272 147.165 184.037C147.692 183.798 148.28 183.679 148.93 183.679C149.586 183.679 150.17 183.797 150.68 184.032C151.19 184.264 151.595 184.582 151.893 184.987C152.195 185.391 152.354 185.85 152.37 186.364H151.177ZM157.579 194.159C156.843 194.159 156.209 193.997 155.675 193.672C155.145 193.344 154.736 192.886 154.447 192.3C154.162 191.71 154.02 191.024 154.02 190.241C154.02 189.459 154.162 188.77 154.447 188.173C154.736 187.573 155.137 187.106 155.65 186.771C156.167 186.433 156.771 186.264 157.46 186.264C157.858 186.264 158.25 186.33 158.638 186.463C159.026 186.596 159.379 186.811 159.697 187.109C160.015 187.404 160.269 187.795 160.458 188.283C160.647 188.77 160.741 189.37 160.741 190.082V190.58H154.855V189.565H159.548C159.548 189.134 159.462 188.75 159.29 188.412C159.12 188.074 158.879 187.807 158.564 187.612C158.252 187.416 157.884 187.318 157.46 187.318C156.993 187.318 156.588 187.434 156.247 187.666C155.909 187.895 155.649 188.193 155.466 188.561C155.284 188.929 155.193 189.323 155.193 189.744V190.42C155.193 190.997 155.292 191.486 155.491 191.887C155.693 192.285 155.973 192.588 156.331 192.797C156.689 193.002 157.105 193.105 157.579 193.105C157.888 193.105 158.166 193.062 158.415 192.976C158.666 192.886 158.883 192.754 159.066 192.578C159.248 192.399 159.389 192.177 159.488 191.912L160.622 192.23C160.503 192.615 160.302 192.953 160.02 193.244C159.739 193.533 159.391 193.758 158.976 193.92C158.562 194.08 158.096 194.159 157.579 194.159ZM163.699 183.818V194H162.526V183.818H163.699ZM169.05 194.159C168.314 194.159 167.679 193.997 167.146 193.672C166.616 193.344 166.206 192.886 165.918 192.3C165.633 191.71 165.49 191.024 165.49 190.241C165.49 189.459 165.633 188.77 165.918 188.173C166.206 187.573 166.607 187.106 167.121 186.771C167.638 186.433 168.241 186.264 168.931 186.264C169.328 186.264 169.721 186.33 170.109 186.463C170.497 186.596 170.85 186.811 171.168 187.109C171.486 187.404 171.74 187.795 171.929 188.283C172.117 188.77 172.212 189.37 172.212 190.082V190.58H166.326V189.565H171.019C171.019 189.134 170.933 188.75 170.76 188.412C170.591 188.074 170.349 187.807 170.034 187.612C169.723 187.416 169.355 187.318 168.931 187.318C168.463 187.318 168.059 187.434 167.718 187.666C167.38 187.895 167.119 188.193 166.937 188.561C166.755 188.929 166.664 189.323 166.664 189.744V190.42C166.664 190.997 166.763 191.486 166.962 191.887C167.164 192.285 167.444 192.588 167.802 192.797C168.16 193.002 168.576 193.105 169.05 193.105C169.358 193.105 169.637 193.062 169.885 192.976C170.137 192.886 170.354 192.754 170.536 192.578C170.719 192.399 170.86 192.177 170.959 191.912L172.093 192.23C171.973 192.615 171.773 192.953 171.491 193.244C171.209 193.533 170.861 193.758 170.447 193.92C170.033 194.08 169.567 194.159 169.05 194.159ZM177.099 194.159C176.383 194.159 175.767 193.99 175.25 193.652C174.733 193.314 174.335 192.848 174.056 192.255C173.778 191.662 173.639 190.984 173.639 190.222C173.639 189.446 173.781 188.762 174.066 188.168C174.355 187.572 174.756 187.106 175.269 186.771C175.786 186.433 176.39 186.264 177.079 186.264C177.616 186.264 178.1 186.364 178.531 186.562C178.962 186.761 179.315 187.04 179.59 187.398C179.865 187.756 180.036 188.173 180.102 188.651H178.929C178.839 188.303 178.64 187.994 178.332 187.726C178.027 187.454 177.616 187.318 177.099 187.318C176.642 187.318 176.241 187.437 175.896 187.676C175.554 187.911 175.288 188.245 175.095 188.675C174.907 189.103 174.812 189.605 174.812 190.182C174.812 190.772 174.905 191.286 175.09 191.723C175.279 192.161 175.545 192.5 175.886 192.742C176.231 192.984 176.635 193.105 177.099 193.105C177.404 193.105 177.681 193.052 177.929 192.946C178.178 192.84 178.388 192.688 178.561 192.489C178.733 192.29 178.856 192.051 178.929 191.773H180.102C180.036 192.223 179.871 192.629 179.61 192.991C179.351 193.349 179.008 193.634 178.581 193.846C178.156 194.055 177.662 194.159 177.099 194.159ZM181.817 194V186.364H182.99V194H181.817ZM182.414 185.091C182.185 185.091 181.988 185.013 181.822 184.857C181.66 184.701 181.578 184.514 181.578 184.295C181.578 184.077 181.66 183.889 181.822 183.734C181.988 183.578 182.185 183.5 182.414 183.5C182.642 183.5 182.838 183.578 183 183.734C183.166 183.889 183.249 184.077 183.249 184.295C183.249 184.514 183.166 184.701 183 184.857C182.838 185.013 182.642 185.091 182.414 185.091ZM188.242 194.159C187.552 194.159 186.947 193.995 186.427 193.667C185.91 193.339 185.506 192.88 185.214 192.29C184.926 191.7 184.781 191.01 184.781 190.222C184.781 189.426 184.926 188.732 185.214 188.138C185.506 187.545 185.91 187.085 186.427 186.756C186.947 186.428 187.552 186.264 188.242 186.264C188.931 186.264 189.534 186.428 190.051 186.756C190.572 187.085 190.976 187.545 191.264 188.138C191.556 188.732 191.702 189.426 191.702 190.222C191.702 191.01 191.556 191.7 191.264 192.29C190.976 192.88 190.572 193.339 190.051 193.667C189.534 193.995 188.931 194.159 188.242 194.159ZM188.242 193.105C188.765 193.105 189.196 192.971 189.534 192.702C189.872 192.434 190.122 192.081 190.285 191.643C190.447 191.206 190.528 190.732 190.528 190.222C190.528 189.711 190.447 189.236 190.285 188.795C190.122 188.354 189.872 187.998 189.534 187.726C189.196 187.454 188.765 187.318 188.242 187.318C187.718 187.318 187.287 187.454 186.949 187.726C186.611 187.998 186.361 188.354 186.198 188.795C186.036 189.236 185.955 189.711 185.955 190.222C185.955 190.732 186.036 191.206 186.198 191.643C186.361 192.081 186.611 192.434 186.949 192.702C187.287 192.971 187.718 193.105 188.242 193.105ZM194.666 189.406V194H193.493V186.364H194.626V187.557H194.726C194.905 187.169 195.177 186.857 195.541 186.622C195.906 186.384 196.376 186.264 196.953 186.264C197.47 186.264 197.922 186.37 198.31 186.582C198.698 186.791 199 187.109 199.215 187.537C199.431 187.961 199.538 188.498 199.538 189.148V194H198.365V189.227C198.365 188.627 198.209 188.16 197.898 187.825C197.586 187.487 197.159 187.318 196.615 187.318C196.24 187.318 195.906 187.399 195.611 187.562C195.319 187.724 195.089 187.961 194.92 188.273C194.751 188.584 194.666 188.962 194.666 189.406ZM203.929 194.179C203.446 194.179 203.006 194.088 202.612 193.906C202.218 193.72 201.904 193.453 201.672 193.105C201.44 192.754 201.324 192.33 201.324 191.832C201.324 191.395 201.41 191.04 201.583 190.768C201.755 190.493 201.986 190.278 202.274 190.122C202.562 189.966 202.88 189.85 203.228 189.774C203.58 189.695 203.933 189.632 204.287 189.585C204.751 189.526 205.128 189.481 205.416 189.451C205.708 189.418 205.92 189.363 206.052 189.287C206.188 189.211 206.256 189.078 206.256 188.889V188.849C206.256 188.359 206.122 187.978 205.853 187.706C205.588 187.434 205.186 187.298 204.645 187.298C204.085 187.298 203.646 187.421 203.328 187.666C203.01 187.911 202.786 188.173 202.657 188.452L201.543 188.054C201.742 187.59 202.007 187.229 202.339 186.97C202.673 186.708 203.038 186.526 203.432 186.423C203.83 186.317 204.221 186.264 204.606 186.264C204.851 186.264 205.133 186.294 205.451 186.354C205.772 186.41 206.082 186.528 206.38 186.707C206.682 186.886 206.932 187.156 207.131 187.517C207.33 187.878 207.429 188.362 207.429 188.969V194H206.256V192.966H206.196C206.117 193.132 205.984 193.309 205.799 193.498C205.613 193.687 205.366 193.848 205.058 193.98C204.75 194.113 204.374 194.179 203.929 194.179ZM204.108 193.125C204.572 193.125 204.964 193.034 205.282 192.852C205.603 192.669 205.845 192.434 206.008 192.146C206.173 191.857 206.256 191.554 206.256 191.236V190.162C206.206 190.222 206.097 190.276 205.928 190.326C205.762 190.372 205.57 190.414 205.351 190.45C205.136 190.483 204.925 190.513 204.72 190.54C204.518 190.563 204.354 190.583 204.228 190.599C203.923 190.639 203.638 190.704 203.373 190.793C203.111 190.879 202.899 191.01 202.736 191.186C202.577 191.358 202.498 191.594 202.498 191.892C202.498 192.3 202.648 192.608 202.95 192.817C203.255 193.022 203.641 193.125 204.108 193.125ZM209.571 194V186.364H210.704V187.517H210.784C210.923 187.139 211.175 186.833 211.54 186.597C211.904 186.362 212.315 186.244 212.773 186.244C212.859 186.244 212.967 186.246 213.096 186.249C213.225 186.253 213.323 186.258 213.389 186.264V187.457C213.349 187.447 213.258 187.433 213.116 187.413C212.976 187.389 212.829 187.378 212.673 187.378C212.302 187.378 211.971 187.456 211.679 187.612C211.391 187.764 211.162 187.976 210.993 188.248C210.827 188.516 210.744 188.823 210.744 189.168V194H209.571ZM219.294 183.818L222.317 192.389H222.436L225.459 183.818H226.752L223.013 194H221.74L218.002 183.818H219.294ZM228.178 194V186.364H229.352V194H228.178ZM228.238 185.33L229.451 183.023H230.823L229.272 185.33H228.238ZM234.384 194.159C233.748 194.159 233.186 193.998 232.699 193.677C232.212 193.352 231.83 192.895 231.555 192.305C231.28 191.711 231.143 191.01 231.143 190.202C231.143 189.4 231.28 188.704 231.555 188.114C231.83 187.524 232.213 187.068 232.704 186.746C233.194 186.425 233.761 186.264 234.404 186.264C234.901 186.264 235.294 186.347 235.582 186.513C235.874 186.675 236.096 186.861 236.248 187.07C236.404 187.275 236.525 187.444 236.611 187.577H236.711V183.818H237.884V194H236.751V192.827H236.611C236.525 192.966 236.403 193.142 236.244 193.354C236.084 193.562 235.857 193.75 235.562 193.915C235.267 194.078 234.875 194.159 234.384 194.159ZM234.543 193.105C235.014 193.105 235.412 192.982 235.736 192.737C236.061 192.489 236.308 192.146 236.477 191.708C236.646 191.267 236.731 190.759 236.731 190.182C236.731 189.612 236.648 189.113 236.482 188.685C236.316 188.254 236.071 187.92 235.746 187.681C235.422 187.439 235.021 187.318 234.543 187.318C234.046 187.318 233.632 187.446 233.3 187.701C232.972 187.953 232.725 188.296 232.56 188.73C232.397 189.161 232.316 189.645 232.316 190.182C232.316 190.725 232.399 191.219 232.565 191.663C232.734 192.104 232.982 192.455 233.31 192.717C233.642 192.976 234.053 193.105 234.543 193.105ZM243.398 194.159C242.662 194.159 242.027 193.997 241.494 193.672C240.963 193.344 240.554 192.886 240.266 192.3C239.98 191.71 239.838 191.024 239.838 190.241C239.838 189.459 239.98 188.77 240.266 188.173C240.554 187.573 240.955 187.106 241.469 186.771C241.986 186.433 242.589 186.264 243.278 186.264C243.676 186.264 244.069 186.33 244.457 186.463C244.844 186.596 245.197 186.811 245.516 187.109C245.834 187.404 246.087 187.795 246.276 188.283C246.465 188.77 246.56 189.37 246.56 190.082V190.58H240.673V189.565H245.366C245.366 189.134 245.28 188.75 245.108 188.412C244.939 188.074 244.697 187.807 244.382 187.612C244.07 187.416 243.703 187.318 243.278 187.318C242.811 187.318 242.407 187.434 242.065 187.666C241.727 187.895 241.467 188.193 241.285 188.561C241.102 188.929 241.011 189.323 241.011 189.744V190.42C241.011 190.997 241.111 191.486 241.31 191.887C241.512 192.285 241.792 192.588 242.15 192.797C242.508 193.002 242.924 193.105 243.398 193.105C243.706 193.105 243.984 193.062 244.233 192.976C244.485 192.886 244.702 192.754 244.884 192.578C245.066 192.399 245.207 192.177 245.307 191.912L246.44 192.23C246.321 192.615 246.12 192.953 245.839 193.244C245.557 193.533 245.209 193.758 244.795 193.92C244.38 194.08 243.915 194.159 243.398 194.159ZM251.447 194.159C250.757 194.159 250.152 193.995 249.632 193.667C249.115 193.339 248.711 192.88 248.419 192.29C248.131 191.7 247.986 191.01 247.986 190.222C247.986 189.426 248.131 188.732 248.419 188.138C248.711 187.545 249.115 187.085 249.632 186.756C250.152 186.428 250.757 186.264 251.447 186.264C252.136 186.264 252.739 186.428 253.256 186.756C253.777 187.085 254.181 187.545 254.469 188.138C254.761 188.732 254.907 189.426 254.907 190.222C254.907 191.01 254.761 191.7 254.469 192.29C254.181 192.88 253.777 193.339 253.256 193.667C252.739 193.995 252.136 194.159 251.447 194.159ZM251.447 193.105C251.97 193.105 252.401 192.971 252.739 192.702C253.077 192.434 253.328 192.081 253.49 191.643C253.652 191.206 253.734 190.732 253.734 190.222C253.734 189.711 253.652 189.236 253.49 188.795C253.328 188.354 253.077 187.998 252.739 187.726C252.401 187.454 251.97 187.318 251.447 187.318C250.923 187.318 250.492 187.454 250.154 187.726C249.816 187.998 249.566 188.354 249.403 188.795C249.241 189.236 249.16 189.711 249.16 190.222C249.16 190.732 249.241 191.206 249.403 191.643C249.566 192.081 249.816 192.434 250.154 192.702C250.492 192.971 250.923 193.105 251.447 193.105Z" fill="white"/>
<path d="M57.9773 233.273V242H56.9545L52.1989 235.148H52.1136V242H51.0568V233.273H52.0795L56.8523 240.142H56.9375V233.273H57.9773ZM62.6147 242.136C62.0238 242.136 61.5053 241.996 61.0593 241.714C60.6161 241.433 60.2695 241.04 60.0195 240.534C59.7724 240.028 59.6488 239.437 59.6488 238.761C59.6488 238.08 59.7724 237.484 60.0195 236.976C60.2695 236.467 60.6161 236.072 61.0593 235.791C61.5053 235.51 62.0238 235.369 62.6147 235.369C63.2056 235.369 63.7227 235.51 64.1658 235.791C64.6119 236.072 64.9585 236.467 65.2056 236.976C65.4556 237.484 65.5806 238.08 65.5806 238.761C65.5806 239.437 65.4556 240.028 65.2056 240.534C64.9585 241.04 64.6119 241.433 64.1658 241.714C63.7227 241.996 63.2056 242.136 62.6147 242.136ZM62.6147 241.233C63.0636 241.233 63.4329 241.118 63.7227 240.888C64.0124 240.658 64.2269 240.355 64.3661 239.98C64.5053 239.605 64.5749 239.199 64.5749 238.761C64.5749 238.324 64.5053 237.916 64.3661 237.538C64.2269 237.161 64.0124 236.855 63.7227 236.622C63.4329 236.389 63.0636 236.273 62.6147 236.273C62.1658 236.273 61.7965 236.389 61.5067 236.622C61.217 236.855 61.0025 237.161 60.8633 237.538C60.7241 237.916 60.6545 238.324 60.6545 238.761C60.6545 239.199 60.7241 239.605 60.8633 239.98C61.0025 240.355 61.217 240.658 61.5067 240.888C61.7965 241.118 62.1658 241.233 62.6147 241.233ZM67.1158 242V235.455H68.0874V236.477H68.1726C68.3089 236.128 68.5291 235.857 68.8331 235.663C69.1371 235.467 69.5021 235.369 69.9283 235.369C70.3601 235.369 70.7195 235.467 71.0064 235.663C71.2962 235.857 71.522 236.128 71.6839 236.477H71.7521C71.9197 236.139 72.1712 235.871 72.5064 235.672C72.8416 235.47 73.2436 235.369 73.7124 235.369C74.2976 235.369 74.7763 235.553 75.1484 235.919C75.5206 236.283 75.7067 236.849 75.7067 237.619V242H74.701V237.619C74.701 237.136 74.5689 236.791 74.3047 236.584C74.0405 236.376 73.7294 236.273 73.3714 236.273C72.9112 236.273 72.5547 236.412 72.3018 236.69C72.049 236.966 71.9226 237.315 71.9226 237.739V242H70.8999V237.517C70.8999 237.145 70.7791 236.845 70.5376 236.618C70.2962 236.388 69.9851 236.273 69.6044 236.273C69.343 236.273 69.0987 236.342 68.8714 236.482C68.647 236.621 68.4652 236.814 68.326 237.061C68.1896 237.305 68.1214 237.588 68.1214 237.909V242H67.1158ZM80.2898 242.136C79.6591 242.136 79.1151 241.997 78.6577 241.719C78.2031 241.438 77.8523 241.045 77.6051 240.543C77.3608 240.037 77.2386 239.449 77.2386 238.778C77.2386 238.108 77.3608 237.517 77.6051 237.006C77.8523 236.491 78.196 236.091 78.6364 235.804C79.0795 235.514 79.5966 235.369 80.1875 235.369C80.5284 235.369 80.8651 235.426 81.1974 235.54C81.5298 235.653 81.8324 235.838 82.1051 236.094C82.3778 236.347 82.5952 236.682 82.7571 237.099C82.919 237.517 83 238.031 83 238.642V239.068H77.9545V238.199H81.9773C81.9773 237.83 81.9034 237.5 81.7557 237.21C81.6108 236.92 81.4034 236.692 81.1335 236.524C80.8665 236.357 80.5511 236.273 80.1875 236.273C79.7869 236.273 79.4403 236.372 79.1477 236.571C78.858 236.767 78.6349 237.023 78.4787 237.338C78.3224 237.653 78.2443 237.991 78.2443 238.352V238.932C78.2443 239.426 78.3295 239.845 78.5 240.189C78.6733 240.53 78.9134 240.79 79.2202 240.969C79.527 241.145 79.8835 241.233 80.2898 241.233C80.554 241.233 80.7926 241.196 81.0057 241.122C81.2216 241.045 81.4077 240.932 81.5639 240.781C81.7202 240.628 81.8409 240.437 81.9261 240.21L82.8977 240.483C82.7955 240.812 82.6236 241.102 82.3821 241.352C82.1406 241.599 81.8423 241.793 81.4872 241.932C81.1321 242.068 80.733 242.136 80.2898 242.136ZM90.3764 242.136C89.831 242.136 89.3494 241.999 88.9318 241.723C88.5142 241.445 88.1875 241.053 87.9517 240.547C87.7159 240.038 87.598 239.438 87.598 238.744C87.598 238.057 87.7159 237.46 87.9517 236.955C88.1875 236.449 88.5156 236.058 88.9361 235.783C89.3565 235.507 89.8423 235.369 90.3935 235.369C90.8196 235.369 91.1563 235.44 91.4034 235.582C91.6534 235.722 91.8438 235.881 91.9744 236.06C92.108 236.236 92.2116 236.381 92.2855 236.494H92.3707V233.273H93.3764V242H92.4048V240.994H92.2855C92.2116 241.114 92.1065 241.264 91.9702 241.446C91.8338 241.625 91.6392 241.786 91.3864 241.928C91.1335 242.067 90.7969 242.136 90.3764 242.136ZM90.5128 241.233C90.9162 241.233 91.2571 241.128 91.5355 240.918C91.8139 240.705 92.0256 240.411 92.1705 240.036C92.3153 239.658 92.3878 239.222 92.3878 238.727C92.3878 238.239 92.3168 237.811 92.1747 237.445C92.0327 237.075 91.8224 236.788 91.544 236.584C91.2656 236.376 90.9219 236.273 90.5128 236.273C90.0866 236.273 89.7315 236.382 89.4474 236.601C89.1662 236.817 88.9545 237.111 88.8125 237.483C88.6733 237.852 88.6037 238.267 88.6037 238.727C88.6037 239.193 88.6747 239.616 88.8168 239.997C88.9616 240.375 89.1747 240.676 89.456 240.901C89.7401 241.122 90.0923 241.233 90.5128 241.233ZM98.017 242.136C97.4261 242.136 96.9077 241.996 96.4616 241.714C96.0185 241.433 95.6719 241.04 95.4219 240.534C95.1747 240.028 95.0511 239.437 95.0511 238.761C95.0511 238.08 95.1747 237.484 95.4219 236.976C95.6719 236.467 96.0185 236.072 96.4616 235.791C96.9077 235.51 97.4261 235.369 98.017 235.369C98.608 235.369 99.125 235.51 99.5682 235.791C100.014 236.072 100.361 236.467 100.608 236.976C100.858 237.484 100.983 238.08 100.983 238.761C100.983 239.437 100.858 240.028 100.608 240.534C100.361 241.04 100.014 241.433 99.5682 241.714C99.125 241.996 98.608 242.136 98.017 242.136ZM98.017 241.233C98.4659 241.233 98.8352 241.118 99.125 240.888C99.4148 240.658 99.6293 240.355 99.7685 239.98C99.9077 239.605 99.9773 239.199 99.9773 238.761C99.9773 238.324 99.9077 237.916 99.7685 237.538C99.6293 237.161 99.4148 236.855 99.125 236.622C98.8352 236.389 98.4659 236.273 98.017 236.273C97.5682 236.273 97.1989 236.389 96.9091 236.622C96.6193 236.855 96.4048 237.161 96.2656 237.538C96.1264 237.916 96.0568 238.324 96.0568 238.761C96.0568 239.199 96.1264 239.605 96.2656 239.98C96.4048 240.355 96.6193 240.658 96.9091 240.888C97.1989 241.118 97.5682 241.233 98.017 241.233ZM106.387 233.273L108.978 240.619H109.081L111.672 233.273H112.779L109.575 242H108.484L105.279 233.273H106.387ZM114.002 242V235.455H115.008V242H114.002ZM114.054 234.568L115.093 232.591H116.27L114.94 234.568H114.054ZM119.322 242.136C118.776 242.136 118.295 241.999 117.877 241.723C117.46 241.445 117.133 241.053 116.897 240.547C116.661 240.038 116.543 239.438 116.543 238.744C116.543 238.057 116.661 237.46 116.897 236.955C117.133 236.449 117.461 236.058 117.881 235.783C118.302 235.507 118.788 235.369 119.339 235.369C119.765 235.369 120.102 235.44 120.349 235.582C120.599 235.722 120.789 235.881 120.92 236.06C121.053 236.236 121.157 236.381 121.231 236.494H121.316V233.273H122.322V242H121.35V240.994H121.231C121.157 241.114 121.052 241.264 120.915 241.446C120.779 241.625 120.585 241.786 120.332 241.928C120.079 242.067 119.742 242.136 119.322 242.136ZM119.458 241.233C119.862 241.233 120.202 241.128 120.481 240.918C120.759 240.705 120.971 240.411 121.116 240.036C121.261 239.658 121.333 239.222 121.333 238.727C121.333 238.239 121.262 237.811 121.12 237.445C120.978 237.075 120.768 236.788 120.489 236.584C120.211 236.376 119.867 236.273 119.458 236.273C119.032 236.273 118.677 236.382 118.393 236.601C118.112 236.817 117.9 237.111 117.758 237.483C117.619 237.852 117.549 238.267 117.549 238.727C117.549 239.193 117.62 239.616 117.762 239.997C117.907 240.375 118.12 240.676 118.401 240.901C118.685 241.122 119.038 241.233 119.458 241.233ZM127.048 242.136C126.417 242.136 125.873 241.997 125.415 241.719C124.961 241.438 124.61 241.045 124.363 240.543C124.119 240.037 123.996 239.449 123.996 238.778C123.996 238.108 124.119 237.517 124.363 237.006C124.61 236.491 124.954 236.091 125.394 235.804C125.837 235.514 126.354 235.369 126.945 235.369C127.286 235.369 127.623 235.426 127.955 235.54C128.288 235.653 128.59 235.838 128.863 236.094C129.136 236.347 129.353 236.682 129.515 237.099C129.677 237.517 129.758 238.031 129.758 238.642V239.068H124.712V238.199H128.735C128.735 237.83 128.661 237.5 128.513 237.21C128.369 236.92 128.161 236.692 127.891 236.524C127.624 236.357 127.309 236.273 126.945 236.273C126.545 236.273 126.198 236.372 125.906 236.571C125.616 236.767 125.393 237.023 125.237 237.338C125.08 237.653 125.002 237.991 125.002 238.352V238.932C125.002 239.426 125.087 239.845 125.258 240.189C125.431 240.53 125.671 240.79 125.978 240.969C126.285 241.145 126.641 241.233 127.048 241.233C127.312 241.233 127.55 241.196 127.763 241.122C127.979 241.045 128.165 240.932 128.322 240.781C128.478 240.628 128.599 240.437 128.684 240.21L129.656 240.483C129.553 240.812 129.381 241.102 129.14 241.352C128.898 241.599 128.6 241.793 128.245 241.932C127.89 242.068 127.491 242.136 127.048 242.136ZM133.947 242.136C133.356 242.136 132.837 241.996 132.391 241.714C131.948 241.433 131.602 241.04 131.352 240.534C131.104 240.028 130.981 239.437 130.981 238.761C130.981 238.08 131.104 237.484 131.352 236.976C131.602 236.467 131.948 236.072 132.391 235.791C132.837 235.51 133.356 235.369 133.947 235.369C134.538 235.369 135.055 235.51 135.498 235.791C135.944 236.072 136.29 236.467 136.538 236.976C136.788 237.484 136.913 238.08 136.913 238.761C136.913 239.437 136.788 240.028 136.538 240.534C136.29 241.04 135.944 241.433 135.498 241.714C135.055 241.996 134.538 242.136 133.947 242.136ZM133.947 241.233C134.396 241.233 134.765 241.118 135.055 240.888C135.344 240.658 135.559 240.355 135.698 239.98C135.837 239.605 135.907 239.199 135.907 238.761C135.907 238.324 135.837 237.916 135.698 237.538C135.559 237.161 135.344 236.855 135.055 236.622C134.765 236.389 134.396 236.273 133.947 236.273C133.498 236.273 133.129 236.389 132.839 236.622C132.549 236.855 132.335 237.161 132.195 237.538C132.056 237.916 131.987 238.324 131.987 238.761C131.987 239.199 132.056 239.605 132.195 239.98C132.335 240.355 132.549 240.658 132.839 240.888C133.129 241.118 133.498 241.233 133.947 241.233Z" fill="white"/>
<path d="M346 252H54C51.7909 252 50 253.791 50 256V278C50 280.209 51.7909 282 54 282H346C348.209 282 350 280.209 350 278V256C350 253.791 348.209 252 346 252Z" fill="#2A1F3D" stroke="#555555"/>
<path d="M294 533H106C102.686 533 100 535.686 100 539V567C100 570.314 102.686 573 106 573H294C297.314 573 300 570.314 300 567V539C300 535.686 297.314 533 294 533Z" fill="#2ECC71"/>
<path d="M181.485 559V548.818H187.63V549.912H182.718V553.352H187.312V554.446H182.718V557.906H187.709V559H181.485ZM190.866 554.406V559H189.693V551.364H190.827V552.557H190.926C191.105 552.169 191.377 551.857 191.741 551.622C192.106 551.384 192.577 551.264 193.153 551.264C193.67 551.264 194.123 551.37 194.51 551.582C194.898 551.791 195.2 552.109 195.415 552.537C195.631 552.961 195.738 553.498 195.738 554.148V559H194.565V554.227C194.565 553.627 194.409 553.16 194.098 552.825C193.786 552.487 193.359 552.318 192.815 552.318C192.441 552.318 192.106 552.399 191.811 552.562C191.519 552.724 191.289 552.961 191.12 553.273C190.951 553.584 190.866 553.962 190.866 554.406ZM203.853 551.364L201.029 559H199.836L197.012 551.364H198.285L200.393 557.449H200.473L202.581 551.364H203.853ZM205.402 559V551.364H206.575V559H205.402ZM205.999 550.091C205.77 550.091 205.573 550.013 205.407 549.857C205.245 549.701 205.163 549.514 205.163 549.295C205.163 549.077 205.245 548.889 205.407 548.734C205.573 548.578 205.77 548.5 205.999 548.5C206.227 548.5 206.423 548.578 206.585 548.734C206.751 548.889 206.834 549.077 206.834 549.295C206.834 549.514 206.751 549.701 206.585 549.857C206.423 550.013 206.227 550.091 205.999 550.091ZM210.971 559.179C210.488 559.179 210.048 559.088 209.654 558.906C209.26 558.72 208.946 558.453 208.714 558.105C208.482 557.754 208.366 557.33 208.366 556.832C208.366 556.395 208.452 556.04 208.625 555.768C208.797 555.493 209.028 555.278 209.316 555.122C209.604 554.966 209.922 554.85 210.27 554.774C210.622 554.695 210.975 554.632 211.329 554.585C211.793 554.526 212.17 554.481 212.458 554.451C212.75 554.418 212.962 554.363 213.094 554.287C213.23 554.211 213.298 554.078 213.298 553.889V553.849C213.298 553.359 213.164 552.978 212.895 552.706C212.63 552.434 212.228 552.298 211.687 552.298C211.127 552.298 210.688 552.421 210.37 552.666C210.052 552.911 209.828 553.173 209.699 553.452L208.585 553.054C208.784 552.59 209.049 552.229 209.381 551.97C209.715 551.708 210.08 551.526 210.474 551.423C210.872 551.317 211.263 551.264 211.648 551.264C211.893 551.264 212.175 551.294 212.493 551.354C212.814 551.41 213.124 551.528 213.422 551.707C213.724 551.886 213.974 552.156 214.173 552.517C214.372 552.878 214.471 553.362 214.471 553.969V559H213.298V557.966H213.238C213.159 558.132 213.026 558.309 212.841 558.498C212.655 558.687 212.408 558.848 212.1 558.98C211.792 559.113 211.416 559.179 210.971 559.179ZM211.15 558.125C211.614 558.125 212.006 558.034 212.324 557.852C212.645 557.669 212.887 557.434 213.05 557.146C213.215 556.857 213.298 556.554 213.298 556.236V555.162C213.248 555.222 213.139 555.276 212.97 555.326C212.804 555.372 212.612 555.414 212.393 555.45C212.178 555.483 211.967 555.513 211.762 555.54C211.56 555.563 211.396 555.583 211.27 555.599C210.965 555.639 210.68 555.704 210.415 555.793C210.153 555.879 209.941 556.01 209.778 556.186C209.619 556.358 209.54 556.594 209.54 556.892C209.54 557.3 209.69 557.608 209.992 557.817C210.297 558.022 210.683 558.125 211.15 558.125ZM216.613 559V551.364H217.746V552.517H217.826C217.965 552.139 218.217 551.833 218.582 551.597C218.946 551.362 219.357 551.244 219.815 551.244C219.901 551.244 220.009 551.246 220.138 551.249C220.267 551.253 220.365 551.258 220.431 551.264V552.457C220.391 552.447 220.3 552.433 220.158 552.413C220.018 552.389 219.871 552.378 219.715 552.378C219.344 552.378 219.013 552.456 218.721 552.612C218.433 552.764 218.204 552.976 218.035 553.248C217.869 553.516 217.786 553.823 217.786 554.168V559H216.613Z" fill="white"/>
<path d="M344 328H56C52.6863 328 50 330.686 50 334V502C50 505.314 52.6863 508 56 508H344C347.314 508 350 505.314 350 502V334C350 330.686 347.314 328 344 328Z" fill="#2A1F3D"/>
<path d="M190 388L230 408L190 428V388Z" fill="#2ECC71"/>
</svg>
