<svg width="400" height="700" viewBox="0 0 400 700" fill="none" xmlns="http://www.w3.org/2000/svg">
<path d="M400 0H0V700H400V0Z" fill="#1B0B26"/>
<path d="M400 0H0V50H400V0Z" fill="#222222"/>
<path d="M400 0H0V50H400V0Z" fill="#1E1A21"/>
<path d="M280 8C280 3.58172 283.582 0 288 0H392C396.418 0 400 3.58172 400 8V42C400 46.4183 396.418 50 392 50H288C283.582 50 280 46.4183 280 42V8Z" fill="#2D2828"/>
<path d="M280 8C280 3.58172 283.582 0 288 0H392C396.418 0 400 3.58172 400 8V42C400 46.4183 396.418 50 392 50H288C283.582 50 280 46.4183 280 42V8Z" fill="#2D2828"/>
<path d="M316.227 25.1818C316.227 26.4091 316.006 27.4697 315.562 28.3636C315.119 29.2576 314.511 29.947 313.739 30.4318C312.966 30.9167 312.083 31.1591 311.091 31.1591C310.098 31.1591 309.216 30.9167 308.443 30.4318C307.67 29.947 307.063 29.2576 306.619 28.3636C306.176 27.4697 305.955 26.4091 305.955 25.1818C305.955 23.9545 306.176 22.8939 306.619 22C307.063 21.1061 307.67 20.4167 308.443 19.9318C309.216 19.447 310.098 19.2045 311.091 19.2045C312.083 19.2045 312.966 19.447 313.739 19.9318C314.511 20.4167 315.119 21.1061 315.562 22C316.006 22.8939 316.227 23.9545 316.227 25.1818ZM314.864 25.1818C314.864 24.1742 314.695 23.3239 314.358 22.6307C314.025 21.9375 313.572 21.4129 313 21.0568C312.432 20.7008 311.795 20.5227 311.091 20.5227C310.386 20.5227 309.748 20.7008 309.176 21.0568C308.608 21.4129 308.155 21.9375 307.818 22.6307C307.485 23.3239 307.318 24.1742 307.318 25.1818C307.318 26.1894 307.485 27.0398 307.818 27.733C308.155 28.4261 308.608 28.9508 309.176 29.3068C309.748 29.6629 310.386 29.8409 311.091 29.8409C311.795 29.8409 312.432 29.6629 313 29.3068C313.572 28.9508 314.025 28.4261 314.358 27.733C314.695 27.0398 314.864 26.1894 314.864 25.1818ZM319.756 19.3636V31H318.415V19.3636H319.756ZM324.78 31.2045C324.227 31.2045 323.725 31.1004 323.274 30.892C322.823 30.6799 322.465 30.375 322.2 29.9773C321.935 29.5758 321.803 29.0909 321.803 28.5227C321.803 28.0227 321.901 27.6174 322.098 27.3068C322.295 26.9924 322.558 26.7462 322.888 26.5682C323.217 26.3902 323.581 26.2576 323.979 26.1705C324.38 26.0795 324.784 26.0076 325.189 25.9545C325.719 25.8864 326.149 25.8352 326.479 25.8011C326.812 25.7633 327.054 25.7008 327.206 25.6136C327.361 25.5265 327.439 25.375 327.439 25.1591V25.1136C327.439 24.553 327.286 24.1174 326.979 23.8068C326.676 23.4962 326.215 23.3409 325.598 23.3409C324.958 23.3409 324.456 23.4811 324.092 23.7614C323.729 24.0417 323.473 24.3409 323.325 24.6591L322.053 24.2045C322.28 23.6742 322.583 23.2614 322.962 22.9659C323.344 22.6667 323.761 22.4583 324.212 22.3409C324.666 22.2197 325.113 22.1591 325.553 22.1591C325.833 22.1591 326.155 22.1932 326.518 22.2614C326.886 22.3258 327.24 22.4602 327.581 22.6648C327.926 22.8693 328.212 23.178 328.439 23.5909C328.666 24.0038 328.78 24.5568 328.78 25.25V31H327.439V29.8182H327.371C327.28 30.0076 327.128 30.2102 326.916 30.4261C326.704 30.642 326.422 30.8258 326.07 30.9773C325.717 31.1288 325.287 31.2045 324.78 31.2045ZM324.984 30C325.515 30 325.962 29.8958 326.325 29.6875C326.693 29.4792 326.969 29.2102 327.155 28.8807C327.344 28.5511 327.439 28.2045 327.439 27.8409V26.6136C327.382 26.6818 327.257 26.7443 327.064 26.8011C326.875 26.8542 326.655 26.9015 326.405 26.9432C326.159 26.9811 325.918 27.0152 325.683 27.0455C325.452 27.072 325.265 27.0947 325.121 27.1136C324.772 27.1591 324.446 27.233 324.143 27.3352C323.844 27.4337 323.602 27.5833 323.416 27.7841C323.234 27.9811 323.143 28.25 323.143 28.5909C323.143 29.0568 323.316 29.4091 323.661 29.6477C324.009 29.8826 324.45 30 324.984 30ZM325.03 21.0909L326.416 18.4545H327.984L326.212 21.0909H325.03ZM333.227 29.4091L333.136 30.0227C333.072 30.4545 332.973 30.9167 332.841 31.4091C332.712 31.9015 332.578 32.3655 332.438 32.8011C332.297 33.2367 332.182 33.5833 332.091 33.8409H331.068C331.117 33.5985 331.182 33.2784 331.261 32.8807C331.341 32.483 331.42 32.0379 331.5 31.5455C331.583 31.0568 331.652 30.5568 331.705 30.0455L331.773 29.4091H333.227ZM340.871 19.3636L344.325 29.1591H344.462L347.916 19.3636H349.393L345.121 31H343.666L339.393 19.3636H340.871ZM351.024 31V22.2727H352.365V31H351.024ZM351.706 20.8182C351.445 20.8182 351.219 20.7292 351.03 20.5511C350.844 20.3731 350.751 20.1591 350.751 19.9091C350.751 19.6591 350.844 19.4451 351.03 19.267C351.219 19.089 351.445 19 351.706 19C351.967 19 352.191 19.089 352.376 19.267C352.566 19.4451 352.661 19.6591 352.661 19.9091C352.661 20.1591 352.566 20.3731 352.376 20.5511C352.191 20.7292 351.967 20.8182 351.706 20.8182ZM358.616 22.2727V23.4091H354.094V22.2727H358.616ZM355.412 20.1818H356.753V28.5C356.753 28.8788 356.808 29.1629 356.918 29.3523C357.031 29.5379 357.175 29.6629 357.349 29.7273C357.527 29.7879 357.715 29.8182 357.912 29.8182C358.06 29.8182 358.181 29.8106 358.276 29.7955C358.37 29.7765 358.446 29.7614 358.503 29.75L358.776 30.9545C358.685 30.9886 358.558 31.0227 358.395 31.0568C358.232 31.0947 358.026 31.1136 357.776 31.1136C357.397 31.1136 357.026 31.0322 356.662 30.8693C356.302 30.7064 356.003 30.4583 355.764 30.125C355.529 29.7917 355.412 29.3712 355.412 28.8636V20.1818ZM364.085 31.1818C363.297 31.1818 362.606 30.9943 362.011 30.6193C361.42 30.2443 360.958 29.7197 360.625 29.0455C360.295 28.3712 360.131 27.5833 360.131 26.6818C360.131 25.7727 360.295 24.9792 360.625 24.3011C360.958 23.6231 361.42 23.0966 362.011 22.7216C362.606 22.3466 363.297 22.1591 364.085 22.1591C364.873 22.1591 365.563 22.3466 366.153 22.7216C366.748 23.0966 367.21 23.6231 367.54 24.3011C367.873 24.9792 368.04 25.7727 368.04 26.6818C368.04 27.5833 367.873 28.3712 367.54 29.0455C367.21 29.7197 366.748 30.2443 366.153 30.6193C365.563 30.9943 364.873 31.1818 364.085 31.1818ZM364.085 29.9773C364.684 29.9773 365.176 29.8239 365.562 29.517C365.949 29.2102 366.235 28.8068 366.42 28.3068C366.606 27.8068 366.699 27.2652 366.699 26.6818C366.699 26.0985 366.606 25.5549 366.42 25.0511C366.235 24.5473 365.949 24.1402 365.562 23.8295C365.176 23.5189 364.684 23.3636 364.085 23.3636C363.487 23.3636 362.994 23.5189 362.608 23.8295C362.222 24.1402 361.936 24.5473 361.75 25.0511C361.564 25.5549 361.472 26.0985 361.472 26.6818C361.472 27.2652 361.564 27.8068 361.75 28.3068C361.936 28.8068 362.222 29.2102 362.608 29.517C362.994 29.8239 363.487 29.9773 364.085 29.9773ZM370.087 31V22.2727H371.382V23.5909H371.473C371.632 23.1591 371.92 22.8087 372.337 22.5398C372.753 22.2708 373.223 22.1364 373.746 22.1364C373.844 22.1364 373.967 22.1383 374.115 22.142C374.263 22.1458 374.375 22.1515 374.45 22.1591V23.5227C374.405 23.5114 374.301 23.4943 374.138 23.4716C373.979 23.4451 373.81 23.4318 373.632 23.4318C373.208 23.4318 372.829 23.5208 372.496 23.6989C372.166 23.8731 371.905 24.1155 371.712 24.4261C371.522 24.733 371.428 25.0833 371.428 25.4773V31H370.087Z" fill="white"/>
<path d="M16.8864 17.3636L20.3409 27.1591H20.4773L23.9318 17.3636H25.4091L21.1364 29H19.6818L15.4091 17.3636H16.8864ZM27.0398 29V20.2727H28.3807V29H27.0398ZM27.7216 18.8182C27.4602 18.8182 27.2348 18.7292 27.0455 18.5511C26.8598 18.3731 26.767 18.1591 26.767 17.9091C26.767 17.6591 26.8598 17.4451 27.0455 17.267C27.2348 17.089 27.4602 17 27.7216 17C27.983 17 28.2064 17.089 28.392 17.267C28.5814 17.4451 28.6761 17.6591 28.6761 17.9091C28.6761 18.1591 28.5814 18.3731 28.392 18.5511C28.2064 18.7292 27.983 18.8182 27.7216 18.8182ZM34.1321 29.1818C33.4048 29.1818 32.7628 28.9981 32.206 28.6307C31.6491 28.2595 31.2135 27.7367 30.8991 27.0625C30.5848 26.3845 30.4276 25.5833 30.4276 24.6591C30.4276 23.7424 30.5848 22.947 30.8991 22.2727C31.2135 21.5985 31.651 21.0777 32.2116 20.7102C32.7723 20.3428 33.42 20.1591 34.1548 20.1591C34.723 20.1591 35.1719 20.2538 35.5014 20.4432C35.8348 20.6288 36.0885 20.8409 36.2628 21.0795C36.4408 21.3144 36.5791 21.5076 36.6776 21.6591H36.7912V17.3636H38.1321V29H36.8366V27.6591H36.6776C36.5791 27.8182 36.4389 28.0189 36.2571 28.2614C36.0753 28.5 35.8158 28.714 35.4787 28.9034C35.1416 29.089 34.6927 29.1818 34.1321 29.1818ZM34.3139 27.9773C34.8518 27.9773 35.3063 27.8371 35.6776 27.5568C36.0488 27.2727 36.331 26.8807 36.5241 26.3807C36.7173 25.8769 36.8139 25.2955 36.8139 24.6364C36.8139 23.9848 36.7192 23.4148 36.5298 22.9261C36.3404 22.4337 36.0601 22.0511 35.6889 21.7784C35.3177 21.5019 34.8594 21.3636 34.3139 21.3636C33.7457 21.3636 33.2723 21.5095 32.8935 21.8011C32.5185 22.089 32.2363 22.4811 32.0469 22.9773C31.8613 23.4697 31.7685 24.0227 31.7685 24.6364C31.7685 25.2576 31.8632 25.822 32.0526 26.3295C32.2457 26.8333 32.5298 27.2348 32.9048 27.5341C33.2836 27.8295 33.7533 27.9773 34.3139 27.9773ZM44.4332 29.1818C43.5923 29.1818 42.867 28.9962 42.2571 28.625C41.651 28.25 41.1832 27.7273 40.8537 27.0568C40.5279 26.3826 40.3651 25.5985 40.3651 24.7045C40.3651 23.8106 40.5279 23.0227 40.8537 22.3409C41.1832 21.6553 41.6416 21.1212 42.2287 20.7386C42.8196 20.3523 43.509 20.1591 44.2969 20.1591C44.7514 20.1591 45.2003 20.2348 45.6435 20.3864C46.0866 20.5379 46.4901 20.7841 46.8537 21.125C47.2173 21.4621 47.5071 21.9091 47.723 22.4659C47.9389 23.0227 48.0469 23.7083 48.0469 24.5227V25.0909H41.3196V23.9318H46.6832C46.6832 23.4394 46.5848 23 46.3878 22.6136C46.1946 22.2273 45.9181 21.9223 45.5582 21.6989C45.2022 21.4754 44.7817 21.3636 44.2969 21.3636C43.7628 21.3636 43.3007 21.4962 42.9105 21.7614C42.5241 22.0227 42.2268 22.3636 42.0185 22.7841C41.8101 23.2045 41.706 23.6553 41.706 24.1364V24.9091C41.706 25.5682 41.8196 26.1269 42.0469 26.5852C42.2779 27.0398 42.598 27.3864 43.0071 27.625C43.4162 27.8598 43.8916 27.9773 44.4332 27.9773C44.7855 27.9773 45.1037 27.928 45.3878 27.8295C45.6757 27.7273 45.9238 27.5758 46.1321 27.375C46.3404 27.1705 46.5014 26.9167 46.6151 26.6136L47.9105 26.9773C47.7741 27.4167 47.545 27.803 47.223 28.1364C46.901 28.4659 46.5033 28.7235 46.0298 28.9091C45.5563 29.0909 45.0241 29.1818 44.4332 29.1818ZM53.6321 29.1818C52.8442 29.1818 52.1529 28.9943 51.5582 28.6193C50.9673 28.2443 50.5052 27.7197 50.1719 27.0455C49.8423 26.3712 49.6776 25.5833 49.6776 24.6818C49.6776 23.7727 49.8423 22.9792 50.1719 22.3011C50.5052 21.6231 50.9673 21.0966 51.5582 20.7216C52.1529 20.3466 52.8442 20.1591 53.6321 20.1591C54.42 20.1591 55.1094 20.3466 55.7003 20.7216C56.295 21.0966 56.7571 21.6231 57.0866 22.3011C57.42 22.9792 57.5866 23.7727 57.5866 24.6818C57.5866 25.5833 57.42 26.3712 57.0866 27.0455C56.7571 27.7197 56.295 28.2443 55.7003 28.6193C55.1094 28.9943 54.42 29.1818 53.6321 29.1818ZM53.6321 27.9773C54.2306 27.9773 54.723 27.8239 55.1094 27.517C55.4957 27.2102 55.7817 26.8068 55.9673 26.3068C56.1529 25.8068 56.2457 25.2652 56.2457 24.6818C56.2457 24.0985 56.1529 23.5549 55.9673 23.0511C55.7817 22.5473 55.4957 22.1402 55.1094 21.8295C54.723 21.5189 54.2306 21.3636 53.6321 21.3636C53.0336 21.3636 52.5412 21.5189 52.1548 21.8295C51.7685 22.1402 51.4825 22.5473 51.2969 23.0511C51.1113 23.5549 51.0185 24.0985 51.0185 24.6818C51.0185 25.2652 51.1113 25.8068 51.2969 26.3068C51.4825 26.8068 51.7685 27.2102 52.1548 27.517C52.5412 27.8239 53.0336 27.9773 53.6321 27.9773ZM70.679 20.2727C70.6108 19.697 70.3343 19.25 69.8494 18.9318C69.3646 18.6136 68.7699 18.4545 68.0653 18.4545C67.5502 18.4545 67.0994 18.5379 66.7131 18.7045C66.3305 18.8712 66.0313 19.1004 65.8153 19.392C65.6032 19.6837 65.4972 20.0152 65.4972 20.3864C65.4972 20.697 65.571 20.964 65.7188 21.1875C65.8703 21.4072 66.0634 21.5909 66.2983 21.7386C66.5331 21.8826 66.7794 22.0019 67.0369 22.0966C67.2945 22.1875 67.5312 22.2614 67.7472 22.3182L68.929 22.6364C69.232 22.7159 69.5691 22.8258 69.9403 22.9659C70.3153 23.1061 70.6733 23.2973 71.0142 23.5398C71.3589 23.7784 71.643 24.0852 71.8665 24.4602C72.09 24.8352 72.2017 25.2955 72.2017 25.8409C72.2017 26.4697 72.0369 27.0379 71.7074 27.5455C71.3816 28.053 70.9044 28.4564 70.2756 28.7557C69.6506 29.0549 68.8911 29.2045 67.9972 29.2045C67.1638 29.2045 66.4422 29.0701 65.8324 28.8011C65.2263 28.5322 64.7491 28.1572 64.4006 27.6761C64.0559 27.1951 63.8608 26.6364 63.8153 26H65.2699C65.3078 26.4394 65.4555 26.803 65.7131 27.0909C65.9744 27.375 66.304 27.5871 66.7017 27.7273C67.1032 27.8636 67.535 27.9318 67.9972 27.9318C68.535 27.9318 69.018 27.8447 69.446 27.6705C69.8741 27.4924 70.2131 27.2462 70.4631 26.9318C70.7131 26.6136 70.8381 26.2424 70.8381 25.8182C70.8381 25.4318 70.7301 25.1174 70.5142 24.875C70.2983 24.6326 70.0142 24.4356 69.6619 24.2841C69.3097 24.1326 68.929 24 68.5199 23.8864L67.0881 23.4773C66.179 23.2159 65.4593 22.8428 64.929 22.358C64.3987 21.8731 64.1335 21.2386 64.1335 20.4545C64.1335 19.803 64.3097 19.2348 64.6619 18.75C65.018 18.2614 65.4953 17.8826 66.0938 17.6136C66.696 17.3409 67.3684 17.2045 68.1108 17.2045C68.8608 17.2045 69.5275 17.339 70.1108 17.608C70.6941 17.8731 71.1563 18.2367 71.4972 18.6989C71.8419 19.161 72.0237 19.6856 72.0426 20.2727H70.679ZM75.6776 23.75V29H74.3366V17.3636H75.6776V21.6364H75.7912C75.9957 21.1856 76.3026 20.8277 76.7116 20.5625C77.1245 20.2936 77.6738 20.1591 78.3594 20.1591C78.9541 20.1591 79.4749 20.2784 79.9219 20.517C80.3688 20.7519 80.7154 21.1136 80.9616 21.6023C81.2116 22.0871 81.3366 22.7045 81.3366 23.4545V29H79.9957V23.5455C79.9957 22.8523 79.8158 22.3163 79.456 21.9375C79.0999 21.5549 78.6056 21.3636 77.973 21.3636C77.5336 21.3636 77.1397 21.4564 76.7912 21.642C76.4465 21.8277 76.1738 22.0985 75.973 22.4545C75.776 22.8106 75.6776 23.2424 75.6776 23.75ZM86.358 29.2045C85.8049 29.2045 85.303 29.1004 84.8523 28.892C84.4015 28.6799 84.0436 28.375 83.7784 27.9773C83.5133 27.5758 83.3807 27.0909 83.3807 26.5227C83.3807 26.0227 83.4792 25.6174 83.6761 25.3068C83.8731 24.9924 84.1364 24.7462 84.4659 24.5682C84.7955 24.3902 85.1591 24.2576 85.5568 24.1705C85.9583 24.0795 86.3617 24.0076 86.767 23.9545C87.2973 23.8864 87.7273 23.8352 88.0568 23.8011C88.3902 23.7633 88.6326 23.7008 88.7841 23.6136C88.9394 23.5265 89.017 23.375 89.017 23.1591V23.1136C89.017 22.553 88.8636 22.1174 88.5568 21.8068C88.2538 21.4962 87.7936 21.3409 87.1761 21.3409C86.536 21.3409 86.0341 21.4811 85.6705 21.7614C85.3068 22.0417 85.0511 22.3409 84.9034 22.6591L83.6307 22.2045C83.858 21.6742 84.161 21.2614 84.5398 20.9659C84.9223 20.6667 85.339 20.4583 85.7898 20.3409C86.2443 20.2197 86.6913 20.1591 87.1307 20.1591C87.411 20.1591 87.733 20.1932 88.0966 20.2614C88.464 20.3258 88.8182 20.4602 89.1591 20.6648C89.5038 20.8693 89.7898 21.178 90.017 21.5909C90.2443 22.0038 90.358 22.5568 90.358 23.25V29H89.017V27.8182H88.9489C88.858 28.0076 88.7064 28.2102 88.4943 28.4261C88.2822 28.642 88 28.8258 87.6477 28.9773C87.2955 29.1288 86.8655 29.2045 86.358 29.2045ZM86.5625 28C87.0928 28 87.5398 27.8958 87.9034 27.6875C88.2708 27.4792 88.5473 27.2102 88.733 26.8807C88.9223 26.5511 89.017 26.2045 89.017 25.8409V24.6136C88.9602 24.6818 88.8352 24.7443 88.642 24.8011C88.4527 24.8542 88.233 24.9015 87.983 24.9432C87.7367 24.9811 87.4962 25.0152 87.2614 25.0455C87.0303 25.072 86.8428 25.0947 86.6989 25.1136C86.3504 25.1591 86.0246 25.233 85.7216 25.3352C85.4223 25.4337 85.1799 25.5833 84.9943 25.7841C84.8125 25.9811 84.7216 26.25 84.7216 26.5909C84.7216 27.0568 84.8939 27.4091 85.2386 27.6477C85.5871 27.8826 86.0284 28 86.5625 28ZM92.8054 29V20.2727H94.1009V21.5909H94.1918C94.3509 21.1591 94.6387 20.8087 95.0554 20.5398C95.4721 20.2708 95.9418 20.1364 96.4645 20.1364C96.563 20.1364 96.6861 20.1383 96.8338 20.142C96.9815 20.1458 97.0933 20.1515 97.169 20.1591V21.5227C97.1236 21.5114 97.0194 21.4943 96.8565 21.4716C96.6974 21.4451 96.5289 21.4318 96.3509 21.4318C95.9266 21.4318 95.5478 21.5208 95.2145 21.6989C94.8849 21.8731 94.6236 22.1155 94.4304 22.4261C94.241 22.733 94.1463 23.0833 94.1463 23.4773V29H92.8054ZM102.152 29.1818C101.311 29.1818 100.586 28.9962 99.9759 28.625C99.3698 28.25 98.902 27.7273 98.5724 27.0568C98.2467 26.3826 98.0838 25.5985 98.0838 24.7045C98.0838 23.8106 98.2467 23.0227 98.5724 22.3409C98.902 21.6553 99.3603 21.1212 99.9474 20.7386C100.538 20.3523 101.228 20.1591 102.016 20.1591C102.47 20.1591 102.919 20.2348 103.362 20.3864C103.805 20.5379 104.209 20.7841 104.572 21.125C104.936 21.4621 105.226 21.9091 105.442 22.4659C105.658 23.0227 105.766 23.7083 105.766 24.5227V25.0909H99.0384V23.9318H104.402C104.402 23.4394 104.304 23 104.107 22.6136C103.913 22.2273 103.637 21.9223 103.277 21.6989C102.921 21.4754 102.5 21.3636 102.016 21.3636C101.482 21.3636 101.019 21.4962 100.629 21.7614C100.243 22.0227 99.9455 22.3636 99.7372 22.7841C99.5289 23.2045 99.4247 23.6553 99.4247 24.1364V24.9091C99.4247 25.5682 99.5384 26.1269 99.7656 26.5852C99.9967 27.0398 100.317 27.3864 100.726 27.625C101.135 27.8598 101.61 27.9773 102.152 27.9773C102.504 27.9773 102.822 27.928 103.107 27.8295C103.394 27.7273 103.643 27.5758 103.851 27.375C104.059 27.1705 104.22 26.9167 104.334 26.6136L105.629 26.9773C105.493 27.4167 105.264 27.803 104.942 28.1364C104.62 28.4659 104.222 28.7235 103.749 28.9091C103.275 29.0909 102.743 29.1818 102.152 29.1818Z" fill="#2ECC71"/>
<path d="M146.585 86.9091H148.477L152.926 97.7756H153.08L157.528 86.9091H159.42V100H157.938V90.054H157.81L153.719 100H152.287L148.196 90.054H148.068V100H146.585V86.9091ZM166.511 100.205C165.565 100.205 164.749 99.9957 164.063 99.5781C163.381 99.1562 162.855 98.5682 162.484 97.8139C162.117 97.0554 161.934 96.1733 161.934 95.1676C161.934 94.1619 162.117 93.2756 162.484 92.5085C162.855 91.7372 163.37 91.1364 164.031 90.706C164.695 90.2713 165.471 90.054 166.357 90.054C166.869 90.054 167.374 90.1392 167.872 90.3097C168.371 90.4801 168.825 90.7571 169.234 91.1406C169.643 91.5199 169.969 92.0227 170.212 92.6491C170.455 93.2756 170.576 94.0469 170.576 94.9631V95.6023H163.008V94.2983H169.042C169.042 93.7443 168.931 93.25 168.71 92.8153C168.492 92.3807 168.181 92.0376 167.776 91.7862C167.376 91.5348 166.903 91.4091 166.357 91.4091C165.757 91.4091 165.237 91.5582 164.798 91.8565C164.363 92.1506 164.029 92.5341 163.794 93.0071C163.56 93.4801 163.443 93.9872 163.443 94.5284V95.3977C163.443 96.1392 163.57 96.7678 163.826 97.2834C164.086 97.7947 164.446 98.1847 164.906 98.4531C165.367 98.7173 165.901 98.8494 166.511 98.8494C166.907 98.8494 167.265 98.794 167.585 98.6832C167.909 98.5682 168.188 98.3977 168.422 98.1719C168.656 97.9418 168.838 97.6562 168.965 97.3153L170.423 97.7244C170.269 98.2188 170.012 98.6534 169.649 99.0284C169.287 99.3991 168.84 99.6889 168.307 99.8977C167.774 100.102 167.176 100.205 166.511 100.205ZM179.058 95.9858V90.1818H180.567V100H179.058V98.3381H178.956C178.726 98.8366 178.368 99.2607 177.882 99.6101C177.396 99.9553 176.783 100.128 176.041 100.128C175.428 100.128 174.882 99.9936 174.405 99.7251C173.928 99.4524 173.553 99.0433 173.28 98.4979C173.007 97.9482 172.871 97.2557 172.871 96.4205V90.1818H174.379V96.3182C174.379 97.0341 174.58 97.6051 174.98 98.0312C175.385 98.4574 175.901 98.6705 176.527 98.6705C176.902 98.6705 177.284 98.5746 177.671 98.3828C178.063 98.1911 178.392 97.897 178.656 97.5007C178.924 97.1044 179.058 96.5994 179.058 95.9858ZM190.284 92.3807L188.929 92.7642C188.844 92.5384 188.718 92.3189 188.552 92.1058C188.39 91.8885 188.169 91.7095 187.887 91.5689C187.606 91.4283 187.246 91.358 186.807 91.358C186.206 91.358 185.706 91.4964 185.305 91.7734C184.909 92.0462 184.711 92.3935 184.711 92.8153C184.711 93.1903 184.847 93.4865 185.12 93.7038C185.392 93.9212 185.819 94.1023 186.398 94.2472L187.855 94.6051C188.733 94.8182 189.387 95.1442 189.818 95.5831C190.248 96.0178 190.463 96.5781 190.463 97.2642C190.463 97.8267 190.301 98.3295 189.978 98.7727C189.658 99.2159 189.211 99.5653 188.635 99.821C188.06 100.077 187.391 100.205 186.628 100.205C185.627 100.205 184.798 99.9872 184.142 99.5526C183.485 99.1179 183.07 98.483 182.895 97.6477L184.327 97.2898C184.463 97.8182 184.721 98.2145 185.1 98.4787C185.484 98.7429 185.985 98.875 186.603 98.875C187.306 98.875 187.864 98.7259 188.277 98.4276C188.695 98.125 188.904 97.7628 188.904 97.3409C188.904 97 188.784 96.7145 188.546 96.4844C188.307 96.25 187.941 96.0753 187.446 95.9602L185.81 95.5767C184.911 95.3636 184.25 95.0334 183.828 94.5859C183.411 94.1342 183.202 93.5696 183.202 92.892C183.202 92.3381 183.358 91.848 183.669 91.4219C183.984 90.9957 184.412 90.6612 184.953 90.4183C185.499 90.1754 186.117 90.054 186.807 90.054C187.779 90.054 188.542 90.267 189.096 90.6932C189.654 91.1193 190.05 91.6818 190.284 92.3807ZM198.538 86.9091L202.425 97.929H202.578L206.464 86.9091H208.126L203.319 100H201.683L196.876 86.9091H198.538ZM209.961 100V90.1818H211.469V100H209.961ZM210.037 88.8523L211.597 85.8864H213.361L211.367 88.8523H210.037ZM217.94 100.205C217.121 100.205 216.399 99.9979 215.773 99.5845C215.146 99.1669 214.656 98.5788 214.303 97.8203C213.949 97.0575 213.772 96.1562 213.772 95.1165C213.772 94.0852 213.949 93.1903 214.303 92.4318C214.656 91.6733 215.148 91.0874 215.779 90.674C216.41 90.2607 217.138 90.054 217.965 90.054C218.604 90.054 219.109 90.1605 219.48 90.3736C219.855 90.5824 220.141 90.821 220.337 91.0895C220.537 91.3537 220.692 91.571 220.803 91.7415H220.931V86.9091H222.44V100H220.982V98.4915H220.803C220.692 98.6705 220.535 98.8963 220.33 99.169C220.126 99.4375 219.834 99.6783 219.455 99.8913C219.075 100.1 218.57 100.205 217.94 100.205ZM218.144 98.8494C218.749 98.8494 219.261 98.6918 219.678 98.3764C220.096 98.0568 220.413 97.6158 220.631 97.0533C220.848 96.4865 220.957 95.8324 220.957 95.0909C220.957 94.358 220.85 93.7166 220.637 93.1669C220.424 92.6129 220.109 92.1825 219.691 91.8757C219.273 91.5646 218.758 91.4091 218.144 91.4091C217.505 91.4091 216.972 91.5732 216.546 91.9013C216.124 92.2251 215.807 92.6662 215.594 93.2244C215.385 93.7784 215.281 94.4006 215.281 95.0909C215.281 95.7898 215.387 96.4247 215.6 96.9957C215.817 97.5625 216.137 98.0142 216.559 98.3509C216.985 98.6832 217.513 98.8494 218.144 98.8494ZM229.528 100.205C228.582 100.205 227.766 99.9957 227.08 99.5781C226.398 99.1562 225.872 98.5682 225.501 97.8139C225.135 97.0554 224.952 96.1733 224.952 95.1676C224.952 94.1619 225.135 93.2756 225.501 92.5085C225.872 91.7372 226.388 91.1364 227.048 90.706C227.713 90.2713 228.489 90.054 229.375 90.054C229.886 90.054 230.391 90.1392 230.89 90.3097C231.388 90.4801 231.842 90.7571 232.251 91.1406C232.661 91.5199 232.987 92.0227 233.229 92.6491C233.472 93.2756 233.594 94.0469 233.594 94.9631V95.6023H226.026V94.2983H232.06C232.06 93.7443 231.949 93.25 231.727 92.8153C231.51 92.3807 231.199 92.0376 230.794 91.7862C230.393 91.5348 229.92 91.4091 229.375 91.4091C228.774 91.4091 228.254 91.5582 227.815 91.8565C227.381 92.1506 227.046 92.5341 226.812 93.0071C226.577 93.4801 226.46 93.9872 226.46 94.5284V95.3977C226.46 96.1392 226.588 96.7678 226.844 97.2834C227.104 97.7947 227.464 98.1847 227.924 98.4531C228.384 98.7173 228.919 98.8494 229.528 98.8494C229.925 98.8494 230.283 98.794 230.602 98.6832C230.926 98.5682 231.205 98.3977 231.44 98.1719C231.674 97.9418 231.855 97.6562 231.983 97.3153L233.44 97.7244C233.287 98.2188 233.029 98.6534 232.667 99.0284C232.305 99.3991 231.857 99.6889 231.325 99.8977C230.792 100.102 230.193 100.205 229.528 100.205ZM239.877 100.205C238.991 100.205 238.213 99.9936 237.544 99.5717C236.879 99.1499 236.359 98.5597 235.984 97.8011C235.614 97.0426 235.428 96.1562 235.428 95.142C235.428 94.1193 235.614 93.2266 235.984 92.4638C236.359 91.701 236.879 91.1087 237.544 90.6868C238.213 90.2649 238.991 90.054 239.877 90.054C240.763 90.054 241.539 90.2649 242.204 90.6868C242.873 91.1087 243.393 91.701 243.763 92.4638C244.138 93.2266 244.326 94.1193 244.326 95.142C244.326 96.1562 244.138 97.0426 243.763 97.8011C243.393 98.5597 242.873 99.1499 242.204 99.5717C241.539 99.9936 240.763 100.205 239.877 100.205ZM239.877 98.8494C240.55 98.8494 241.104 98.6768 241.539 98.3317C241.974 97.9865 242.295 97.5327 242.504 96.9702C242.713 96.4077 242.817 95.7983 242.817 95.142C242.817 94.4858 242.713 93.8743 242.504 93.3075C242.295 92.7408 241.974 92.2827 241.539 91.9332C241.104 91.5838 240.55 91.4091 239.877 91.4091C239.204 91.4091 238.65 91.5838 238.215 91.9332C237.781 92.2827 237.459 92.7408 237.25 93.3075C237.041 93.8743 236.937 94.4858 236.937 95.142C236.937 95.7983 237.041 96.4077 237.25 96.9702C237.459 97.5327 237.781 97.9865 238.215 98.3317C238.65 98.6768 239.204 98.8494 239.877 98.8494ZM253.583 92.3807L252.228 92.7642C252.143 92.5384 252.017 92.3189 251.851 92.1058C251.689 91.8885 251.468 91.7095 251.186 91.5689C250.905 91.4283 250.545 91.358 250.106 91.358C249.505 91.358 249.004 91.4964 248.604 91.7734C248.208 92.0462 248.009 92.3935 248.009 92.8153C248.009 93.1903 248.146 93.4865 248.419 93.7038C248.691 93.9212 249.117 94.1023 249.697 94.2472L251.154 94.6051C252.032 94.8182 252.686 95.1442 253.117 95.5831C253.547 96.0178 253.762 96.5781 253.762 97.2642C253.762 97.8267 253.6 98.3295 253.276 98.7727C252.957 99.2159 252.509 99.5653 251.934 99.821C251.359 100.077 250.69 100.205 249.927 100.205C248.926 100.205 248.097 99.9872 247.441 99.5526C246.784 99.1179 246.369 98.483 246.194 97.6477L247.626 97.2898C247.762 97.8182 248.02 98.2145 248.399 98.4787C248.783 98.7429 249.284 98.875 249.901 98.875C250.605 98.875 251.163 98.7259 251.576 98.4276C251.994 98.125 252.203 97.7628 252.203 97.3409C252.203 97 252.083 96.7145 251.845 96.4844C251.606 96.25 251.24 96.0753 250.745 95.9602L249.109 95.5767C248.21 95.3636 247.549 95.0334 247.127 94.5859C246.71 94.1342 246.501 93.5696 246.501 92.892C246.501 92.3381 246.656 91.848 246.968 91.4219C247.283 90.9957 247.711 90.6612 248.252 90.4183C248.798 90.1754 249.416 90.054 250.106 90.054C251.078 90.054 251.84 90.267 252.394 90.6932C252.953 91.1193 253.349 91.6818 253.583 92.3807Z" fill="white"/>
<path d="M344 148H56C52.6863 148 50 150.686 50 154V202C50 205.314 52.6863 208 56 208H344C347.314 208 350 205.314 350 202V154C350 150.686 347.314 148 344 148Z" fill="#1E1A21"/>
<path d="M80 193C88.2843 193 95 186.284 95 178C95 169.716 88.2843 163 80 163C71.7157 163 65 169.716 65 178C65 186.284 71.7157 193 80 193Z" fill="#2ECC71"/>
<path d="M111.415 174.273L114.006 181.619H114.108L116.699 174.273H117.807L114.602 183H113.511L110.307 174.273H111.415ZM119.03 183V176.455H120.036V183H119.03ZM119.081 175.568L120.121 173.591H121.297L119.967 175.568H119.081ZM124.349 183.136C123.804 183.136 123.322 182.999 122.904 182.723C122.487 182.445 122.16 182.053 121.924 181.547C121.689 181.038 121.571 180.438 121.571 179.744C121.571 179.057 121.689 178.46 121.924 177.955C122.16 177.449 122.488 177.058 122.909 176.783C123.329 176.507 123.815 176.369 124.366 176.369C124.792 176.369 125.129 176.44 125.376 176.582C125.626 176.722 125.816 176.881 125.947 177.06C126.081 177.236 126.184 177.381 126.258 177.494H126.343V174.273H127.349V183H126.377V181.994H126.258C126.184 182.114 126.079 182.264 125.943 182.446C125.806 182.625 125.612 182.786 125.359 182.928C125.106 183.067 124.77 183.136 124.349 183.136ZM124.485 182.233C124.889 182.233 125.23 182.128 125.508 181.918C125.787 181.705 125.998 181.411 126.143 181.036C126.288 180.658 126.36 180.222 126.36 179.727C126.36 179.239 126.289 178.811 126.147 178.445C126.005 178.075 125.795 177.788 125.517 177.584C125.238 177.376 124.895 177.273 124.485 177.273C124.059 177.273 123.704 177.382 123.42 177.601C123.139 177.817 122.927 178.111 122.785 178.483C122.646 178.852 122.576 179.267 122.576 179.727C122.576 180.193 122.647 180.616 122.789 180.997C122.934 181.375 123.147 181.676 123.429 181.901C123.713 182.122 124.065 182.233 124.485 182.233ZM132.075 183.136C131.444 183.136 130.9 182.997 130.443 182.719C129.988 182.438 129.637 182.045 129.39 181.543C129.146 181.037 129.024 180.449 129.024 179.778C129.024 179.108 129.146 178.517 129.39 178.006C129.637 177.491 129.981 177.091 130.422 176.804C130.865 176.514 131.382 176.369 131.973 176.369C132.314 176.369 132.65 176.426 132.983 176.54C133.315 176.653 133.618 176.838 133.89 177.094C134.163 177.347 134.38 177.682 134.542 178.099C134.704 178.517 134.785 179.031 134.785 179.642V180.068H129.74V179.199H133.762C133.762 178.83 133.689 178.5 133.541 178.21C133.396 177.92 133.189 177.692 132.919 177.524C132.652 177.357 132.336 177.273 131.973 177.273C131.572 177.273 131.225 177.372 130.933 177.571C130.643 177.767 130.42 178.023 130.264 178.338C130.108 178.653 130.029 178.991 130.029 179.352V179.932C130.029 180.426 130.115 180.845 130.285 181.189C130.458 181.53 130.699 181.79 131.005 181.969C131.312 182.145 131.669 182.233 132.075 182.233C132.339 182.233 132.578 182.196 132.791 182.122C133.007 182.045 133.193 181.932 133.349 181.781C133.505 181.628 133.626 181.437 133.711 181.21L134.683 181.483C134.581 181.812 134.409 182.102 134.167 182.352C133.926 182.599 133.627 182.793 133.272 182.932C132.917 183.068 132.518 183.136 132.075 183.136ZM138.974 183.136C138.383 183.136 137.865 182.996 137.419 182.714C136.975 182.433 136.629 182.04 136.379 181.534C136.132 181.028 136.008 180.437 136.008 179.761C136.008 179.08 136.132 178.484 136.379 177.976C136.629 177.467 136.975 177.072 137.419 176.791C137.865 176.51 138.383 176.369 138.974 176.369C139.565 176.369 140.082 176.51 140.525 176.791C140.971 177.072 141.318 177.467 141.565 177.976C141.815 178.484 141.94 179.08 141.94 179.761C141.94 180.437 141.815 181.028 141.565 181.534C141.318 182.04 140.971 182.433 140.525 182.714C140.082 182.996 139.565 183.136 138.974 183.136ZM138.974 182.233C139.423 182.233 139.792 182.118 140.082 181.888C140.372 181.658 140.586 181.355 140.725 180.98C140.865 180.605 140.934 180.199 140.934 179.761C140.934 179.324 140.865 178.916 140.725 178.538C140.586 178.161 140.372 177.855 140.082 177.622C139.792 177.389 139.423 177.273 138.974 177.273C138.525 177.273 138.156 177.389 137.866 177.622C137.576 177.855 137.362 178.161 137.223 178.538C137.083 178.916 137.014 179.324 137.014 179.761C137.014 180.199 137.083 180.605 137.223 180.98C137.362 181.355 137.576 181.658 137.866 181.888C138.156 182.118 138.525 182.233 138.974 182.233ZM149.901 174.273V183H148.844V175.381H148.793L146.663 176.795V175.722L148.844 174.273H149.901Z" fill="white"/>
<path d="M344 228H56C52.6863 228 50 230.686 50 234V282C50 285.314 52.6863 288 56 288H344C347.314 288 350 285.314 350 282V234C350 230.686 347.314 228 344 228Z" fill="#1E1A21"/>
<path d="M80 273C88.2843 273 95 266.284 95 258C95 249.716 88.2843 243 80 243C71.7157 243 65 249.716 65 258C65 266.284 71.7157 273 80 273Z" fill="#2ECC71"/>
<path d="M111.415 254.273L114.006 261.619H114.108L116.699 254.273H117.807L114.602 263H113.511L110.307 254.273H111.415ZM119.03 263V256.455H120.036V263H119.03ZM119.081 255.568L120.121 253.591H121.297L119.967 255.568H119.081ZM124.349 263.136C123.804 263.136 123.322 262.999 122.904 262.723C122.487 262.445 122.16 262.053 121.924 261.547C121.689 261.038 121.571 260.438 121.571 259.744C121.571 259.057 121.689 258.46 121.924 257.955C122.16 257.449 122.488 257.058 122.909 256.783C123.329 256.507 123.815 256.369 124.366 256.369C124.792 256.369 125.129 256.44 125.376 256.582C125.626 256.722 125.816 256.881 125.947 257.06C126.081 257.236 126.184 257.381 126.258 257.494H126.343V254.273H127.349V263H126.377V261.994H126.258C126.184 262.114 126.079 262.264 125.943 262.446C125.806 262.625 125.612 262.786 125.359 262.928C125.106 263.067 124.77 263.136 124.349 263.136ZM124.485 262.233C124.889 262.233 125.23 262.128 125.508 261.918C125.787 261.705 125.998 261.411 126.143 261.036C126.288 260.658 126.36 260.222 126.36 259.727C126.36 259.239 126.289 258.811 126.147 258.445C126.005 258.075 125.795 257.788 125.517 257.584C125.238 257.376 124.895 257.273 124.485 257.273C124.059 257.273 123.704 257.382 123.42 257.601C123.139 257.817 122.927 258.111 122.785 258.483C122.646 258.852 122.576 259.267 122.576 259.727C122.576 260.193 122.647 260.616 122.789 260.997C122.934 261.375 123.147 261.676 123.429 261.901C123.713 262.122 124.065 262.233 124.485 262.233ZM132.075 263.136C131.444 263.136 130.9 262.997 130.443 262.719C129.988 262.438 129.637 262.045 129.39 261.543C129.146 261.037 129.024 260.449 129.024 259.778C129.024 259.108 129.146 258.517 129.39 258.006C129.637 257.491 129.981 257.091 130.422 256.804C130.865 256.514 131.382 256.369 131.973 256.369C132.314 256.369 132.65 256.426 132.983 256.54C133.315 256.653 133.618 256.838 133.89 257.094C134.163 257.347 134.38 257.682 134.542 258.099C134.704 258.517 134.785 259.031 134.785 259.642V260.068H129.74V259.199H133.762C133.762 258.83 133.689 258.5 133.541 258.21C133.396 257.92 133.189 257.692 132.919 257.524C132.652 257.357 132.336 257.273 131.973 257.273C131.572 257.273 131.225 257.372 130.933 257.571C130.643 257.767 130.42 258.023 130.264 258.338C130.108 258.653 130.029 258.991 130.029 259.352V259.932C130.029 260.426 130.115 260.845 130.285 261.189C130.458 261.53 130.699 261.79 131.005 261.969C131.312 262.145 131.669 262.233 132.075 262.233C132.339 262.233 132.578 262.196 132.791 262.122C133.007 262.045 133.193 261.932 133.349 261.781C133.505 261.628 133.626 261.437 133.711 261.21L134.683 261.483C134.581 261.812 134.409 262.102 134.167 262.352C133.926 262.599 133.627 262.793 133.272 262.932C132.917 263.068 132.518 263.136 132.075 263.136ZM138.974 263.136C138.383 263.136 137.865 262.996 137.419 262.714C136.975 262.433 136.629 262.04 136.379 261.534C136.132 261.028 136.008 260.437 136.008 259.761C136.008 259.08 136.132 258.484 136.379 257.976C136.629 257.467 136.975 257.072 137.419 256.791C137.865 256.51 138.383 256.369 138.974 256.369C139.565 256.369 140.082 256.51 140.525 256.791C140.971 257.072 141.318 257.467 141.565 257.976C141.815 258.484 141.94 259.08 141.94 259.761C141.94 260.437 141.815 261.028 141.565 261.534C141.318 262.04 140.971 262.433 140.525 262.714C140.082 262.996 139.565 263.136 138.974 263.136ZM138.974 262.233C139.423 262.233 139.792 262.118 140.082 261.888C140.372 261.658 140.586 261.355 140.725 260.98C140.865 260.605 140.934 260.199 140.934 259.761C140.934 259.324 140.865 258.916 140.725 258.538C140.586 258.161 140.372 257.855 140.082 257.622C139.792 257.389 139.423 257.273 138.974 257.273C138.525 257.273 138.156 257.389 137.866 257.622C137.576 257.855 137.362 258.161 137.223 258.538C137.083 258.916 137.014 259.324 137.014 259.761C137.014 260.199 137.083 260.605 137.223 260.98C137.362 261.355 137.576 261.658 137.866 261.888C138.156 262.118 138.525 262.233 138.974 262.233ZM146.833 263V262.233L149.714 259.08C150.052 258.71 150.33 258.389 150.549 258.116C150.768 257.841 150.93 257.582 151.035 257.341C151.143 257.097 151.197 256.841 151.197 256.574C151.197 256.267 151.123 256.001 150.975 255.777C150.83 255.553 150.631 255.379 150.379 255.257C150.126 255.135 149.842 255.074 149.526 255.074C149.191 255.074 148.898 255.143 148.648 255.283C148.401 255.419 148.21 255.611 148.073 255.858C147.94 256.105 147.873 256.395 147.873 256.727H146.867C146.867 256.216 146.985 255.767 147.221 255.381C147.457 254.994 147.778 254.693 148.184 254.477C148.593 254.261 149.052 254.153 149.56 254.153C150.072 254.153 150.525 254.261 150.92 254.477C151.315 254.693 151.624 254.984 151.849 255.351C152.073 255.717 152.185 256.125 152.185 256.574C152.185 256.895 152.127 257.209 152.011 257.516C151.897 257.82 151.698 258.159 151.414 258.534C151.133 258.906 150.742 259.361 150.242 259.898L148.282 261.994V262.062H152.339V263H146.833Z" fill="white"/>
<path d="M344 308H56C52.6863 308 50 310.686 50 314V362C50 365.314 52.6863 368 56 368H344C347.314 368 350 365.314 350 362V314C350 310.686 347.314 308 344 308Z" fill="#1E1A21"/>
<path d="M80 353C88.2843 353 95 346.284 95 338C95 329.716 88.2843 323 80 323C71.7157 323 65 329.716 65 338C65 346.284 71.7157 353 80 353Z" fill="#2ECC71"/>
<path d="M111.415 334.273L114.006 341.619H114.108L116.699 334.273H117.807L114.602 343H113.511L110.307 334.273H111.415ZM119.03 343V336.455H120.036V343H119.03ZM119.081 335.568L120.121 333.591H121.297L119.967 335.568H119.081ZM124.349 343.136C123.804 343.136 123.322 342.999 122.904 342.723C122.487 342.445 122.16 342.053 121.924 341.547C121.689 341.038 121.571 340.438 121.571 339.744C121.571 339.057 121.689 338.46 121.924 337.955C122.16 337.449 122.488 337.058 122.909 336.783C123.329 336.507 123.815 336.369 124.366 336.369C124.792 336.369 125.129 336.44 125.376 336.582C125.626 336.722 125.816 336.881 125.947 337.06C126.081 337.236 126.184 337.381 126.258 337.494H126.343V334.273H127.349V343H126.377V341.994H126.258C126.184 342.114 126.079 342.264 125.943 342.446C125.806 342.625 125.612 342.786 125.359 342.928C125.106 343.067 124.77 343.136 124.349 343.136ZM124.485 342.233C124.889 342.233 125.23 342.128 125.508 341.918C125.787 341.705 125.998 341.411 126.143 341.036C126.288 340.658 126.36 340.222 126.36 339.727C126.36 339.239 126.289 338.811 126.147 338.445C126.005 338.075 125.795 337.788 125.517 337.584C125.238 337.376 124.895 337.273 124.485 337.273C124.059 337.273 123.704 337.382 123.42 337.601C123.139 337.817 122.927 338.111 122.785 338.483C122.646 338.852 122.576 339.267 122.576 339.727C122.576 340.193 122.647 340.616 122.789 340.997C122.934 341.375 123.147 341.676 123.429 341.901C123.713 342.122 124.065 342.233 124.485 342.233ZM132.075 343.136C131.444 343.136 130.9 342.997 130.443 342.719C129.988 342.438 129.637 342.045 129.39 341.543C129.146 341.037 129.024 340.449 129.024 339.778C129.024 339.108 129.146 338.517 129.39 338.006C129.637 337.491 129.981 337.091 130.422 336.804C130.865 336.514 131.382 336.369 131.973 336.369C132.314 336.369 132.65 336.426 132.983 336.54C133.315 336.653 133.618 336.838 133.89 337.094C134.163 337.347 134.38 337.682 134.542 338.099C134.704 338.517 134.785 339.031 134.785 339.642V340.068H129.74V339.199H133.762C133.762 338.83 133.689 338.5 133.541 338.21C133.396 337.92 133.189 337.692 132.919 337.524C132.652 337.357 132.336 337.273 131.973 337.273C131.572 337.273 131.225 337.372 130.933 337.571C130.643 337.767 130.42 338.023 130.264 338.338C130.108 338.653 130.029 338.991 130.029 339.352V339.932C130.029 340.426 130.115 340.845 130.285 341.189C130.458 341.53 130.699 341.79 131.005 341.969C131.312 342.145 131.669 342.233 132.075 342.233C132.339 342.233 132.578 342.196 132.791 342.122C133.007 342.045 133.193 341.932 133.349 341.781C133.505 341.628 133.626 341.437 133.711 341.21L134.683 341.483C134.581 341.812 134.409 342.102 134.167 342.352C133.926 342.599 133.627 342.793 133.272 342.932C132.917 343.068 132.518 343.136 132.075 343.136ZM138.974 343.136C138.383 343.136 137.865 342.996 137.419 342.714C136.975 342.433 136.629 342.04 136.379 341.534C136.132 341.028 136.008 340.437 136.008 339.761C136.008 339.08 136.132 338.484 136.379 337.976C136.629 337.467 136.975 337.072 137.419 336.791C137.865 336.51 138.383 336.369 138.974 336.369C139.565 336.369 140.082 336.51 140.525 336.791C140.971 337.072 141.318 337.467 141.565 337.976C141.815 338.484 141.94 339.08 141.94 339.761C141.94 340.437 141.815 341.028 141.565 341.534C141.318 342.04 140.971 342.433 140.525 342.714C140.082 342.996 139.565 343.136 138.974 343.136ZM138.974 342.233C139.423 342.233 139.792 342.118 140.082 341.888C140.372 341.658 140.586 341.355 140.725 340.98C140.865 340.605 140.934 340.199 140.934 339.761C140.934 339.324 140.865 338.916 140.725 338.538C140.586 338.161 140.372 337.855 140.082 337.622C139.792 337.389 139.423 337.273 138.974 337.273C138.525 337.273 138.156 337.389 137.866 337.622C137.576 337.855 137.362 338.161 137.223 338.538C137.083 338.916 137.014 339.324 137.014 339.761C137.014 340.199 137.083 340.605 137.223 340.98C137.362 341.355 137.576 341.658 137.866 341.888C138.156 342.118 138.525 342.233 138.974 342.233ZM149.782 343.119C149.219 343.119 148.718 343.023 148.278 342.83C147.84 342.636 147.492 342.368 147.234 342.024C146.978 341.678 146.839 341.276 146.816 340.818H147.89C147.913 341.099 148.009 341.342 148.18 341.547C148.35 341.749 148.573 341.905 148.849 342.016C149.124 342.126 149.43 342.182 149.765 342.182C150.14 342.182 150.472 342.116 150.762 341.986C151.052 341.855 151.279 341.673 151.444 341.44C151.609 341.207 151.691 340.938 151.691 340.631C151.691 340.31 151.612 340.027 151.452 339.783C151.293 339.536 151.06 339.342 150.754 339.203C150.447 339.064 150.072 338.994 149.629 338.994H148.93V338.057H149.629C149.975 338.057 150.279 337.994 150.54 337.869C150.805 337.744 151.011 337.568 151.158 337.341C151.309 337.114 151.384 336.847 151.384 336.54C151.384 336.244 151.319 335.987 151.188 335.768C151.058 335.55 150.873 335.379 150.634 335.257C150.398 335.135 150.12 335.074 149.799 335.074C149.498 335.074 149.214 335.129 148.947 335.24C148.683 335.348 148.467 335.506 148.299 335.713C148.131 335.918 148.04 336.165 148.026 336.455H147.004C147.021 335.997 147.158 335.597 147.417 335.253C147.675 334.906 148.013 334.636 148.431 334.443C148.852 334.25 149.313 334.153 149.816 334.153C150.356 334.153 150.819 334.263 151.205 334.482C151.592 334.697 151.888 334.983 152.096 335.338C152.303 335.693 152.407 336.077 152.407 336.489C152.407 336.98 152.278 337.399 152.019 337.746C151.763 338.092 151.415 338.332 150.975 338.466V338.534C151.526 338.625 151.957 338.859 152.266 339.237C152.576 339.612 152.731 340.077 152.731 340.631C152.731 341.105 152.602 341.531 152.343 341.909C152.087 342.284 151.738 342.58 151.295 342.795C150.852 343.011 150.347 343.119 149.782 343.119Z" fill="white"/>
<path d="M400 650H0V700H400V650Z" fill="#1E1A21"/>
<path d="M50 658C50 653.582 53.5817 650 58 650H159C163.418 650 167 653.582 167 658V692C167 696.418 163.418 700 159 700H58C53.5817 700 50 696.418 50 692V658Z" fill="#2D2828"/>
<path d="M241.5 658C241.5 653.582 245.082 650 249.5 650H350.5C354.918 650 358.5 653.582 358.5 658V692C358.5 696.418 354.918 700 350.5 700H249.5C245.082 700 241.5 696.418 241.5 692V658Z" fill="#2D2828"/>
<path d="M254.409 681V669.364H261.432V670.614H255.818V674.545H261.068V675.795H255.818V679.75H261.523V681H254.409ZM265.131 675.75V681H263.79V672.273H265.085V673.636H265.199C265.403 673.193 265.714 672.837 266.131 672.568C266.547 672.295 267.085 672.159 267.744 672.159C268.335 672.159 268.852 672.28 269.295 672.523C269.739 672.761 270.083 673.125 270.33 673.614C270.576 674.098 270.699 674.712 270.699 675.455V681H269.358V675.545C269.358 674.86 269.18 674.326 268.824 673.943C268.468 673.557 267.979 673.364 267.358 673.364C266.93 673.364 266.547 673.456 266.21 673.642C265.877 673.828 265.614 674.098 265.42 674.455C265.227 674.811 265.131 675.242 265.131 675.75ZM279.973 672.273L276.746 681H275.382L272.155 672.273H273.609L276.018 679.227H276.109L278.518 672.273H279.973ZM281.743 681V672.273H283.084V681H281.743ZM282.425 670.818C282.163 670.818 281.938 670.729 281.749 670.551C281.563 670.373 281.47 670.159 281.47 669.909C281.47 669.659 281.563 669.445 281.749 669.267C281.938 669.089 282.163 669 282.425 669C282.686 669 282.91 669.089 283.095 669.267C283.285 669.445 283.379 669.659 283.379 669.909C283.379 670.159 283.285 670.373 283.095 670.551C282.91 670.729 282.686 670.818 282.425 670.818ZM288.108 681.205C287.555 681.205 287.053 681.1 286.602 680.892C286.152 680.68 285.794 680.375 285.528 679.977C285.263 679.576 285.131 679.091 285.131 678.523C285.131 678.023 285.229 677.617 285.426 677.307C285.623 676.992 285.886 676.746 286.216 676.568C286.545 676.39 286.909 676.258 287.307 676.17C287.708 676.08 288.112 676.008 288.517 675.955C289.047 675.886 289.477 675.835 289.807 675.801C290.14 675.763 290.383 675.701 290.534 675.614C290.689 675.527 290.767 675.375 290.767 675.159V675.114C290.767 674.553 290.614 674.117 290.307 673.807C290.004 673.496 289.544 673.341 288.926 673.341C288.286 673.341 287.784 673.481 287.42 673.761C287.057 674.042 286.801 674.341 286.653 674.659L285.381 674.205C285.608 673.674 285.911 673.261 286.29 672.966C286.672 672.667 287.089 672.458 287.54 672.341C287.994 672.22 288.441 672.159 288.881 672.159C289.161 672.159 289.483 672.193 289.847 672.261C290.214 672.326 290.568 672.46 290.909 672.665C291.254 672.869 291.54 673.178 291.767 673.591C291.994 674.004 292.108 674.557 292.108 675.25V681H290.767V679.818H290.699C290.608 680.008 290.456 680.21 290.244 680.426C290.032 680.642 289.75 680.826 289.398 680.977C289.045 681.129 288.616 681.205 288.108 681.205ZM288.312 680C288.843 680 289.29 679.896 289.653 679.688C290.021 679.479 290.297 679.21 290.483 678.881C290.672 678.551 290.767 678.205 290.767 677.841V676.614C290.71 676.682 290.585 676.744 290.392 676.801C290.203 676.854 289.983 676.902 289.733 676.943C289.487 676.981 289.246 677.015 289.011 677.045C288.78 677.072 288.593 677.095 288.449 677.114C288.1 677.159 287.775 677.233 287.472 677.335C287.172 677.434 286.93 677.583 286.744 677.784C286.563 677.981 286.472 678.25 286.472 678.591C286.472 679.057 286.644 679.409 286.989 679.648C287.337 679.883 287.778 680 288.312 680ZM294.555 681V672.273H295.851V673.591H295.942C296.101 673.159 296.389 672.809 296.805 672.54C297.222 672.271 297.692 672.136 298.214 672.136C298.313 672.136 298.436 672.138 298.584 672.142C298.732 672.146 298.843 672.152 298.919 672.159V673.523C298.874 673.511 298.769 673.494 298.607 673.472C298.447 673.445 298.279 673.432 298.101 673.432C297.677 673.432 297.298 673.521 296.964 673.699C296.635 673.873 296.374 674.116 296.18 674.426C295.991 674.733 295.896 675.083 295.896 675.477V681H294.555ZM305.668 669.364L309.122 679.159H309.259L312.713 669.364H314.19L309.918 681H308.463L304.19 669.364H305.668ZM315.821 681V672.273H317.162V681H315.821ZM315.889 671.091L317.276 668.455H318.844L317.071 671.091H315.889ZM322.913 681.182C322.186 681.182 321.544 680.998 320.987 680.631C320.43 680.259 319.995 679.737 319.68 679.062C319.366 678.384 319.209 677.583 319.209 676.659C319.209 675.742 319.366 674.947 319.68 674.273C319.995 673.598 320.432 673.078 320.993 672.71C321.554 672.343 322.201 672.159 322.936 672.159C323.504 672.159 323.953 672.254 324.283 672.443C324.616 672.629 324.87 672.841 325.044 673.08C325.222 673.314 325.36 673.508 325.459 673.659H325.572V669.364H326.913V681H325.618V679.659H325.459C325.36 679.818 325.22 680.019 325.038 680.261C324.857 680.5 324.597 680.714 324.26 680.903C323.923 681.089 323.474 681.182 322.913 681.182ZM323.095 679.977C323.633 679.977 324.088 679.837 324.459 679.557C324.83 679.273 325.112 678.881 325.305 678.381C325.499 677.877 325.595 677.295 325.595 676.636C325.595 675.985 325.5 675.415 325.311 674.926C325.122 674.434 324.841 674.051 324.47 673.778C324.099 673.502 323.641 673.364 323.095 673.364C322.527 673.364 322.054 673.509 321.675 673.801C321.3 674.089 321.018 674.481 320.828 674.977C320.643 675.47 320.55 676.023 320.55 676.636C320.55 677.258 320.644 677.822 320.834 678.33C321.027 678.833 321.311 679.235 321.686 679.534C322.065 679.83 322.535 679.977 323.095 679.977ZM333.214 681.182C332.374 681.182 331.648 680.996 331.038 680.625C330.432 680.25 329.964 679.727 329.635 679.057C329.309 678.383 329.146 677.598 329.146 676.705C329.146 675.811 329.309 675.023 329.635 674.341C329.964 673.655 330.423 673.121 331.01 672.739C331.601 672.352 332.29 672.159 333.078 672.159C333.533 672.159 333.982 672.235 334.425 672.386C334.868 672.538 335.271 672.784 335.635 673.125C335.999 673.462 336.288 673.909 336.504 674.466C336.72 675.023 336.828 675.708 336.828 676.523V677.091H330.101V675.932H335.464C335.464 675.439 335.366 675 335.169 674.614C334.976 674.227 334.699 673.922 334.339 673.699C333.983 673.475 333.563 673.364 333.078 673.364C332.544 673.364 332.082 673.496 331.692 673.761C331.305 674.023 331.008 674.364 330.8 674.784C330.591 675.205 330.487 675.655 330.487 676.136V676.909C330.487 677.568 330.601 678.127 330.828 678.585C331.059 679.04 331.379 679.386 331.788 679.625C332.197 679.86 332.673 679.977 333.214 679.977C333.567 679.977 333.885 679.928 334.169 679.83C334.457 679.727 334.705 679.576 334.913 679.375C335.122 679.17 335.283 678.917 335.396 678.614L336.692 678.977C336.555 679.417 336.326 679.803 336.004 680.136C335.682 680.466 335.285 680.723 334.811 680.909C334.338 681.091 333.805 681.182 333.214 681.182ZM342.413 681.182C341.625 681.182 340.934 680.994 340.339 680.619C339.749 680.244 339.286 679.72 338.953 679.045C338.624 678.371 338.459 677.583 338.459 676.682C338.459 675.773 338.624 674.979 338.953 674.301C339.286 673.623 339.749 673.097 340.339 672.722C340.934 672.347 341.625 672.159 342.413 672.159C343.201 672.159 343.891 672.347 344.482 672.722C345.076 673.097 345.538 673.623 345.868 674.301C346.201 674.979 346.368 675.773 346.368 676.682C346.368 677.583 346.201 678.371 345.868 679.045C345.538 679.72 345.076 680.244 344.482 680.619C343.891 680.994 343.201 681.182 342.413 681.182ZM342.413 679.977C343.012 679.977 343.504 679.824 343.891 679.517C344.277 679.21 344.563 678.807 344.749 678.307C344.934 677.807 345.027 677.265 345.027 676.682C345.027 676.098 344.934 675.555 344.749 675.051C344.563 674.547 344.277 674.14 343.891 673.83C343.504 673.519 343.012 673.364 342.413 673.364C341.815 673.364 341.322 673.519 340.936 673.83C340.55 674.14 340.264 674.547 340.078 675.051C339.893 675.555 339.8 676.098 339.8 676.682C339.8 677.265 339.893 677.807 340.078 678.307C340.264 678.807 340.55 679.21 340.936 679.517C341.322 679.824 341.815 679.977 342.413 679.977Z" fill="white"/>
<path d="M60.4091 669.364H62.0909L66.0455 679.023H66.1818L70.1364 669.364H71.8182V681H70.5V672.159H70.3864L66.75 681H65.4773L61.8409 672.159H61.7273V681H60.4091V669.364ZM78.1207 681.182C77.2798 681.182 76.5545 680.996 75.9446 680.625C75.3385 680.25 74.8707 679.727 74.5412 679.057C74.2154 678.383 74.0526 677.598 74.0526 676.705C74.0526 675.811 74.2154 675.023 74.5412 674.341C74.8707 673.655 75.3291 673.121 75.9162 672.739C76.5071 672.352 77.1965 672.159 77.9844 672.159C78.4389 672.159 78.8878 672.235 79.331 672.386C79.7741 672.538 80.1776 672.784 80.5412 673.125C80.9048 673.462 81.1946 673.909 81.4105 674.466C81.6264 675.023 81.7344 675.708 81.7344 676.523V677.091H75.0071V675.932H80.3707C80.3707 675.439 80.2723 675 80.0753 674.614C79.8821 674.227 79.6056 673.922 79.2457 673.699C78.8897 673.475 78.4692 673.364 77.9844 673.364C77.4503 673.364 76.9882 673.496 76.598 673.761C76.2116 674.023 75.9143 674.364 75.706 674.784C75.4976 675.205 75.3935 675.655 75.3935 676.136V676.909C75.3935 677.568 75.5071 678.127 75.7344 678.585C75.9654 679.04 76.2855 679.386 76.6946 679.625C77.1037 679.86 77.5791 679.977 78.1207 679.977C78.473 679.977 78.7912 679.928 79.0753 679.83C79.3632 679.727 79.6113 679.576 79.8196 679.375C80.0279 679.17 80.1889 678.917 80.3026 678.614L81.598 678.977C81.4616 679.417 81.2325 679.803 80.9105 680.136C80.5885 680.466 80.1908 680.723 79.7173 680.909C79.2438 681.091 78.7116 681.182 78.1207 681.182ZM89.2741 677.432V672.273H90.6151V681H89.2741V679.523H89.1832C88.9787 679.966 88.6605 680.343 88.2287 680.653C87.7969 680.96 87.2514 681.114 86.5923 681.114C86.0469 681.114 85.562 680.994 85.1378 680.756C84.7135 680.513 84.3802 680.15 84.1378 679.665C83.8954 679.176 83.7741 678.561 83.7741 677.818V672.273H85.1151V677.727C85.1151 678.364 85.2931 678.871 85.6491 679.25C86.009 679.629 86.4673 679.818 87.0241 679.818C87.3575 679.818 87.6965 679.733 88.0412 679.562C88.3897 679.392 88.6813 679.131 88.9162 678.778C89.1548 678.426 89.2741 677.977 89.2741 677.432ZM99.2528 674.227L98.0483 674.568C97.9725 674.367 97.8608 674.172 97.7131 673.983C97.5691 673.79 97.3722 673.631 97.1222 673.506C96.8722 673.381 96.5521 673.318 96.1619 673.318C95.6278 673.318 95.1828 673.441 94.8267 673.688C94.4744 673.93 94.2983 674.239 94.2983 674.614C94.2983 674.947 94.4195 675.21 94.6619 675.403C94.9044 675.597 95.2831 675.758 95.7983 675.886L97.0938 676.205C97.8741 676.394 98.4555 676.684 98.8381 677.074C99.2206 677.46 99.4119 677.958 99.4119 678.568C99.4119 679.068 99.268 679.515 98.9801 679.909C98.696 680.303 98.2983 680.614 97.7869 680.841C97.2756 681.068 96.6809 681.182 96.0028 681.182C95.1127 681.182 94.3759 680.989 93.7926 680.602C93.2093 680.216 92.84 679.652 92.6847 678.909L93.9574 678.591C94.0786 679.061 94.3078 679.413 94.6449 679.648C94.9858 679.883 95.4309 680 95.9801 680C96.6051 680 97.1013 679.867 97.4688 679.602C97.84 679.333 98.0256 679.011 98.0256 678.636C98.0256 678.333 97.9195 678.08 97.7074 677.875C97.4953 677.667 97.1695 677.511 96.7301 677.409L95.2756 677.068C94.4763 676.879 93.8892 676.585 93.5142 676.188C93.143 675.786 92.9574 675.284 92.9574 674.682C92.9574 674.189 93.0956 673.754 93.3722 673.375C93.6525 672.996 94.0331 672.699 94.5142 672.483C94.9991 672.267 95.5483 672.159 96.1619 672.159C97.0256 672.159 97.7036 672.348 98.196 672.727C98.6922 673.106 99.0445 673.606 99.2528 674.227ZM106.589 669.364L110.044 679.159H110.18L113.635 669.364H115.112L110.839 681H109.385L105.112 669.364H106.589ZM116.743 681V672.273H118.084V681H116.743ZM116.811 671.091L118.197 668.455H119.766L117.993 671.091H116.811ZM123.835 681.182C123.108 681.182 122.466 680.998 121.909 680.631C121.352 680.259 120.917 679.737 120.602 679.062C120.288 678.384 120.131 677.583 120.131 676.659C120.131 675.742 120.288 674.947 120.602 674.273C120.917 673.598 121.354 673.078 121.915 672.71C122.475 672.343 123.123 672.159 123.858 672.159C124.426 672.159 124.875 672.254 125.205 672.443C125.538 672.629 125.792 672.841 125.966 673.08C126.144 673.314 126.282 673.508 126.381 673.659H126.494V669.364H127.835V681H126.54V679.659H126.381C126.282 679.818 126.142 680.019 125.96 680.261C125.778 680.5 125.519 680.714 125.182 680.903C124.845 681.089 124.396 681.182 123.835 681.182ZM124.017 679.977C124.555 679.977 125.009 679.837 125.381 679.557C125.752 679.273 126.034 678.881 126.227 678.381C126.42 677.877 126.517 677.295 126.517 676.636C126.517 675.985 126.422 675.415 126.233 674.926C126.044 674.434 125.763 674.051 125.392 673.778C125.021 673.502 124.563 673.364 124.017 673.364C123.449 673.364 122.975 673.509 122.597 673.801C122.222 674.089 121.939 674.481 121.75 674.977C121.564 675.47 121.472 676.023 121.472 676.636C121.472 677.258 121.566 677.822 121.756 678.33C121.949 678.833 122.233 679.235 122.608 679.534C122.987 679.83 123.456 679.977 124.017 679.977ZM134.136 681.182C133.295 681.182 132.57 680.996 131.96 680.625C131.354 680.25 130.886 679.727 130.557 679.057C130.231 678.383 130.068 677.598 130.068 676.705C130.068 675.811 130.231 675.023 130.557 674.341C130.886 673.655 131.345 673.121 131.932 672.739C132.523 672.352 133.212 672.159 134 672.159C134.455 672.159 134.903 672.235 135.347 672.386C135.79 672.538 136.193 672.784 136.557 673.125C136.92 673.462 137.21 673.909 137.426 674.466C137.642 675.023 137.75 675.708 137.75 676.523V677.091H131.023V675.932H136.386C136.386 675.439 136.288 675 136.091 674.614C135.898 674.227 135.621 673.922 135.261 673.699C134.905 673.475 134.485 673.364 134 673.364C133.466 673.364 133.004 673.496 132.614 673.761C132.227 674.023 131.93 674.364 131.722 674.784C131.513 675.205 131.409 675.655 131.409 676.136V676.909C131.409 677.568 131.523 678.127 131.75 678.585C131.981 679.04 132.301 679.386 132.71 679.625C133.119 679.86 133.595 679.977 134.136 679.977C134.489 679.977 134.807 679.928 135.091 679.83C135.379 679.727 135.627 679.576 135.835 679.375C136.044 679.17 136.205 678.917 136.318 678.614L137.614 678.977C137.477 679.417 137.248 679.803 136.926 680.136C136.604 680.466 136.206 680.723 135.733 680.909C135.259 681.091 134.727 681.182 134.136 681.182ZM143.335 681.182C142.547 681.182 141.856 680.994 141.261 680.619C140.67 680.244 140.208 679.72 139.875 679.045C139.545 678.371 139.381 677.583 139.381 676.682C139.381 675.773 139.545 674.979 139.875 674.301C140.208 673.623 140.67 673.097 141.261 672.722C141.856 672.347 142.547 672.159 143.335 672.159C144.123 672.159 144.813 672.347 145.403 672.722C145.998 673.097 146.46 673.623 146.79 674.301C147.123 674.979 147.29 675.773 147.29 676.682C147.29 677.583 147.123 678.371 146.79 679.045C146.46 679.72 145.998 680.244 145.403 680.619C144.813 680.994 144.123 681.182 143.335 681.182ZM143.335 679.977C143.934 679.977 144.426 679.824 144.812 679.517C145.199 679.21 145.485 678.807 145.67 678.307C145.856 677.807 145.949 677.265 145.949 676.682C145.949 676.098 145.856 675.555 145.67 675.051C145.485 674.547 145.199 674.14 144.812 673.83C144.426 673.519 143.934 673.364 143.335 673.364C142.737 673.364 142.244 673.519 141.858 673.83C141.472 674.14 141.186 674.547 141 675.051C140.814 675.555 140.722 676.098 140.722 676.682C140.722 677.265 140.814 677.807 141 678.307C141.186 678.807 141.472 679.21 141.858 679.517C142.244 679.824 142.737 679.977 143.335 679.977ZM155.518 674.227L154.314 674.568C154.238 674.367 154.126 674.172 153.979 673.983C153.835 673.79 153.638 673.631 153.388 673.506C153.138 673.381 152.818 673.318 152.428 673.318C151.893 673.318 151.448 673.441 151.092 673.688C150.74 673.93 150.564 674.239 150.564 674.614C150.564 674.947 150.685 675.21 150.928 675.403C151.17 675.597 151.549 675.758 152.064 675.886L153.359 676.205C154.14 676.394 154.721 676.684 155.104 677.074C155.486 677.46 155.678 677.958 155.678 678.568C155.678 679.068 155.534 679.515 155.246 679.909C154.962 680.303 154.564 680.614 154.053 680.841C153.541 681.068 152.946 681.182 152.268 681.182C151.378 681.182 150.642 680.989 150.058 680.602C149.475 680.216 149.106 679.652 148.95 678.909L150.223 678.591C150.344 679.061 150.573 679.413 150.911 679.648C151.251 679.883 151.696 680 152.246 680C152.871 680 153.367 679.867 153.734 679.602C154.106 679.333 154.291 679.011 154.291 678.636C154.291 678.333 154.185 678.08 153.973 677.875C153.761 677.667 153.435 677.511 152.996 677.409L151.541 677.068C150.742 676.879 150.155 676.585 149.78 676.188C149.409 675.786 149.223 675.284 149.223 674.682C149.223 674.189 149.361 673.754 149.638 673.375C149.918 672.996 150.299 672.699 150.78 672.483C151.265 672.267 151.814 672.159 152.428 672.159C153.291 672.159 153.969 672.348 154.462 672.727C154.958 673.106 155.31 673.606 155.518 674.227Z" fill="white"/>
<path d="M50 658C50 653.582 53.5817 650 58 650H159C163.418 650 167 653.582 167 658V692C167 696.418 163.418 700 159 700H58C53.5817 700 50 696.418 50 692V658Z" fill="#2D2828"/>
<path d="M241.5 658C241.5 653.582 245.082 650 249.5 650H350.5C354.918 650 358.5 653.582 358.5 658V692C358.5 696.418 354.918 700 350.5 700H249.5C245.082 700 241.5 696.418 241.5 692V658Z" fill="#2D2828"/>
<path d="M254.409 681V669.364H261.432V670.614H255.818V674.545H261.068V675.795H255.818V679.75H261.523V681H254.409ZM265.131 675.75V681H263.79V672.273H265.085V673.636H265.199C265.403 673.193 265.714 672.837 266.131 672.568C266.547 672.295 267.085 672.159 267.744 672.159C268.335 672.159 268.852 672.28 269.295 672.523C269.739 672.761 270.083 673.125 270.33 673.614C270.576 674.098 270.699 674.712 270.699 675.455V681H269.358V675.545C269.358 674.86 269.18 674.326 268.824 673.943C268.468 673.557 267.979 673.364 267.358 673.364C266.93 673.364 266.547 673.456 266.21 673.642C265.877 673.828 265.614 674.098 265.42 674.455C265.227 674.811 265.131 675.242 265.131 675.75ZM279.973 672.273L276.746 681H275.382L272.155 672.273H273.609L276.018 679.227H276.109L278.518 672.273H279.973ZM281.743 681V672.273H283.084V681H281.743ZM282.425 670.818C282.163 670.818 281.938 670.729 281.749 670.551C281.563 670.373 281.47 670.159 281.47 669.909C281.47 669.659 281.563 669.445 281.749 669.267C281.938 669.089 282.163 669 282.425 669C282.686 669 282.91 669.089 283.095 669.267C283.285 669.445 283.379 669.659 283.379 669.909C283.379 670.159 283.285 670.373 283.095 670.551C282.91 670.729 282.686 670.818 282.425 670.818ZM288.108 681.205C287.555 681.205 287.053 681.1 286.602 680.892C286.152 680.68 285.794 680.375 285.528 679.977C285.263 679.576 285.131 679.091 285.131 678.523C285.131 678.023 285.229 677.617 285.426 677.307C285.623 676.992 285.886 676.746 286.216 676.568C286.545 676.39 286.909 676.258 287.307 676.17C287.708 676.08 288.112 676.008 288.517 675.955C289.047 675.886 289.477 675.835 289.807 675.801C290.14 675.763 290.383 675.701 290.534 675.614C290.689 675.527 290.767 675.375 290.767 675.159V675.114C290.767 674.553 290.614 674.117 290.307 673.807C290.004 673.496 289.544 673.341 288.926 673.341C288.286 673.341 287.784 673.481 287.42 673.761C287.057 674.042 286.801 674.341 286.653 674.659L285.381 674.205C285.608 673.674 285.911 673.261 286.29 672.966C286.672 672.667 287.089 672.458 287.54 672.341C287.994 672.22 288.441 672.159 288.881 672.159C289.161 672.159 289.483 672.193 289.847 672.261C290.214 672.326 290.568 672.46 290.909 672.665C291.254 672.869 291.54 673.178 291.767 673.591C291.994 674.004 292.108 674.557 292.108 675.25V681H290.767V679.818H290.699C290.608 680.008 290.456 680.21 290.244 680.426C290.032 680.642 289.75 680.826 289.398 680.977C289.045 681.129 288.616 681.205 288.108 681.205ZM288.312 680C288.843 680 289.29 679.896 289.653 679.688C290.021 679.479 290.297 679.21 290.483 678.881C290.672 678.551 290.767 678.205 290.767 677.841V676.614C290.71 676.682 290.585 676.744 290.392 676.801C290.203 676.854 289.983 676.902 289.733 676.943C289.487 676.981 289.246 677.015 289.011 677.045C288.78 677.072 288.593 677.095 288.449 677.114C288.1 677.159 287.775 677.233 287.472 677.335C287.172 677.434 286.93 677.583 286.744 677.784C286.563 677.981 286.472 678.25 286.472 678.591C286.472 679.057 286.644 679.409 286.989 679.648C287.337 679.883 287.778 680 288.312 680ZM294.555 681V672.273H295.851V673.591H295.942C296.101 673.159 296.389 672.809 296.805 672.54C297.222 672.271 297.692 672.136 298.214 672.136C298.313 672.136 298.436 672.138 298.584 672.142C298.732 672.146 298.843 672.152 298.919 672.159V673.523C298.874 673.511 298.769 673.494 298.607 673.472C298.447 673.445 298.279 673.432 298.101 673.432C297.677 673.432 297.298 673.521 296.964 673.699C296.635 673.873 296.374 674.116 296.18 674.426C295.991 674.733 295.896 675.083 295.896 675.477V681H294.555ZM305.668 669.364L309.122 679.159H309.259L312.713 669.364H314.19L309.918 681H308.463L304.19 669.364H305.668ZM315.821 681V672.273H317.162V681H315.821ZM315.889 671.091L317.276 668.455H318.844L317.071 671.091H315.889ZM322.913 681.182C322.186 681.182 321.544 680.998 320.987 680.631C320.43 680.259 319.995 679.737 319.68 679.062C319.366 678.384 319.209 677.583 319.209 676.659C319.209 675.742 319.366 674.947 319.68 674.273C319.995 673.598 320.432 673.078 320.993 672.71C321.554 672.343 322.201 672.159 322.936 672.159C323.504 672.159 323.953 672.254 324.283 672.443C324.616 672.629 324.87 672.841 325.044 673.08C325.222 673.314 325.36 673.508 325.459 673.659H325.572V669.364H326.913V681H325.618V679.659H325.459C325.36 679.818 325.22 680.019 325.038 680.261C324.857 680.5 324.597 680.714 324.26 680.903C323.923 681.089 323.474 681.182 322.913 681.182ZM323.095 679.977C323.633 679.977 324.088 679.837 324.459 679.557C324.83 679.273 325.112 678.881 325.305 678.381C325.499 677.877 325.595 677.295 325.595 676.636C325.595 675.985 325.5 675.415 325.311 674.926C325.122 674.434 324.841 674.051 324.47 673.778C324.099 673.502 323.641 673.364 323.095 673.364C322.527 673.364 322.054 673.509 321.675 673.801C321.3 674.089 321.018 674.481 320.828 674.977C320.643 675.47 320.55 676.023 320.55 676.636C320.55 677.258 320.644 677.822 320.834 678.33C321.027 678.833 321.311 679.235 321.686 679.534C322.065 679.83 322.535 679.977 323.095 679.977ZM333.214 681.182C332.374 681.182 331.648 680.996 331.038 680.625C330.432 680.25 329.964 679.727 329.635 679.057C329.309 678.383 329.146 677.598 329.146 676.705C329.146 675.811 329.309 675.023 329.635 674.341C329.964 673.655 330.423 673.121 331.01 672.739C331.601 672.352 332.29 672.159 333.078 672.159C333.533 672.159 333.982 672.235 334.425 672.386C334.868 672.538 335.271 672.784 335.635 673.125C335.999 673.462 336.288 673.909 336.504 674.466C336.72 675.023 336.828 675.708 336.828 676.523V677.091H330.101V675.932H335.464C335.464 675.439 335.366 675 335.169 674.614C334.976 674.227 334.699 673.922 334.339 673.699C333.983 673.475 333.563 673.364 333.078 673.364C332.544 673.364 332.082 673.496 331.692 673.761C331.305 674.023 331.008 674.364 330.8 674.784C330.591 675.205 330.487 675.655 330.487 676.136V676.909C330.487 677.568 330.601 678.127 330.828 678.585C331.059 679.04 331.379 679.386 331.788 679.625C332.197 679.86 332.673 679.977 333.214 679.977C333.567 679.977 333.885 679.928 334.169 679.83C334.457 679.727 334.705 679.576 334.913 679.375C335.122 679.17 335.283 678.917 335.396 678.614L336.692 678.977C336.555 679.417 336.326 679.803 336.004 680.136C335.682 680.466 335.285 680.723 334.811 680.909C334.338 681.091 333.805 681.182 333.214 681.182ZM342.413 681.182C341.625 681.182 340.934 680.994 340.339 680.619C339.749 680.244 339.286 679.72 338.953 679.045C338.624 678.371 338.459 677.583 338.459 676.682C338.459 675.773 338.624 674.979 338.953 674.301C339.286 673.623 339.749 673.097 340.339 672.722C340.934 672.347 341.625 672.159 342.413 672.159C343.201 672.159 343.891 672.347 344.482 672.722C345.076 673.097 345.538 673.623 345.868 674.301C346.201 674.979 346.368 675.773 346.368 676.682C346.368 677.583 346.201 678.371 345.868 679.045C345.538 679.72 345.076 680.244 344.482 680.619C343.891 680.994 343.201 681.182 342.413 681.182ZM342.413 679.977C343.012 679.977 343.504 679.824 343.891 679.517C344.277 679.21 344.563 678.807 344.749 678.307C344.934 677.807 345.027 677.265 345.027 676.682C345.027 676.098 344.934 675.555 344.749 675.051C344.563 674.547 344.277 674.14 343.891 673.83C343.504 673.519 343.012 673.364 342.413 673.364C341.815 673.364 341.322 673.519 340.936 673.83C340.55 674.14 340.264 674.547 340.078 675.051C339.893 675.555 339.8 676.098 339.8 676.682C339.8 677.265 339.893 677.807 340.078 678.307C340.264 678.807 340.55 679.21 340.936 679.517C341.322 679.824 341.815 679.977 342.413 679.977Z" fill="white"/>
<path d="M60.4091 669.364H62.0909L66.0455 679.023H66.1818L70.1364 669.364H71.8182V681H70.5V672.159H70.3864L66.75 681H65.4773L61.8409 672.159H61.7273V681H60.4091V669.364ZM78.1207 681.182C77.2798 681.182 76.5545 680.996 75.9446 680.625C75.3385 680.25 74.8707 679.727 74.5412 679.057C74.2154 678.383 74.0526 677.598 74.0526 676.705C74.0526 675.811 74.2154 675.023 74.5412 674.341C74.8707 673.655 75.3291 673.121 75.9162 672.739C76.5071 672.352 77.1965 672.159 77.9844 672.159C78.4389 672.159 78.8878 672.235 79.331 672.386C79.7741 672.538 80.1776 672.784 80.5412 673.125C80.9048 673.462 81.1946 673.909 81.4105 674.466C81.6264 675.023 81.7344 675.708 81.7344 676.523V677.091H75.0071V675.932H80.3707C80.3707 675.439 80.2723 675 80.0753 674.614C79.8821 674.227 79.6056 673.922 79.2457 673.699C78.8897 673.475 78.4692 673.364 77.9844 673.364C77.4503 673.364 76.9882 673.496 76.598 673.761C76.2116 674.023 75.9143 674.364 75.706 674.784C75.4976 675.205 75.3935 675.655 75.3935 676.136V676.909C75.3935 677.568 75.5071 678.127 75.7344 678.585C75.9654 679.04 76.2855 679.386 76.6946 679.625C77.1037 679.86 77.5791 679.977 78.1207 679.977C78.473 679.977 78.7912 679.928 79.0753 679.83C79.3632 679.727 79.6113 679.576 79.8196 679.375C80.0279 679.17 80.1889 678.917 80.3026 678.614L81.598 678.977C81.4616 679.417 81.2325 679.803 80.9105 680.136C80.5885 680.466 80.1908 680.723 79.7173 680.909C79.2438 681.091 78.7116 681.182 78.1207 681.182ZM89.2741 677.432V672.273H90.6151V681H89.2741V679.523H89.1832C88.9787 679.966 88.6605 680.343 88.2287 680.653C87.7969 680.96 87.2514 681.114 86.5923 681.114C86.0469 681.114 85.562 680.994 85.1378 680.756C84.7135 680.513 84.3802 680.15 84.1378 679.665C83.8954 679.176 83.7741 678.561 83.7741 677.818V672.273H85.1151V677.727C85.1151 678.364 85.2931 678.871 85.6491 679.25C86.009 679.629 86.4673 679.818 87.0241 679.818C87.3575 679.818 87.6965 679.733 88.0412 679.562C88.3897 679.392 88.6813 679.131 88.9162 678.778C89.1548 678.426 89.2741 677.977 89.2741 677.432ZM99.2528 674.227L98.0483 674.568C97.9725 674.367 97.8608 674.172 97.7131 673.983C97.5691 673.79 97.3722 673.631 97.1222 673.506C96.8722 673.381 96.5521 673.318 96.1619 673.318C95.6278 673.318 95.1828 673.441 94.8267 673.688C94.4744 673.93 94.2983 674.239 94.2983 674.614C94.2983 674.947 94.4195 675.21 94.6619 675.403C94.9044 675.597 95.2831 675.758 95.7983 675.886L97.0938 676.205C97.8741 676.394 98.4555 676.684 98.8381 677.074C99.2206 677.46 99.4119 677.958 99.4119 678.568C99.4119 679.068 99.268 679.515 98.9801 679.909C98.696 680.303 98.2983 680.614 97.7869 680.841C97.2756 681.068 96.6809 681.182 96.0028 681.182C95.1127 681.182 94.3759 680.989 93.7926 680.602C93.2093 680.216 92.84 679.652 92.6847 678.909L93.9574 678.591C94.0786 679.061 94.3078 679.413 94.6449 679.648C94.9858 679.883 95.4309 680 95.9801 680C96.6051 680 97.1013 679.867 97.4688 679.602C97.84 679.333 98.0256 679.011 98.0256 678.636C98.0256 678.333 97.9195 678.08 97.7074 677.875C97.4953 677.667 97.1695 677.511 96.7301 677.409L95.2756 677.068C94.4763 676.879 93.8892 676.585 93.5142 676.188C93.143 675.786 92.9574 675.284 92.9574 674.682C92.9574 674.189 93.0956 673.754 93.3722 673.375C93.6525 672.996 94.0331 672.699 94.5142 672.483C94.9991 672.267 95.5483 672.159 96.1619 672.159C97.0256 672.159 97.7036 672.348 98.196 672.727C98.6922 673.106 99.0445 673.606 99.2528 674.227ZM106.589 669.364L110.044 679.159H110.18L113.635 669.364H115.112L110.839 681H109.385L105.112 669.364H106.589ZM116.743 681V672.273H118.084V681H116.743ZM116.811 671.091L118.197 668.455H119.766L117.993 671.091H116.811ZM123.835 681.182C123.108 681.182 122.466 680.998 121.909 680.631C121.352 680.259 120.917 679.737 120.602 679.062C120.288 678.384 120.131 677.583 120.131 676.659C120.131 675.742 120.288 674.947 120.602 674.273C120.917 673.598 121.354 673.078 121.915 672.71C122.475 672.343 123.123 672.159 123.858 672.159C124.426 672.159 124.875 672.254 125.205 672.443C125.538 672.629 125.792 672.841 125.966 673.08C126.144 673.314 126.282 673.508 126.381 673.659H126.494V669.364H127.835V681H126.54V679.659H126.381C126.282 679.818 126.142 680.019 125.96 680.261C125.778 680.5 125.519 680.714 125.182 680.903C124.845 681.089 124.396 681.182 123.835 681.182ZM124.017 679.977C124.555 679.977 125.009 679.837 125.381 679.557C125.752 679.273 126.034 678.881 126.227 678.381C126.42 677.877 126.517 677.295 126.517 676.636C126.517 675.985 126.422 675.415 126.233 674.926C126.044 674.434 125.763 674.051 125.392 673.778C125.021 673.502 124.563 673.364 124.017 673.364C123.449 673.364 122.975 673.509 122.597 673.801C122.222 674.089 121.939 674.481 121.75 674.977C121.564 675.47 121.472 676.023 121.472 676.636C121.472 677.258 121.566 677.822 121.756 678.33C121.949 678.833 122.233 679.235 122.608 679.534C122.987 679.83 123.456 679.977 124.017 679.977ZM134.136 681.182C133.295 681.182 132.57 680.996 131.96 680.625C131.354 680.25 130.886 679.727 130.557 679.057C130.231 678.383 130.068 677.598 130.068 676.705C130.068 675.811 130.231 675.023 130.557 674.341C130.886 673.655 131.345 673.121 131.932 672.739C132.523 672.352 133.212 672.159 134 672.159C134.455 672.159 134.903 672.235 135.347 672.386C135.79 672.538 136.193 672.784 136.557 673.125C136.92 673.462 137.21 673.909 137.426 674.466C137.642 675.023 137.75 675.708 137.75 676.523V677.091H131.023V675.932H136.386C136.386 675.439 136.288 675 136.091 674.614C135.898 674.227 135.621 673.922 135.261 673.699C134.905 673.475 134.485 673.364 134 673.364C133.466 673.364 133.004 673.496 132.614 673.761C132.227 674.023 131.93 674.364 131.722 674.784C131.513 675.205 131.409 675.655 131.409 676.136V676.909C131.409 677.568 131.523 678.127 131.75 678.585C131.981 679.04 132.301 679.386 132.71 679.625C133.119 679.86 133.595 679.977 134.136 679.977C134.489 679.977 134.807 679.928 135.091 679.83C135.379 679.727 135.627 679.576 135.835 679.375C136.044 679.17 136.205 678.917 136.318 678.614L137.614 678.977C137.477 679.417 137.248 679.803 136.926 680.136C136.604 680.466 136.206 680.723 135.733 680.909C135.259 681.091 134.727 681.182 134.136 681.182ZM143.335 681.182C142.547 681.182 141.856 680.994 141.261 680.619C140.67 680.244 140.208 679.72 139.875 679.045C139.545 678.371 139.381 677.583 139.381 676.682C139.381 675.773 139.545 674.979 139.875 674.301C140.208 673.623 140.67 673.097 141.261 672.722C141.856 672.347 142.547 672.159 143.335 672.159C144.123 672.159 144.813 672.347 145.403 672.722C145.998 673.097 146.46 673.623 146.79 674.301C147.123 674.979 147.29 675.773 147.29 676.682C147.29 677.583 147.123 678.371 146.79 679.045C146.46 679.72 145.998 680.244 145.403 680.619C144.813 680.994 144.123 681.182 143.335 681.182ZM143.335 679.977C143.934 679.977 144.426 679.824 144.812 679.517C145.199 679.21 145.485 678.807 145.67 678.307C145.856 677.807 145.949 677.265 145.949 676.682C145.949 676.098 145.856 675.555 145.67 675.051C145.485 674.547 145.199 674.14 144.812 673.83C144.426 673.519 143.934 673.364 143.335 673.364C142.737 673.364 142.244 673.519 141.858 673.83C141.472 674.14 141.186 674.547 141 675.051C140.814 675.555 140.722 676.098 140.722 676.682C140.722 677.265 140.814 677.807 141 678.307C141.186 678.807 141.472 679.21 141.858 679.517C142.244 679.824 142.737 679.977 143.335 679.977ZM155.518 674.227L154.314 674.568C154.238 674.367 154.126 674.172 153.979 673.983C153.835 673.79 153.638 673.631 153.388 673.506C153.138 673.381 152.818 673.318 152.428 673.318C151.893 673.318 151.448 673.441 151.092 673.688C150.74 673.93 150.564 674.239 150.564 674.614C150.564 674.947 150.685 675.21 150.928 675.403C151.17 675.597 151.549 675.758 152.064 675.886L153.359 676.205C154.14 676.394 154.721 676.684 155.104 677.074C155.486 677.46 155.678 677.958 155.678 678.568C155.678 679.068 155.534 679.515 155.246 679.909C154.962 680.303 154.564 680.614 154.053 680.841C153.541 681.068 152.946 681.182 152.268 681.182C151.378 681.182 150.642 680.989 150.058 680.602C149.475 680.216 149.106 679.652 148.95 678.909L150.223 678.591C150.344 679.061 150.573 679.413 150.911 679.648C151.251 679.883 151.696 680 152.246 680C152.871 680 153.367 679.867 153.734 679.602C154.106 679.333 154.291 679.011 154.291 678.636C154.291 678.333 154.185 678.08 153.973 677.875C153.761 677.667 153.435 677.511 152.996 677.409L151.541 677.068C150.742 676.879 150.155 676.585 149.78 676.188C149.409 675.786 149.223 675.284 149.223 674.682C149.223 674.189 149.361 673.754 149.638 673.375C149.918 672.996 150.299 672.699 150.78 672.483C151.265 672.267 151.814 672.159 152.428 672.159C153.291 672.159 153.969 672.348 154.462 672.727C154.958 673.106 155.31 673.606 155.518 674.227Z" fill="white"/>
</svg>
