<svg width="400" height="700" viewBox="0 0 400 700" fill="none" xmlns="http://www.w3.org/2000/svg">
<path d="M400 0H0V700H400V0Z" fill="#1B0B26"/>
<path d="M400 0H0V50H400V0Z" fill="#1E1A21"/>
<path d="M400 0H0V50H400V0Z" fill="#1E1A21"/>
<rect x="314" width="86" height="50" rx="8" fill="#2D2828"/>
<path d="M337.409 31V19.3636H338.818V29.75H344.227V31H337.409ZM349.773 31.1818C348.985 31.1818 348.294 30.9943 347.699 30.6193C347.108 30.2443 346.646 29.7197 346.312 29.0455C345.983 28.3712 345.818 27.5833 345.818 26.6818C345.818 25.7727 345.983 24.9792 346.312 24.3011C346.646 23.6231 347.108 23.0966 347.699 22.7216C348.294 22.3466 348.985 22.1591 349.773 22.1591C350.561 22.1591 351.25 22.3466 351.841 22.7216C352.436 23.0966 352.898 23.6231 353.227 24.3011C353.561 24.9792 353.727 25.7727 353.727 26.6818C353.727 27.5833 353.561 28.3712 353.227 29.0455C352.898 29.7197 352.436 30.2443 351.841 30.6193C351.25 30.9943 350.561 31.1818 349.773 31.1818ZM349.773 29.9773C350.371 29.9773 350.864 29.8239 351.25 29.517C351.636 29.2102 351.922 28.8068 352.108 28.3068C352.294 27.8068 352.386 27.2652 352.386 26.6818C352.386 26.0985 352.294 25.5549 352.108 25.0511C351.922 24.5473 351.636 24.1402 351.25 23.8295C350.864 23.5189 350.371 23.3636 349.773 23.3636C349.174 23.3636 348.682 23.5189 348.295 23.8295C347.909 24.1402 347.623 24.5473 347.438 25.0511C347.252 25.5549 347.159 26.0985 347.159 26.6818C347.159 27.2652 347.252 27.8068 347.438 28.3068C347.623 28.8068 347.909 29.2102 348.295 29.517C348.682 29.8239 349.174 29.9773 349.773 29.9773ZM359.297 34.4545C358.649 34.4545 358.092 34.3712 357.626 34.2045C357.161 34.0417 356.772 33.8258 356.462 33.5568C356.155 33.2917 355.911 33.0076 355.729 32.7045L356.797 31.9545C356.918 32.1136 357.071 32.2955 357.257 32.5C357.443 32.7083 357.696 32.8883 358.018 33.0398C358.344 33.1951 358.77 33.2727 359.297 33.2727C360.001 33.2727 360.583 33.1023 361.041 32.7614C361.5 32.4205 361.729 31.8864 361.729 31.1591V29.3864H361.615C361.517 29.5455 361.376 29.7424 361.195 29.9773C361.017 30.2083 360.759 30.4148 360.422 30.5966C360.089 30.7746 359.638 30.8636 359.07 30.8636C358.365 30.8636 357.732 30.697 357.172 30.3636C356.615 30.0303 356.174 29.5455 355.848 28.9091C355.526 28.2727 355.365 27.5 355.365 26.5909C355.365 25.697 355.522 24.9186 355.837 24.2557C356.151 23.589 356.589 23.0739 357.149 22.7102C357.71 22.3428 358.357 22.1591 359.092 22.1591C359.661 22.1591 360.111 22.2538 360.445 22.4432C360.782 22.6288 361.039 22.8409 361.217 23.0795C361.399 23.3144 361.539 23.5076 361.638 23.6591H361.774V22.2727H363.07V31.25C363.07 32 362.899 32.6098 362.558 33.0795C362.221 33.553 361.767 33.8996 361.195 34.1193C360.626 34.3428 359.994 34.4545 359.297 34.4545ZM359.251 29.6591C359.789 29.6591 360.244 29.536 360.615 29.2898C360.986 29.0436 361.268 28.6894 361.462 28.2273C361.655 27.7652 361.751 27.2121 361.751 26.5682C361.751 25.9394 361.657 25.3845 361.467 24.9034C361.278 24.4223 360.998 24.0455 360.626 23.7727C360.255 23.5 359.797 23.3636 359.251 23.3636C358.683 23.3636 358.21 23.5076 357.831 23.7955C357.456 24.0833 357.174 24.4697 356.984 24.9545C356.799 25.4394 356.706 25.9773 356.706 26.5682C356.706 27.1742 356.801 27.7102 356.99 28.1761C357.183 28.6383 357.467 29.0019 357.842 29.267C358.221 29.5284 358.691 29.6591 359.251 29.6591ZM365.524 31V22.2727H366.865V31H365.524ZM366.206 20.8182C365.945 20.8182 365.719 20.7292 365.53 20.5511C365.344 20.3731 365.251 20.1591 365.251 19.9091C365.251 19.6591 365.344 19.4451 365.53 19.267C365.719 19.089 365.945 19 366.206 19C366.467 19 366.691 19.089 366.876 19.267C367.066 19.4451 367.161 19.6591 367.161 19.9091C367.161 20.1591 367.066 20.3731 366.876 20.5511C366.691 20.7292 366.467 20.8182 366.206 20.8182ZM370.662 25.75V31H369.321V22.2727H370.616V23.6364H370.73C370.935 23.1932 371.245 22.8371 371.662 22.5682C372.079 22.2955 372.616 22.1591 373.276 22.1591C373.866 22.1591 374.384 22.2803 374.827 22.5227C375.27 22.7614 375.615 23.125 375.861 23.6136C376.107 24.0985 376.23 24.7121 376.23 25.4545V31H374.889V25.5455C374.889 24.8598 374.711 24.3258 374.355 23.9432C373.999 23.5568 373.51 23.3636 372.889 23.3636C372.461 23.3636 372.079 23.4564 371.741 23.642C371.408 23.8277 371.145 24.0985 370.952 24.4545C370.759 24.8106 370.662 25.2424 370.662 25.75Z" fill="white"/>
<path d="M16.8864 17.3636L20.3409 27.1591H20.4773L23.9318 17.3636H25.4091L21.1364 29H19.6818L15.4091 17.3636H16.8864ZM27.0398 29V20.2727H28.3807V29H27.0398ZM27.7216 18.8182C27.4602 18.8182 27.2348 18.7292 27.0455 18.5511C26.8598 18.3731 26.767 18.1591 26.767 17.9091C26.767 17.6591 26.8598 17.4451 27.0455 17.267C27.2348 17.089 27.4602 17 27.7216 17C27.983 17 28.2064 17.089 28.392 17.267C28.5814 17.4451 28.6761 17.6591 28.6761 17.9091C28.6761 18.1591 28.5814 18.3731 28.392 18.5511C28.2064 18.7292 27.983 18.8182 27.7216 18.8182ZM34.1321 29.1818C33.4048 29.1818 32.7628 28.9981 32.206 28.6307C31.6491 28.2595 31.2135 27.7367 30.8991 27.0625C30.5848 26.3845 30.4276 25.5833 30.4276 24.6591C30.4276 23.7424 30.5848 22.947 30.8991 22.2727C31.2135 21.5985 31.651 21.0777 32.2116 20.7102C32.7723 20.3428 33.42 20.1591 34.1548 20.1591C34.723 20.1591 35.1719 20.2538 35.5014 20.4432C35.8348 20.6288 36.0885 20.8409 36.2628 21.0795C36.4408 21.3144 36.5791 21.5076 36.6776 21.6591H36.7912V17.3636H38.1321V29H36.8366V27.6591H36.6776C36.5791 27.8182 36.4389 28.0189 36.2571 28.2614C36.0753 28.5 35.8158 28.714 35.4787 28.9034C35.1416 29.089 34.6927 29.1818 34.1321 29.1818ZM34.3139 27.9773C34.8518 27.9773 35.3063 27.8371 35.6776 27.5568C36.0488 27.2727 36.331 26.8807 36.5241 26.3807C36.7173 25.8769 36.8139 25.2955 36.8139 24.6364C36.8139 23.9848 36.7192 23.4148 36.5298 22.9261C36.3404 22.4337 36.0601 22.0511 35.6889 21.7784C35.3177 21.5019 34.8594 21.3636 34.3139 21.3636C33.7457 21.3636 33.2723 21.5095 32.8935 21.8011C32.5185 22.089 32.2363 22.4811 32.0469 22.9773C31.8613 23.4697 31.7685 24.0227 31.7685 24.6364C31.7685 25.2576 31.8632 25.822 32.0526 26.3295C32.2457 26.8333 32.5298 27.2348 32.9048 27.5341C33.2836 27.8295 33.7533 27.9773 34.3139 27.9773ZM44.4332 29.1818C43.5923 29.1818 42.867 28.9962 42.2571 28.625C41.651 28.25 41.1832 27.7273 40.8537 27.0568C40.5279 26.3826 40.3651 25.5985 40.3651 24.7045C40.3651 23.8106 40.5279 23.0227 40.8537 22.3409C41.1832 21.6553 41.6416 21.1212 42.2287 20.7386C42.8196 20.3523 43.509 20.1591 44.2969 20.1591C44.7514 20.1591 45.2003 20.2348 45.6435 20.3864C46.0866 20.5379 46.4901 20.7841 46.8537 21.125C47.2173 21.4621 47.5071 21.9091 47.723 22.4659C47.9389 23.0227 48.0469 23.7083 48.0469 24.5227V25.0909H41.3196V23.9318H46.6832C46.6832 23.4394 46.5848 23 46.3878 22.6136C46.1946 22.2273 45.9181 21.9223 45.5582 21.6989C45.2022 21.4754 44.7817 21.3636 44.2969 21.3636C43.7628 21.3636 43.3007 21.4962 42.9105 21.7614C42.5241 22.0227 42.2268 22.3636 42.0185 22.7841C41.8101 23.2045 41.706 23.6553 41.706 24.1364V24.9091C41.706 25.5682 41.8196 26.1269 42.0469 26.5852C42.2779 27.0398 42.598 27.3864 43.0071 27.625C43.4162 27.8598 43.8916 27.9773 44.4332 27.9773C44.7855 27.9773 45.1037 27.928 45.3878 27.8295C45.6757 27.7273 45.9238 27.5758 46.1321 27.375C46.3404 27.1705 46.5014 26.9167 46.6151 26.6136L47.9105 26.9773C47.7741 27.4167 47.545 27.803 47.223 28.1364C46.901 28.4659 46.5033 28.7235 46.0298 28.9091C45.5563 29.0909 45.0241 29.1818 44.4332 29.1818ZM53.6321 29.1818C52.8442 29.1818 52.1529 28.9943 51.5582 28.6193C50.9673 28.2443 50.5052 27.7197 50.1719 27.0455C49.8423 26.3712 49.6776 25.5833 49.6776 24.6818C49.6776 23.7727 49.8423 22.9792 50.1719 22.3011C50.5052 21.6231 50.9673 21.0966 51.5582 20.7216C52.1529 20.3466 52.8442 20.1591 53.6321 20.1591C54.42 20.1591 55.1094 20.3466 55.7003 20.7216C56.295 21.0966 56.7571 21.6231 57.0866 22.3011C57.42 22.9792 57.5866 23.7727 57.5866 24.6818C57.5866 25.5833 57.42 26.3712 57.0866 27.0455C56.7571 27.7197 56.295 28.2443 55.7003 28.6193C55.1094 28.9943 54.42 29.1818 53.6321 29.1818ZM53.6321 27.9773C54.2306 27.9773 54.723 27.8239 55.1094 27.517C55.4957 27.2102 55.7817 26.8068 55.9673 26.3068C56.1529 25.8068 56.2457 25.2652 56.2457 24.6818C56.2457 24.0985 56.1529 23.5549 55.9673 23.0511C55.7817 22.5473 55.4957 22.1402 55.1094 21.8295C54.723 21.5189 54.2306 21.3636 53.6321 21.3636C53.0336 21.3636 52.5412 21.5189 52.1548 21.8295C51.7685 22.1402 51.4825 22.5473 51.2969 23.0511C51.1113 23.5549 51.0185 24.0985 51.0185 24.6818C51.0185 25.2652 51.1113 25.8068 51.2969 26.3068C51.4825 26.8068 51.7685 27.2102 52.1548 27.517C52.5412 27.8239 53.0336 27.9773 53.6321 27.9773ZM70.679 20.2727C70.6108 19.697 70.3343 19.25 69.8494 18.9318C69.3646 18.6136 68.7699 18.4545 68.0653 18.4545C67.5502 18.4545 67.0994 18.5379 66.7131 18.7045C66.3305 18.8712 66.0313 19.1004 65.8153 19.392C65.6032 19.6837 65.4972 20.0152 65.4972 20.3864C65.4972 20.697 65.571 20.964 65.7188 21.1875C65.8703 21.4072 66.0634 21.5909 66.2983 21.7386C66.5331 21.8826 66.7794 22.0019 67.0369 22.0966C67.2945 22.1875 67.5312 22.2614 67.7472 22.3182L68.929 22.6364C69.232 22.7159 69.5691 22.8258 69.9403 22.9659C70.3153 23.1061 70.6733 23.2973 71.0142 23.5398C71.3589 23.7784 71.643 24.0852 71.8665 24.4602C72.09 24.8352 72.2017 25.2955 72.2017 25.8409C72.2017 26.4697 72.0369 27.0379 71.7074 27.5455C71.3816 28.053 70.9044 28.4564 70.2756 28.7557C69.6506 29.0549 68.8911 29.2045 67.9972 29.2045C67.1638 29.2045 66.4422 29.0701 65.8324 28.8011C65.2263 28.5322 64.7491 28.1572 64.4006 27.6761C64.0559 27.1951 63.8608 26.6364 63.8153 26H65.2699C65.3078 26.4394 65.4555 26.803 65.7131 27.0909C65.9744 27.375 66.304 27.5871 66.7017 27.7273C67.1032 27.8636 67.535 27.9318 67.9972 27.9318C68.535 27.9318 69.018 27.8447 69.446 27.6705C69.8741 27.4924 70.2131 27.2462 70.4631 26.9318C70.7131 26.6136 70.8381 26.2424 70.8381 25.8182C70.8381 25.4318 70.7301 25.1174 70.5142 24.875C70.2983 24.6326 70.0142 24.4356 69.6619 24.2841C69.3097 24.1326 68.929 24 68.5199 23.8864L67.0881 23.4773C66.179 23.2159 65.4593 22.8428 64.929 22.358C64.3987 21.8731 64.1335 21.2386 64.1335 20.4545C64.1335 19.803 64.3097 19.2348 64.6619 18.75C65.018 18.2614 65.4953 17.8826 66.0938 17.6136C66.696 17.3409 67.3684 17.2045 68.1108 17.2045C68.8608 17.2045 69.5275 17.339 70.1108 17.608C70.6941 17.8731 71.1563 18.2367 71.4972 18.6989C71.8419 19.161 72.0237 19.6856 72.0426 20.2727H70.679ZM75.6776 23.75V29H74.3366V17.3636H75.6776V21.6364H75.7912C75.9957 21.1856 76.3026 20.8277 76.7116 20.5625C77.1245 20.2936 77.6738 20.1591 78.3594 20.1591C78.9541 20.1591 79.4749 20.2784 79.9219 20.517C80.3688 20.7519 80.7154 21.1136 80.9616 21.6023C81.2116 22.0871 81.3366 22.7045 81.3366 23.4545V29H79.9957V23.5455C79.9957 22.8523 79.8158 22.3163 79.456 21.9375C79.0999 21.5549 78.6056 21.3636 77.973 21.3636C77.5336 21.3636 77.1397 21.4564 76.7912 21.642C76.4465 21.8277 76.1738 22.0985 75.973 22.4545C75.776 22.8106 75.6776 23.2424 75.6776 23.75ZM86.358 29.2045C85.8049 29.2045 85.303 29.1004 84.8523 28.892C84.4015 28.6799 84.0436 28.375 83.7784 27.9773C83.5133 27.5758 83.3807 27.0909 83.3807 26.5227C83.3807 26.0227 83.4792 25.6174 83.6761 25.3068C83.8731 24.9924 84.1364 24.7462 84.4659 24.5682C84.7955 24.3902 85.1591 24.2576 85.5568 24.1705C85.9583 24.0795 86.3617 24.0076 86.767 23.9545C87.2973 23.8864 87.7273 23.8352 88.0568 23.8011C88.3902 23.7633 88.6326 23.7008 88.7841 23.6136C88.9394 23.5265 89.017 23.375 89.017 23.1591V23.1136C89.017 22.553 88.8636 22.1174 88.5568 21.8068C88.2538 21.4962 87.7936 21.3409 87.1761 21.3409C86.536 21.3409 86.0341 21.4811 85.6705 21.7614C85.3068 22.0417 85.0511 22.3409 84.9034 22.6591L83.6307 22.2045C83.858 21.6742 84.161 21.2614 84.5398 20.9659C84.9223 20.6667 85.339 20.4583 85.7898 20.3409C86.2443 20.2197 86.6913 20.1591 87.1307 20.1591C87.411 20.1591 87.733 20.1932 88.0966 20.2614C88.464 20.3258 88.8182 20.4602 89.1591 20.6648C89.5038 20.8693 89.7898 21.178 90.017 21.5909C90.2443 22.0038 90.358 22.5568 90.358 23.25V29H89.017V27.8182H88.9489C88.858 28.0076 88.7064 28.2102 88.4943 28.4261C88.2822 28.642 88 28.8258 87.6477 28.9773C87.2955 29.1288 86.8655 29.2045 86.358 29.2045ZM86.5625 28C87.0928 28 87.5398 27.8958 87.9034 27.6875C88.2708 27.4792 88.5473 27.2102 88.733 26.8807C88.9223 26.5511 89.017 26.2045 89.017 25.8409V24.6136C88.9602 24.6818 88.8352 24.7443 88.642 24.8011C88.4527 24.8542 88.233 24.9015 87.983 24.9432C87.7367 24.9811 87.4962 25.0152 87.2614 25.0455C87.0303 25.072 86.8428 25.0947 86.6989 25.1136C86.3504 25.1591 86.0246 25.233 85.7216 25.3352C85.4223 25.4337 85.1799 25.5833 84.9943 25.7841C84.8125 25.9811 84.7216 26.25 84.7216 26.5909C84.7216 27.0568 84.8939 27.4091 85.2386 27.6477C85.5871 27.8826 86.0284 28 86.5625 28ZM92.8054 29V20.2727H94.1009V21.5909H94.1918C94.3509 21.1591 94.6387 20.8087 95.0554 20.5398C95.4721 20.2708 95.9418 20.1364 96.4645 20.1364C96.563 20.1364 96.6861 20.1383 96.8338 20.142C96.9815 20.1458 97.0933 20.1515 97.169 20.1591V21.5227C97.1236 21.5114 97.0194 21.4943 96.8565 21.4716C96.6974 21.4451 96.5289 21.4318 96.3509 21.4318C95.9266 21.4318 95.5478 21.5208 95.2145 21.6989C94.8849 21.8731 94.6236 22.1155 94.4304 22.4261C94.241 22.733 94.1463 23.0833 94.1463 23.4773V29H92.8054ZM102.152 29.1818C101.311 29.1818 100.586 28.9962 99.9759 28.625C99.3698 28.25 98.902 27.7273 98.5724 27.0568C98.2467 26.3826 98.0838 25.5985 98.0838 24.7045C98.0838 23.8106 98.2467 23.0227 98.5724 22.3409C98.902 21.6553 99.3603 21.1212 99.9474 20.7386C100.538 20.3523 101.228 20.1591 102.016 20.1591C102.47 20.1591 102.919 20.2348 103.362 20.3864C103.805 20.5379 104.209 20.7841 104.572 21.125C104.936 21.4621 105.226 21.9091 105.442 22.4659C105.658 23.0227 105.766 23.7083 105.766 24.5227V25.0909H99.0384V23.9318H104.402C104.402 23.4394 104.304 23 104.107 22.6136C103.913 22.2273 103.637 21.9223 103.277 21.6989C102.921 21.4754 102.5 21.3636 102.016 21.3636C101.482 21.3636 101.019 21.4962 100.629 21.7614C100.243 22.0227 99.9455 22.3636 99.7372 22.7841C99.5289 23.2045 99.4247 23.6553 99.4247 24.1364V24.9091C99.4247 25.5682 99.5384 26.1269 99.7656 26.5852C99.9967 27.0398 100.317 27.3864 100.726 27.625C101.135 27.8598 101.61 27.9773 102.152 27.9773C102.504 27.9773 102.822 27.928 103.107 27.8295C103.394 27.7273 103.643 27.5758 103.851 27.375C104.059 27.1705 104.22 26.9167 104.334 26.6136L105.629 26.9773C105.493 27.4167 105.264 27.803 104.942 28.1364C104.62 28.4659 104.222 28.7235 103.749 28.9091C103.275 29.0909 102.743 29.1818 102.152 29.1818Z" fill="#2ECC71"/>
<path d="M178.085 100V86.9091H179.67V98.5938H185.756V100H178.085ZM191.994 100.205C191.108 100.205 190.33 99.9936 189.661 99.5717C188.996 99.1499 188.477 98.5597 188.102 97.8011C187.731 97.0426 187.545 96.1562 187.545 95.142C187.545 94.1193 187.731 93.2266 188.102 92.4638C188.477 91.701 188.996 91.1087 189.661 90.6868C190.33 90.2649 191.108 90.054 191.994 90.054C192.881 90.054 193.656 90.2649 194.321 90.6868C194.99 91.1087 195.51 91.701 195.881 92.4638C196.256 93.2266 196.443 94.1193 196.443 95.142C196.443 96.1562 196.256 97.0426 195.881 97.8011C195.51 98.5597 194.99 99.1499 194.321 99.5717C193.656 99.9936 192.881 100.205 191.994 100.205ZM191.994 98.8494C192.668 98.8494 193.222 98.6768 193.656 98.3317C194.091 97.9865 194.413 97.5327 194.621 96.9702C194.83 96.4077 194.935 95.7983 194.935 95.142C194.935 94.4858 194.83 93.8743 194.621 93.3075C194.413 92.7408 194.091 92.2827 193.656 91.9332C193.222 91.5838 192.668 91.4091 191.994 91.4091C191.321 91.4091 190.767 91.5838 190.332 91.9332C189.898 92.2827 189.576 92.7408 189.367 93.3075C189.158 93.8743 189.054 94.4858 189.054 95.142C189.054 95.7983 189.158 96.4077 189.367 96.9702C189.576 97.5327 189.898 97.9865 190.332 98.3317C190.767 98.6768 191.321 98.8494 191.994 98.8494ZM202.709 103.886C201.98 103.886 201.354 103.793 200.83 103.605C200.306 103.422 199.869 103.179 199.519 102.876C199.174 102.578 198.899 102.259 198.695 101.918L199.896 101.074C200.033 101.253 200.205 101.457 200.414 101.688C200.623 101.922 200.909 102.124 201.271 102.295C201.637 102.469 202.117 102.557 202.709 102.557C203.502 102.557 204.156 102.365 204.671 101.982C205.187 101.598 205.445 100.997 205.445 100.179V98.1847H205.317C205.206 98.3636 205.048 98.5852 204.844 98.8494C204.644 99.1094 204.354 99.3416 203.975 99.5462C203.6 99.7464 203.093 99.8466 202.453 99.8466C201.661 99.8466 200.949 99.6591 200.318 99.2841C199.692 98.9091 199.195 98.3636 198.829 97.6477C198.467 96.9318 198.286 96.0625 198.286 95.0398C198.286 94.0341 198.463 93.1584 198.816 92.4126C199.17 91.6626 199.662 91.0831 200.293 90.674C200.923 90.2607 201.652 90.054 202.479 90.054C203.118 90.054 203.625 90.1605 204 90.3736C204.379 90.5824 204.669 90.821 204.869 91.0895C205.074 91.3537 205.232 91.571 205.343 91.7415H205.496V90.1818H206.953V100.281C206.953 101.125 206.762 101.811 206.378 102.339C205.999 102.872 205.487 103.262 204.844 103.509C204.205 103.761 203.493 103.886 202.709 103.886ZM202.658 98.4915C203.263 98.4915 203.774 98.353 204.192 98.076C204.61 97.799 204.927 97.4006 205.144 96.8807C205.362 96.3608 205.47 95.7386 205.47 95.0142C205.47 94.3068 205.364 93.6825 205.151 93.1413C204.938 92.6001 204.622 92.1761 204.205 91.8693C203.787 91.5625 203.271 91.4091 202.658 91.4091C202.019 91.4091 201.486 91.571 201.06 91.8949C200.638 92.2187 200.32 92.6534 200.107 93.1989C199.899 93.7443 199.794 94.3494 199.794 95.0142C199.794 95.696 199.901 96.299 200.114 96.8232C200.331 97.343 200.651 97.7521 201.073 98.0504C201.499 98.3445 202.027 98.4915 202.658 98.4915ZM209.715 100V90.1818H211.223V100H209.715ZM210.482 88.5455C210.188 88.5455 209.934 88.4453 209.721 88.245C209.512 88.0447 209.408 87.804 209.408 87.5227C209.408 87.2415 209.512 87.0007 209.721 86.8004C209.934 86.6001 210.188 86.5 210.482 86.5C210.776 86.5 211.027 86.6001 211.236 86.8004C211.449 87.0007 211.556 87.2415 211.556 87.5227C211.556 87.804 211.449 88.0447 211.236 88.245C211.027 88.4453 210.776 88.5455 210.482 88.5455ZM215.495 94.0938V100H213.986V90.1818H215.444V91.7159H215.571C215.801 91.2173 216.151 90.8168 216.62 90.5142C217.088 90.2074 217.694 90.054 218.435 90.054C219.1 90.054 219.681 90.1903 220.18 90.4631C220.679 90.7315 221.066 91.1406 221.343 91.6903C221.62 92.2358 221.759 92.9261 221.759 93.7614V100H220.25V93.8636C220.25 93.0923 220.05 92.4915 219.65 92.0611C219.249 91.6264 218.699 91.4091 218 91.4091C217.519 91.4091 217.088 91.5135 216.709 91.7223C216.334 91.9311 216.038 92.2358 215.821 92.6364C215.603 93.0369 215.495 93.5227 215.495 94.0938Z" fill="white"/>
<path d="M51.0568 160V151.273H56.3239V152.21H52.1136V155.159H56.0511V156.097H52.1136V159.062H56.392V160H51.0568ZM58.0923 160V153.455H59.0639V154.477H59.1491C59.2855 154.128 59.5057 153.857 59.8097 153.663C60.1136 153.467 60.4787 153.369 60.9048 153.369C61.3366 153.369 61.696 153.467 61.983 153.663C62.2727 153.857 62.4986 154.128 62.6605 154.477H62.7287C62.8963 154.139 63.1477 153.871 63.483 153.672C63.8182 153.47 64.2202 153.369 64.6889 153.369C65.2741 153.369 65.7528 153.553 66.125 153.919C66.4972 154.283 66.6832 154.849 66.6832 155.619V160H65.6776V155.619C65.6776 155.136 65.5455 154.791 65.2812 154.584C65.017 154.376 64.706 154.273 64.348 154.273C63.8878 154.273 63.5313 154.412 63.2784 154.69C63.0256 154.966 62.8991 155.315 62.8991 155.739V160H61.8764V155.517C61.8764 155.145 61.7557 154.845 61.5142 154.618C61.2727 154.388 60.9616 154.273 60.581 154.273C60.3196 154.273 60.0753 154.342 59.848 154.482C59.6236 154.621 59.4418 154.814 59.3026 155.061C59.1662 155.305 59.098 155.588 59.098 155.909V160H58.0923ZM70.4482 160.153C70.0334 160.153 69.657 160.075 69.3189 159.919C68.9808 159.76 68.7124 159.531 68.5135 159.233C68.3146 158.932 68.2152 158.568 68.2152 158.142C68.2152 157.767 68.2891 157.463 68.4368 157.23C68.5845 156.994 68.782 156.81 69.0291 156.676C69.2763 156.543 69.549 156.443 69.8473 156.378C70.1484 156.31 70.451 156.256 70.755 156.216C71.1527 156.165 71.4751 156.126 71.7223 156.101C71.9723 156.072 72.1541 156.026 72.2678 155.96C72.3842 155.895 72.4425 155.781 72.4425 155.619V155.585C72.4425 155.165 72.3274 154.838 72.0973 154.605C71.87 154.372 71.5249 154.256 71.0618 154.256C70.5817 154.256 70.2053 154.361 69.9325 154.571C69.6598 154.781 69.468 155.006 69.3572 155.244L68.4027 154.903C68.5732 154.506 68.8004 154.196 69.0845 153.974C69.3714 153.75 69.6839 153.594 70.022 153.506C70.3629 153.415 70.6982 153.369 71.0277 153.369C71.2379 153.369 71.4794 153.395 71.7521 153.446C72.0277 153.494 72.2933 153.595 72.549 153.749C72.8075 153.902 73.022 154.134 73.1925 154.443C73.3629 154.753 73.4482 155.168 73.4482 155.688V160H72.4425V159.114H72.3913C72.3232 159.256 72.2095 159.408 72.0504 159.57C71.8913 159.732 71.6797 159.869 71.4155 159.983C71.1513 160.097 70.8288 160.153 70.4482 160.153ZM70.6016 159.25C70.9993 159.25 71.3345 159.172 71.6072 159.016C71.8828 158.859 72.0902 158.658 72.2294 158.411C72.3714 158.163 72.4425 157.903 72.4425 157.631V156.71C72.3999 156.761 72.3061 156.808 72.1612 156.851C72.0192 156.891 71.8544 156.926 71.6669 156.957C71.4822 156.986 71.3018 157.011 71.1257 157.034C70.9524 157.054 70.8118 157.071 70.7038 157.085C70.4425 157.119 70.1982 157.175 69.9709 157.251C69.7464 157.325 69.5646 157.437 69.4254 157.588C69.2891 157.736 69.2209 157.937 69.2209 158.193C69.2209 158.543 69.3501 158.807 69.6087 158.986C69.87 159.162 70.201 159.25 70.6016 159.25ZM75.2837 160V153.455H76.2894V160H75.2837ZM75.7951 152.364C75.5991 152.364 75.43 152.297 75.288 152.163C75.1488 152.03 75.0792 151.869 75.0792 151.682C75.0792 151.494 75.1488 151.334 75.288 151.2C75.43 151.067 75.5991 151 75.7951 151C75.9911 151 76.1587 151.067 76.2979 151.2C76.44 151.334 76.511 151.494 76.511 151.682C76.511 151.869 76.44 152.03 76.2979 152.163C76.1587 152.297 75.9911 152.364 75.7951 152.364ZM79.1371 151.273V160H78.1314V151.273H79.1371Z" fill="white"/>
<path d="M346 170H54C51.7909 170 50 171.791 50 174V196C50 198.209 51.7909 200 54 200H346C348.209 200 350 198.209 350 196V174C350 171.791 348.209 170 346 170Z" fill="#2A1F3D" stroke="#555555"/>
<path d="M55.8295 213.455C55.7784 213.023 55.571 212.688 55.2074 212.449C54.8438 212.21 54.3977 212.091 53.8693 212.091C53.483 212.091 53.1449 212.153 52.8551 212.278C52.5682 212.403 52.3438 212.575 52.1818 212.794C52.0227 213.013 51.9432 213.261 51.9432 213.54C51.9432 213.773 51.9986 213.973 52.1094 214.141C52.223 214.305 52.3679 214.443 52.544 214.554C52.7202 214.662 52.9048 214.751 53.098 214.822C53.2912 214.891 53.4688 214.946 53.6307 214.989L54.517 215.227C54.7443 215.287 54.9972 215.369 55.2756 215.474C55.5568 215.58 55.8253 215.723 56.081 215.905C56.3395 216.084 56.5526 216.314 56.7202 216.595C56.8878 216.876 56.9716 217.222 56.9716 217.631C56.9716 218.102 56.848 218.528 56.6009 218.909C56.3565 219.29 55.9986 219.592 55.527 219.817C55.0582 220.041 54.4886 220.153 53.8182 220.153C53.1932 220.153 52.652 220.053 52.1946 219.851C51.7401 219.649 51.3821 219.368 51.1207 219.007C50.8622 218.646 50.7159 218.227 50.6818 217.75H51.7727C51.8011 218.08 51.9119 218.352 52.1051 218.568C52.3011 218.781 52.5483 218.94 52.8466 219.045C53.1477 219.148 53.4716 219.199 53.8182 219.199C54.2216 219.199 54.5838 219.134 54.9048 219.003C55.2259 218.869 55.4801 218.685 55.6676 218.449C55.8551 218.21 55.9489 217.932 55.9489 217.614C55.9489 217.324 55.8679 217.088 55.706 216.906C55.544 216.724 55.331 216.577 55.0668 216.463C54.8026 216.349 54.517 216.25 54.2102 216.165L53.1364 215.858C52.4545 215.662 51.9148 215.382 51.517 215.018C51.1193 214.655 50.9205 214.179 50.9205 213.591C50.9205 213.102 51.0526 212.676 51.3168 212.312C51.5838 211.946 51.9418 211.662 52.3906 211.46C52.8423 211.256 53.3466 211.153 53.9034 211.153C54.4659 211.153 54.9659 211.254 55.4034 211.456C55.8409 211.655 56.1875 211.928 56.4432 212.274C56.7017 212.621 56.8381 213.014 56.8523 213.455H55.8295ZM61.3171 220.136C60.6864 220.136 60.1424 219.997 59.685 219.719C59.2305 219.438 58.8796 219.045 58.6325 218.543C58.3881 218.037 58.266 217.449 58.266 216.778C58.266 216.108 58.3881 215.517 58.6325 215.006C58.8796 214.491 59.2234 214.091 59.6637 213.804C60.1069 213.514 60.6239 213.369 61.2148 213.369C61.5558 213.369 61.8924 213.426 62.2248 213.54C62.5572 213.653 62.8597 213.838 63.1325 214.094C63.4052 214.347 63.6225 214.682 63.7844 215.099C63.9464 215.517 64.0273 216.031 64.0273 216.642V217.068H58.9819V216.199H63.0046C63.0046 215.83 62.9308 215.5 62.783 215.21C62.6381 214.92 62.4308 214.692 62.1609 214.524C61.8938 214.357 61.5785 214.273 61.2148 214.273C60.8143 214.273 60.4677 214.372 60.1751 214.571C59.8853 214.767 59.6623 215.023 59.506 215.338C59.3498 215.653 59.2717 215.991 59.2717 216.352V216.932C59.2717 217.426 59.3569 217.845 59.5273 218.189C59.7006 218.53 59.9407 218.79 60.2475 218.969C60.5543 219.145 60.9109 219.233 61.3171 219.233C61.5813 219.233 61.82 219.196 62.033 219.122C62.2489 219.045 62.435 218.932 62.5913 218.781C62.7475 218.628 62.8683 218.437 62.9535 218.21L63.9251 218.483C63.8228 218.812 63.6509 219.102 63.4094 219.352C63.168 219.599 62.8697 219.793 62.5146 219.932C62.1594 220.068 61.7603 220.136 61.3171 220.136ZM66.5629 216.062V220H65.5572V213.455H66.5288V214.477H66.614C66.7674 214.145 67.0004 213.878 67.3129 213.676C67.6254 213.472 68.0288 213.369 68.5231 213.369C68.9663 213.369 69.354 213.46 69.6864 213.642C70.0188 213.821 70.2773 214.094 70.462 214.46C70.6467 214.824 70.739 215.284 70.739 215.841V220H69.7333V215.909C69.7333 215.395 69.5998 214.994 69.3327 214.707C69.0657 214.418 68.6992 214.273 68.2333 214.273C67.9123 214.273 67.6254 214.342 67.3725 214.482C67.1225 214.621 66.9251 214.824 66.7802 215.091C66.6353 215.358 66.5629 215.682 66.5629 216.062ZM73.5824 216.062V220H72.5767V211.273H73.5824V214.477H73.6676C73.821 214.139 74.0511 213.871 74.358 213.672C74.6676 213.47 75.0795 213.369 75.5938 213.369C76.0398 213.369 76.4304 213.459 76.7656 213.638C77.1009 213.814 77.3608 214.085 77.5455 214.452C77.733 214.815 77.8267 215.278 77.8267 215.841V220H76.821V215.909C76.821 215.389 76.6861 214.987 76.4162 214.703C76.1491 214.416 75.7784 214.273 75.304 214.273C74.9744 214.273 74.679 214.342 74.4176 214.482C74.1591 214.621 73.9545 214.824 73.804 215.091C73.6563 215.358 73.5824 215.682 73.5824 216.062ZM81.5927 220.153C81.1779 220.153 80.8015 220.075 80.4634 219.919C80.1254 219.76 79.8569 219.531 79.658 219.233C79.4592 218.932 79.3597 218.568 79.3597 218.142C79.3597 217.767 79.4336 217.463 79.5813 217.23C79.729 216.994 79.9265 216.81 80.1737 216.676C80.4208 216.543 80.6935 216.443 80.9918 216.378C81.293 216.31 81.5955 216.256 81.8995 216.216C82.2972 216.165 82.6197 216.126 82.8668 216.101C83.1168 216.072 83.2987 216.026 83.4123 215.96C83.5288 215.895 83.587 215.781 83.587 215.619V215.585C83.587 215.165 83.4719 214.838 83.2418 214.605C83.0146 214.372 82.6694 214.256 82.2063 214.256C81.7262 214.256 81.3498 214.361 81.0771 214.571C80.8043 214.781 80.6126 215.006 80.5018 215.244L79.5472 214.903C79.7177 214.506 79.945 214.196 80.229 213.974C80.516 213.75 80.8285 213.594 81.1665 213.506C81.5075 213.415 81.8427 213.369 82.1722 213.369C82.3825 213.369 82.6239 213.395 82.8967 213.446C83.1722 213.494 83.4379 213.595 83.6935 213.749C83.9521 213.902 84.1665 214.134 84.337 214.443C84.5075 214.753 84.5927 215.168 84.5927 215.688V220H83.587V219.114H83.5359C83.4677 219.256 83.354 219.408 83.195 219.57C83.0359 219.732 82.8242 219.869 82.56 219.983C82.2958 220.097 81.9734 220.153 81.5927 220.153ZM81.7461 219.25C82.1438 219.25 82.479 219.172 82.7518 219.016C83.0273 218.859 83.2347 218.658 83.3739 218.411C83.516 218.163 83.587 217.903 83.587 217.631V216.71C83.5444 216.761 83.4506 216.808 83.3058 216.851C83.1637 216.891 82.9989 216.926 82.8114 216.957C82.6268 216.986 82.4464 217.011 82.2702 217.034C82.0969 217.054 81.9563 217.071 81.8484 217.085C81.587 217.119 81.3427 217.175 81.1154 217.251C80.891 217.325 80.7092 217.437 80.57 217.588C80.4336 217.736 80.3654 217.937 80.3654 218.193C80.3654 218.543 80.4947 218.807 80.7532 218.986C81.0146 219.162 81.3455 219.25 81.7461 219.25Z" fill="white"/>
<path d="M346 230H54C51.7909 230 50 231.791 50 234V256C50 258.209 51.7909 260 54 260H346C348.209 260 350 258.209 350 256V234C350 231.791 348.209 230 346 230Z" fill="#2A1F3D" stroke="#555555"/>
<path d="M294 300H106C102.686 300 100 302.686 100 306V334C100 337.314 102.686 340 106 340H294C297.314 340 300 337.314 300 334V306C300 302.686 297.314 300 294 300Z" fill="#2ECC71"/>
<path d="M181.233 325V314.818H187.378V315.912H182.466V319.352H187.06V320.446H182.466V323.906H187.457V325H181.233ZM190.614 320.406V325H189.441V317.364H190.575V318.557H190.674C190.853 318.169 191.125 317.857 191.489 317.622C191.854 317.384 192.325 317.264 192.901 317.264C193.418 317.264 193.871 317.37 194.259 317.582C194.646 317.791 194.948 318.109 195.163 318.537C195.379 318.961 195.487 319.498 195.487 320.148V325H194.313V320.227C194.313 319.627 194.157 319.16 193.846 318.825C193.534 318.487 193.107 318.318 192.563 318.318C192.189 318.318 191.854 318.399 191.559 318.562C191.267 318.724 191.037 318.961 190.868 319.273C190.699 319.584 190.614 319.962 190.614 320.406ZM200.952 317.364V318.358H196.994V317.364H200.952ZM198.148 315.534H199.321V322.812C199.321 323.144 199.369 323.393 199.465 323.558C199.564 323.721 199.69 323.83 199.843 323.886C199.999 323.939 200.163 323.966 200.335 323.966C200.464 323.966 200.57 323.959 200.653 323.946C200.736 323.929 200.802 323.916 200.852 323.906L201.091 324.96C201.011 324.99 200.9 325.02 200.758 325.05C200.615 325.083 200.434 325.099 200.216 325.099C199.884 325.099 199.559 325.028 199.241 324.886C198.926 324.743 198.665 324.526 198.456 324.234C198.25 323.943 198.148 323.575 198.148 323.131V315.534ZM202.716 325V317.364H203.85V318.517H203.93C204.069 318.139 204.321 317.833 204.685 317.597C205.05 317.362 205.461 317.244 205.918 317.244C206.004 317.244 206.112 317.246 206.241 317.249C206.371 317.253 206.468 317.258 206.535 317.264V318.457C206.495 318.447 206.404 318.433 206.261 318.413C206.122 318.389 205.974 318.378 205.819 318.378C205.448 318.378 205.116 318.456 204.824 318.612C204.536 318.764 204.307 318.976 204.138 319.248C203.973 319.516 203.89 319.823 203.89 320.168V325H202.716ZM210.173 325.179C209.689 325.179 209.25 325.088 208.855 324.906C208.461 324.72 208.147 324.453 207.915 324.105C207.683 323.754 207.567 323.33 207.567 322.832C207.567 322.395 207.654 322.04 207.826 321.768C207.998 321.493 208.229 321.278 208.517 321.122C208.805 320.966 209.124 320.85 209.472 320.774C209.823 320.695 210.176 320.632 210.531 320.585C210.995 320.526 211.371 320.481 211.659 320.451C211.951 320.418 212.163 320.363 212.295 320.287C212.431 320.211 212.499 320.078 212.499 319.889V319.849C212.499 319.359 212.365 318.978 212.097 318.706C211.831 318.434 211.429 318.298 210.888 318.298C210.328 318.298 209.889 318.421 209.571 318.666C209.253 318.911 209.029 319.173 208.9 319.452L207.786 319.054C207.985 318.59 208.25 318.229 208.582 317.97C208.916 317.708 209.281 317.526 209.675 317.423C210.073 317.317 210.464 317.264 210.849 317.264C211.094 317.264 211.376 317.294 211.694 317.354C212.015 317.41 212.325 317.528 212.624 317.707C212.925 317.886 213.175 318.156 213.374 318.517C213.573 318.878 213.673 319.362 213.673 319.969V325H212.499V323.966H212.44C212.36 324.132 212.228 324.309 212.042 324.498C211.856 324.687 211.609 324.848 211.301 324.98C210.993 325.113 210.617 325.179 210.173 325.179ZM210.352 324.125C210.816 324.125 211.207 324.034 211.525 323.852C211.846 323.669 212.088 323.434 212.251 323.146C212.416 322.857 212.499 322.554 212.499 322.236V321.162C212.45 321.222 212.34 321.276 212.171 321.326C212.005 321.372 211.813 321.414 211.594 321.45C211.379 321.483 211.169 321.513 210.963 321.54C210.761 321.563 210.597 321.583 210.471 321.599C210.166 321.639 209.881 321.704 209.616 321.793C209.354 321.879 209.142 322.01 208.979 322.186C208.82 322.358 208.741 322.594 208.741 322.892C208.741 323.3 208.892 323.608 209.193 323.817C209.498 324.022 209.884 324.125 210.352 324.125ZM215.814 325V317.364H216.948V318.517H217.027C217.166 318.139 217.418 317.833 217.783 317.597C218.147 317.362 218.558 317.244 219.016 317.244C219.102 317.244 219.21 317.246 219.339 317.249C219.468 317.253 219.566 317.258 219.632 317.264V318.457C219.593 318.447 219.501 318.433 219.359 318.413C219.22 318.389 219.072 318.378 218.916 318.378C218.545 318.378 218.214 318.456 217.922 318.612C217.634 318.764 217.405 318.976 217.236 319.248C217.07 319.516 216.987 319.823 216.987 320.168V325H215.814Z" fill="white"/>
<path d="M400 650H0V700H400V650Z" fill="#1E1A21"/>
<path d="M50 658C50 653.582 53.5817 650 58 650H159C163.418 650 167 653.582 167 658V692C167 696.418 163.418 700 159 700H58C53.5817 700 50 696.418 50 692V658Z" fill="#2D2828"/>
<path d="M241.5 658C241.5 653.582 245.082 650 249.5 650H350.5C354.918 650 358.5 653.582 358.5 658V692C358.5 696.418 354.918 700 350.5 700H249.5C245.082 700 241.5 696.418 241.5 692V658Z" fill="#2D2828"/>
<path d="M254.409 681V669.364H261.432V670.614H255.818V674.545H261.068V675.795H255.818V679.75H261.523V681H254.409ZM265.131 675.75V681H263.79V672.273H265.085V673.636H265.199C265.403 673.193 265.714 672.837 266.131 672.568C266.547 672.295 267.085 672.159 267.744 672.159C268.335 672.159 268.852 672.28 269.295 672.523C269.739 672.761 270.083 673.125 270.33 673.614C270.576 674.098 270.699 674.712 270.699 675.455V681H269.358V675.545C269.358 674.86 269.18 674.326 268.824 673.943C268.468 673.557 267.979 673.364 267.358 673.364C266.93 673.364 266.547 673.456 266.21 673.642C265.877 673.828 265.614 674.098 265.42 674.455C265.227 674.811 265.131 675.242 265.131 675.75ZM279.973 672.273L276.746 681H275.382L272.155 672.273H273.609L276.018 679.227H276.109L278.518 672.273H279.973ZM281.743 681V672.273H283.084V681H281.743ZM282.425 670.818C282.163 670.818 281.938 670.729 281.749 670.551C281.563 670.373 281.47 670.159 281.47 669.909C281.47 669.659 281.563 669.445 281.749 669.267C281.938 669.089 282.163 669 282.425 669C282.686 669 282.91 669.089 283.095 669.267C283.285 669.445 283.379 669.659 283.379 669.909C283.379 670.159 283.285 670.373 283.095 670.551C282.91 670.729 282.686 670.818 282.425 670.818ZM288.108 681.205C287.555 681.205 287.053 681.1 286.602 680.892C286.152 680.68 285.794 680.375 285.528 679.977C285.263 679.576 285.131 679.091 285.131 678.523C285.131 678.023 285.229 677.617 285.426 677.307C285.623 676.992 285.886 676.746 286.216 676.568C286.545 676.39 286.909 676.258 287.307 676.17C287.708 676.08 288.112 676.008 288.517 675.955C289.047 675.886 289.477 675.835 289.807 675.801C290.14 675.763 290.383 675.701 290.534 675.614C290.689 675.527 290.767 675.375 290.767 675.159V675.114C290.767 674.553 290.614 674.117 290.307 673.807C290.004 673.496 289.544 673.341 288.926 673.341C288.286 673.341 287.784 673.481 287.42 673.761C287.057 674.042 286.801 674.341 286.653 674.659L285.381 674.205C285.608 673.674 285.911 673.261 286.29 672.966C286.672 672.667 287.089 672.458 287.54 672.341C287.994 672.22 288.441 672.159 288.881 672.159C289.161 672.159 289.483 672.193 289.847 672.261C290.214 672.326 290.568 672.46 290.909 672.665C291.254 672.869 291.54 673.178 291.767 673.591C291.994 674.004 292.108 674.557 292.108 675.25V681H290.767V679.818H290.699C290.608 680.008 290.456 680.21 290.244 680.426C290.032 680.642 289.75 680.826 289.398 680.977C289.045 681.129 288.616 681.205 288.108 681.205ZM288.312 680C288.843 680 289.29 679.896 289.653 679.688C290.021 679.479 290.297 679.21 290.483 678.881C290.672 678.551 290.767 678.205 290.767 677.841V676.614C290.71 676.682 290.585 676.744 290.392 676.801C290.203 676.854 289.983 676.902 289.733 676.943C289.487 676.981 289.246 677.015 289.011 677.045C288.78 677.072 288.593 677.095 288.449 677.114C288.1 677.159 287.775 677.233 287.472 677.335C287.172 677.434 286.93 677.583 286.744 677.784C286.563 677.981 286.472 678.25 286.472 678.591C286.472 679.057 286.644 679.409 286.989 679.648C287.337 679.883 287.778 680 288.312 680ZM294.555 681V672.273H295.851V673.591H295.942C296.101 673.159 296.389 672.809 296.805 672.54C297.222 672.271 297.692 672.136 298.214 672.136C298.313 672.136 298.436 672.138 298.584 672.142C298.732 672.146 298.843 672.152 298.919 672.159V673.523C298.874 673.511 298.769 673.494 298.607 673.472C298.447 673.445 298.279 673.432 298.101 673.432C297.677 673.432 297.298 673.521 296.964 673.699C296.635 673.873 296.374 674.116 296.18 674.426C295.991 674.733 295.896 675.083 295.896 675.477V681H294.555ZM305.668 669.364L309.122 679.159H309.259L312.713 669.364H314.19L309.918 681H308.463L304.19 669.364H305.668ZM315.821 681V672.273H317.162V681H315.821ZM315.889 671.091L317.276 668.455H318.844L317.071 671.091H315.889ZM322.913 681.182C322.186 681.182 321.544 680.998 320.987 680.631C320.43 680.259 319.995 679.737 319.68 679.062C319.366 678.384 319.209 677.583 319.209 676.659C319.209 675.742 319.366 674.947 319.68 674.273C319.995 673.598 320.432 673.078 320.993 672.71C321.554 672.343 322.201 672.159 322.936 672.159C323.504 672.159 323.953 672.254 324.283 672.443C324.616 672.629 324.87 672.841 325.044 673.08C325.222 673.314 325.36 673.508 325.459 673.659H325.572V669.364H326.913V681H325.618V679.659H325.459C325.36 679.818 325.22 680.019 325.038 680.261C324.857 680.5 324.597 680.714 324.26 680.903C323.923 681.089 323.474 681.182 322.913 681.182ZM323.095 679.977C323.633 679.977 324.088 679.837 324.459 679.557C324.83 679.273 325.112 678.881 325.305 678.381C325.499 677.877 325.595 677.295 325.595 676.636C325.595 675.985 325.5 675.415 325.311 674.926C325.122 674.434 324.841 674.051 324.47 673.778C324.099 673.502 323.641 673.364 323.095 673.364C322.527 673.364 322.054 673.509 321.675 673.801C321.3 674.089 321.018 674.481 320.828 674.977C320.643 675.47 320.55 676.023 320.55 676.636C320.55 677.258 320.644 677.822 320.834 678.33C321.027 678.833 321.311 679.235 321.686 679.534C322.065 679.83 322.535 679.977 323.095 679.977ZM333.214 681.182C332.374 681.182 331.648 680.996 331.038 680.625C330.432 680.25 329.964 679.727 329.635 679.057C329.309 678.383 329.146 677.598 329.146 676.705C329.146 675.811 329.309 675.023 329.635 674.341C329.964 673.655 330.423 673.121 331.01 672.739C331.601 672.352 332.29 672.159 333.078 672.159C333.533 672.159 333.982 672.235 334.425 672.386C334.868 672.538 335.271 672.784 335.635 673.125C335.999 673.462 336.288 673.909 336.504 674.466C336.72 675.023 336.828 675.708 336.828 676.523V677.091H330.101V675.932H335.464C335.464 675.439 335.366 675 335.169 674.614C334.976 674.227 334.699 673.922 334.339 673.699C333.983 673.475 333.563 673.364 333.078 673.364C332.544 673.364 332.082 673.496 331.692 673.761C331.305 674.023 331.008 674.364 330.8 674.784C330.591 675.205 330.487 675.655 330.487 676.136V676.909C330.487 677.568 330.601 678.127 330.828 678.585C331.059 679.04 331.379 679.386 331.788 679.625C332.197 679.86 332.673 679.977 333.214 679.977C333.567 679.977 333.885 679.928 334.169 679.83C334.457 679.727 334.705 679.576 334.913 679.375C335.122 679.17 335.283 678.917 335.396 678.614L336.692 678.977C336.555 679.417 336.326 679.803 336.004 680.136C335.682 680.466 335.285 680.723 334.811 680.909C334.338 681.091 333.805 681.182 333.214 681.182ZM342.413 681.182C341.625 681.182 340.934 680.994 340.339 680.619C339.749 680.244 339.286 679.72 338.953 679.045C338.624 678.371 338.459 677.583 338.459 676.682C338.459 675.773 338.624 674.979 338.953 674.301C339.286 673.623 339.749 673.097 340.339 672.722C340.934 672.347 341.625 672.159 342.413 672.159C343.201 672.159 343.891 672.347 344.482 672.722C345.076 673.097 345.538 673.623 345.868 674.301C346.201 674.979 346.368 675.773 346.368 676.682C346.368 677.583 346.201 678.371 345.868 679.045C345.538 679.72 345.076 680.244 344.482 680.619C343.891 680.994 343.201 681.182 342.413 681.182ZM342.413 679.977C343.012 679.977 343.504 679.824 343.891 679.517C344.277 679.21 344.563 678.807 344.749 678.307C344.934 677.807 345.027 677.265 345.027 676.682C345.027 676.098 344.934 675.555 344.749 675.051C344.563 674.547 344.277 674.14 343.891 673.83C343.504 673.519 343.012 673.364 342.413 673.364C341.815 673.364 341.322 673.519 340.936 673.83C340.55 674.14 340.264 674.547 340.078 675.051C339.893 675.555 339.8 676.098 339.8 676.682C339.8 677.265 339.893 677.807 340.078 678.307C340.264 678.807 340.55 679.21 340.936 679.517C341.322 679.824 341.815 679.977 342.413 679.977Z" fill="white"/>
<path d="M60.4091 669.364H62.0909L66.0455 679.023H66.1818L70.1364 669.364H71.8182V681H70.5V672.159H70.3864L66.75 681H65.4773L61.8409 672.159H61.7273V681H60.4091V669.364ZM78.1207 681.182C77.2798 681.182 76.5545 680.996 75.9446 680.625C75.3385 680.25 74.8707 679.727 74.5412 679.057C74.2154 678.383 74.0526 677.598 74.0526 676.705C74.0526 675.811 74.2154 675.023 74.5412 674.341C74.8707 673.655 75.3291 673.121 75.9162 672.739C76.5071 672.352 77.1965 672.159 77.9844 672.159C78.4389 672.159 78.8878 672.235 79.331 672.386C79.7741 672.538 80.1776 672.784 80.5412 673.125C80.9048 673.462 81.1946 673.909 81.4105 674.466C81.6264 675.023 81.7344 675.708 81.7344 676.523V677.091H75.0071V675.932H80.3707C80.3707 675.439 80.2723 675 80.0753 674.614C79.8821 674.227 79.6056 673.922 79.2457 673.699C78.8897 673.475 78.4692 673.364 77.9844 673.364C77.4503 673.364 76.9882 673.496 76.598 673.761C76.2116 674.023 75.9143 674.364 75.706 674.784C75.4976 675.205 75.3935 675.655 75.3935 676.136V676.909C75.3935 677.568 75.5071 678.127 75.7344 678.585C75.9654 679.04 76.2855 679.386 76.6946 679.625C77.1037 679.86 77.5791 679.977 78.1207 679.977C78.473 679.977 78.7912 679.928 79.0753 679.83C79.3632 679.727 79.6113 679.576 79.8196 679.375C80.0279 679.17 80.1889 678.917 80.3026 678.614L81.598 678.977C81.4616 679.417 81.2325 679.803 80.9105 680.136C80.5885 680.466 80.1908 680.723 79.7173 680.909C79.2438 681.091 78.7116 681.182 78.1207 681.182ZM89.2741 677.432V672.273H90.6151V681H89.2741V679.523H89.1832C88.9787 679.966 88.6605 680.343 88.2287 680.653C87.7969 680.96 87.2514 681.114 86.5923 681.114C86.0469 681.114 85.562 680.994 85.1378 680.756C84.7135 680.513 84.3802 680.15 84.1378 679.665C83.8954 679.176 83.7741 678.561 83.7741 677.818V672.273H85.1151V677.727C85.1151 678.364 85.2931 678.871 85.6491 679.25C86.009 679.629 86.4673 679.818 87.0241 679.818C87.3575 679.818 87.6965 679.733 88.0412 679.562C88.3897 679.392 88.6813 679.131 88.9162 678.778C89.1548 678.426 89.2741 677.977 89.2741 677.432ZM99.2528 674.227L98.0483 674.568C97.9725 674.367 97.8608 674.172 97.7131 673.983C97.5691 673.79 97.3722 673.631 97.1222 673.506C96.8722 673.381 96.5521 673.318 96.1619 673.318C95.6278 673.318 95.1828 673.441 94.8267 673.688C94.4744 673.93 94.2983 674.239 94.2983 674.614C94.2983 674.947 94.4195 675.21 94.6619 675.403C94.9044 675.597 95.2831 675.758 95.7983 675.886L97.0938 676.205C97.8741 676.394 98.4555 676.684 98.8381 677.074C99.2206 677.46 99.4119 677.958 99.4119 678.568C99.4119 679.068 99.268 679.515 98.9801 679.909C98.696 680.303 98.2983 680.614 97.7869 680.841C97.2756 681.068 96.6809 681.182 96.0028 681.182C95.1127 681.182 94.3759 680.989 93.7926 680.602C93.2093 680.216 92.84 679.652 92.6847 678.909L93.9574 678.591C94.0786 679.061 94.3078 679.413 94.6449 679.648C94.9858 679.883 95.4309 680 95.9801 680C96.6051 680 97.1013 679.867 97.4688 679.602C97.84 679.333 98.0256 679.011 98.0256 678.636C98.0256 678.333 97.9195 678.08 97.7074 677.875C97.4953 677.667 97.1695 677.511 96.7301 677.409L95.2756 677.068C94.4763 676.879 93.8892 676.585 93.5142 676.188C93.143 675.786 92.9574 675.284 92.9574 674.682C92.9574 674.189 93.0956 673.754 93.3722 673.375C93.6525 672.996 94.0331 672.699 94.5142 672.483C94.9991 672.267 95.5483 672.159 96.1619 672.159C97.0256 672.159 97.7036 672.348 98.196 672.727C98.6922 673.106 99.0445 673.606 99.2528 674.227ZM106.589 669.364L110.044 679.159H110.18L113.635 669.364H115.112L110.839 681H109.385L105.112 669.364H106.589ZM116.743 681V672.273H118.084V681H116.743ZM116.811 671.091L118.197 668.455H119.766L117.993 671.091H116.811ZM123.835 681.182C123.108 681.182 122.466 680.998 121.909 680.631C121.352 680.259 120.917 679.737 120.602 679.062C120.288 678.384 120.131 677.583 120.131 676.659C120.131 675.742 120.288 674.947 120.602 674.273C120.917 673.598 121.354 673.078 121.915 672.71C122.475 672.343 123.123 672.159 123.858 672.159C124.426 672.159 124.875 672.254 125.205 672.443C125.538 672.629 125.792 672.841 125.966 673.08C126.144 673.314 126.282 673.508 126.381 673.659H126.494V669.364H127.835V681H126.54V679.659H126.381C126.282 679.818 126.142 680.019 125.96 680.261C125.778 680.5 125.519 680.714 125.182 680.903C124.845 681.089 124.396 681.182 123.835 681.182ZM124.017 679.977C124.555 679.977 125.009 679.837 125.381 679.557C125.752 679.273 126.034 678.881 126.227 678.381C126.42 677.877 126.517 677.295 126.517 676.636C126.517 675.985 126.422 675.415 126.233 674.926C126.044 674.434 125.763 674.051 125.392 673.778C125.021 673.502 124.563 673.364 124.017 673.364C123.449 673.364 122.975 673.509 122.597 673.801C122.222 674.089 121.939 674.481 121.75 674.977C121.564 675.47 121.472 676.023 121.472 676.636C121.472 677.258 121.566 677.822 121.756 678.33C121.949 678.833 122.233 679.235 122.608 679.534C122.987 679.83 123.456 679.977 124.017 679.977ZM134.136 681.182C133.295 681.182 132.57 680.996 131.96 680.625C131.354 680.25 130.886 679.727 130.557 679.057C130.231 678.383 130.068 677.598 130.068 676.705C130.068 675.811 130.231 675.023 130.557 674.341C130.886 673.655 131.345 673.121 131.932 672.739C132.523 672.352 133.212 672.159 134 672.159C134.455 672.159 134.903 672.235 135.347 672.386C135.79 672.538 136.193 672.784 136.557 673.125C136.92 673.462 137.21 673.909 137.426 674.466C137.642 675.023 137.75 675.708 137.75 676.523V677.091H131.023V675.932H136.386C136.386 675.439 136.288 675 136.091 674.614C135.898 674.227 135.621 673.922 135.261 673.699C134.905 673.475 134.485 673.364 134 673.364C133.466 673.364 133.004 673.496 132.614 673.761C132.227 674.023 131.93 674.364 131.722 674.784C131.513 675.205 131.409 675.655 131.409 676.136V676.909C131.409 677.568 131.523 678.127 131.75 678.585C131.981 679.04 132.301 679.386 132.71 679.625C133.119 679.86 133.595 679.977 134.136 679.977C134.489 679.977 134.807 679.928 135.091 679.83C135.379 679.727 135.627 679.576 135.835 679.375C136.044 679.17 136.205 678.917 136.318 678.614L137.614 678.977C137.477 679.417 137.248 679.803 136.926 680.136C136.604 680.466 136.206 680.723 135.733 680.909C135.259 681.091 134.727 681.182 134.136 681.182ZM143.335 681.182C142.547 681.182 141.856 680.994 141.261 680.619C140.67 680.244 140.208 679.72 139.875 679.045C139.545 678.371 139.381 677.583 139.381 676.682C139.381 675.773 139.545 674.979 139.875 674.301C140.208 673.623 140.67 673.097 141.261 672.722C141.856 672.347 142.547 672.159 143.335 672.159C144.123 672.159 144.813 672.347 145.403 672.722C145.998 673.097 146.46 673.623 146.79 674.301C147.123 674.979 147.29 675.773 147.29 676.682C147.29 677.583 147.123 678.371 146.79 679.045C146.46 679.72 145.998 680.244 145.403 680.619C144.813 680.994 144.123 681.182 143.335 681.182ZM143.335 679.977C143.934 679.977 144.426 679.824 144.812 679.517C145.199 679.21 145.485 678.807 145.67 678.307C145.856 677.807 145.949 677.265 145.949 676.682C145.949 676.098 145.856 675.555 145.67 675.051C145.485 674.547 145.199 674.14 144.812 673.83C144.426 673.519 143.934 673.364 143.335 673.364C142.737 673.364 142.244 673.519 141.858 673.83C141.472 674.14 141.186 674.547 141 675.051C140.814 675.555 140.722 676.098 140.722 676.682C140.722 677.265 140.814 677.807 141 678.307C141.186 678.807 141.472 679.21 141.858 679.517C142.244 679.824 142.737 679.977 143.335 679.977ZM155.518 674.227L154.314 674.568C154.238 674.367 154.126 674.172 153.979 673.983C153.835 673.79 153.638 673.631 153.388 673.506C153.138 673.381 152.818 673.318 152.428 673.318C151.893 673.318 151.448 673.441 151.092 673.688C150.74 673.93 150.564 674.239 150.564 674.614C150.564 674.947 150.685 675.21 150.928 675.403C151.17 675.597 151.549 675.758 152.064 675.886L153.359 676.205C154.14 676.394 154.721 676.684 155.104 677.074C155.486 677.46 155.678 677.958 155.678 678.568C155.678 679.068 155.534 679.515 155.246 679.909C154.962 680.303 154.564 680.614 154.053 680.841C153.541 681.068 152.946 681.182 152.268 681.182C151.378 681.182 150.642 680.989 150.058 680.602C149.475 680.216 149.106 679.652 148.95 678.909L150.223 678.591C150.344 679.061 150.573 679.413 150.911 679.648C151.251 679.883 151.696 680 152.246 680C152.871 680 153.367 679.867 153.734 679.602C154.106 679.333 154.291 679.011 154.291 678.636C154.291 678.333 154.185 678.08 153.973 677.875C153.761 677.667 153.435 677.511 152.996 677.409L151.541 677.068C150.742 676.879 150.155 676.585 149.78 676.188C149.409 675.786 149.223 675.284 149.223 674.682C149.223 674.189 149.361 673.754 149.638 673.375C149.918 672.996 150.299 672.699 150.78 672.483C151.265 672.267 151.814 672.159 152.428 672.159C153.291 672.159 153.969 672.348 154.462 672.727C154.958 673.106 155.31 673.606 155.518 674.227Z" fill="white"/>
<path d="M50 658C50 653.582 53.5817 650 58 650H159C163.418 650 167 653.582 167 658V692C167 696.418 163.418 700 159 700H58C53.5817 700 50 696.418 50 692V658Z" fill="#2D2828"/>
<path d="M241.5 658C241.5 653.582 245.082 650 249.5 650H350.5C354.918 650 358.5 653.582 358.5 658V692C358.5 696.418 354.918 700 350.5 700H249.5C245.082 700 241.5 696.418 241.5 692V658Z" fill="#2D2828"/>
<path d="M254.409 681V669.364H261.432V670.614H255.818V674.545H261.068V675.795H255.818V679.75H261.523V681H254.409ZM265.131 675.75V681H263.79V672.273H265.085V673.636H265.199C265.403 673.193 265.714 672.837 266.131 672.568C266.547 672.295 267.085 672.159 267.744 672.159C268.335 672.159 268.852 672.28 269.295 672.523C269.739 672.761 270.083 673.125 270.33 673.614C270.576 674.098 270.699 674.712 270.699 675.455V681H269.358V675.545C269.358 674.86 269.18 674.326 268.824 673.943C268.468 673.557 267.979 673.364 267.358 673.364C266.93 673.364 266.547 673.456 266.21 673.642C265.877 673.828 265.614 674.098 265.42 674.455C265.227 674.811 265.131 675.242 265.131 675.75ZM279.973 672.273L276.746 681H275.382L272.155 672.273H273.609L276.018 679.227H276.109L278.518 672.273H279.973ZM281.743 681V672.273H283.084V681H281.743ZM282.425 670.818C282.163 670.818 281.938 670.729 281.749 670.551C281.563 670.373 281.47 670.159 281.47 669.909C281.47 669.659 281.563 669.445 281.749 669.267C281.938 669.089 282.163 669 282.425 669C282.686 669 282.91 669.089 283.095 669.267C283.285 669.445 283.379 669.659 283.379 669.909C283.379 670.159 283.285 670.373 283.095 670.551C282.91 670.729 282.686 670.818 282.425 670.818ZM288.108 681.205C287.555 681.205 287.053 681.1 286.602 680.892C286.152 680.68 285.794 680.375 285.528 679.977C285.263 679.576 285.131 679.091 285.131 678.523C285.131 678.023 285.229 677.617 285.426 677.307C285.623 676.992 285.886 676.746 286.216 676.568C286.545 676.39 286.909 676.258 287.307 676.17C287.708 676.08 288.112 676.008 288.517 675.955C289.047 675.886 289.477 675.835 289.807 675.801C290.14 675.763 290.383 675.701 290.534 675.614C290.689 675.527 290.767 675.375 290.767 675.159V675.114C290.767 674.553 290.614 674.117 290.307 673.807C290.004 673.496 289.544 673.341 288.926 673.341C288.286 673.341 287.784 673.481 287.42 673.761C287.057 674.042 286.801 674.341 286.653 674.659L285.381 674.205C285.608 673.674 285.911 673.261 286.29 672.966C286.672 672.667 287.089 672.458 287.54 672.341C287.994 672.22 288.441 672.159 288.881 672.159C289.161 672.159 289.483 672.193 289.847 672.261C290.214 672.326 290.568 672.46 290.909 672.665C291.254 672.869 291.54 673.178 291.767 673.591C291.994 674.004 292.108 674.557 292.108 675.25V681H290.767V679.818H290.699C290.608 680.008 290.456 680.21 290.244 680.426C290.032 680.642 289.75 680.826 289.398 680.977C289.045 681.129 288.616 681.205 288.108 681.205ZM288.312 680C288.843 680 289.29 679.896 289.653 679.688C290.021 679.479 290.297 679.21 290.483 678.881C290.672 678.551 290.767 678.205 290.767 677.841V676.614C290.71 676.682 290.585 676.744 290.392 676.801C290.203 676.854 289.983 676.902 289.733 676.943C289.487 676.981 289.246 677.015 289.011 677.045C288.78 677.072 288.593 677.095 288.449 677.114C288.1 677.159 287.775 677.233 287.472 677.335C287.172 677.434 286.93 677.583 286.744 677.784C286.563 677.981 286.472 678.25 286.472 678.591C286.472 679.057 286.644 679.409 286.989 679.648C287.337 679.883 287.778 680 288.312 680ZM294.555 681V672.273H295.851V673.591H295.942C296.101 673.159 296.389 672.809 296.805 672.54C297.222 672.271 297.692 672.136 298.214 672.136C298.313 672.136 298.436 672.138 298.584 672.142C298.732 672.146 298.843 672.152 298.919 672.159V673.523C298.874 673.511 298.769 673.494 298.607 673.472C298.447 673.445 298.279 673.432 298.101 673.432C297.677 673.432 297.298 673.521 296.964 673.699C296.635 673.873 296.374 674.116 296.18 674.426C295.991 674.733 295.896 675.083 295.896 675.477V681H294.555ZM305.668 669.364L309.122 679.159H309.259L312.713 669.364H314.19L309.918 681H308.463L304.19 669.364H305.668ZM315.821 681V672.273H317.162V681H315.821ZM315.889 671.091L317.276 668.455H318.844L317.071 671.091H315.889ZM322.913 681.182C322.186 681.182 321.544 680.998 320.987 680.631C320.43 680.259 319.995 679.737 319.68 679.062C319.366 678.384 319.209 677.583 319.209 676.659C319.209 675.742 319.366 674.947 319.68 674.273C319.995 673.598 320.432 673.078 320.993 672.71C321.554 672.343 322.201 672.159 322.936 672.159C323.504 672.159 323.953 672.254 324.283 672.443C324.616 672.629 324.87 672.841 325.044 673.08C325.222 673.314 325.36 673.508 325.459 673.659H325.572V669.364H326.913V681H325.618V679.659H325.459C325.36 679.818 325.22 680.019 325.038 680.261C324.857 680.5 324.597 680.714 324.26 680.903C323.923 681.089 323.474 681.182 322.913 681.182ZM323.095 679.977C323.633 679.977 324.088 679.837 324.459 679.557C324.83 679.273 325.112 678.881 325.305 678.381C325.499 677.877 325.595 677.295 325.595 676.636C325.595 675.985 325.5 675.415 325.311 674.926C325.122 674.434 324.841 674.051 324.47 673.778C324.099 673.502 323.641 673.364 323.095 673.364C322.527 673.364 322.054 673.509 321.675 673.801C321.3 674.089 321.018 674.481 320.828 674.977C320.643 675.47 320.55 676.023 320.55 676.636C320.55 677.258 320.644 677.822 320.834 678.33C321.027 678.833 321.311 679.235 321.686 679.534C322.065 679.83 322.535 679.977 323.095 679.977ZM333.214 681.182C332.374 681.182 331.648 680.996 331.038 680.625C330.432 680.25 329.964 679.727 329.635 679.057C329.309 678.383 329.146 677.598 329.146 676.705C329.146 675.811 329.309 675.023 329.635 674.341C329.964 673.655 330.423 673.121 331.01 672.739C331.601 672.352 332.29 672.159 333.078 672.159C333.533 672.159 333.982 672.235 334.425 672.386C334.868 672.538 335.271 672.784 335.635 673.125C335.999 673.462 336.288 673.909 336.504 674.466C336.72 675.023 336.828 675.708 336.828 676.523V677.091H330.101V675.932H335.464C335.464 675.439 335.366 675 335.169 674.614C334.976 674.227 334.699 673.922 334.339 673.699C333.983 673.475 333.563 673.364 333.078 673.364C332.544 673.364 332.082 673.496 331.692 673.761C331.305 674.023 331.008 674.364 330.8 674.784C330.591 675.205 330.487 675.655 330.487 676.136V676.909C330.487 677.568 330.601 678.127 330.828 678.585C331.059 679.04 331.379 679.386 331.788 679.625C332.197 679.86 332.673 679.977 333.214 679.977C333.567 679.977 333.885 679.928 334.169 679.83C334.457 679.727 334.705 679.576 334.913 679.375C335.122 679.17 335.283 678.917 335.396 678.614L336.692 678.977C336.555 679.417 336.326 679.803 336.004 680.136C335.682 680.466 335.285 680.723 334.811 680.909C334.338 681.091 333.805 681.182 333.214 681.182ZM342.413 681.182C341.625 681.182 340.934 680.994 340.339 680.619C339.749 680.244 339.286 679.72 338.953 679.045C338.624 678.371 338.459 677.583 338.459 676.682C338.459 675.773 338.624 674.979 338.953 674.301C339.286 673.623 339.749 673.097 340.339 672.722C340.934 672.347 341.625 672.159 342.413 672.159C343.201 672.159 343.891 672.347 344.482 672.722C345.076 673.097 345.538 673.623 345.868 674.301C346.201 674.979 346.368 675.773 346.368 676.682C346.368 677.583 346.201 678.371 345.868 679.045C345.538 679.72 345.076 680.244 344.482 680.619C343.891 680.994 343.201 681.182 342.413 681.182ZM342.413 679.977C343.012 679.977 343.504 679.824 343.891 679.517C344.277 679.21 344.563 678.807 344.749 678.307C344.934 677.807 345.027 677.265 345.027 676.682C345.027 676.098 344.934 675.555 344.749 675.051C344.563 674.547 344.277 674.14 343.891 673.83C343.504 673.519 343.012 673.364 342.413 673.364C341.815 673.364 341.322 673.519 340.936 673.83C340.55 674.14 340.264 674.547 340.078 675.051C339.893 675.555 339.8 676.098 339.8 676.682C339.8 677.265 339.893 677.807 340.078 678.307C340.264 678.807 340.55 679.21 340.936 679.517C341.322 679.824 341.815 679.977 342.413 679.977Z" fill="white"/>
<path d="M60.4091 669.364H62.0909L66.0455 679.023H66.1818L70.1364 669.364H71.8182V681H70.5V672.159H70.3864L66.75 681H65.4773L61.8409 672.159H61.7273V681H60.4091V669.364ZM78.1207 681.182C77.2798 681.182 76.5545 680.996 75.9446 680.625C75.3385 680.25 74.8707 679.727 74.5412 679.057C74.2154 678.383 74.0526 677.598 74.0526 676.705C74.0526 675.811 74.2154 675.023 74.5412 674.341C74.8707 673.655 75.3291 673.121 75.9162 672.739C76.5071 672.352 77.1965 672.159 77.9844 672.159C78.4389 672.159 78.8878 672.235 79.331 672.386C79.7741 672.538 80.1776 672.784 80.5412 673.125C80.9048 673.462 81.1946 673.909 81.4105 674.466C81.6264 675.023 81.7344 675.708 81.7344 676.523V677.091H75.0071V675.932H80.3707C80.3707 675.439 80.2723 675 80.0753 674.614C79.8821 674.227 79.6056 673.922 79.2457 673.699C78.8897 673.475 78.4692 673.364 77.9844 673.364C77.4503 673.364 76.9882 673.496 76.598 673.761C76.2116 674.023 75.9143 674.364 75.706 674.784C75.4976 675.205 75.3935 675.655 75.3935 676.136V676.909C75.3935 677.568 75.5071 678.127 75.7344 678.585C75.9654 679.04 76.2855 679.386 76.6946 679.625C77.1037 679.86 77.5791 679.977 78.1207 679.977C78.473 679.977 78.7912 679.928 79.0753 679.83C79.3632 679.727 79.6113 679.576 79.8196 679.375C80.0279 679.17 80.1889 678.917 80.3026 678.614L81.598 678.977C81.4616 679.417 81.2325 679.803 80.9105 680.136C80.5885 680.466 80.1908 680.723 79.7173 680.909C79.2438 681.091 78.7116 681.182 78.1207 681.182ZM89.2741 677.432V672.273H90.6151V681H89.2741V679.523H89.1832C88.9787 679.966 88.6605 680.343 88.2287 680.653C87.7969 680.96 87.2514 681.114 86.5923 681.114C86.0469 681.114 85.562 680.994 85.1378 680.756C84.7135 680.513 84.3802 680.15 84.1378 679.665C83.8954 679.176 83.7741 678.561 83.7741 677.818V672.273H85.1151V677.727C85.1151 678.364 85.2931 678.871 85.6491 679.25C86.009 679.629 86.4673 679.818 87.0241 679.818C87.3575 679.818 87.6965 679.733 88.0412 679.562C88.3897 679.392 88.6813 679.131 88.9162 678.778C89.1548 678.426 89.2741 677.977 89.2741 677.432ZM99.2528 674.227L98.0483 674.568C97.9725 674.367 97.8608 674.172 97.7131 673.983C97.5691 673.79 97.3722 673.631 97.1222 673.506C96.8722 673.381 96.5521 673.318 96.1619 673.318C95.6278 673.318 95.1828 673.441 94.8267 673.688C94.4744 673.93 94.2983 674.239 94.2983 674.614C94.2983 674.947 94.4195 675.21 94.6619 675.403C94.9044 675.597 95.2831 675.758 95.7983 675.886L97.0938 676.205C97.8741 676.394 98.4555 676.684 98.8381 677.074C99.2206 677.46 99.4119 677.958 99.4119 678.568C99.4119 679.068 99.268 679.515 98.9801 679.909C98.696 680.303 98.2983 680.614 97.7869 680.841C97.2756 681.068 96.6809 681.182 96.0028 681.182C95.1127 681.182 94.3759 680.989 93.7926 680.602C93.2093 680.216 92.84 679.652 92.6847 678.909L93.9574 678.591C94.0786 679.061 94.3078 679.413 94.6449 679.648C94.9858 679.883 95.4309 680 95.9801 680C96.6051 680 97.1013 679.867 97.4688 679.602C97.84 679.333 98.0256 679.011 98.0256 678.636C98.0256 678.333 97.9195 678.08 97.7074 677.875C97.4953 677.667 97.1695 677.511 96.7301 677.409L95.2756 677.068C94.4763 676.879 93.8892 676.585 93.5142 676.188C93.143 675.786 92.9574 675.284 92.9574 674.682C92.9574 674.189 93.0956 673.754 93.3722 673.375C93.6525 672.996 94.0331 672.699 94.5142 672.483C94.9991 672.267 95.5483 672.159 96.1619 672.159C97.0256 672.159 97.7036 672.348 98.196 672.727C98.6922 673.106 99.0445 673.606 99.2528 674.227ZM106.589 669.364L110.044 679.159H110.18L113.635 669.364H115.112L110.839 681H109.385L105.112 669.364H106.589ZM116.743 681V672.273H118.084V681H116.743ZM116.811 671.091L118.197 668.455H119.766L117.993 671.091H116.811ZM123.835 681.182C123.108 681.182 122.466 680.998 121.909 680.631C121.352 680.259 120.917 679.737 120.602 679.062C120.288 678.384 120.131 677.583 120.131 676.659C120.131 675.742 120.288 674.947 120.602 674.273C120.917 673.598 121.354 673.078 121.915 672.71C122.475 672.343 123.123 672.159 123.858 672.159C124.426 672.159 124.875 672.254 125.205 672.443C125.538 672.629 125.792 672.841 125.966 673.08C126.144 673.314 126.282 673.508 126.381 673.659H126.494V669.364H127.835V681H126.54V679.659H126.381C126.282 679.818 126.142 680.019 125.96 680.261C125.778 680.5 125.519 680.714 125.182 680.903C124.845 681.089 124.396 681.182 123.835 681.182ZM124.017 679.977C124.555 679.977 125.009 679.837 125.381 679.557C125.752 679.273 126.034 678.881 126.227 678.381C126.42 677.877 126.517 677.295 126.517 676.636C126.517 675.985 126.422 675.415 126.233 674.926C126.044 674.434 125.763 674.051 125.392 673.778C125.021 673.502 124.563 673.364 124.017 673.364C123.449 673.364 122.975 673.509 122.597 673.801C122.222 674.089 121.939 674.481 121.75 674.977C121.564 675.47 121.472 676.023 121.472 676.636C121.472 677.258 121.566 677.822 121.756 678.33C121.949 678.833 122.233 679.235 122.608 679.534C122.987 679.83 123.456 679.977 124.017 679.977ZM134.136 681.182C133.295 681.182 132.57 680.996 131.96 680.625C131.354 680.25 130.886 679.727 130.557 679.057C130.231 678.383 130.068 677.598 130.068 676.705C130.068 675.811 130.231 675.023 130.557 674.341C130.886 673.655 131.345 673.121 131.932 672.739C132.523 672.352 133.212 672.159 134 672.159C134.455 672.159 134.903 672.235 135.347 672.386C135.79 672.538 136.193 672.784 136.557 673.125C136.92 673.462 137.21 673.909 137.426 674.466C137.642 675.023 137.75 675.708 137.75 676.523V677.091H131.023V675.932H136.386C136.386 675.439 136.288 675 136.091 674.614C135.898 674.227 135.621 673.922 135.261 673.699C134.905 673.475 134.485 673.364 134 673.364C133.466 673.364 133.004 673.496 132.614 673.761C132.227 674.023 131.93 674.364 131.722 674.784C131.513 675.205 131.409 675.655 131.409 676.136V676.909C131.409 677.568 131.523 678.127 131.75 678.585C131.981 679.04 132.301 679.386 132.71 679.625C133.119 679.86 133.595 679.977 134.136 679.977C134.489 679.977 134.807 679.928 135.091 679.83C135.379 679.727 135.627 679.576 135.835 679.375C136.044 679.17 136.205 678.917 136.318 678.614L137.614 678.977C137.477 679.417 137.248 679.803 136.926 680.136C136.604 680.466 136.206 680.723 135.733 680.909C135.259 681.091 134.727 681.182 134.136 681.182ZM143.335 681.182C142.547 681.182 141.856 680.994 141.261 680.619C140.67 680.244 140.208 679.72 139.875 679.045C139.545 678.371 139.381 677.583 139.381 676.682C139.381 675.773 139.545 674.979 139.875 674.301C140.208 673.623 140.67 673.097 141.261 672.722C141.856 672.347 142.547 672.159 143.335 672.159C144.123 672.159 144.813 672.347 145.403 672.722C145.998 673.097 146.46 673.623 146.79 674.301C147.123 674.979 147.29 675.773 147.29 676.682C147.29 677.583 147.123 678.371 146.79 679.045C146.46 679.72 145.998 680.244 145.403 680.619C144.813 680.994 144.123 681.182 143.335 681.182ZM143.335 679.977C143.934 679.977 144.426 679.824 144.812 679.517C145.199 679.21 145.485 678.807 145.67 678.307C145.856 677.807 145.949 677.265 145.949 676.682C145.949 676.098 145.856 675.555 145.67 675.051C145.485 674.547 145.199 674.14 144.812 673.83C144.426 673.519 143.934 673.364 143.335 673.364C142.737 673.364 142.244 673.519 141.858 673.83C141.472 674.14 141.186 674.547 141 675.051C140.814 675.555 140.722 676.098 140.722 676.682C140.722 677.265 140.814 677.807 141 678.307C141.186 678.807 141.472 679.21 141.858 679.517C142.244 679.824 142.737 679.977 143.335 679.977ZM155.518 674.227L154.314 674.568C154.238 674.367 154.126 674.172 153.979 673.983C153.835 673.79 153.638 673.631 153.388 673.506C153.138 673.381 152.818 673.318 152.428 673.318C151.893 673.318 151.448 673.441 151.092 673.688C150.74 673.93 150.564 674.239 150.564 674.614C150.564 674.947 150.685 675.21 150.928 675.403C151.17 675.597 151.549 675.758 152.064 675.886L153.359 676.205C154.14 676.394 154.721 676.684 155.104 677.074C155.486 677.46 155.678 677.958 155.678 678.568C155.678 679.068 155.534 679.515 155.246 679.909C154.962 680.303 154.564 680.614 154.053 680.841C153.541 681.068 152.946 681.182 152.268 681.182C151.378 681.182 150.642 680.989 150.058 680.602C149.475 680.216 149.106 679.652 148.95 678.909L150.223 678.591C150.344 679.061 150.573 679.413 150.911 679.648C151.251 679.883 151.696 680 152.246 680C152.871 680 153.367 679.867 153.734 679.602C154.106 679.333 154.291 679.011 154.291 678.636C154.291 678.333 154.185 678.08 153.973 677.875C153.761 677.667 153.435 677.511 152.996 677.409L151.541 677.068C150.742 676.879 150.155 676.585 149.78 676.188C149.409 675.786 149.223 675.284 149.223 674.682C149.223 674.189 149.361 673.754 149.638 673.375C149.918 672.996 150.299 672.699 150.78 672.483C151.265 672.267 151.814 672.159 152.428 672.159C153.291 672.159 153.969 672.348 154.462 672.727C154.958 673.106 155.31 673.606 155.518 674.227Z" fill="white"/>
</svg>
