<svg width="400" height="700" viewBox="0 0 400 700" fill="none" xmlns="http://www.w3.org/2000/svg">
<path d="M400 0H0V700H400V0Z" fill="#1B0B26"/>
<path d="M400 0H0V50H400V0Z" fill="#1E1A21"/>
<path d="M400 0H0V50H400V0Z" fill="#1E1A21"/>
<path d="M280 8C280 3.58172 283.582 0 288 0H392C396.418 0 400 3.58172 400 8V42C400 46.4183 396.418 50 392 50H288C283.582 50 280 46.4183 280 42V8Z" fill="#2D2828"/>
<path d="M280 8C280 3.58172 283.582 0 288 0H392C396.418 0 400 3.58172 400 8V42C400 46.4183 396.418 50 392 50H288C283.582 50 280 46.4183 280 42V8Z" fill="#2D2828"/>
<path d="M316.227 25.1818C316.227 26.4091 316.006 27.4697 315.562 28.3636C315.119 29.2576 314.511 29.947 313.739 30.4318C312.966 30.9167 312.083 31.1591 311.091 31.1591C310.098 31.1591 309.216 30.9167 308.443 30.4318C307.67 29.947 307.063 29.2576 306.619 28.3636C306.176 27.4697 305.955 26.4091 305.955 25.1818C305.955 23.9545 306.176 22.8939 306.619 22C307.063 21.1061 307.67 20.4167 308.443 19.9318C309.216 19.447 310.098 19.2045 311.091 19.2045C312.083 19.2045 312.966 19.447 313.739 19.9318C314.511 20.4167 315.119 21.1061 315.562 22C316.006 22.8939 316.227 23.9545 316.227 25.1818ZM314.864 25.1818C314.864 24.1742 314.695 23.3239 314.358 22.6307C314.025 21.9375 313.572 21.4129 313 21.0568C312.432 20.7008 311.795 20.5227 311.091 20.5227C310.386 20.5227 309.748 20.7008 309.176 21.0568C308.608 21.4129 308.155 21.9375 307.818 22.6307C307.485 23.3239 307.318 24.1742 307.318 25.1818C307.318 26.1894 307.485 27.0398 307.818 27.733C308.155 28.4261 308.608 28.9508 309.176 29.3068C309.748 29.6629 310.386 29.8409 311.091 29.8409C311.795 29.8409 312.432 29.6629 313 29.3068C313.572 28.9508 314.025 28.4261 314.358 27.733C314.695 27.0398 314.864 26.1894 314.864 25.1818ZM319.756 19.3636V31H318.415V19.3636H319.756ZM324.78 31.2045C324.227 31.2045 323.725 31.1004 323.274 30.892C322.823 30.6799 322.465 30.375 322.2 29.9773C321.935 29.5758 321.803 29.0909 321.803 28.5227C321.803 28.0227 321.901 27.6174 322.098 27.3068C322.295 26.9924 322.558 26.7462 322.888 26.5682C323.217 26.3902 323.581 26.2576 323.979 26.1705C324.38 26.0795 324.784 26.0076 325.189 25.9545C325.719 25.8864 326.149 25.8352 326.479 25.8011C326.812 25.7633 327.054 25.7008 327.206 25.6136C327.361 25.5265 327.439 25.375 327.439 25.1591V25.1136C327.439 24.553 327.286 24.1174 326.979 23.8068C326.676 23.4962 326.215 23.3409 325.598 23.3409C324.958 23.3409 324.456 23.4811 324.092 23.7614C323.729 24.0417 323.473 24.3409 323.325 24.6591L322.053 24.2045C322.28 23.6742 322.583 23.2614 322.962 22.9659C323.344 22.6667 323.761 22.4583 324.212 22.3409C324.666 22.2197 325.113 22.1591 325.553 22.1591C325.833 22.1591 326.155 22.1932 326.518 22.2614C326.886 22.3258 327.24 22.4602 327.581 22.6648C327.926 22.8693 328.212 23.178 328.439 23.5909C328.666 24.0038 328.78 24.5568 328.78 25.25V31H327.439V29.8182H327.371C327.28 30.0076 327.128 30.2102 326.916 30.4261C326.704 30.642 326.422 30.8258 326.07 30.9773C325.717 31.1288 325.287 31.2045 324.78 31.2045ZM324.984 30C325.515 30 325.962 29.8958 326.325 29.6875C326.693 29.4792 326.969 29.2102 327.155 28.8807C327.344 28.5511 327.439 28.2045 327.439 27.8409V26.6136C327.382 26.6818 327.257 26.7443 327.064 26.8011C326.875 26.8542 326.655 26.9015 326.405 26.9432C326.159 26.9811 325.918 27.0152 325.683 27.0455C325.452 27.072 325.265 27.0947 325.121 27.1136C324.772 27.1591 324.446 27.233 324.143 27.3352C323.844 27.4337 323.602 27.5833 323.416 27.7841C323.234 27.9811 323.143 28.25 323.143 28.5909C323.143 29.0568 323.316 29.4091 323.661 29.6477C324.009 29.8826 324.45 30 324.984 30ZM325.03 21.0909L326.416 18.4545H327.984L326.212 21.0909H325.03ZM333.227 29.4091L333.136 30.0227C333.072 30.4545 332.973 30.9167 332.841 31.4091C332.712 31.9015 332.578 32.3655 332.438 32.8011C332.297 33.2367 332.182 33.5833 332.091 33.8409H331.068C331.117 33.5985 331.182 33.2784 331.261 32.8807C331.341 32.483 331.42 32.0379 331.5 31.5455C331.583 31.0568 331.652 30.5568 331.705 30.0455L331.773 29.4091H333.227ZM340.871 19.3636L344.325 29.1591H344.462L347.916 19.3636H349.393L345.121 31H343.666L339.393 19.3636H340.871ZM351.024 31V22.2727H352.365V31H351.024ZM351.706 20.8182C351.445 20.8182 351.219 20.7292 351.03 20.5511C350.844 20.3731 350.751 20.1591 350.751 19.9091C350.751 19.6591 350.844 19.4451 351.03 19.267C351.219 19.089 351.445 19 351.706 19C351.967 19 352.191 19.089 352.376 19.267C352.566 19.4451 352.661 19.6591 352.661 19.9091C352.661 20.1591 352.566 20.3731 352.376 20.5511C352.191 20.7292 351.967 20.8182 351.706 20.8182ZM358.616 22.2727V23.4091H354.094V22.2727H358.616ZM355.412 20.1818H356.753V28.5C356.753 28.8788 356.808 29.1629 356.918 29.3523C357.031 29.5379 357.175 29.6629 357.349 29.7273C357.527 29.7879 357.715 29.8182 357.912 29.8182C358.06 29.8182 358.181 29.8106 358.276 29.7955C358.37 29.7765 358.446 29.7614 358.503 29.75L358.776 30.9545C358.685 30.9886 358.558 31.0227 358.395 31.0568C358.232 31.0947 358.026 31.1136 357.776 31.1136C357.397 31.1136 357.026 31.0322 356.662 30.8693C356.302 30.7064 356.003 30.4583 355.764 30.125C355.529 29.7917 355.412 29.3712 355.412 28.8636V20.1818ZM364.085 31.1818C363.297 31.1818 362.606 30.9943 362.011 30.6193C361.42 30.2443 360.958 29.7197 360.625 29.0455C360.295 28.3712 360.131 27.5833 360.131 26.6818C360.131 25.7727 360.295 24.9792 360.625 24.3011C360.958 23.6231 361.42 23.0966 362.011 22.7216C362.606 22.3466 363.297 22.1591 364.085 22.1591C364.873 22.1591 365.563 22.3466 366.153 22.7216C366.748 23.0966 367.21 23.6231 367.54 24.3011C367.873 24.9792 368.04 25.7727 368.04 26.6818C368.04 27.5833 367.873 28.3712 367.54 29.0455C367.21 29.7197 366.748 30.2443 366.153 30.6193C365.563 30.9943 364.873 31.1818 364.085 31.1818ZM364.085 29.9773C364.684 29.9773 365.176 29.8239 365.562 29.517C365.949 29.2102 366.235 28.8068 366.42 28.3068C366.606 27.8068 366.699 27.2652 366.699 26.6818C366.699 26.0985 366.606 25.5549 366.42 25.0511C366.235 24.5473 365.949 24.1402 365.562 23.8295C365.176 23.5189 364.684 23.3636 364.085 23.3636C363.487 23.3636 362.994 23.5189 362.608 23.8295C362.222 24.1402 361.936 24.5473 361.75 25.0511C361.564 25.5549 361.472 26.0985 361.472 26.6818C361.472 27.2652 361.564 27.8068 361.75 28.3068C361.936 28.8068 362.222 29.2102 362.608 29.517C362.994 29.8239 363.487 29.9773 364.085 29.9773ZM370.087 31V22.2727H371.382V23.5909H371.473C371.632 23.1591 371.92 22.8087 372.337 22.5398C372.753 22.2708 373.223 22.1364 373.746 22.1364C373.844 22.1364 373.967 22.1383 374.115 22.142C374.263 22.1458 374.375 22.1515 374.45 22.1591V23.5227C374.405 23.5114 374.301 23.4943 374.138 23.4716C373.979 23.4451 373.81 23.4318 373.632 23.4318C373.208 23.4318 372.829 23.5208 372.496 23.6989C372.166 23.8731 371.905 24.1155 371.712 24.4261C371.522 24.733 371.428 25.0833 371.428 25.4773V31H370.087Z" fill="white"/>
<path d="M16.8864 17.3636L20.3409 27.1591H20.4773L23.9318 17.3636H25.4091L21.1364 29H19.6818L15.4091 17.3636H16.8864ZM27.0398 29V20.2727H28.3807V29H27.0398ZM27.7216 18.8182C27.4602 18.8182 27.2348 18.7292 27.0455 18.5511C26.8598 18.3731 26.767 18.1591 26.767 17.9091C26.767 17.6591 26.8598 17.4451 27.0455 17.267C27.2348 17.089 27.4602 17 27.7216 17C27.983 17 28.2064 17.089 28.392 17.267C28.5814 17.4451 28.6761 17.6591 28.6761 17.9091C28.6761 18.1591 28.5814 18.3731 28.392 18.5511C28.2064 18.7292 27.983 18.8182 27.7216 18.8182ZM34.1321 29.1818C33.4048 29.1818 32.7628 28.9981 32.206 28.6307C31.6491 28.2595 31.2135 27.7367 30.8991 27.0625C30.5848 26.3845 30.4276 25.5833 30.4276 24.6591C30.4276 23.7424 30.5848 22.947 30.8991 22.2727C31.2135 21.5985 31.651 21.0777 32.2116 20.7102C32.7723 20.3428 33.42 20.1591 34.1548 20.1591C34.723 20.1591 35.1719 20.2538 35.5014 20.4432C35.8348 20.6288 36.0885 20.8409 36.2628 21.0795C36.4408 21.3144 36.5791 21.5076 36.6776 21.6591H36.7912V17.3636H38.1321V29H36.8366V27.6591H36.6776C36.5791 27.8182 36.4389 28.0189 36.2571 28.2614C36.0753 28.5 35.8158 28.714 35.4787 28.9034C35.1416 29.089 34.6927 29.1818 34.1321 29.1818ZM34.3139 27.9773C34.8518 27.9773 35.3063 27.8371 35.6776 27.5568C36.0488 27.2727 36.331 26.8807 36.5241 26.3807C36.7173 25.8769 36.8139 25.2955 36.8139 24.6364C36.8139 23.9848 36.7192 23.4148 36.5298 22.9261C36.3404 22.4337 36.0601 22.0511 35.6889 21.7784C35.3177 21.5019 34.8594 21.3636 34.3139 21.3636C33.7457 21.3636 33.2723 21.5095 32.8935 21.8011C32.5185 22.089 32.2363 22.4811 32.0469 22.9773C31.8613 23.4697 31.7685 24.0227 31.7685 24.6364C31.7685 25.2576 31.8632 25.822 32.0526 26.3295C32.2457 26.8333 32.5298 27.2348 32.9048 27.5341C33.2836 27.8295 33.7533 27.9773 34.3139 27.9773ZM44.4332 29.1818C43.5923 29.1818 42.867 28.9962 42.2571 28.625C41.651 28.25 41.1832 27.7273 40.8537 27.0568C40.5279 26.3826 40.3651 25.5985 40.3651 24.7045C40.3651 23.8106 40.5279 23.0227 40.8537 22.3409C41.1832 21.6553 41.6416 21.1212 42.2287 20.7386C42.8196 20.3523 43.509 20.1591 44.2969 20.1591C44.7514 20.1591 45.2003 20.2348 45.6435 20.3864C46.0866 20.5379 46.4901 20.7841 46.8537 21.125C47.2173 21.4621 47.5071 21.9091 47.723 22.4659C47.9389 23.0227 48.0469 23.7083 48.0469 24.5227V25.0909H41.3196V23.9318H46.6832C46.6832 23.4394 46.5848 23 46.3878 22.6136C46.1946 22.2273 45.9181 21.9223 45.5582 21.6989C45.2022 21.4754 44.7817 21.3636 44.2969 21.3636C43.7628 21.3636 43.3007 21.4962 42.9105 21.7614C42.5241 22.0227 42.2268 22.3636 42.0185 22.7841C41.8101 23.2045 41.706 23.6553 41.706 24.1364V24.9091C41.706 25.5682 41.8196 26.1269 42.0469 26.5852C42.2779 27.0398 42.598 27.3864 43.0071 27.625C43.4162 27.8598 43.8916 27.9773 44.4332 27.9773C44.7855 27.9773 45.1037 27.928 45.3878 27.8295C45.6757 27.7273 45.9238 27.5758 46.1321 27.375C46.3404 27.1705 46.5014 26.9167 46.6151 26.6136L47.9105 26.9773C47.7741 27.4167 47.545 27.803 47.223 28.1364C46.901 28.4659 46.5033 28.7235 46.0298 28.9091C45.5563 29.0909 45.0241 29.1818 44.4332 29.1818ZM53.6321 29.1818C52.8442 29.1818 52.1529 28.9943 51.5582 28.6193C50.9673 28.2443 50.5052 27.7197 50.1719 27.0455C49.8423 26.3712 49.6776 25.5833 49.6776 24.6818C49.6776 23.7727 49.8423 22.9792 50.1719 22.3011C50.5052 21.6231 50.9673 21.0966 51.5582 20.7216C52.1529 20.3466 52.8442 20.1591 53.6321 20.1591C54.42 20.1591 55.1094 20.3466 55.7003 20.7216C56.295 21.0966 56.7571 21.6231 57.0866 22.3011C57.42 22.9792 57.5866 23.7727 57.5866 24.6818C57.5866 25.5833 57.42 26.3712 57.0866 27.0455C56.7571 27.7197 56.295 28.2443 55.7003 28.6193C55.1094 28.9943 54.42 29.1818 53.6321 29.1818ZM53.6321 27.9773C54.2306 27.9773 54.723 27.8239 55.1094 27.517C55.4957 27.2102 55.7817 26.8068 55.9673 26.3068C56.1529 25.8068 56.2457 25.2652 56.2457 24.6818C56.2457 24.0985 56.1529 23.5549 55.9673 23.0511C55.7817 22.5473 55.4957 22.1402 55.1094 21.8295C54.723 21.5189 54.2306 21.3636 53.6321 21.3636C53.0336 21.3636 52.5412 21.5189 52.1548 21.8295C51.7685 22.1402 51.4825 22.5473 51.2969 23.0511C51.1113 23.5549 51.0185 24.0985 51.0185 24.6818C51.0185 25.2652 51.1113 25.8068 51.2969 26.3068C51.4825 26.8068 51.7685 27.2102 52.1548 27.517C52.5412 27.8239 53.0336 27.9773 53.6321 27.9773ZM70.679 20.2727C70.6108 19.697 70.3343 19.25 69.8494 18.9318C69.3646 18.6136 68.7699 18.4545 68.0653 18.4545C67.5502 18.4545 67.0994 18.5379 66.7131 18.7045C66.3305 18.8712 66.0313 19.1004 65.8153 19.392C65.6032 19.6837 65.4972 20.0152 65.4972 20.3864C65.4972 20.697 65.571 20.964 65.7188 21.1875C65.8703 21.4072 66.0634 21.5909 66.2983 21.7386C66.5331 21.8826 66.7794 22.0019 67.0369 22.0966C67.2945 22.1875 67.5312 22.2614 67.7472 22.3182L68.929 22.6364C69.232 22.7159 69.5691 22.8258 69.9403 22.9659C70.3153 23.1061 70.6733 23.2973 71.0142 23.5398C71.3589 23.7784 71.643 24.0852 71.8665 24.4602C72.09 24.8352 72.2017 25.2955 72.2017 25.8409C72.2017 26.4697 72.0369 27.0379 71.7074 27.5455C71.3816 28.053 70.9044 28.4564 70.2756 28.7557C69.6506 29.0549 68.8911 29.2045 67.9972 29.2045C67.1638 29.2045 66.4422 29.0701 65.8324 28.8011C65.2263 28.5322 64.7491 28.1572 64.4006 27.6761C64.0559 27.1951 63.8608 26.6364 63.8153 26H65.2699C65.3078 26.4394 65.4555 26.803 65.7131 27.0909C65.9744 27.375 66.304 27.5871 66.7017 27.7273C67.1032 27.8636 67.535 27.9318 67.9972 27.9318C68.535 27.9318 69.018 27.8447 69.446 27.6705C69.8741 27.4924 70.2131 27.2462 70.4631 26.9318C70.7131 26.6136 70.8381 26.2424 70.8381 25.8182C70.8381 25.4318 70.7301 25.1174 70.5142 24.875C70.2983 24.6326 70.0142 24.4356 69.6619 24.2841C69.3097 24.1326 68.929 24 68.5199 23.8864L67.0881 23.4773C66.179 23.2159 65.4593 22.8428 64.929 22.358C64.3987 21.8731 64.1335 21.2386 64.1335 20.4545C64.1335 19.803 64.3097 19.2348 64.6619 18.75C65.018 18.2614 65.4953 17.8826 66.0938 17.6136C66.696 17.3409 67.3684 17.2045 68.1108 17.2045C68.8608 17.2045 69.5275 17.339 70.1108 17.608C70.6941 17.8731 71.1563 18.2367 71.4972 18.6989C71.8419 19.161 72.0237 19.6856 72.0426 20.2727H70.679ZM75.6776 23.75V29H74.3366V17.3636H75.6776V21.6364H75.7912C75.9957 21.1856 76.3026 20.8277 76.7116 20.5625C77.1245 20.2936 77.6738 20.1591 78.3594 20.1591C78.9541 20.1591 79.4749 20.2784 79.9219 20.517C80.3688 20.7519 80.7154 21.1136 80.9616 21.6023C81.2116 22.0871 81.3366 22.7045 81.3366 23.4545V29H79.9957V23.5455C79.9957 22.8523 79.8158 22.3163 79.456 21.9375C79.0999 21.5549 78.6056 21.3636 77.973 21.3636C77.5336 21.3636 77.1397 21.4564 76.7912 21.642C76.4465 21.8277 76.1738 22.0985 75.973 22.4545C75.776 22.8106 75.6776 23.2424 75.6776 23.75ZM86.358 29.2045C85.8049 29.2045 85.303 29.1004 84.8523 28.892C84.4015 28.6799 84.0436 28.375 83.7784 27.9773C83.5133 27.5758 83.3807 27.0909 83.3807 26.5227C83.3807 26.0227 83.4792 25.6174 83.6761 25.3068C83.8731 24.9924 84.1364 24.7462 84.4659 24.5682C84.7955 24.3902 85.1591 24.2576 85.5568 24.1705C85.9583 24.0795 86.3617 24.0076 86.767 23.9545C87.2973 23.8864 87.7273 23.8352 88.0568 23.8011C88.3902 23.7633 88.6326 23.7008 88.7841 23.6136C88.9394 23.5265 89.017 23.375 89.017 23.1591V23.1136C89.017 22.553 88.8636 22.1174 88.5568 21.8068C88.2538 21.4962 87.7936 21.3409 87.1761 21.3409C86.536 21.3409 86.0341 21.4811 85.6705 21.7614C85.3068 22.0417 85.0511 22.3409 84.9034 22.6591L83.6307 22.2045C83.858 21.6742 84.161 21.2614 84.5398 20.9659C84.9223 20.6667 85.339 20.4583 85.7898 20.3409C86.2443 20.2197 86.6913 20.1591 87.1307 20.1591C87.411 20.1591 87.733 20.1932 88.0966 20.2614C88.464 20.3258 88.8182 20.4602 89.1591 20.6648C89.5038 20.8693 89.7898 21.178 90.017 21.5909C90.2443 22.0038 90.358 22.5568 90.358 23.25V29H89.017V27.8182H88.9489C88.858 28.0076 88.7064 28.2102 88.4943 28.4261C88.2822 28.642 88 28.8258 87.6477 28.9773C87.2955 29.1288 86.8655 29.2045 86.358 29.2045ZM86.5625 28C87.0928 28 87.5398 27.8958 87.9034 27.6875C88.2708 27.4792 88.5473 27.2102 88.733 26.8807C88.9223 26.5511 89.017 26.2045 89.017 25.8409V24.6136C88.9602 24.6818 88.8352 24.7443 88.642 24.8011C88.4527 24.8542 88.233 24.9015 87.983 24.9432C87.7367 24.9811 87.4962 25.0152 87.2614 25.0455C87.0303 25.072 86.8428 25.0947 86.6989 25.1136C86.3504 25.1591 86.0246 25.233 85.7216 25.3352C85.4223 25.4337 85.1799 25.5833 84.9943 25.7841C84.8125 25.9811 84.7216 26.25 84.7216 26.5909C84.7216 27.0568 84.8939 27.4091 85.2386 27.6477C85.5871 27.8826 86.0284 28 86.5625 28ZM92.8054 29V20.2727H94.1009V21.5909H94.1918C94.3509 21.1591 94.6387 20.8087 95.0554 20.5398C95.4721 20.2708 95.9418 20.1364 96.4645 20.1364C96.563 20.1364 96.6861 20.1383 96.8338 20.142C96.9815 20.1458 97.0933 20.1515 97.169 20.1591V21.5227C97.1236 21.5114 97.0194 21.4943 96.8565 21.4716C96.6974 21.4451 96.5289 21.4318 96.3509 21.4318C95.9266 21.4318 95.5478 21.5208 95.2145 21.6989C94.8849 21.8731 94.6236 22.1155 94.4304 22.4261C94.241 22.733 94.1463 23.0833 94.1463 23.4773V29H92.8054ZM102.152 29.1818C101.311 29.1818 100.586 28.9962 99.9759 28.625C99.3698 28.25 98.902 27.7273 98.5724 27.0568C98.2467 26.3826 98.0838 25.5985 98.0838 24.7045C98.0838 23.8106 98.2467 23.0227 98.5724 22.3409C98.902 21.6553 99.3603 21.1212 99.9474 20.7386C100.538 20.3523 101.228 20.1591 102.016 20.1591C102.47 20.1591 102.919 20.2348 103.362 20.3864C103.805 20.5379 104.209 20.7841 104.572 21.125C104.936 21.4621 105.226 21.9091 105.442 22.4659C105.658 23.0227 105.766 23.7083 105.766 24.5227V25.0909H99.0384V23.9318H104.402C104.402 23.4394 104.304 23 104.107 22.6136C103.913 22.2273 103.637 21.9223 103.277 21.6989C102.921 21.4754 102.5 21.3636 102.016 21.3636C101.482 21.3636 101.019 21.4962 100.629 21.7614C100.243 22.0227 99.9455 22.3636 99.7372 22.7841C99.5289 23.2045 99.4247 23.6553 99.4247 24.1364V24.9091C99.4247 25.5682 99.5384 26.1269 99.7656 26.5852C99.9967 27.0398 100.317 27.3864 100.726 27.625C101.135 27.8598 101.61 27.9773 102.152 27.9773C102.504 27.9773 102.822 27.928 103.107 27.8295C103.394 27.7273 103.643 27.5758 103.851 27.375C104.059 27.1705 104.22 26.9167 104.334 26.6136L105.629 26.9773C105.493 27.4167 105.264 27.803 104.942 28.1364C104.62 28.4659 104.222 28.7235 103.749 28.9091C103.275 29.0909 102.743 29.1818 102.152 29.1818Z" fill="#2ECC71"/>
<path d="M132.125 100H128.085V86.9091H132.304C133.574 86.9091 134.661 87.1712 135.564 87.6953C136.467 88.2152 137.16 88.9631 137.641 89.9389C138.123 90.9105 138.364 92.0739 138.364 93.429C138.364 94.7926 138.121 95.9666 137.635 96.951C137.149 97.9311 136.442 98.6854 135.513 99.2138C134.584 99.7379 133.455 100 132.125 100ZM129.67 98.5938H132.023C133.105 98.5938 134.002 98.3849 134.714 97.9673C135.425 97.5497 135.956 96.9553 136.305 96.1839C136.655 95.4126 136.83 94.4943 136.83 93.429C136.83 92.3722 136.657 91.4624 136.312 90.6996C135.967 89.9325 135.451 89.3445 134.765 88.9354C134.079 88.522 133.224 88.3153 132.202 88.3153H129.67V98.5938ZM144.935 100.205C143.989 100.205 143.173 99.9957 142.487 99.5781C141.805 99.1562 141.278 98.5682 140.908 97.8139C140.541 97.0554 140.358 96.1733 140.358 95.1676C140.358 94.1619 140.541 93.2756 140.908 92.5085C141.278 91.7372 141.794 91.1364 142.455 90.706C143.119 90.2713 143.895 90.054 144.781 90.054C145.293 90.054 145.798 90.1392 146.296 90.3097C146.795 90.4801 147.249 90.7571 147.658 91.1406C148.067 91.5199 148.393 92.0227 148.636 92.6491C148.879 93.2756 149 94.0469 149 94.9631V95.6023H141.432V94.2983H147.466C147.466 93.7443 147.355 93.25 147.134 92.8153C146.916 92.3807 146.605 92.0376 146.2 91.7862C145.8 91.5348 145.327 91.4091 144.781 91.4091C144.18 91.4091 143.661 91.5582 143.222 91.8565C142.787 92.1506 142.452 92.5341 142.218 93.0071C141.984 93.4801 141.866 93.9872 141.866 94.5284V95.3977C141.866 96.1392 141.994 96.7678 142.25 97.2834C142.51 97.7947 142.87 98.1847 143.33 98.4531C143.79 98.7173 144.325 98.8494 144.935 98.8494C145.331 98.8494 145.689 98.794 146.009 98.6832C146.332 98.5682 146.612 98.3977 146.846 98.1719C147.08 97.9418 147.261 97.6562 147.389 97.3153L148.847 97.7244C148.693 98.2188 148.435 98.6534 148.073 99.0284C147.711 99.3991 147.263 99.6889 146.731 99.8977C146.198 100.102 145.599 100.205 144.935 100.205ZM155.565 90.1818V91.4602H150.477V90.1818H155.565ZM151.96 87.8295H153.468V97.1875C153.468 97.6136 153.53 97.9332 153.653 98.1463C153.781 98.3551 153.943 98.4957 154.139 98.5682C154.339 98.6364 154.55 98.6705 154.772 98.6705C154.938 98.6705 155.075 98.6619 155.181 98.6449C155.288 98.6236 155.373 98.6065 155.437 98.5938L155.744 99.9489C155.641 99.9872 155.499 100.026 155.315 100.064C155.132 100.107 154.9 100.128 154.619 100.128C154.192 100.128 153.775 100.036 153.366 99.853C152.961 99.6697 152.624 99.3906 152.356 99.0156C152.092 98.6406 151.96 98.1676 151.96 97.5966V87.8295ZM160.723 100.23C160.101 100.23 159.536 100.113 159.029 99.8786C158.522 99.6399 158.119 99.2969 157.821 98.8494C157.523 98.3977 157.374 97.8523 157.374 97.2131C157.374 96.6506 157.484 96.1946 157.706 95.8452C157.928 95.4915 158.224 95.2145 158.594 95.0142C158.965 94.8139 159.374 94.6648 159.822 94.5668C160.273 94.4645 160.727 94.3835 161.183 94.3239C161.78 94.2472 162.263 94.1896 162.634 94.1513C163.009 94.1087 163.282 94.0384 163.452 93.9403C163.627 93.8423 163.714 93.6719 163.714 93.429V93.3778C163.714 92.7472 163.542 92.2571 163.197 91.9077C162.856 91.5582 162.338 91.3835 161.643 91.3835C160.923 91.3835 160.359 91.5412 159.95 91.8565C159.54 92.1719 159.253 92.5085 159.087 92.8665L157.655 92.3551C157.911 91.7585 158.251 91.294 158.678 90.9616C159.108 90.625 159.577 90.3906 160.084 90.2585C160.595 90.1222 161.098 90.054 161.592 90.054C161.908 90.054 162.27 90.0923 162.679 90.169C163.092 90.2415 163.491 90.3928 163.874 90.6229C164.262 90.853 164.584 91.2003 164.839 91.6648C165.095 92.1293 165.223 92.7514 165.223 93.5312V100H163.714V98.6705H163.638C163.536 98.8835 163.365 99.1115 163.126 99.3544C162.888 99.5973 162.57 99.804 162.174 99.9744C161.778 100.145 161.294 100.23 160.723 100.23ZM160.953 98.875C161.55 98.875 162.053 98.7578 162.462 98.5234C162.875 98.2891 163.186 97.9865 163.395 97.6158C163.608 97.245 163.714 96.8551 163.714 96.446V95.0653C163.651 95.142 163.51 95.2124 163.293 95.2763C163.08 95.3359 162.832 95.3892 162.551 95.4361C162.274 95.4787 162.004 95.517 161.739 95.5511C161.479 95.581 161.268 95.6065 161.107 95.6278C160.714 95.679 160.348 95.7621 160.007 95.8771C159.67 95.9879 159.398 96.1562 159.189 96.3821C158.984 96.6037 158.882 96.9062 158.882 97.2898C158.882 97.8139 159.076 98.2102 159.464 98.4787C159.856 98.7429 160.352 98.875 160.953 98.875ZM169.485 86.9091V100H167.976V86.9091H169.485ZM173.756 94.0938V100H172.248V86.9091H173.756V91.7159H173.884C174.114 91.2088 174.46 90.8061 174.92 90.5078C175.384 90.2053 176.002 90.054 176.773 90.054C177.442 90.054 178.028 90.1882 178.531 90.4567C179.034 90.7209 179.424 91.1278 179.701 91.6776C179.982 92.223 180.123 92.9176 180.123 93.7614V100H178.614V93.8636C178.614 93.0838 178.412 92.4808 178.007 92.0547C177.607 91.6243 177.05 91.4091 176.339 91.4091C175.844 91.4091 175.401 91.5135 175.009 91.7223C174.621 91.9311 174.315 92.2358 174.089 92.6364C173.867 93.0369 173.756 93.5227 173.756 94.0938ZM186.999 100.205C186.053 100.205 185.237 99.9957 184.551 99.5781C183.869 99.1562 183.343 98.5682 182.972 97.8139C182.606 97.0554 182.422 96.1733 182.422 95.1676C182.422 94.1619 182.606 93.2756 182.972 92.5085C183.343 91.7372 183.858 91.1364 184.519 90.706C185.184 90.2713 185.959 90.054 186.846 90.054C187.357 90.054 187.862 90.1392 188.361 90.3097C188.859 90.4801 189.313 90.7571 189.722 91.1406C190.131 91.5199 190.457 92.0227 190.7 92.6491C190.943 93.2756 191.064 94.0469 191.064 94.9631V95.6023H183.496V94.2983H189.53C189.53 93.7443 189.42 93.25 189.198 92.8153C188.981 92.3807 188.67 92.0376 188.265 91.7862C187.864 91.5348 187.391 91.4091 186.846 91.4091C186.245 91.4091 185.725 91.5582 185.286 91.8565C184.851 92.1506 184.517 92.5341 184.282 93.0071C184.048 93.4801 183.931 93.9872 183.931 94.5284V95.3977C183.931 96.1392 184.059 96.7678 184.314 97.2834C184.574 97.7947 184.934 98.1847 185.395 98.4531C185.855 98.7173 186.39 98.8494 186.999 98.8494C187.395 98.8494 187.753 98.794 188.073 98.6832C188.397 98.5682 188.676 98.3977 188.91 98.1719C189.145 97.9418 189.326 97.6562 189.454 97.3153L190.911 97.7244C190.758 98.2188 190.5 98.6534 190.138 99.0284C189.775 99.3991 189.328 99.6889 188.795 99.8977C188.263 100.102 187.664 100.205 186.999 100.205ZM202.129 100.205C201.311 100.205 200.589 99.9979 199.962 99.5845C199.336 99.1669 198.846 98.5788 198.492 97.8203C198.138 97.0575 197.961 96.1562 197.961 95.1165C197.961 94.0852 198.138 93.1903 198.492 92.4318C198.846 91.6733 199.338 91.0874 199.969 90.674C200.599 90.2607 201.328 90.054 202.155 90.054C202.794 90.054 203.299 90.1605 203.67 90.3736C204.045 90.5824 204.33 90.821 204.526 91.0895C204.726 91.3537 204.882 91.571 204.993 91.7415H205.121V86.9091H206.629V100H205.172V98.4915H204.993C204.882 98.6705 204.724 98.8963 204.52 99.169C204.315 99.4375 204.023 99.6783 203.644 99.8913C203.265 100.1 202.76 100.205 202.129 100.205ZM202.334 98.8494C202.939 98.8494 203.45 98.6918 203.868 98.3764C204.285 98.0568 204.603 97.6158 204.82 97.0533C205.037 96.4865 205.146 95.8324 205.146 95.0909C205.146 94.358 205.04 93.7166 204.827 93.1669C204.613 92.6129 204.298 92.1825 203.881 91.8757C203.463 91.5646 202.947 91.4091 202.334 91.4091C201.694 91.4091 201.162 91.5732 200.736 91.9013C200.314 92.2251 199.996 92.6662 199.783 93.2244C199.574 93.7784 199.47 94.4006 199.47 95.0909C199.47 95.7898 199.577 96.4247 199.79 96.9957C200.007 97.5625 200.327 98.0142 200.748 98.3509C201.175 98.6832 201.703 98.8494 202.334 98.8494ZM213.59 100.205C212.704 100.205 211.926 99.9936 211.257 99.5717C210.592 99.1499 210.072 98.5597 209.697 97.8011C209.327 97.0426 209.141 96.1562 209.141 95.142C209.141 94.1193 209.327 93.2266 209.697 92.4638C210.072 91.701 210.592 91.1087 211.257 90.6868C211.926 90.2649 212.704 90.054 213.59 90.054C214.476 90.054 215.252 90.2649 215.917 90.6868C216.586 91.1087 217.106 91.701 217.476 92.4638C217.851 93.2266 218.039 94.1193 218.039 95.142C218.039 96.1562 217.851 97.0426 217.476 97.8011C217.106 98.5597 216.586 99.1499 215.917 99.5717C215.252 99.9936 214.476 100.205 213.59 100.205ZM213.59 98.8494C214.263 98.8494 214.817 98.6768 215.252 98.3317C215.687 97.9865 216.008 97.5327 216.217 96.9702C216.426 96.4077 216.53 95.7983 216.53 95.142C216.53 94.4858 216.426 93.8743 216.217 93.3075C216.008 92.7408 215.687 92.2827 215.252 91.9332C214.817 91.5838 214.263 91.4091 213.59 91.4091C212.917 91.4091 212.363 91.5838 211.928 91.9332C211.493 92.2827 211.172 92.7408 210.963 93.3075C210.754 93.8743 210.65 94.4858 210.65 95.142C210.65 95.7983 210.754 96.4077 210.963 96.9702C211.172 97.5327 211.493 97.9865 211.928 98.3317C212.363 98.6768 212.917 98.8494 213.59 98.8494ZM226.146 86.9091L230.032 97.929H230.185L234.072 86.9091H235.734L230.927 100H229.29L224.484 86.9091H226.146ZM237.568 100V90.1818H239.077V100H237.568ZM237.645 88.8523L239.205 85.8864H240.969L238.974 88.8523H237.645ZM245.547 100.205C244.729 100.205 244.007 99.9979 243.38 99.5845C242.754 99.1669 242.264 98.5788 241.91 97.8203C241.556 97.0575 241.379 96.1562 241.379 95.1165C241.379 94.0852 241.556 93.1903 241.91 92.4318C242.264 91.6733 242.756 91.0874 243.387 90.674C244.017 90.2607 244.746 90.054 245.573 90.054C246.212 90.054 246.717 90.1605 247.088 90.3736C247.463 90.5824 247.748 90.821 247.944 91.0895C248.144 91.3537 248.3 91.571 248.411 91.7415H248.539V86.9091H250.047V100H248.59V98.4915H248.411C248.3 98.6705 248.142 98.8963 247.938 99.169C247.733 99.4375 247.441 99.6783 247.062 99.8913C246.683 100.1 246.178 100.205 245.547 100.205ZM245.752 98.8494C246.357 98.8494 246.868 98.6918 247.286 98.3764C247.703 98.0568 248.021 97.6158 248.238 97.0533C248.455 96.4865 248.564 95.8324 248.564 95.0909C248.564 94.358 248.458 93.7166 248.244 93.1669C248.031 92.6129 247.716 92.1825 247.298 91.8757C246.881 91.5646 246.365 91.4091 245.752 91.4091C245.112 91.4091 244.58 91.5732 244.154 91.9013C243.732 92.2251 243.414 92.6662 243.201 93.2244C242.992 93.7784 242.888 94.4006 242.888 95.0909C242.888 95.7898 242.994 96.4247 243.208 96.9957C243.425 97.5625 243.744 98.0142 244.166 98.3509C244.593 98.6832 245.121 98.8494 245.752 98.8494ZM257.136 100.205C256.19 100.205 255.374 99.9957 254.688 99.5781C254.006 99.1562 253.48 98.5682 253.109 97.8139C252.742 97.0554 252.559 96.1733 252.559 95.1676C252.559 94.1619 252.742 93.2756 253.109 92.5085C253.48 91.7372 253.995 91.1364 254.656 90.706C255.32 90.2713 256.096 90.054 256.982 90.054C257.494 90.054 257.999 90.1392 258.497 90.3097C258.996 90.4801 259.45 90.7571 259.859 91.1406C260.268 91.5199 260.594 92.0227 260.837 92.6491C261.08 93.2756 261.201 94.0469 261.201 94.9631V95.6023H253.633V94.2983H259.667C259.667 93.7443 259.556 93.25 259.335 92.8153C259.117 92.3807 258.806 92.0376 258.401 91.7862C258.001 91.5348 257.528 91.4091 256.982 91.4091C256.382 91.4091 255.862 91.5582 255.423 91.8565C254.988 92.1506 254.654 92.5341 254.419 93.0071C254.185 93.4801 254.068 93.9872 254.068 94.5284V95.3977C254.068 96.1392 254.195 96.7678 254.451 97.2834C254.711 97.7947 255.071 98.1847 255.531 98.4531C255.992 98.7173 256.526 98.8494 257.136 98.8494C257.532 98.8494 257.89 98.794 258.21 98.6832C258.534 98.5682 258.813 98.3977 259.047 98.1719C259.281 97.9418 259.463 97.6562 259.59 97.3153L261.048 97.7244C260.894 98.2188 260.637 98.6534 260.274 99.0284C259.912 99.3991 259.465 99.6889 258.932 99.8977C258.399 100.102 257.801 100.205 257.136 100.205ZM267.485 100.205C266.598 100.205 265.82 99.9936 265.151 99.5717C264.487 99.1499 263.967 98.5597 263.592 97.8011C263.221 97.0426 263.036 96.1562 263.036 95.142C263.036 94.1193 263.221 93.2266 263.592 92.4638C263.967 91.701 264.487 91.1087 265.151 90.6868C265.82 90.2649 266.598 90.054 267.485 90.054C268.371 90.054 269.146 90.2649 269.811 90.6868C270.48 91.1087 271 91.701 271.371 92.4638C271.746 93.2266 271.933 94.1193 271.933 95.142C271.933 96.1562 271.746 97.0426 271.371 97.8011C271 98.5597 270.48 99.1499 269.811 99.5717C269.146 99.9936 268.371 100.205 267.485 100.205ZM267.485 98.8494C268.158 98.8494 268.712 98.6768 269.146 98.3317C269.581 97.9865 269.903 97.5327 270.112 96.9702C270.32 96.4077 270.425 95.7983 270.425 95.142C270.425 94.4858 270.32 93.8743 270.112 93.3075C269.903 92.7408 269.581 92.2827 269.146 91.9332C268.712 91.5838 268.158 91.4091 267.485 91.4091C266.811 91.4091 266.257 91.5838 265.823 91.9332C265.388 92.2827 265.066 92.7408 264.857 93.3075C264.649 93.8743 264.544 94.4858 264.544 95.142C264.544 95.7983 264.649 96.4077 264.857 96.9702C265.066 97.5327 265.388 97.9865 265.823 98.3317C266.257 98.6768 266.811 98.8494 267.485 98.8494Z" fill="white"/>
<path d="M344 140H56C52.6863 140 50 142.686 50 146V314C50 317.314 52.6863 320 56 320H344C347.314 320 350 317.314 350 314V146C350 142.686 347.314 140 344 140Z" fill="#2A1F3D"/>
<path d="M190 200L230 220L190 240V200Z" fill="#2ECC71"/>
<path d="M150.176 340.912V339.818H157.812V340.912H154.611V350H153.378V340.912H150.176ZM159.556 350V342.364H160.73V350H159.556ZM159.616 341.33L160.829 339.023H162.201L160.65 341.33H159.616ZM166.2 342.364V343.358H162.242V342.364H166.2ZM163.396 340.534H164.569V347.812C164.569 348.144 164.617 348.393 164.713 348.558C164.813 348.721 164.938 348.83 165.091 348.886C165.247 348.939 165.411 348.966 165.583 348.966C165.712 348.966 165.818 348.959 165.901 348.946C165.984 348.929 166.05 348.916 166.1 348.906L166.339 349.96C166.259 349.99 166.148 350.02 166.006 350.05C165.863 350.083 165.683 350.099 165.464 350.099C165.132 350.099 164.808 350.028 164.489 349.886C164.174 349.743 163.913 349.526 163.704 349.234C163.498 348.943 163.396 348.575 163.396 348.131V340.534ZM172.777 346.878V342.364H173.95V350H172.777V348.707H172.697C172.518 349.095 172.24 349.425 171.862 349.697C171.484 349.965 171.007 350.099 170.43 350.099C169.953 350.099 169.529 349.995 169.158 349.786C168.786 349.574 168.495 349.256 168.283 348.832C168.071 348.404 167.964 347.866 167.964 347.216V342.364H169.138V347.136C169.138 347.693 169.294 348.137 169.605 348.469C169.92 348.8 170.321 348.966 170.808 348.966C171.1 348.966 171.397 348.891 171.698 348.742C172.003 348.593 172.258 348.364 172.464 348.056C172.673 347.748 172.777 347.355 172.777 346.878ZM177.273 339.818V350H176.099V339.818H177.273ZM182.524 350.159C181.834 350.159 181.23 349.995 180.709 349.667C180.192 349.339 179.788 348.88 179.496 348.29C179.208 347.7 179.064 347.01 179.064 346.222C179.064 345.426 179.208 344.732 179.496 344.138C179.788 343.545 180.192 343.085 180.709 342.756C181.23 342.428 181.834 342.264 182.524 342.264C183.213 342.264 183.816 342.428 184.333 342.756C184.854 343.085 185.258 343.545 185.547 344.138C185.838 344.732 185.984 345.426 185.984 346.222C185.984 347.01 185.838 347.7 185.547 348.29C185.258 348.88 184.854 349.339 184.333 349.667C183.816 349.995 183.213 350.159 182.524 350.159ZM182.524 349.105C183.047 349.105 183.478 348.971 183.816 348.702C184.154 348.434 184.405 348.081 184.567 347.643C184.73 347.206 184.811 346.732 184.811 346.222C184.811 345.711 184.73 345.236 184.567 344.795C184.405 344.354 184.154 343.998 183.816 343.726C183.478 343.454 183.047 343.318 182.524 343.318C182 343.318 181.569 343.454 181.231 343.726C180.893 343.998 180.643 344.354 180.48 344.795C180.318 345.236 180.237 345.711 180.237 346.222C180.237 346.732 180.318 347.206 180.48 347.643C180.643 348.081 180.893 348.434 181.231 348.702C181.569 348.971 182 349.105 182.524 349.105ZM194.596 350.159C193.96 350.159 193.398 349.998 192.911 349.677C192.423 349.352 192.042 348.895 191.767 348.305C191.492 347.711 191.355 347.01 191.355 346.202C191.355 345.4 191.492 344.704 191.767 344.114C192.042 343.524 192.425 343.068 192.916 342.746C193.406 342.425 193.973 342.264 194.616 342.264C195.113 342.264 195.506 342.347 195.794 342.513C196.086 342.675 196.308 342.861 196.46 343.07C196.616 343.275 196.737 343.444 196.823 343.577H196.923V339.818H198.096V350H196.963V348.827H196.823C196.737 348.966 196.615 349.142 196.455 349.354C196.296 349.562 196.069 349.75 195.774 349.915C195.479 350.078 195.087 350.159 194.596 350.159ZM194.755 349.105C195.226 349.105 195.624 348.982 195.948 348.737C196.273 348.489 196.52 348.146 196.689 347.708C196.858 347.267 196.943 346.759 196.943 346.182C196.943 345.612 196.86 345.113 196.694 344.685C196.528 344.254 196.283 343.92 195.958 343.681C195.633 343.439 195.232 343.318 194.755 343.318C194.258 343.318 193.844 343.446 193.512 343.701C193.184 343.953 192.937 344.296 192.771 344.73C192.609 345.161 192.528 345.645 192.528 346.182C192.528 346.725 192.611 347.219 192.776 347.663C192.945 348.104 193.194 348.455 193.522 348.717C193.854 348.976 194.265 349.105 194.755 349.105ZM203.51 350.159C202.821 350.159 202.216 349.995 201.695 349.667C201.178 349.339 200.774 348.88 200.482 348.29C200.194 347.7 200.05 347.01 200.05 346.222C200.05 345.426 200.194 344.732 200.482 344.138C200.774 343.545 201.178 343.085 201.695 342.756C202.216 342.428 202.821 342.264 203.51 342.264C204.2 342.264 204.803 342.428 205.32 342.756C205.84 343.085 206.244 343.545 206.533 344.138C206.825 344.732 206.97 345.426 206.97 346.222C206.97 347.01 206.825 347.7 206.533 348.29C206.244 348.88 205.84 349.339 205.32 349.667C204.803 349.995 204.2 350.159 203.51 350.159ZM203.51 349.105C204.034 349.105 204.465 348.971 204.803 348.702C205.141 348.434 205.391 348.081 205.553 347.643C205.716 347.206 205.797 346.732 205.797 346.222C205.797 345.711 205.716 345.236 205.553 344.795C205.391 344.354 205.141 343.998 204.803 343.726C204.465 343.454 204.034 343.318 203.51 343.318C202.986 343.318 202.556 343.454 202.218 343.726C201.879 343.998 201.629 344.354 201.467 344.795C201.304 345.236 201.223 345.711 201.223 346.222C201.223 346.732 201.304 347.206 201.467 347.643C201.629 348.081 201.879 348.434 202.218 348.702C202.556 348.971 202.986 349.105 203.51 349.105ZM213.276 339.818L216.298 348.389H216.418L219.44 339.818H220.733L216.994 350H215.722L211.983 339.818H213.276ZM222.16 350V342.364H223.333V350H222.16ZM222.219 341.33L223.433 339.023H224.805L223.254 341.33H222.219ZM228.366 350.159C227.729 350.159 227.167 349.998 226.68 349.677C226.193 349.352 225.812 348.895 225.537 348.305C225.262 347.711 225.124 347.01 225.124 346.202C225.124 345.4 225.262 344.704 225.537 344.114C225.812 343.524 226.195 343.068 226.685 342.746C227.176 342.425 227.742 342.264 228.385 342.264C228.883 342.264 229.275 342.347 229.564 342.513C229.855 342.675 230.077 342.861 230.23 343.07C230.386 343.275 230.507 343.444 230.593 343.577H230.692V339.818H231.866V350H230.732V348.827H230.593C230.507 348.966 230.384 349.142 230.225 349.354C230.066 349.562 229.839 349.75 229.544 349.915C229.249 350.078 228.856 350.159 228.366 350.159ZM228.525 349.105C228.995 349.105 229.393 348.982 229.718 348.737C230.043 348.489 230.29 348.146 230.459 347.708C230.628 347.267 230.712 346.759 230.712 346.182C230.712 345.612 230.629 345.113 230.464 344.685C230.298 344.254 230.053 343.92 229.728 343.681C229.403 343.439 229.002 343.318 228.525 343.318C228.028 343.318 227.613 343.446 227.282 343.701C226.954 343.953 226.707 344.296 226.541 344.73C226.379 345.161 226.297 345.645 226.297 346.182C226.297 346.725 226.38 347.219 226.546 347.663C226.715 348.104 226.964 348.455 227.292 348.717C227.623 348.976 228.034 349.105 228.525 349.105ZM237.379 350.159C236.643 350.159 236.009 349.997 235.475 349.672C234.945 349.344 234.535 348.886 234.247 348.3C233.962 347.71 233.819 347.024 233.819 346.241C233.819 345.459 233.962 344.77 234.247 344.173C234.535 343.573 234.936 343.106 235.45 342.771C235.967 342.433 236.57 342.264 237.26 342.264C237.657 342.264 238.05 342.33 238.438 342.463C238.826 342.596 239.179 342.811 239.497 343.109C239.815 343.404 240.069 343.795 240.258 344.283C240.447 344.77 240.541 345.37 240.541 346.082V346.58H234.655V345.565H239.348C239.348 345.134 239.262 344.75 239.089 344.412C238.92 344.074 238.678 343.807 238.363 343.612C238.052 343.416 237.684 343.318 237.26 343.318C236.792 343.318 236.388 343.434 236.047 343.666C235.709 343.895 235.448 344.193 235.266 344.561C235.084 344.929 234.993 345.323 234.993 345.744V346.42C234.993 346.997 235.092 347.486 235.291 347.887C235.493 348.285 235.773 348.588 236.131 348.797C236.489 349.002 236.905 349.105 237.379 349.105C237.687 349.105 237.966 349.062 238.214 348.976C238.466 348.886 238.683 348.754 238.866 348.578C239.048 348.399 239.189 348.177 239.288 347.912L240.422 348.23C240.302 348.615 240.102 348.953 239.82 349.244C239.538 349.533 239.19 349.758 238.776 349.92C238.362 350.08 237.896 350.159 237.379 350.159ZM245.428 350.159C244.739 350.159 244.134 349.995 243.613 349.667C243.096 349.339 242.692 348.88 242.4 348.29C242.112 347.7 241.968 347.01 241.968 346.222C241.968 345.426 242.112 344.732 242.4 344.138C242.692 343.545 243.096 343.085 243.613 342.756C244.134 342.428 244.739 342.264 245.428 342.264C246.117 342.264 246.721 342.428 247.238 342.756C247.758 343.085 248.162 343.545 248.451 344.138C248.742 344.732 248.888 345.426 248.888 346.222C248.888 347.01 248.742 347.7 248.451 348.29C248.162 348.88 247.758 349.339 247.238 349.667C246.721 349.995 246.117 350.159 245.428 350.159ZM245.428 349.105C245.952 349.105 246.383 348.971 246.721 348.702C247.059 348.434 247.309 348.081 247.471 347.643C247.634 347.206 247.715 346.732 247.715 346.222C247.715 345.711 247.634 345.236 247.471 344.795C247.309 344.354 247.059 343.998 246.721 343.726C246.383 343.454 245.952 343.318 245.428 343.318C244.904 343.318 244.474 343.454 244.135 343.726C243.797 343.998 243.547 344.354 243.385 344.795C243.222 345.236 243.141 345.711 243.141 346.222C243.141 346.732 243.222 347.206 243.385 347.643C243.547 348.081 243.797 348.434 244.135 348.702C244.474 348.971 244.904 349.105 245.428 349.105Z" fill="white"/>
<path d="M126.25 380H123.557V371.273H126.369C127.216 371.273 127.94 371.447 128.543 371.797C129.145 372.143 129.607 372.642 129.928 373.293C130.249 373.94 130.409 374.716 130.409 375.619C130.409 376.528 130.247 377.311 129.923 377.967C129.599 378.621 129.128 379.124 128.509 379.476C127.889 379.825 127.136 380 126.25 380ZM124.614 379.062H126.182C126.903 379.062 127.501 378.923 127.976 378.645C128.45 378.366 128.804 377.97 129.037 377.456C129.27 376.942 129.386 376.33 129.386 375.619C129.386 374.915 129.271 374.308 129.041 373.8C128.811 373.288 128.467 372.896 128.01 372.624C127.553 372.348 126.983 372.21 126.301 372.21H124.614V379.062ZM134.79 380.136C134.159 380.136 133.615 379.997 133.158 379.719C132.703 379.438 132.352 379.045 132.105 378.543C131.861 378.037 131.739 377.449 131.739 376.778C131.739 376.108 131.861 375.517 132.105 375.006C132.352 374.491 132.696 374.091 133.136 373.804C133.58 373.514 134.097 373.369 134.688 373.369C135.028 373.369 135.365 373.426 135.697 373.54C136.03 373.653 136.332 373.838 136.605 374.094C136.878 374.347 137.095 374.682 137.257 375.099C137.419 375.517 137.5 376.031 137.5 376.642V377.068H132.455V376.199H136.477C136.477 375.83 136.403 375.5 136.256 375.21C136.111 374.92 135.903 374.692 135.634 374.524C135.366 374.357 135.051 374.273 134.688 374.273C134.287 374.273 133.94 374.372 133.648 374.571C133.358 374.767 133.135 375.023 132.979 375.338C132.822 375.653 132.744 375.991 132.744 376.352V376.932C132.744 377.426 132.83 377.845 133 378.189C133.173 378.53 133.413 378.79 133.72 378.969C134.027 379.145 134.384 379.233 134.79 379.233C135.054 379.233 135.293 379.196 135.506 379.122C135.722 379.045 135.908 378.932 136.064 378.781C136.22 378.628 136.341 378.437 136.426 378.21L137.398 378.483C137.295 378.812 137.124 379.102 136.882 379.352C136.641 379.599 136.342 379.793 135.987 379.932C135.632 380.068 135.233 380.136 134.79 380.136ZM143.666 374.92L142.763 375.176C142.706 375.026 142.622 374.879 142.511 374.737C142.403 374.592 142.256 374.473 142.068 374.379C141.881 374.286 141.641 374.239 141.348 374.239C140.947 374.239 140.614 374.331 140.347 374.516C140.082 374.697 139.95 374.929 139.95 375.21C139.95 375.46 140.041 375.658 140.223 375.803C140.405 375.947 140.689 376.068 141.075 376.165L142.047 376.403C142.632 376.545 143.068 376.763 143.355 377.055C143.642 377.345 143.786 377.719 143.786 378.176C143.786 378.551 143.678 378.886 143.462 379.182C143.249 379.477 142.95 379.71 142.567 379.881C142.183 380.051 141.737 380.136 141.229 380.136C140.561 380.136 140.009 379.991 139.571 379.702C139.134 379.412 138.857 378.989 138.74 378.432L139.695 378.193C139.786 378.545 139.957 378.81 140.21 378.986C140.466 379.162 140.8 379.25 141.212 379.25C141.68 379.25 142.053 379.151 142.328 378.952C142.607 378.75 142.746 378.509 142.746 378.227C142.746 378 142.666 377.81 142.507 377.656C142.348 377.5 142.104 377.384 141.774 377.307L140.683 377.051C140.084 376.909 139.643 376.689 139.362 376.391C139.084 376.089 138.945 375.713 138.945 375.261C138.945 374.892 139.048 374.565 139.256 374.281C139.466 373.997 139.751 373.774 140.112 373.612C140.476 373.45 140.888 373.369 141.348 373.369C141.996 373.369 142.504 373.511 142.874 373.795C143.246 374.08 143.51 374.455 143.666 374.92ZM147.958 380.136C147.345 380.136 146.816 379.991 146.373 379.702C145.93 379.412 145.589 379.013 145.35 378.504C145.112 377.996 144.993 377.415 144.993 376.761C144.993 376.097 145.115 375.51 145.359 375.001C145.606 374.49 145.95 374.091 146.39 373.804C146.833 373.514 147.35 373.369 147.941 373.369C148.402 373.369 148.816 373.455 149.186 373.625C149.555 373.795 149.858 374.034 150.093 374.341C150.329 374.648 150.475 375.006 150.532 375.415H149.527C149.45 375.116 149.279 374.852 149.015 374.622C148.754 374.389 148.402 374.273 147.958 374.273C147.566 374.273 147.223 374.375 146.927 374.58C146.635 374.781 146.406 375.067 146.241 375.436C146.079 375.803 145.998 376.233 145.998 376.727C145.998 377.233 146.078 377.673 146.237 378.048C146.399 378.423 146.626 378.714 146.919 378.922C147.214 379.129 147.561 379.233 147.958 379.233C148.22 379.233 148.457 379.188 148.67 379.097C148.883 379.006 149.064 378.875 149.211 378.705C149.359 378.534 149.464 378.33 149.527 378.091H150.532C150.475 378.477 150.335 378.825 150.11 379.135C149.889 379.442 149.595 379.686 149.228 379.868C148.865 380.047 148.441 380.136 147.958 380.136ZM152.002 380V373.455H152.974V374.443H153.042C153.162 374.119 153.377 373.857 153.69 373.655C154.002 373.453 154.355 373.352 154.747 373.352C154.821 373.352 154.913 373.354 155.024 373.357C155.135 373.359 155.218 373.364 155.275 373.369V374.392C155.241 374.384 155.163 374.371 155.041 374.354C154.922 374.334 154.795 374.324 154.662 374.324C154.343 374.324 154.059 374.391 153.809 374.524C153.562 374.655 153.366 374.837 153.221 375.07C153.079 375.3 153.008 375.562 153.008 375.858V380H152.002ZM156.467 380V373.455H157.473V380H156.467ZM156.979 372.364C156.783 372.364 156.614 372.297 156.472 372.163C156.332 372.03 156.263 371.869 156.263 371.682C156.263 371.494 156.332 371.334 156.472 371.2C156.614 371.067 156.783 371 156.979 371C157.175 371 157.342 371.067 157.482 371.2C157.624 371.334 157.695 371.494 157.695 371.682C157.695 371.869 157.624 372.03 157.482 372.163C157.342 372.297 157.175 372.364 156.979 372.364ZM161.974 380.136C161.36 380.136 160.832 379.991 160.389 379.702C159.946 379.412 159.605 379.013 159.366 378.504C159.127 377.996 159.008 377.415 159.008 376.761C159.008 376.097 159.13 375.51 159.375 375.001C159.622 374.49 159.966 374.091 160.406 373.804C160.849 373.514 161.366 373.369 161.957 373.369C162.417 373.369 162.832 373.455 163.201 373.625C163.571 373.795 163.873 374.034 164.109 374.341C164.345 374.648 164.491 375.006 164.548 375.415H163.542C163.466 375.116 163.295 374.852 163.031 374.622C162.77 374.389 162.417 374.273 161.974 374.273C161.582 374.273 161.238 374.375 160.943 374.58C160.65 374.781 160.422 375.067 160.257 375.436C160.095 375.803 160.014 376.233 160.014 376.727C160.014 377.233 160.093 377.673 160.252 378.048C160.414 378.423 160.642 378.714 160.934 378.922C161.23 379.129 161.576 379.233 161.974 379.233C162.235 379.233 162.473 379.188 162.686 379.097C162.899 379.006 163.079 378.875 163.227 378.705C163.375 378.534 163.48 378.33 163.542 378.091H164.548C164.491 378.477 164.35 378.825 164.126 379.135C163.904 379.442 163.61 379.686 163.244 379.868C162.88 380.047 162.457 380.136 161.974 380.136ZM161.497 379.966H162.332L162.264 380.307C162.485 380.341 162.689 380.433 162.873 380.584C163.058 380.737 163.15 380.98 163.15 381.312C163.15 381.679 162.998 381.977 162.694 382.207C162.393 382.44 161.949 382.557 161.36 382.557L161.326 381.892C161.591 381.892 161.809 381.849 161.983 381.764C162.159 381.682 162.247 381.543 162.247 381.347C162.247 381.151 162.174 381.017 162.029 380.946C161.885 380.875 161.65 380.827 161.326 380.801L161.497 379.966ZM167.944 380.153C167.529 380.153 167.153 380.075 166.815 379.919C166.477 379.76 166.208 379.531 166.01 379.233C165.811 378.932 165.711 378.568 165.711 378.142C165.711 377.767 165.785 377.463 165.933 377.23C166.081 376.994 166.278 376.81 166.525 376.676C166.772 376.543 167.045 376.443 167.343 376.378C167.645 376.31 167.947 376.256 168.251 376.216C168.649 376.165 168.971 376.126 169.218 376.101C169.468 376.072 169.65 376.026 169.764 375.96C169.88 375.895 169.939 375.781 169.939 375.619V375.585C169.939 375.165 169.824 374.838 169.593 374.605C169.366 374.372 169.021 374.256 168.558 374.256C168.078 374.256 167.701 374.361 167.429 374.571C167.156 374.781 166.964 375.006 166.853 375.244L165.899 374.903C166.069 374.506 166.297 374.196 166.581 373.974C166.868 373.75 167.18 373.594 167.518 373.506C167.859 373.415 168.194 373.369 168.524 373.369C168.734 373.369 168.975 373.395 169.248 373.446C169.524 373.494 169.789 373.595 170.045 373.749C170.304 373.902 170.518 374.134 170.689 374.443C170.859 374.753 170.944 375.168 170.944 375.688V380H169.939V379.114H169.887C169.819 379.256 169.706 379.408 169.547 379.57C169.387 379.732 169.176 379.869 168.912 379.983C168.647 380.097 168.325 380.153 167.944 380.153ZM168.098 379.25C168.495 379.25 168.831 379.172 169.103 379.016C169.379 378.859 169.586 378.658 169.725 378.411C169.868 378.163 169.939 377.903 169.939 377.631V376.71C169.896 376.761 169.802 376.808 169.657 376.851C169.515 376.891 169.35 376.926 169.163 376.957C168.978 376.986 168.798 377.011 168.622 377.034C168.449 377.054 168.308 377.071 168.2 377.085C167.939 377.119 167.694 377.175 167.467 377.251C167.243 377.325 167.061 377.437 166.922 377.588C166.785 377.736 166.717 377.937 166.717 378.193C166.717 378.543 166.846 378.807 167.105 378.986C167.366 379.162 167.697 379.25 168.098 379.25ZM167.279 372.67L166.495 372.636C166.495 372.202 166.619 371.847 166.866 371.571C167.116 371.293 167.424 371.153 167.791 371.153C167.953 371.153 168.096 371.182 168.221 371.239C168.346 371.293 168.466 371.355 168.579 371.426C168.693 371.497 168.809 371.561 168.929 371.618C169.051 371.672 169.189 371.699 169.342 371.699C169.504 371.699 169.64 371.636 169.751 371.511C169.865 371.384 169.922 371.23 169.922 371.051L170.689 371.119C170.689 371.562 170.564 371.915 170.314 372.176C170.066 372.437 169.76 372.568 169.393 372.568C169.197 372.568 169.035 372.541 168.907 372.487C168.779 372.43 168.666 372.366 168.566 372.295C168.467 372.224 168.362 372.162 168.251 372.108C168.14 372.051 168.004 372.023 167.842 372.023C167.68 372.023 167.545 372.087 167.437 372.214C167.332 372.339 167.279 372.491 167.279 372.67ZM175.439 380.136C174.848 380.136 174.33 379.996 173.884 379.714C173.44 379.433 173.094 379.04 172.844 378.534C172.597 378.028 172.473 377.437 172.473 376.761C172.473 376.08 172.597 375.484 172.844 374.976C173.094 374.467 173.44 374.072 173.884 373.791C174.33 373.51 174.848 373.369 175.439 373.369C176.03 373.369 176.547 373.51 176.99 373.791C177.436 374.072 177.783 374.467 178.03 374.976C178.28 375.484 178.405 376.08 178.405 376.761C178.405 377.437 178.28 378.028 178.03 378.534C177.783 379.04 177.436 379.433 176.99 379.714C176.547 379.996 176.03 380.136 175.439 380.136ZM175.439 379.233C175.888 379.233 176.257 379.118 176.547 378.888C176.837 378.658 177.051 378.355 177.19 377.98C177.33 377.605 177.399 377.199 177.399 376.761C177.399 376.324 177.33 375.916 177.19 375.538C177.051 375.161 176.837 374.855 176.547 374.622C176.257 374.389 175.888 374.273 175.439 374.273C174.99 374.273 174.621 374.389 174.331 374.622C174.041 374.855 173.827 375.161 173.688 375.538C173.548 375.916 173.479 376.324 173.479 376.761C173.479 377.199 173.548 377.605 173.688 377.98C173.827 378.355 174.041 378.658 174.331 378.888C174.621 379.118 174.99 379.233 175.439 379.233ZM183.451 380V371.273H184.457V374.494H184.542C184.616 374.381 184.718 374.236 184.849 374.06C184.983 373.881 185.173 373.722 185.42 373.582C185.67 373.44 186.008 373.369 186.434 373.369C186.985 373.369 187.471 373.507 187.892 373.783C188.312 374.058 188.64 374.449 188.876 374.955C189.112 375.46 189.23 376.057 189.23 376.744C189.23 377.438 189.112 378.038 188.876 378.547C188.64 379.053 188.314 379.445 187.896 379.723C187.478 379.999 186.997 380.136 186.451 380.136C186.031 380.136 185.694 380.067 185.441 379.928C185.189 379.786 184.994 379.625 184.858 379.446C184.721 379.264 184.616 379.114 184.542 378.994H184.423V380H183.451ZM184.44 376.727C184.44 377.222 184.512 377.658 184.657 378.036C184.802 378.411 185.014 378.705 185.292 378.918C185.571 379.128 185.912 379.233 186.315 379.233C186.735 379.233 187.086 379.122 187.368 378.901C187.652 378.676 187.865 378.375 188.007 377.997C188.152 377.616 188.224 377.193 188.224 376.727C188.224 376.267 188.153 375.852 188.011 375.483C187.872 375.111 187.66 374.817 187.376 374.601C187.095 374.382 186.741 374.273 186.315 374.273C185.906 374.273 185.562 374.376 185.284 374.584C185.005 374.788 184.795 375.075 184.653 375.445C184.511 375.811 184.44 376.239 184.44 376.727ZM190.768 380V373.455H191.74V374.443H191.808C191.927 374.119 192.143 373.857 192.456 373.655C192.768 373.453 193.12 373.352 193.512 373.352C193.586 373.352 193.679 373.354 193.789 373.357C193.9 373.359 193.984 373.364 194.041 373.369V374.392C194.007 374.384 193.929 374.371 193.806 374.354C193.687 374.334 193.561 374.324 193.427 374.324C193.109 374.324 192.825 374.391 192.575 374.524C192.328 374.655 192.132 374.837 191.987 375.07C191.845 375.3 191.774 375.562 191.774 375.858V380H190.768ZM197.778 380.136C197.147 380.136 196.603 379.997 196.146 379.719C195.691 379.438 195.341 379.045 195.093 378.543C194.849 378.037 194.727 377.449 194.727 376.778C194.727 376.108 194.849 375.517 195.093 375.006C195.341 374.491 195.684 374.091 196.125 373.804C196.568 373.514 197.085 373.369 197.676 373.369C198.017 373.369 198.353 373.426 198.686 373.54C199.018 373.653 199.321 373.838 199.593 374.094C199.866 374.347 200.083 374.682 200.245 375.099C200.407 375.517 200.488 376.031 200.488 376.642V377.068H195.443V376.199H199.466C199.466 375.83 199.392 375.5 199.244 375.21C199.099 374.92 198.892 374.692 198.622 374.524C198.355 374.357 198.039 374.273 197.676 374.273C197.275 374.273 196.929 374.372 196.636 374.571C196.346 374.767 196.123 375.023 195.967 375.338C195.811 375.653 195.733 375.991 195.733 376.352V376.932C195.733 377.426 195.818 377.845 195.988 378.189C196.162 378.53 196.402 378.79 196.708 378.969C197.015 379.145 197.372 379.233 197.778 379.233C198.042 379.233 198.281 379.196 198.494 379.122C198.71 379.045 198.896 378.932 199.052 378.781C199.208 378.628 199.329 378.437 199.414 378.21L200.386 378.483C200.284 378.812 200.112 379.102 199.87 379.352C199.629 379.599 199.331 379.793 198.975 379.932C198.62 380.068 198.221 380.136 197.778 380.136ZM207.171 373.455L204.751 380H203.728L201.308 373.455H202.398L204.205 378.67H204.273L206.08 373.455H207.171ZM211.009 380.136C210.378 380.136 209.834 379.997 209.376 379.719C208.922 379.438 208.571 379.045 208.324 378.543C208.08 378.037 207.957 377.449 207.957 376.778C207.957 376.108 208.08 375.517 208.324 375.006C208.571 374.491 208.915 374.091 209.355 373.804C209.798 373.514 210.315 373.369 210.906 373.369C211.247 373.369 211.584 373.426 211.916 373.54C212.249 373.653 212.551 373.838 212.824 374.094C213.097 374.347 213.314 374.682 213.476 375.099C213.638 375.517 213.719 376.031 213.719 376.642V377.068H208.673V376.199H212.696C212.696 375.83 212.622 375.5 212.474 375.21C212.33 374.92 212.122 374.692 211.852 374.524C211.585 374.357 211.27 374.273 210.906 374.273C210.506 374.273 210.159 374.372 209.866 374.571C209.577 374.767 209.354 375.023 209.197 375.338C209.041 375.653 208.963 375.991 208.963 376.352V376.932C208.963 377.426 209.048 377.845 209.219 378.189C209.392 378.53 209.632 378.79 209.939 378.969C210.246 379.145 210.602 379.233 211.009 379.233C211.273 379.233 211.511 379.196 211.724 379.122C211.94 379.045 212.126 378.932 212.283 378.781C212.439 378.628 212.56 378.437 212.645 378.21L213.616 378.483C213.514 378.812 213.342 379.102 213.101 379.352C212.859 379.599 212.561 379.793 212.206 379.932C211.851 380.068 211.452 380.136 211.009 380.136ZM221.095 380.136C220.55 380.136 220.068 379.999 219.651 379.723C219.233 379.445 218.906 379.053 218.67 378.547C218.435 378.038 218.317 377.438 218.317 376.744C218.317 376.057 218.435 375.46 218.67 374.955C218.906 374.449 219.234 374.058 219.655 373.783C220.075 373.507 220.561 373.369 221.112 373.369C221.538 373.369 221.875 373.44 222.122 373.582C222.372 373.722 222.563 373.881 222.693 374.06C222.827 374.236 222.93 374.381 223.004 374.494H223.089V371.273H224.095V380H223.124V378.994H223.004C222.93 379.114 222.825 379.264 222.689 379.446C222.553 379.625 222.358 379.786 222.105 379.928C221.852 380.067 221.516 380.136 221.095 380.136ZM221.232 379.233C221.635 379.233 221.976 379.128 222.254 378.918C222.533 378.705 222.744 378.411 222.889 378.036C223.034 377.658 223.107 377.222 223.107 376.727C223.107 376.239 223.036 375.811 222.893 375.445C222.751 375.075 222.541 374.788 222.263 374.584C221.984 374.376 221.641 374.273 221.232 374.273C220.805 374.273 220.45 374.382 220.166 374.601C219.885 374.817 219.673 375.111 219.531 375.483C219.392 375.852 219.322 376.267 219.322 376.727C219.322 377.193 219.393 377.616 219.536 377.997C219.68 378.375 219.893 378.676 220.175 378.901C220.459 379.122 220.811 379.233 221.232 379.233ZM228.736 380.136C228.145 380.136 227.626 379.996 227.18 379.714C226.737 379.433 226.391 379.04 226.141 378.534C225.893 378.028 225.77 377.437 225.77 376.761C225.77 376.08 225.893 375.484 226.141 374.976C226.391 374.467 226.737 374.072 227.18 373.791C227.626 373.51 228.145 373.369 228.736 373.369C229.327 373.369 229.844 373.51 230.287 373.791C230.733 374.072 231.08 374.467 231.327 374.976C231.577 375.484 231.702 376.08 231.702 376.761C231.702 377.437 231.577 378.028 231.327 378.534C231.08 379.04 230.733 379.433 230.287 379.714C229.844 379.996 229.327 380.136 228.736 380.136ZM228.736 379.233C229.185 379.233 229.554 379.118 229.844 378.888C230.134 378.658 230.348 378.355 230.487 377.98C230.626 377.605 230.696 377.199 230.696 376.761C230.696 376.324 230.626 375.916 230.487 375.538C230.348 375.161 230.134 374.855 229.844 374.622C229.554 374.389 229.185 374.273 228.736 374.273C228.287 374.273 227.918 374.389 227.628 374.622C227.338 374.855 227.124 375.161 226.984 375.538C226.845 375.916 226.776 376.324 226.776 376.761C226.776 377.199 226.845 377.605 226.984 377.98C227.124 378.355 227.338 378.658 227.628 378.888C227.918 379.118 228.287 379.233 228.736 379.233ZM241.964 373.455L239.544 380H238.521L236.1 373.455H237.191L238.998 378.67H239.066L240.873 373.455H241.964ZM243.292 380V373.455H244.297V380H243.292ZM243.343 372.568L244.382 370.591H245.559L244.229 372.568H243.343ZM248.611 380.136C248.065 380.136 247.584 379.999 247.166 379.723C246.749 379.445 246.422 379.053 246.186 378.547C245.95 378.038 245.832 377.438 245.832 376.744C245.832 376.057 245.95 375.46 246.186 374.955C246.422 374.449 246.75 374.058 247.17 373.783C247.591 373.507 248.077 373.369 248.628 373.369C249.054 373.369 249.391 373.44 249.638 373.582C249.888 373.722 250.078 373.881 250.209 374.06C250.342 374.236 250.446 374.381 250.52 374.494H250.605V371.273H251.611V380H250.639V378.994H250.52C250.446 379.114 250.341 379.264 250.205 379.446C250.068 379.625 249.874 379.786 249.621 379.928C249.368 380.067 249.031 380.136 248.611 380.136ZM248.747 379.233C249.151 379.233 249.491 379.128 249.77 378.918C250.048 378.705 250.26 378.411 250.405 378.036C250.55 377.658 250.622 377.222 250.622 376.727C250.622 376.239 250.551 375.811 250.409 375.445C250.267 375.075 250.057 374.788 249.778 374.584C249.5 374.376 249.156 374.273 248.747 374.273C248.321 374.273 247.966 374.382 247.682 374.601C247.401 374.817 247.189 375.111 247.047 375.483C246.908 375.852 246.838 376.267 246.838 376.727C246.838 377.193 246.909 377.616 247.051 377.997C247.196 378.375 247.409 378.676 247.69 378.901C247.974 379.122 248.327 379.233 248.747 379.233ZM256.337 380.136C255.706 380.136 255.162 379.997 254.705 379.719C254.25 379.438 253.899 379.045 253.652 378.543C253.408 378.037 253.286 377.449 253.286 376.778C253.286 376.108 253.408 375.517 253.652 375.006C253.899 374.491 254.243 374.091 254.683 373.804C255.126 373.514 255.643 373.369 256.234 373.369C256.575 373.369 256.912 373.426 257.244 373.54C257.577 373.653 257.879 373.838 258.152 374.094C258.425 374.347 258.642 374.682 258.804 375.099C258.966 375.517 259.047 376.031 259.047 376.642V377.068H254.001V376.199H258.024C258.024 375.83 257.95 375.5 257.803 375.21C257.658 374.92 257.45 374.692 257.18 374.524C256.913 374.357 256.598 374.273 256.234 374.273C255.834 374.273 255.487 374.372 255.195 374.571C254.905 374.767 254.682 375.023 254.526 375.338C254.369 375.653 254.291 375.991 254.291 376.352V376.932C254.291 377.426 254.376 377.845 254.547 378.189C254.72 378.53 254.96 378.79 255.267 378.969C255.574 379.145 255.93 379.233 256.337 379.233C256.601 379.233 256.839 379.196 257.053 379.122C257.268 379.045 257.455 378.932 257.611 378.781C257.767 378.628 257.888 378.437 257.973 378.21L258.945 378.483C258.842 378.812 258.67 379.102 258.429 379.352C258.188 379.599 257.889 379.793 257.534 379.932C257.179 380.068 256.78 380.136 256.337 380.136ZM263.236 380.136C262.645 380.136 262.126 379.996 261.68 379.714C261.237 379.433 260.891 379.04 260.641 378.534C260.393 378.028 260.27 377.437 260.27 376.761C260.27 376.08 260.393 375.484 260.641 374.976C260.891 374.467 261.237 374.072 261.68 373.791C262.126 373.51 262.645 373.369 263.236 373.369C263.827 373.369 264.344 373.51 264.787 373.791C265.233 374.072 265.58 374.467 265.827 374.976C266.077 375.484 266.202 376.08 266.202 376.761C266.202 377.437 266.077 378.028 265.827 378.534C265.58 379.04 265.233 379.433 264.787 379.714C264.344 379.996 263.827 380.136 263.236 380.136ZM263.236 379.233C263.685 379.233 264.054 379.118 264.344 378.888C264.634 378.658 264.848 378.355 264.987 377.98C265.126 377.605 265.196 377.199 265.196 376.761C265.196 376.324 265.126 375.916 264.987 375.538C264.848 375.161 264.634 374.855 264.344 374.622C264.054 374.389 263.685 374.273 263.236 374.273C262.787 374.273 262.418 374.389 262.128 374.622C261.838 374.855 261.624 375.161 261.484 375.538C261.345 375.916 261.276 376.324 261.276 376.761C261.276 377.199 261.345 377.605 261.484 377.98C261.624 378.355 261.838 378.658 262.128 378.888C262.418 379.118 262.787 379.233 263.236 379.233ZM268.47 380.068C268.26 380.068 268.079 379.993 267.929 379.842C267.778 379.692 267.703 379.511 267.703 379.301C267.703 379.091 267.778 378.911 267.929 378.76C268.079 378.609 268.26 378.534 268.47 378.534C268.68 378.534 268.86 378.609 269.011 378.76C269.162 378.911 269.237 379.091 269.237 379.301C269.237 379.44 269.201 379.568 269.13 379.685C269.062 379.801 268.97 379.895 268.853 379.966C268.74 380.034 268.612 380.068 268.47 380.068ZM271.775 380.068C271.564 380.068 271.384 379.993 271.233 379.842C271.083 379.692 271.007 379.511 271.007 379.301C271.007 379.091 271.083 378.911 271.233 378.76C271.384 378.609 271.564 378.534 271.775 378.534C271.985 378.534 272.165 378.609 272.316 378.76C272.466 378.911 272.542 379.091 272.542 379.301C272.542 379.44 272.506 379.568 272.435 379.685C272.367 379.801 272.275 379.895 272.158 379.966C272.044 380.034 271.917 380.068 271.775 380.068ZM275.079 380.068C274.869 380.068 274.689 379.993 274.538 379.842C274.387 379.692 274.312 379.511 274.312 379.301C274.312 379.091 274.387 378.911 274.538 378.76C274.689 378.609 274.869 378.534 275.079 378.534C275.289 378.534 275.47 378.609 275.62 378.76C275.771 378.911 275.846 379.091 275.846 379.301C275.846 379.44 275.811 379.568 275.74 379.685C275.672 379.801 275.579 379.895 275.463 379.966C275.349 380.034 275.221 380.068 275.079 380.068Z" fill="#AAAAAA"/>
<path d="M294 420H106C102.686 420 100 422.686 100 426V454C100 457.314 102.686 460 106 460H294C297.314 460 300 457.314 300 454V426C300 422.686 297.314 420 294 420Z" fill="#2ECC71"/>
<path d="M177.151 445H175.858L179.597 434.818H180.869L184.608 445H183.315L180.273 436.429H180.193L177.151 445ZM177.628 441.023H182.838V442.116H177.628V441.023ZM191.444 439.074L190.39 439.372C190.324 439.196 190.226 439.026 190.097 438.86C189.971 438.691 189.798 438.552 189.58 438.442C189.361 438.333 189.081 438.278 188.739 438.278C188.272 438.278 187.883 438.386 187.571 438.602C187.263 438.814 187.109 439.084 187.109 439.412C187.109 439.704 187.215 439.934 187.427 440.103C187.639 440.272 187.97 440.413 188.421 440.526L189.555 440.804C190.237 440.97 190.746 441.223 191.081 441.565C191.416 441.903 191.583 442.339 191.583 442.872C191.583 443.31 191.457 443.701 191.205 444.045C190.957 444.39 190.609 444.662 190.161 444.861C189.714 445.06 189.193 445.159 188.6 445.159C187.821 445.159 187.177 444.99 186.666 444.652C186.156 444.314 185.833 443.82 185.697 443.17L186.81 442.892C186.916 443.303 187.117 443.611 187.412 443.817C187.71 444.022 188.1 444.125 188.58 444.125C189.127 444.125 189.561 444.009 189.883 443.777C190.208 443.542 190.37 443.26 190.37 442.932C190.37 442.667 190.277 442.445 190.092 442.266C189.906 442.083 189.621 441.947 189.237 441.858L187.964 441.56C187.264 441.394 186.751 441.137 186.423 440.789C186.098 440.438 185.935 439.999 185.935 439.472C185.935 439.041 186.056 438.66 186.298 438.328C186.544 437.997 186.877 437.737 187.298 437.548C187.722 437.359 188.202 437.264 188.739 437.264C189.495 437.264 190.088 437.43 190.519 437.761C190.953 438.093 191.262 438.53 191.444 439.074ZM198.758 439.074L197.704 439.372C197.638 439.196 197.54 439.026 197.411 438.86C197.285 438.691 197.113 438.552 196.894 438.442C196.675 438.333 196.395 438.278 196.054 438.278C195.586 438.278 195.197 438.386 194.885 438.602C194.577 438.814 194.423 439.084 194.423 439.412C194.423 439.704 194.529 439.934 194.741 440.103C194.953 440.272 195.285 440.413 195.736 440.526L196.869 440.804C197.552 440.97 198.061 441.223 198.395 441.565C198.73 441.903 198.898 442.339 198.898 442.872C198.898 443.31 198.772 443.701 198.52 444.045C198.271 444.39 197.923 444.662 197.476 444.861C197.028 445.06 196.508 445.159 195.915 445.159C195.136 445.159 194.491 444.99 193.981 444.652C193.47 444.314 193.147 443.82 193.011 443.17L194.125 442.892C194.231 443.303 194.431 443.611 194.726 443.817C195.025 444.022 195.414 444.125 195.895 444.125C196.442 444.125 196.876 444.009 197.197 443.777C197.522 443.542 197.684 443.26 197.684 442.932C197.684 442.667 197.592 442.445 197.406 442.266C197.22 442.083 196.935 441.947 196.551 441.858L195.278 441.56C194.579 441.394 194.065 441.137 193.737 440.789C193.412 440.438 193.25 439.999 193.25 439.472C193.25 439.041 193.371 438.66 193.613 438.328C193.858 437.997 194.191 437.737 194.612 437.548C195.036 437.359 195.517 437.264 196.054 437.264C196.809 437.264 197.403 437.43 197.834 437.761C198.268 438.093 198.576 438.53 198.758 439.074ZM200.664 445V437.364H201.837V445H200.664ZM201.26 436.091C201.032 436.091 200.834 436.013 200.669 435.857C200.506 435.701 200.425 435.514 200.425 435.295C200.425 435.077 200.506 434.889 200.669 434.734C200.834 434.578 201.032 434.5 201.26 434.5C201.489 434.5 201.685 434.578 201.847 434.734C202.013 434.889 202.096 435.077 202.096 435.295C202.096 435.514 202.013 435.701 201.847 435.857C201.685 436.013 201.489 436.091 201.26 436.091ZM209.395 439.074L208.341 439.372C208.275 439.196 208.177 439.026 208.048 438.86C207.922 438.691 207.749 438.552 207.531 438.442C207.312 438.333 207.032 438.278 206.691 438.278C206.223 438.278 205.834 438.386 205.522 438.602C205.214 438.814 205.06 439.084 205.06 439.412C205.06 439.704 205.166 439.934 205.378 440.103C205.59 440.272 205.922 440.413 206.372 440.526L207.506 440.804C208.189 440.97 208.697 441.223 209.032 441.565C209.367 441.903 209.534 442.339 209.534 442.872C209.534 443.31 209.408 443.701 209.156 444.045C208.908 444.39 208.56 444.662 208.112 444.861C207.665 445.06 207.145 445.159 206.551 445.159C205.772 445.159 205.128 444.99 204.617 444.652C204.107 444.314 203.784 443.82 203.648 443.17L204.762 442.892C204.868 443.303 205.068 443.611 205.363 443.817C205.661 444.022 206.051 444.125 206.531 444.125C207.078 444.125 207.512 444.009 207.834 443.777C208.159 443.542 208.321 443.26 208.321 442.932C208.321 442.667 208.228 442.445 208.043 442.266C207.857 442.083 207.572 441.947 207.188 441.858L205.915 441.56C205.216 441.394 204.702 441.137 204.374 440.789C204.049 440.438 203.887 439.999 203.887 439.472C203.887 439.041 204.008 438.66 204.249 438.328C204.495 437.997 204.828 437.737 205.249 437.548C205.673 437.359 206.154 437.264 206.691 437.264C207.446 437.264 208.039 437.43 208.47 437.761C208.905 438.093 209.213 438.53 209.395 439.074ZM214.621 437.364V438.358H210.664V437.364H214.621ZM211.817 435.534H212.991V442.812C212.991 443.144 213.039 443.393 213.135 443.558C213.234 443.721 213.36 443.83 213.513 443.886C213.669 443.939 213.833 443.966 214.005 443.966C214.134 443.966 214.24 443.959 214.323 443.946C214.406 443.929 214.472 443.916 214.522 443.906L214.761 444.96C214.681 444.99 214.57 445.02 214.428 445.05C214.285 445.083 214.104 445.099 213.886 445.099C213.554 445.099 213.229 445.028 212.911 444.886C212.596 444.743 212.335 444.526 212.126 444.234C211.92 443.943 211.817 443.575 211.817 443.131V435.534ZM216.386 445V437.364H217.56V445H216.386ZM216.983 436.091C216.754 436.091 216.557 436.013 216.391 435.857C216.229 435.701 216.148 435.514 216.148 435.295C216.148 435.077 216.229 434.889 216.391 434.734C216.557 434.578 216.754 434.5 216.983 434.5C217.212 434.5 217.407 434.578 217.57 434.734C217.735 434.889 217.818 435.077 217.818 435.295C217.818 435.514 217.735 435.701 217.57 435.857C217.407 436.013 217.212 436.091 216.983 436.091ZM219.709 445V437.364H220.842V438.517H220.922C221.061 438.139 221.313 437.833 221.677 437.597C222.042 437.362 222.453 437.244 222.91 437.244C222.997 437.244 223.104 437.246 223.233 437.249C223.363 437.253 223.461 437.258 223.527 437.264V438.457C223.487 438.447 223.396 438.433 223.253 438.413C223.114 438.389 222.967 438.378 222.811 438.378C222.44 438.378 222.108 438.456 221.817 438.612C221.528 438.764 221.3 438.976 221.131 439.248C220.965 439.516 220.882 439.823 220.882 440.168V445H219.709Z" fill="white"/>
<path d="M400 650H0V700H400V650Z" fill="#1E1A21"/>
<path d="M50 658C50 653.582 53.5817 650 58 650H159C163.418 650 167 653.582 167 658V692C167 696.418 163.418 700 159 700H58C53.5817 700 50 696.418 50 692V658Z" fill="#2D2828"/>
<path d="M241.5 658C241.5 653.582 245.082 650 249.5 650H350.5C354.918 650 358.5 653.582 358.5 658V692C358.5 696.418 354.918 700 350.5 700H249.5C245.082 700 241.5 696.418 241.5 692V658Z" fill="#2D2828"/>
<path d="M254.409 681V669.364H261.432V670.614H255.818V674.545H261.068V675.795H255.818V679.75H261.523V681H254.409ZM265.131 675.75V681H263.79V672.273H265.085V673.636H265.199C265.403 673.193 265.714 672.837 266.131 672.568C266.547 672.295 267.085 672.159 267.744 672.159C268.335 672.159 268.852 672.28 269.295 672.523C269.739 672.761 270.083 673.125 270.33 673.614C270.576 674.098 270.699 674.712 270.699 675.455V681H269.358V675.545C269.358 674.86 269.18 674.326 268.824 673.943C268.468 673.557 267.979 673.364 267.358 673.364C266.93 673.364 266.547 673.456 266.21 673.642C265.877 673.828 265.614 674.098 265.42 674.455C265.227 674.811 265.131 675.242 265.131 675.75ZM279.973 672.273L276.746 681H275.382L272.155 672.273H273.609L276.018 679.227H276.109L278.518 672.273H279.973ZM281.743 681V672.273H283.084V681H281.743ZM282.425 670.818C282.163 670.818 281.938 670.729 281.749 670.551C281.563 670.373 281.47 670.159 281.47 669.909C281.47 669.659 281.563 669.445 281.749 669.267C281.938 669.089 282.163 669 282.425 669C282.686 669 282.91 669.089 283.095 669.267C283.285 669.445 283.379 669.659 283.379 669.909C283.379 670.159 283.285 670.373 283.095 670.551C282.91 670.729 282.686 670.818 282.425 670.818ZM288.108 681.205C287.555 681.205 287.053 681.1 286.602 680.892C286.152 680.68 285.794 680.375 285.528 679.977C285.263 679.576 285.131 679.091 285.131 678.523C285.131 678.023 285.229 677.617 285.426 677.307C285.623 676.992 285.886 676.746 286.216 676.568C286.545 676.39 286.909 676.258 287.307 676.17C287.708 676.08 288.112 676.008 288.517 675.955C289.047 675.886 289.477 675.835 289.807 675.801C290.14 675.763 290.383 675.701 290.534 675.614C290.689 675.527 290.767 675.375 290.767 675.159V675.114C290.767 674.553 290.614 674.117 290.307 673.807C290.004 673.496 289.544 673.341 288.926 673.341C288.286 673.341 287.784 673.481 287.42 673.761C287.057 674.042 286.801 674.341 286.653 674.659L285.381 674.205C285.608 673.674 285.911 673.261 286.29 672.966C286.672 672.667 287.089 672.458 287.54 672.341C287.994 672.22 288.441 672.159 288.881 672.159C289.161 672.159 289.483 672.193 289.847 672.261C290.214 672.326 290.568 672.46 290.909 672.665C291.254 672.869 291.54 673.178 291.767 673.591C291.994 674.004 292.108 674.557 292.108 675.25V681H290.767V679.818H290.699C290.608 680.008 290.456 680.21 290.244 680.426C290.032 680.642 289.75 680.826 289.398 680.977C289.045 681.129 288.616 681.205 288.108 681.205ZM288.312 680C288.843 680 289.29 679.896 289.653 679.688C290.021 679.479 290.297 679.21 290.483 678.881C290.672 678.551 290.767 678.205 290.767 677.841V676.614C290.71 676.682 290.585 676.744 290.392 676.801C290.203 676.854 289.983 676.902 289.733 676.943C289.487 676.981 289.246 677.015 289.011 677.045C288.78 677.072 288.593 677.095 288.449 677.114C288.1 677.159 287.775 677.233 287.472 677.335C287.172 677.434 286.93 677.583 286.744 677.784C286.563 677.981 286.472 678.25 286.472 678.591C286.472 679.057 286.644 679.409 286.989 679.648C287.337 679.883 287.778 680 288.312 680ZM294.555 681V672.273H295.851V673.591H295.942C296.101 673.159 296.389 672.809 296.805 672.54C297.222 672.271 297.692 672.136 298.214 672.136C298.313 672.136 298.436 672.138 298.584 672.142C298.732 672.146 298.843 672.152 298.919 672.159V673.523C298.874 673.511 298.769 673.494 298.607 673.472C298.447 673.445 298.279 673.432 298.101 673.432C297.677 673.432 297.298 673.521 296.964 673.699C296.635 673.873 296.374 674.116 296.18 674.426C295.991 674.733 295.896 675.083 295.896 675.477V681H294.555ZM305.668 669.364L309.122 679.159H309.259L312.713 669.364H314.19L309.918 681H308.463L304.19 669.364H305.668ZM315.821 681V672.273H317.162V681H315.821ZM315.889 671.091L317.276 668.455H318.844L317.071 671.091H315.889ZM322.913 681.182C322.186 681.182 321.544 680.998 320.987 680.631C320.43 680.259 319.995 679.737 319.68 679.062C319.366 678.384 319.209 677.583 319.209 676.659C319.209 675.742 319.366 674.947 319.68 674.273C319.995 673.598 320.432 673.078 320.993 672.71C321.554 672.343 322.201 672.159 322.936 672.159C323.504 672.159 323.953 672.254 324.283 672.443C324.616 672.629 324.87 672.841 325.044 673.08C325.222 673.314 325.36 673.508 325.459 673.659H325.572V669.364H326.913V681H325.618V679.659H325.459C325.36 679.818 325.22 680.019 325.038 680.261C324.857 680.5 324.597 680.714 324.26 680.903C323.923 681.089 323.474 681.182 322.913 681.182ZM323.095 679.977C323.633 679.977 324.088 679.837 324.459 679.557C324.83 679.273 325.112 678.881 325.305 678.381C325.499 677.877 325.595 677.295 325.595 676.636C325.595 675.985 325.5 675.415 325.311 674.926C325.122 674.434 324.841 674.051 324.47 673.778C324.099 673.502 323.641 673.364 323.095 673.364C322.527 673.364 322.054 673.509 321.675 673.801C321.3 674.089 321.018 674.481 320.828 674.977C320.643 675.47 320.55 676.023 320.55 676.636C320.55 677.258 320.644 677.822 320.834 678.33C321.027 678.833 321.311 679.235 321.686 679.534C322.065 679.83 322.535 679.977 323.095 679.977ZM333.214 681.182C332.374 681.182 331.648 680.996 331.038 680.625C330.432 680.25 329.964 679.727 329.635 679.057C329.309 678.383 329.146 677.598 329.146 676.705C329.146 675.811 329.309 675.023 329.635 674.341C329.964 673.655 330.423 673.121 331.01 672.739C331.601 672.352 332.29 672.159 333.078 672.159C333.533 672.159 333.982 672.235 334.425 672.386C334.868 672.538 335.271 672.784 335.635 673.125C335.999 673.462 336.288 673.909 336.504 674.466C336.72 675.023 336.828 675.708 336.828 676.523V677.091H330.101V675.932H335.464C335.464 675.439 335.366 675 335.169 674.614C334.976 674.227 334.699 673.922 334.339 673.699C333.983 673.475 333.563 673.364 333.078 673.364C332.544 673.364 332.082 673.496 331.692 673.761C331.305 674.023 331.008 674.364 330.8 674.784C330.591 675.205 330.487 675.655 330.487 676.136V676.909C330.487 677.568 330.601 678.127 330.828 678.585C331.059 679.04 331.379 679.386 331.788 679.625C332.197 679.86 332.673 679.977 333.214 679.977C333.567 679.977 333.885 679.928 334.169 679.83C334.457 679.727 334.705 679.576 334.913 679.375C335.122 679.17 335.283 678.917 335.396 678.614L336.692 678.977C336.555 679.417 336.326 679.803 336.004 680.136C335.682 680.466 335.285 680.723 334.811 680.909C334.338 681.091 333.805 681.182 333.214 681.182ZM342.413 681.182C341.625 681.182 340.934 680.994 340.339 680.619C339.749 680.244 339.286 679.72 338.953 679.045C338.624 678.371 338.459 677.583 338.459 676.682C338.459 675.773 338.624 674.979 338.953 674.301C339.286 673.623 339.749 673.097 340.339 672.722C340.934 672.347 341.625 672.159 342.413 672.159C343.201 672.159 343.891 672.347 344.482 672.722C345.076 673.097 345.538 673.623 345.868 674.301C346.201 674.979 346.368 675.773 346.368 676.682C346.368 677.583 346.201 678.371 345.868 679.045C345.538 679.72 345.076 680.244 344.482 680.619C343.891 680.994 343.201 681.182 342.413 681.182ZM342.413 679.977C343.012 679.977 343.504 679.824 343.891 679.517C344.277 679.21 344.563 678.807 344.749 678.307C344.934 677.807 345.027 677.265 345.027 676.682C345.027 676.098 344.934 675.555 344.749 675.051C344.563 674.547 344.277 674.14 343.891 673.83C343.504 673.519 343.012 673.364 342.413 673.364C341.815 673.364 341.322 673.519 340.936 673.83C340.55 674.14 340.264 674.547 340.078 675.051C339.893 675.555 339.8 676.098 339.8 676.682C339.8 677.265 339.893 677.807 340.078 678.307C340.264 678.807 340.55 679.21 340.936 679.517C341.322 679.824 341.815 679.977 342.413 679.977Z" fill="white"/>
<path d="M60.4091 669.364H62.0909L66.0455 679.023H66.1818L70.1364 669.364H71.8182V681H70.5V672.159H70.3864L66.75 681H65.4773L61.8409 672.159H61.7273V681H60.4091V669.364ZM78.1207 681.182C77.2798 681.182 76.5545 680.996 75.9446 680.625C75.3385 680.25 74.8707 679.727 74.5412 679.057C74.2154 678.383 74.0526 677.598 74.0526 676.705C74.0526 675.811 74.2154 675.023 74.5412 674.341C74.8707 673.655 75.3291 673.121 75.9162 672.739C76.5071 672.352 77.1965 672.159 77.9844 672.159C78.4389 672.159 78.8878 672.235 79.331 672.386C79.7741 672.538 80.1776 672.784 80.5412 673.125C80.9048 673.462 81.1946 673.909 81.4105 674.466C81.6264 675.023 81.7344 675.708 81.7344 676.523V677.091H75.0071V675.932H80.3707C80.3707 675.439 80.2723 675 80.0753 674.614C79.8821 674.227 79.6056 673.922 79.2457 673.699C78.8897 673.475 78.4692 673.364 77.9844 673.364C77.4503 673.364 76.9882 673.496 76.598 673.761C76.2116 674.023 75.9143 674.364 75.706 674.784C75.4976 675.205 75.3935 675.655 75.3935 676.136V676.909C75.3935 677.568 75.5071 678.127 75.7344 678.585C75.9654 679.04 76.2855 679.386 76.6946 679.625C77.1037 679.86 77.5791 679.977 78.1207 679.977C78.473 679.977 78.7912 679.928 79.0753 679.83C79.3632 679.727 79.6113 679.576 79.8196 679.375C80.0279 679.17 80.1889 678.917 80.3026 678.614L81.598 678.977C81.4616 679.417 81.2325 679.803 80.9105 680.136C80.5885 680.466 80.1908 680.723 79.7173 680.909C79.2438 681.091 78.7116 681.182 78.1207 681.182ZM89.2741 677.432V672.273H90.6151V681H89.2741V679.523H89.1832C88.9787 679.966 88.6605 680.343 88.2287 680.653C87.7969 680.96 87.2514 681.114 86.5923 681.114C86.0469 681.114 85.562 680.994 85.1378 680.756C84.7135 680.513 84.3802 680.15 84.1378 679.665C83.8954 679.176 83.7741 678.561 83.7741 677.818V672.273H85.1151V677.727C85.1151 678.364 85.2931 678.871 85.6491 679.25C86.009 679.629 86.4673 679.818 87.0241 679.818C87.3575 679.818 87.6965 679.733 88.0412 679.562C88.3897 679.392 88.6813 679.131 88.9162 678.778C89.1548 678.426 89.2741 677.977 89.2741 677.432ZM99.2528 674.227L98.0483 674.568C97.9725 674.367 97.8608 674.172 97.7131 673.983C97.5691 673.79 97.3722 673.631 97.1222 673.506C96.8722 673.381 96.5521 673.318 96.1619 673.318C95.6278 673.318 95.1828 673.441 94.8267 673.688C94.4744 673.93 94.2983 674.239 94.2983 674.614C94.2983 674.947 94.4195 675.21 94.6619 675.403C94.9044 675.597 95.2831 675.758 95.7983 675.886L97.0938 676.205C97.8741 676.394 98.4555 676.684 98.8381 677.074C99.2206 677.46 99.4119 677.958 99.4119 678.568C99.4119 679.068 99.268 679.515 98.9801 679.909C98.696 680.303 98.2983 680.614 97.7869 680.841C97.2756 681.068 96.6809 681.182 96.0028 681.182C95.1127 681.182 94.3759 680.989 93.7926 680.602C93.2093 680.216 92.84 679.652 92.6847 678.909L93.9574 678.591C94.0786 679.061 94.3078 679.413 94.6449 679.648C94.9858 679.883 95.4309 680 95.9801 680C96.6051 680 97.1013 679.867 97.4688 679.602C97.84 679.333 98.0256 679.011 98.0256 678.636C98.0256 678.333 97.9195 678.08 97.7074 677.875C97.4953 677.667 97.1695 677.511 96.7301 677.409L95.2756 677.068C94.4763 676.879 93.8892 676.585 93.5142 676.188C93.143 675.786 92.9574 675.284 92.9574 674.682C92.9574 674.189 93.0956 673.754 93.3722 673.375C93.6525 672.996 94.0331 672.699 94.5142 672.483C94.9991 672.267 95.5483 672.159 96.1619 672.159C97.0256 672.159 97.7036 672.348 98.196 672.727C98.6922 673.106 99.0445 673.606 99.2528 674.227ZM106.589 669.364L110.044 679.159H110.18L113.635 669.364H115.112L110.839 681H109.385L105.112 669.364H106.589ZM116.743 681V672.273H118.084V681H116.743ZM116.811 671.091L118.197 668.455H119.766L117.993 671.091H116.811ZM123.835 681.182C123.108 681.182 122.466 680.998 121.909 680.631C121.352 680.259 120.917 679.737 120.602 679.062C120.288 678.384 120.131 677.583 120.131 676.659C120.131 675.742 120.288 674.947 120.602 674.273C120.917 673.598 121.354 673.078 121.915 672.71C122.475 672.343 123.123 672.159 123.858 672.159C124.426 672.159 124.875 672.254 125.205 672.443C125.538 672.629 125.792 672.841 125.966 673.08C126.144 673.314 126.282 673.508 126.381 673.659H126.494V669.364H127.835V681H126.54V679.659H126.381C126.282 679.818 126.142 680.019 125.96 680.261C125.778 680.5 125.519 680.714 125.182 680.903C124.845 681.089 124.396 681.182 123.835 681.182ZM124.017 679.977C124.555 679.977 125.009 679.837 125.381 679.557C125.752 679.273 126.034 678.881 126.227 678.381C126.42 677.877 126.517 677.295 126.517 676.636C126.517 675.985 126.422 675.415 126.233 674.926C126.044 674.434 125.763 674.051 125.392 673.778C125.021 673.502 124.563 673.364 124.017 673.364C123.449 673.364 122.975 673.509 122.597 673.801C122.222 674.089 121.939 674.481 121.75 674.977C121.564 675.47 121.472 676.023 121.472 676.636C121.472 677.258 121.566 677.822 121.756 678.33C121.949 678.833 122.233 679.235 122.608 679.534C122.987 679.83 123.456 679.977 124.017 679.977ZM134.136 681.182C133.295 681.182 132.57 680.996 131.96 680.625C131.354 680.25 130.886 679.727 130.557 679.057C130.231 678.383 130.068 677.598 130.068 676.705C130.068 675.811 130.231 675.023 130.557 674.341C130.886 673.655 131.345 673.121 131.932 672.739C132.523 672.352 133.212 672.159 134 672.159C134.455 672.159 134.903 672.235 135.347 672.386C135.79 672.538 136.193 672.784 136.557 673.125C136.92 673.462 137.21 673.909 137.426 674.466C137.642 675.023 137.75 675.708 137.75 676.523V677.091H131.023V675.932H136.386C136.386 675.439 136.288 675 136.091 674.614C135.898 674.227 135.621 673.922 135.261 673.699C134.905 673.475 134.485 673.364 134 673.364C133.466 673.364 133.004 673.496 132.614 673.761C132.227 674.023 131.93 674.364 131.722 674.784C131.513 675.205 131.409 675.655 131.409 676.136V676.909C131.409 677.568 131.523 678.127 131.75 678.585C131.981 679.04 132.301 679.386 132.71 679.625C133.119 679.86 133.595 679.977 134.136 679.977C134.489 679.977 134.807 679.928 135.091 679.83C135.379 679.727 135.627 679.576 135.835 679.375C136.044 679.17 136.205 678.917 136.318 678.614L137.614 678.977C137.477 679.417 137.248 679.803 136.926 680.136C136.604 680.466 136.206 680.723 135.733 680.909C135.259 681.091 134.727 681.182 134.136 681.182ZM143.335 681.182C142.547 681.182 141.856 680.994 141.261 680.619C140.67 680.244 140.208 679.72 139.875 679.045C139.545 678.371 139.381 677.583 139.381 676.682C139.381 675.773 139.545 674.979 139.875 674.301C140.208 673.623 140.67 673.097 141.261 672.722C141.856 672.347 142.547 672.159 143.335 672.159C144.123 672.159 144.813 672.347 145.403 672.722C145.998 673.097 146.46 673.623 146.79 674.301C147.123 674.979 147.29 675.773 147.29 676.682C147.29 677.583 147.123 678.371 146.79 679.045C146.46 679.72 145.998 680.244 145.403 680.619C144.813 680.994 144.123 681.182 143.335 681.182ZM143.335 679.977C143.934 679.977 144.426 679.824 144.812 679.517C145.199 679.21 145.485 678.807 145.67 678.307C145.856 677.807 145.949 677.265 145.949 676.682C145.949 676.098 145.856 675.555 145.67 675.051C145.485 674.547 145.199 674.14 144.812 673.83C144.426 673.519 143.934 673.364 143.335 673.364C142.737 673.364 142.244 673.519 141.858 673.83C141.472 674.14 141.186 674.547 141 675.051C140.814 675.555 140.722 676.098 140.722 676.682C140.722 677.265 140.814 677.807 141 678.307C141.186 678.807 141.472 679.21 141.858 679.517C142.244 679.824 142.737 679.977 143.335 679.977ZM155.518 674.227L154.314 674.568C154.238 674.367 154.126 674.172 153.979 673.983C153.835 673.79 153.638 673.631 153.388 673.506C153.138 673.381 152.818 673.318 152.428 673.318C151.893 673.318 151.448 673.441 151.092 673.688C150.74 673.93 150.564 674.239 150.564 674.614C150.564 674.947 150.685 675.21 150.928 675.403C151.17 675.597 151.549 675.758 152.064 675.886L153.359 676.205C154.14 676.394 154.721 676.684 155.104 677.074C155.486 677.46 155.678 677.958 155.678 678.568C155.678 679.068 155.534 679.515 155.246 679.909C154.962 680.303 154.564 680.614 154.053 680.841C153.541 681.068 152.946 681.182 152.268 681.182C151.378 681.182 150.642 680.989 150.058 680.602C149.475 680.216 149.106 679.652 148.95 678.909L150.223 678.591C150.344 679.061 150.573 679.413 150.911 679.648C151.251 679.883 151.696 680 152.246 680C152.871 680 153.367 679.867 153.734 679.602C154.106 679.333 154.291 679.011 154.291 678.636C154.291 678.333 154.185 678.08 153.973 677.875C153.761 677.667 153.435 677.511 152.996 677.409L151.541 677.068C150.742 676.879 150.155 676.585 149.78 676.188C149.409 675.786 149.223 675.284 149.223 674.682C149.223 674.189 149.361 673.754 149.638 673.375C149.918 672.996 150.299 672.699 150.78 672.483C151.265 672.267 151.814 672.159 152.428 672.159C153.291 672.159 153.969 672.348 154.462 672.727C154.958 673.106 155.31 673.606 155.518 674.227Z" fill="white"/>
<path d="M50 658C50 653.582 53.5817 650 58 650H159C163.418 650 167 653.582 167 658V692C167 696.418 163.418 700 159 700H58C53.5817 700 50 696.418 50 692V658Z" fill="#2D2828"/>
<path d="M241.5 658C241.5 653.582 245.082 650 249.5 650H350.5C354.918 650 358.5 653.582 358.5 658V692C358.5 696.418 354.918 700 350.5 700H249.5C245.082 700 241.5 696.418 241.5 692V658Z" fill="#2D2828"/>
<path d="M254.409 681V669.364H261.432V670.614H255.818V674.545H261.068V675.795H255.818V679.75H261.523V681H254.409ZM265.131 675.75V681H263.79V672.273H265.085V673.636H265.199C265.403 673.193 265.714 672.837 266.131 672.568C266.547 672.295 267.085 672.159 267.744 672.159C268.335 672.159 268.852 672.28 269.295 672.523C269.739 672.761 270.083 673.125 270.33 673.614C270.576 674.098 270.699 674.712 270.699 675.455V681H269.358V675.545C269.358 674.86 269.18 674.326 268.824 673.943C268.468 673.557 267.979 673.364 267.358 673.364C266.93 673.364 266.547 673.456 266.21 673.642C265.877 673.828 265.614 674.098 265.42 674.455C265.227 674.811 265.131 675.242 265.131 675.75ZM279.973 672.273L276.746 681H275.382L272.155 672.273H273.609L276.018 679.227H276.109L278.518 672.273H279.973ZM281.743 681V672.273H283.084V681H281.743ZM282.425 670.818C282.163 670.818 281.938 670.729 281.749 670.551C281.563 670.373 281.47 670.159 281.47 669.909C281.47 669.659 281.563 669.445 281.749 669.267C281.938 669.089 282.163 669 282.425 669C282.686 669 282.91 669.089 283.095 669.267C283.285 669.445 283.379 669.659 283.379 669.909C283.379 670.159 283.285 670.373 283.095 670.551C282.91 670.729 282.686 670.818 282.425 670.818ZM288.108 681.205C287.555 681.205 287.053 681.1 286.602 680.892C286.152 680.68 285.794 680.375 285.528 679.977C285.263 679.576 285.131 679.091 285.131 678.523C285.131 678.023 285.229 677.617 285.426 677.307C285.623 676.992 285.886 676.746 286.216 676.568C286.545 676.39 286.909 676.258 287.307 676.17C287.708 676.08 288.112 676.008 288.517 675.955C289.047 675.886 289.477 675.835 289.807 675.801C290.14 675.763 290.383 675.701 290.534 675.614C290.689 675.527 290.767 675.375 290.767 675.159V675.114C290.767 674.553 290.614 674.117 290.307 673.807C290.004 673.496 289.544 673.341 288.926 673.341C288.286 673.341 287.784 673.481 287.42 673.761C287.057 674.042 286.801 674.341 286.653 674.659L285.381 674.205C285.608 673.674 285.911 673.261 286.29 672.966C286.672 672.667 287.089 672.458 287.54 672.341C287.994 672.22 288.441 672.159 288.881 672.159C289.161 672.159 289.483 672.193 289.847 672.261C290.214 672.326 290.568 672.46 290.909 672.665C291.254 672.869 291.54 673.178 291.767 673.591C291.994 674.004 292.108 674.557 292.108 675.25V681H290.767V679.818H290.699C290.608 680.008 290.456 680.21 290.244 680.426C290.032 680.642 289.75 680.826 289.398 680.977C289.045 681.129 288.616 681.205 288.108 681.205ZM288.312 680C288.843 680 289.29 679.896 289.653 679.688C290.021 679.479 290.297 679.21 290.483 678.881C290.672 678.551 290.767 678.205 290.767 677.841V676.614C290.71 676.682 290.585 676.744 290.392 676.801C290.203 676.854 289.983 676.902 289.733 676.943C289.487 676.981 289.246 677.015 289.011 677.045C288.78 677.072 288.593 677.095 288.449 677.114C288.1 677.159 287.775 677.233 287.472 677.335C287.172 677.434 286.93 677.583 286.744 677.784C286.563 677.981 286.472 678.25 286.472 678.591C286.472 679.057 286.644 679.409 286.989 679.648C287.337 679.883 287.778 680 288.312 680ZM294.555 681V672.273H295.851V673.591H295.942C296.101 673.159 296.389 672.809 296.805 672.54C297.222 672.271 297.692 672.136 298.214 672.136C298.313 672.136 298.436 672.138 298.584 672.142C298.732 672.146 298.843 672.152 298.919 672.159V673.523C298.874 673.511 298.769 673.494 298.607 673.472C298.447 673.445 298.279 673.432 298.101 673.432C297.677 673.432 297.298 673.521 296.964 673.699C296.635 673.873 296.374 674.116 296.18 674.426C295.991 674.733 295.896 675.083 295.896 675.477V681H294.555ZM305.668 669.364L309.122 679.159H309.259L312.713 669.364H314.19L309.918 681H308.463L304.19 669.364H305.668ZM315.821 681V672.273H317.162V681H315.821ZM315.889 671.091L317.276 668.455H318.844L317.071 671.091H315.889ZM322.913 681.182C322.186 681.182 321.544 680.998 320.987 680.631C320.43 680.259 319.995 679.737 319.68 679.062C319.366 678.384 319.209 677.583 319.209 676.659C319.209 675.742 319.366 674.947 319.68 674.273C319.995 673.598 320.432 673.078 320.993 672.71C321.554 672.343 322.201 672.159 322.936 672.159C323.504 672.159 323.953 672.254 324.283 672.443C324.616 672.629 324.87 672.841 325.044 673.08C325.222 673.314 325.36 673.508 325.459 673.659H325.572V669.364H326.913V681H325.618V679.659H325.459C325.36 679.818 325.22 680.019 325.038 680.261C324.857 680.5 324.597 680.714 324.26 680.903C323.923 681.089 323.474 681.182 322.913 681.182ZM323.095 679.977C323.633 679.977 324.088 679.837 324.459 679.557C324.83 679.273 325.112 678.881 325.305 678.381C325.499 677.877 325.595 677.295 325.595 676.636C325.595 675.985 325.5 675.415 325.311 674.926C325.122 674.434 324.841 674.051 324.47 673.778C324.099 673.502 323.641 673.364 323.095 673.364C322.527 673.364 322.054 673.509 321.675 673.801C321.3 674.089 321.018 674.481 320.828 674.977C320.643 675.47 320.55 676.023 320.55 676.636C320.55 677.258 320.644 677.822 320.834 678.33C321.027 678.833 321.311 679.235 321.686 679.534C322.065 679.83 322.535 679.977 323.095 679.977ZM333.214 681.182C332.374 681.182 331.648 680.996 331.038 680.625C330.432 680.25 329.964 679.727 329.635 679.057C329.309 678.383 329.146 677.598 329.146 676.705C329.146 675.811 329.309 675.023 329.635 674.341C329.964 673.655 330.423 673.121 331.01 672.739C331.601 672.352 332.29 672.159 333.078 672.159C333.533 672.159 333.982 672.235 334.425 672.386C334.868 672.538 335.271 672.784 335.635 673.125C335.999 673.462 336.288 673.909 336.504 674.466C336.72 675.023 336.828 675.708 336.828 676.523V677.091H330.101V675.932H335.464C335.464 675.439 335.366 675 335.169 674.614C334.976 674.227 334.699 673.922 334.339 673.699C333.983 673.475 333.563 673.364 333.078 673.364C332.544 673.364 332.082 673.496 331.692 673.761C331.305 674.023 331.008 674.364 330.8 674.784C330.591 675.205 330.487 675.655 330.487 676.136V676.909C330.487 677.568 330.601 678.127 330.828 678.585C331.059 679.04 331.379 679.386 331.788 679.625C332.197 679.86 332.673 679.977 333.214 679.977C333.567 679.977 333.885 679.928 334.169 679.83C334.457 679.727 334.705 679.576 334.913 679.375C335.122 679.17 335.283 678.917 335.396 678.614L336.692 678.977C336.555 679.417 336.326 679.803 336.004 680.136C335.682 680.466 335.285 680.723 334.811 680.909C334.338 681.091 333.805 681.182 333.214 681.182ZM342.413 681.182C341.625 681.182 340.934 680.994 340.339 680.619C339.749 680.244 339.286 679.72 338.953 679.045C338.624 678.371 338.459 677.583 338.459 676.682C338.459 675.773 338.624 674.979 338.953 674.301C339.286 673.623 339.749 673.097 340.339 672.722C340.934 672.347 341.625 672.159 342.413 672.159C343.201 672.159 343.891 672.347 344.482 672.722C345.076 673.097 345.538 673.623 345.868 674.301C346.201 674.979 346.368 675.773 346.368 676.682C346.368 677.583 346.201 678.371 345.868 679.045C345.538 679.72 345.076 680.244 344.482 680.619C343.891 680.994 343.201 681.182 342.413 681.182ZM342.413 679.977C343.012 679.977 343.504 679.824 343.891 679.517C344.277 679.21 344.563 678.807 344.749 678.307C344.934 677.807 345.027 677.265 345.027 676.682C345.027 676.098 344.934 675.555 344.749 675.051C344.563 674.547 344.277 674.14 343.891 673.83C343.504 673.519 343.012 673.364 342.413 673.364C341.815 673.364 341.322 673.519 340.936 673.83C340.55 674.14 340.264 674.547 340.078 675.051C339.893 675.555 339.8 676.098 339.8 676.682C339.8 677.265 339.893 677.807 340.078 678.307C340.264 678.807 340.55 679.21 340.936 679.517C341.322 679.824 341.815 679.977 342.413 679.977Z" fill="white"/>
<path d="M60.4091 669.364H62.0909L66.0455 679.023H66.1818L70.1364 669.364H71.8182V681H70.5V672.159H70.3864L66.75 681H65.4773L61.8409 672.159H61.7273V681H60.4091V669.364ZM78.1207 681.182C77.2798 681.182 76.5545 680.996 75.9446 680.625C75.3385 680.25 74.8707 679.727 74.5412 679.057C74.2154 678.383 74.0526 677.598 74.0526 676.705C74.0526 675.811 74.2154 675.023 74.5412 674.341C74.8707 673.655 75.3291 673.121 75.9162 672.739C76.5071 672.352 77.1965 672.159 77.9844 672.159C78.4389 672.159 78.8878 672.235 79.331 672.386C79.7741 672.538 80.1776 672.784 80.5412 673.125C80.9048 673.462 81.1946 673.909 81.4105 674.466C81.6264 675.023 81.7344 675.708 81.7344 676.523V677.091H75.0071V675.932H80.3707C80.3707 675.439 80.2723 675 80.0753 674.614C79.8821 674.227 79.6056 673.922 79.2457 673.699C78.8897 673.475 78.4692 673.364 77.9844 673.364C77.4503 673.364 76.9882 673.496 76.598 673.761C76.2116 674.023 75.9143 674.364 75.706 674.784C75.4976 675.205 75.3935 675.655 75.3935 676.136V676.909C75.3935 677.568 75.5071 678.127 75.7344 678.585C75.9654 679.04 76.2855 679.386 76.6946 679.625C77.1037 679.86 77.5791 679.977 78.1207 679.977C78.473 679.977 78.7912 679.928 79.0753 679.83C79.3632 679.727 79.6113 679.576 79.8196 679.375C80.0279 679.17 80.1889 678.917 80.3026 678.614L81.598 678.977C81.4616 679.417 81.2325 679.803 80.9105 680.136C80.5885 680.466 80.1908 680.723 79.7173 680.909C79.2438 681.091 78.7116 681.182 78.1207 681.182ZM89.2741 677.432V672.273H90.6151V681H89.2741V679.523H89.1832C88.9787 679.966 88.6605 680.343 88.2287 680.653C87.7969 680.96 87.2514 681.114 86.5923 681.114C86.0469 681.114 85.562 680.994 85.1378 680.756C84.7135 680.513 84.3802 680.15 84.1378 679.665C83.8954 679.176 83.7741 678.561 83.7741 677.818V672.273H85.1151V677.727C85.1151 678.364 85.2931 678.871 85.6491 679.25C86.009 679.629 86.4673 679.818 87.0241 679.818C87.3575 679.818 87.6965 679.733 88.0412 679.562C88.3897 679.392 88.6813 679.131 88.9162 678.778C89.1548 678.426 89.2741 677.977 89.2741 677.432ZM99.2528 674.227L98.0483 674.568C97.9725 674.367 97.8608 674.172 97.7131 673.983C97.5691 673.79 97.3722 673.631 97.1222 673.506C96.8722 673.381 96.5521 673.318 96.1619 673.318C95.6278 673.318 95.1828 673.441 94.8267 673.688C94.4744 673.93 94.2983 674.239 94.2983 674.614C94.2983 674.947 94.4195 675.21 94.6619 675.403C94.9044 675.597 95.2831 675.758 95.7983 675.886L97.0938 676.205C97.8741 676.394 98.4555 676.684 98.8381 677.074C99.2206 677.46 99.4119 677.958 99.4119 678.568C99.4119 679.068 99.268 679.515 98.9801 679.909C98.696 680.303 98.2983 680.614 97.7869 680.841C97.2756 681.068 96.6809 681.182 96.0028 681.182C95.1127 681.182 94.3759 680.989 93.7926 680.602C93.2093 680.216 92.84 679.652 92.6847 678.909L93.9574 678.591C94.0786 679.061 94.3078 679.413 94.6449 679.648C94.9858 679.883 95.4309 680 95.9801 680C96.6051 680 97.1013 679.867 97.4688 679.602C97.84 679.333 98.0256 679.011 98.0256 678.636C98.0256 678.333 97.9195 678.08 97.7074 677.875C97.4953 677.667 97.1695 677.511 96.7301 677.409L95.2756 677.068C94.4763 676.879 93.8892 676.585 93.5142 676.188C93.143 675.786 92.9574 675.284 92.9574 674.682C92.9574 674.189 93.0956 673.754 93.3722 673.375C93.6525 672.996 94.0331 672.699 94.5142 672.483C94.9991 672.267 95.5483 672.159 96.1619 672.159C97.0256 672.159 97.7036 672.348 98.196 672.727C98.6922 673.106 99.0445 673.606 99.2528 674.227ZM106.589 669.364L110.044 679.159H110.18L113.635 669.364H115.112L110.839 681H109.385L105.112 669.364H106.589ZM116.743 681V672.273H118.084V681H116.743ZM116.811 671.091L118.197 668.455H119.766L117.993 671.091H116.811ZM123.835 681.182C123.108 681.182 122.466 680.998 121.909 680.631C121.352 680.259 120.917 679.737 120.602 679.062C120.288 678.384 120.131 677.583 120.131 676.659C120.131 675.742 120.288 674.947 120.602 674.273C120.917 673.598 121.354 673.078 121.915 672.71C122.475 672.343 123.123 672.159 123.858 672.159C124.426 672.159 124.875 672.254 125.205 672.443C125.538 672.629 125.792 672.841 125.966 673.08C126.144 673.314 126.282 673.508 126.381 673.659H126.494V669.364H127.835V681H126.54V679.659H126.381C126.282 679.818 126.142 680.019 125.96 680.261C125.778 680.5 125.519 680.714 125.182 680.903C124.845 681.089 124.396 681.182 123.835 681.182ZM124.017 679.977C124.555 679.977 125.009 679.837 125.381 679.557C125.752 679.273 126.034 678.881 126.227 678.381C126.42 677.877 126.517 677.295 126.517 676.636C126.517 675.985 126.422 675.415 126.233 674.926C126.044 674.434 125.763 674.051 125.392 673.778C125.021 673.502 124.563 673.364 124.017 673.364C123.449 673.364 122.975 673.509 122.597 673.801C122.222 674.089 121.939 674.481 121.75 674.977C121.564 675.47 121.472 676.023 121.472 676.636C121.472 677.258 121.566 677.822 121.756 678.33C121.949 678.833 122.233 679.235 122.608 679.534C122.987 679.83 123.456 679.977 124.017 679.977ZM134.136 681.182C133.295 681.182 132.57 680.996 131.96 680.625C131.354 680.25 130.886 679.727 130.557 679.057C130.231 678.383 130.068 677.598 130.068 676.705C130.068 675.811 130.231 675.023 130.557 674.341C130.886 673.655 131.345 673.121 131.932 672.739C132.523 672.352 133.212 672.159 134 672.159C134.455 672.159 134.903 672.235 135.347 672.386C135.79 672.538 136.193 672.784 136.557 673.125C136.92 673.462 137.21 673.909 137.426 674.466C137.642 675.023 137.75 675.708 137.75 676.523V677.091H131.023V675.932H136.386C136.386 675.439 136.288 675 136.091 674.614C135.898 674.227 135.621 673.922 135.261 673.699C134.905 673.475 134.485 673.364 134 673.364C133.466 673.364 133.004 673.496 132.614 673.761C132.227 674.023 131.93 674.364 131.722 674.784C131.513 675.205 131.409 675.655 131.409 676.136V676.909C131.409 677.568 131.523 678.127 131.75 678.585C131.981 679.04 132.301 679.386 132.71 679.625C133.119 679.86 133.595 679.977 134.136 679.977C134.489 679.977 134.807 679.928 135.091 679.83C135.379 679.727 135.627 679.576 135.835 679.375C136.044 679.17 136.205 678.917 136.318 678.614L137.614 678.977C137.477 679.417 137.248 679.803 136.926 680.136C136.604 680.466 136.206 680.723 135.733 680.909C135.259 681.091 134.727 681.182 134.136 681.182ZM143.335 681.182C142.547 681.182 141.856 680.994 141.261 680.619C140.67 680.244 140.208 679.72 139.875 679.045C139.545 678.371 139.381 677.583 139.381 676.682C139.381 675.773 139.545 674.979 139.875 674.301C140.208 673.623 140.67 673.097 141.261 672.722C141.856 672.347 142.547 672.159 143.335 672.159C144.123 672.159 144.813 672.347 145.403 672.722C145.998 673.097 146.46 673.623 146.79 674.301C147.123 674.979 147.29 675.773 147.29 676.682C147.29 677.583 147.123 678.371 146.79 679.045C146.46 679.72 145.998 680.244 145.403 680.619C144.813 680.994 144.123 681.182 143.335 681.182ZM143.335 679.977C143.934 679.977 144.426 679.824 144.812 679.517C145.199 679.21 145.485 678.807 145.67 678.307C145.856 677.807 145.949 677.265 145.949 676.682C145.949 676.098 145.856 675.555 145.67 675.051C145.485 674.547 145.199 674.14 144.812 673.83C144.426 673.519 143.934 673.364 143.335 673.364C142.737 673.364 142.244 673.519 141.858 673.83C141.472 674.14 141.186 674.547 141 675.051C140.814 675.555 140.722 676.098 140.722 676.682C140.722 677.265 140.814 677.807 141 678.307C141.186 678.807 141.472 679.21 141.858 679.517C142.244 679.824 142.737 679.977 143.335 679.977ZM155.518 674.227L154.314 674.568C154.238 674.367 154.126 674.172 153.979 673.983C153.835 673.79 153.638 673.631 153.388 673.506C153.138 673.381 152.818 673.318 152.428 673.318C151.893 673.318 151.448 673.441 151.092 673.688C150.74 673.93 150.564 674.239 150.564 674.614C150.564 674.947 150.685 675.21 150.928 675.403C151.17 675.597 151.549 675.758 152.064 675.886L153.359 676.205C154.14 676.394 154.721 676.684 155.104 677.074C155.486 677.46 155.678 677.958 155.678 678.568C155.678 679.068 155.534 679.515 155.246 679.909C154.962 680.303 154.564 680.614 154.053 680.841C153.541 681.068 152.946 681.182 152.268 681.182C151.378 681.182 150.642 680.989 150.058 680.602C149.475 680.216 149.106 679.652 148.95 678.909L150.223 678.591C150.344 679.061 150.573 679.413 150.911 679.648C151.251 679.883 151.696 680 152.246 680C152.871 680 153.367 679.867 153.734 679.602C154.106 679.333 154.291 679.011 154.291 678.636C154.291 678.333 154.185 678.08 153.973 677.875C153.761 677.667 153.435 677.511 152.996 677.409L151.541 677.068C150.742 676.879 150.155 676.585 149.78 676.188C149.409 675.786 149.223 675.284 149.223 674.682C149.223 674.189 149.361 673.754 149.638 673.375C149.918 672.996 150.299 672.699 150.78 672.483C151.265 672.267 151.814 672.159 152.428 672.159C153.291 672.159 153.969 672.348 154.462 672.727C154.958 673.106 155.31 673.606 155.518 674.227Z" fill="white"/>
</svg>
